<?xml version="1.0" encoding="UTF-8" standalone="no"?>
<!-- Created with Inkscape (http://www.inkscape.org/) -->

<svg
   xmlns:dc="http://purl.org/dc/elements/1.1/"
   xmlns:cc="http://creativecommons.org/ns#"
   xmlns:rdf="http://www.w3.org/1999/02/22-rdf-syntax-ns#"
   xmlns:svg="http://www.w3.org/2000/svg"
   xmlns="http://www.w3.org/2000/svg"
   xmlns:sodipodi="http://sodipodi.sourceforge.net/DTD/sodipodi-0.dtd"
   xmlns:inkscape="http://www.inkscape.org/namespaces/inkscape"
   width="210mm"
   height="297mm"
   viewBox="0 0 210 297"
   version="1.1"
   id="svg8"
   inkscape:version="0.91 r13725"
   sodipodi:docname="Ar atmosférico.svg">
  <defs
     id="defs2">
    <inkscape:perspective
       sodipodi:type="inkscape:persp3d"
       inkscape:vp_x="0 : 148.5 : 1"
       inkscape:vp_y="0 : 1000 : 0"
       inkscape:vp_z="210 : 148.5 : 1"
       inkscape:persp3d-origin="105 : 99 : 1"
       id="perspective817" />
  </defs>
  <sodipodi:namedview
     id="base"
     pagecolor="#ffffff"
     bordercolor="#666666"
     borderopacity="1.0"
     inkscape:pageopacity="0.0"
     inkscape:pageshadow="2"
     inkscape:zoom="0.98994949"
     inkscape:cx="192.32078"
     inkscape:cy="329.9227"
     inkscape:document-units="mm"
     inkscape:current-layer="g3355"
     showgrid="false"
     inkscape:window-width="1366"
     inkscape:window-height="719"
     inkscape:window-x="0"
     inkscape:window-y="25"
     inkscape:window-maximized="1" />
  <metadata
     id="metadata5">
    <rdf:RDF>
      <cc:Work
         rdf:about="">
        <dc:format>image/svg+xml</dc:format>
        <dc:type
           rdf:resource="http://purl.org/dc/dcmitype/StillImage" />
        <dc:title />
      </cc:Work>
    </rdf:RDF>
  </metadata>
  <g
     inkscape:label="Layer 1"
     inkscape:groupmode="layer"
     id="layer1">
    <path
       style="fill:#00002b;fill-opacity:1;stroke:none;stroke-width:0.90200001;stroke-miterlimit:4;stroke-dasharray:none;stroke-opacity:1"
       id="path832"
       d="m 30.60334,195.04277 c 1.132023,0.0464 2.253025,0.2291 3.377232,0.36119 0.918533,0.0766 1.819238,0.2783 2.734254,0.38443 0.556332,0.0581 1.11609,0.0622 1.674823,0.0649 0.343117,5.3e-4 0.686224,5.3e-4 1.029317,-0.004 0,0 -2.549962,1.85358 -2.549962,1.85358 v 0 c -0.341815,-0.003 -0.683638,-5.3e-4 -1.025453,-0.004 -0.5626,-0.008 -1.126249,-0.0247 -1.683996,-0.10565 -0.891776,-0.13434 -1.772039,-0.34162 -2.671503,-0.42397 -1.142014,-0.14041 -2.288747,-0.32078 -3.442994,-0.26824 0,0 2.558282,-1.8587 2.558282,-1.8587 z"
       inkscape:connector-curvature="0" />
    <path
       style="fill:#38ffff;fill-opacity:1;stroke:none;stroke-width:0.90200001;stroke-miterlimit:4;stroke-dasharray:none;stroke-opacity:1"
       id="path862"
       d="m 104.32805,223.98274 c 0.10826,1.01185 0.34991,2.00383 0.52046,3.00676 0.1008,0.66631 0.0554,0.34192 0.13723,0.97302 0,0 -2.745,1.43785 -2.745,1.43785 v 0 c -0.061,-0.63039 -0.0255,-0.3064 -0.10797,-0.97181 -0.15267,-0.995 -0.38899,-1.96841 -0.59935,-2.95169 0,0 2.79463,-1.49413 2.79463,-1.49413 z"
       inkscape:connector-curvature="0" />
    <g
       id="g3355"
       style="fill:#00002b;fill-opacity:1">
      <path
         inkscape:connector-curvature="0"
         d="m 24.056545,202.32972 c 0.8001,-0.84399 1.533842,-1.75045 2.244788,-2.67005 0.937513,-1.21766 1.840308,-2.4608 2.767985,-3.68595 1.010931,-1.2887 1.982732,-2.60698 2.975763,-3.90938 1.05246,-1.3623 2.020097,-2.78603 2.912973,-4.25713 0.555453,-0.94811 1.008822,-1.94809 1.473991,-2.9417 0.362188,-0.82464 0.611696,-1.68923 1.02021,-2.49319 0.303315,-0.58678 0.661675,-1.14357 0.943231,-1.74144 0.677101,-1.81179 0.190413,-0.90377 3.285607,-2.23105 0.155313,1.42011 -0.137843,2.85494 -0.369689,4.25173 -0.498073,2.52007 -0.969984,5.0439 -1.428642,7.57136 -0.541766,2.78877 -0.735335,5.62213 -0.851826,8.45499 -0.0811,2.76741 -0.06984,5.53654 -0.0702,8.30486 -0.0019,2.276 0.02619,4.55191 0.05931,6.82763 0.0556,0.92904 0.04522,2.02689 0.803246,2.68574 0,0 -2.671238,1.64202 -2.671238,1.64202 v 0 c -0.752832,-0.8015 -0.800129,-1.91339 -0.805384,-2.96526 0.02829,-2.29312 0.04884,-4.58643 0.0425,-6.87974 -0.0021,-2.77428 -0.0016,-5.54894 0.07985,-8.32232 0.102788,-2.84453 0.291364,-5.68905 0.831368,-8.48955 0.447942,-2.50863 0.871874,-5.02131 1.347028,-7.52515 0.203235,-1.32191 0.44549,-2.67528 0.26479,-4.01397 4.079018,-2.26048 2.832605,-2.26416 2.335697,-0.61856 -0.257345,0.62356 -0.63435,1.18296 -0.955191,1.77447 -0.451342,0.78562 -0.713666,1.64448 -1.043734,2.48493 -0.479827,1.01347 -0.948145,2.03198 -1.520526,2.99831 -0.903885,1.48319 -1.880891,2.91979 -2.93533,4.30063 -0.979762,1.29732 -1.929815,2.61674 -2.937433,3.89277 -0.929862,1.22447 -1.843802,2.4598 -2.769359,3.68747 -0.679776,0.90333 -1.396204,1.77693 -2.105898,2.65642 0,0 -2.92388,1.21111 -2.92388,1.21111 z"
         id="path830"
         style="fill:#00002b;fill-opacity:1;stroke:none;stroke-width:0.90200001;stroke-miterlimit:4;stroke-dasharray:none;stroke-opacity:1" />
      <path
         inkscape:connector-curvature="0"
         d="m 48.451555,195.14519 c -0.06973,1.24435 0.03783,2.49069 0.08406,3.73446 0.06207,1.66925 0.08669,3.33953 0.123502,5.00944 0.0034,0.20794 0.0066,0.41588 0.01006,0.62382 0.004,0.24079 -0.0566,1.15831 0.107211,1.3786 0.01926,0.0259 -0.0066,-0.0643 -0.0099,-0.0964 -0.912174,0.47739 -1.794552,1.01666 -2.736524,1.43218 -0.08459,0.0373 0.06051,-0.17478 0.08691,-0.26339 0.0412,-0.1383 0.07744,-0.27804 0.11581,-0.41716 0.187892,-0.68122 0.370041,-1.36399 0.554136,-2.04623 0.379592,-1.70066 0.852011,-3.37814 1.466638,-5.00875 0.327734,-0.91408 0.691444,-1.80165 1.419828,-2.46323 2.459067,-1.70538 2.754681,-1.6608 4.949042,-2.246 0.596932,-0.15296 1.205548,-0.29551 1.797987,-0.069 0,0 -2.607421,1.78037 -2.607421,1.78037 v 0 c -0.561859,-0.1121 -1.116992,0.0477 -1.661822,0.1844 -0.3933,0.10471 -0.790585,0.19909 -1.181756,0.31139 -1.085977,0.31177 -2.684142,1.29741 1.600007,-1.12317 -0.859899,0.60111 -1.18023,1.39834 -1.564246,2.35136 -0.664583,1.60565 -1.164153,3.27375 -1.493798,4.981 -0.200771,0.79669 -0.408588,1.59691 -0.561824,2.40465 -0.01725,0.0909 0.03473,0.22246 -0.04183,0.27444 -0.902239,0.61246 -1.877205,1.11027 -2.815806,1.66541 -0.380066,-0.55372 -0.05044,-1.63024 -0.144632,-2.26987 0.01101,-1.67287 -0.0042,-3.34629 -0.08196,-5.01765 -0.06788,-1.22503 -0.181893,-2.44638 -0.237926,-3.67163 0,0 2.824236,-1.43902 2.824236,-1.43902 z"
         id="path834"
         style="fill:#00002b;fill-opacity:1;stroke:none;stroke-width:0.90200001;stroke-miterlimit:4;stroke-dasharray:none;stroke-opacity:1" />
      <path
         inkscape:connector-curvature="0"
         d="m 20.893917,213.40699 c -0.616541,2.14135 -1.124965,4.31067 -1.646309,6.47658 -0.834071,3.62803 -1.659396,7.25533 -2.325987,10.91848 -0.282071,1.56213 -0.560207,3.1246 -1.003262,4.65021 -0.300025,0.83439 -0.518393,1.69478 -0.689238,2.56403 -0.123209,0.55591 -0.0614,0.28446 -0.185006,0.81441 0,0 -2.80676,1.34699 -2.80676,1.34699 v 0 c 0.13323,-0.52912 0.0654,-0.26007 0.203492,-0.80714 0.166997,-0.87792 0.351284,-1.76044 0.674858,-2.59579 0.519447,-1.5483 0.906476,-3.13181 1.244371,-4.72951 0.769047,-3.65181 1.615104,-7.28664 2.358252,-10.94351 0.451006,-2.10049 0.890227,-4.2033 1.345165,-6.3028 0,0 2.830424,-1.39195 2.830424,-1.39195 z"
         id="path836"
         style="fill:#00002b;fill-opacity:1;stroke:none;stroke-width:0.90200001;stroke-miterlimit:4;stroke-dasharray:none;stroke-opacity:1" />
      <path
         inkscape:connector-curvature="0"
         d="m 21.721259,213.62046 c -0.06566,1.45445 -0.07213,2.91139 -0.08419,4.36714 -0.01482,2.11708 -0.0055,4.2342 -0.0047,6.35129 0.0051,2.27822 -0.01106,4.55637 -0.02695,6.83451 -0.02287,2.9728 -0.03123,5.9456 -0.01775,8.91847 0.01467,2.28903 0.0017,4.57725 0.130326,6.86318 0.117526,1.26556 0.310775,2.52188 0.438384,3.78638 0,0 -2.75008,1.43006 -2.75008,1.43006 v 0 c -0.08394,-1.28486 -0.244415,-2.56231 -0.34704,-3.84564 -0.09224,-2.31107 -0.03305,-4.62224 -0.02187,-6.93455 0.01339,-2.96683 0.0053,-5.9336 -0.01775,-8.90038 -0.01594,-2.26898 -0.03208,-4.53798 -0.02695,-6.80704 7.15e-4,-2.11549 0.0101,-4.23099 -0.0047,-6.34646 -0.01193,-1.42714 -0.01754,-2.85559 -0.08419,-4.28135 0,0 2.81755,-1.43561 2.81755,-1.43561 z"
         id="path838"
         style="fill:#00002b;fill-opacity:1;stroke:none;stroke-width:0.90200001;stroke-miterlimit:4;stroke-dasharray:none;stroke-opacity:1" />
      <path
         inkscape:connector-curvature="0"
         d="m 17.158369,233.99681 c 1.335015,-0.25624 2.680027,-0.47786 4.014948,-0.74489 1.515321,-0.32178 3.016411,-0.70235 4.509693,-1.11301 0,0 -2.409824,1.84831 -2.409824,1.84831 v 0 c -1.4813,0.37922 -2.968834,0.73411 -4.463812,1.05554 -1.392569,0.28614 -2.799827,0.5189 -4.174178,0.88342 0,0 2.523173,-1.92937 2.523173,-1.92937 z"
         id="path840"
         style="fill:#00002b;fill-opacity:1;stroke:none;stroke-width:0.90200001;stroke-miterlimit:4;stroke-dasharray:none;stroke-opacity:1" />
      <path
         inkscape:connector-curvature="0"
         d="m 33.198813,217.08946 c -0.264295,1.42297 -0.373219,2.8713 -0.470228,4.31387 -0.125325,2.15966 -0.124301,4.32321 -0.129358,6.48557 0.0049,1.46286 0.02447,2.92561 0.03529,4.38843 0.0084,0.88466 0.01897,1.76929 0.02852,2.65394 0.003,0.40921 -0.113255,0.80187 -0.189267,1.1998 -0.0063,0.0486 -0.01257,0.0972 -0.01887,0.14579 0,0 -2.843136,1.40551 -2.843136,1.40551 v 0 c 0.006,-0.052 0.01193,-0.1039 0.01789,-0.15585 0.04679,-0.40057 0.193924,-0.77629 0.248042,-1.17592 0.0089,-0.89364 0.01828,-1.78727 0.02479,-2.68093 0.0082,-1.47693 0.02445,-2.95377 0.04287,-4.4306 0.02127,-2.16941 0.06286,-4.33898 0.139798,-6.50714 0.06104,-1.42197 0.161377,-2.84042 0.262215,-4.2598 0,0 2.85142,-1.38267 2.85142,-1.38267 z"
         id="path842"
         style="fill:#00002b;fill-opacity:1;stroke:none;stroke-width:0.90200001;stroke-miterlimit:4;stroke-dasharray:none;stroke-opacity:1" />
      <path
         inkscape:connector-curvature="0"
         d="m 29.219125,225.71968 c 1.263915,-0.26743 2.550454,-0.41259 3.83708,-0.52023 2.000999,-0.13702 4.007668,-0.14562 6.012344,-0.16988 0.284372,-0.004 0.568743,-0.008 0.853115,-0.0115 0,0 -2.434064,1.77015 -2.434064,1.77015 v 0 c -0.276772,-0.001 -0.553548,-0.003 -0.830323,-0.004 -2.003862,0.007 -4.010295,0.0298 -6.008251,0.19837 -1.330595,0.1362 -2.659401,0.31301 -3.956389,0.64988 0,0 2.526488,-1.91292 2.526488,-1.91292 z"
         id="path844"
         style="fill:#00002b;fill-opacity:1;stroke:none;stroke-width:0.90200001;stroke-miterlimit:4;stroke-dasharray:none;stroke-opacity:1" />
      <path
         inkscape:connector-curvature="0"
         d="m 42.832207,228.62122 c -0.07453,1.5241 -0.07207,3.05094 -0.07361,4.5765 0.0026,0.28311 0.0044,0.56623 0.0078,0.84933 0.0063,0.52583 0.0091,0.79856 0.02951,1.30196 0.0042,0.10265 0.05896,0.80629 0.03086,0.50341 -0.91167,0.44232 -1.791121,0.95836 -2.735004,1.32697 -0.108246,0.0423 0.102389,-0.20882 0.146823,-0.3162 0.06406,-0.1548 0.120886,-0.31252 0.178464,-0.46984 0.230103,-0.62872 0.447511,-1.26241 0.672944,-1.89283 0.415933,-1.19047 0.940676,-2.33855 1.323943,-3.54041 0.67182,-2.15885 0.764842,-1.57559 3.503467,-3.181 0.572506,0.13661 0.706808,0.71907 0.825937,1.21797 0.280048,1.21261 0.500078,2.4379 0.733832,3.66015 0.155001,0.92819 0.341681,1.85692 0.654804,2.74565 0.183663,0.35373 0.37751,0.63506 0.708412,0.25741 -0.865905,0.49308 -1.701538,1.04359 -2.597714,1.47924 -0.08934,0.0434 0.0869,-0.17932 0.117819,-0.27371 0.04387,-0.13394 0.07351,-0.27219 0.105918,-0.40935 0.135395,-0.57305 0.259932,-1.14956 0.38758,-1.72441 0.209315,-0.96732 0.513578,-1.91007 0.740815,-2.87264 0.173297,-0.56007 0.275476,-1.13953 0.453882,-1.69758 0.136345,-0.49578 0.381527,-0.95028 0.600885,-1.41271 0.658672,-1.30657 0.870545,-1.05676 3.158823,-2.05333 0.05401,-0.0235 0.276455,0.28519 0.409305,0.45839 0.619078,1.07382 1.139928,2.20207 1.601766,3.35125 0.472803,1.08904 0.717106,2.25096 1.00516,3.39676 0.139867,0.58969 0.200901,1.21094 0.540777,1.72832 0.02119,0.009 0.05632,0.0482 0.06358,0.0264 0.01572,-0.0471 0.02096,-0.16977 -0.02328,-0.14719 -0.91023,0.46462 -1.775571,1.01237 -2.663356,1.51856 0,0 2.879849,-1.34127 2.879849,-1.34127 v 0 c -1.425252,0.91182 -2.144236,2.60046 -2.994591,1.52491 -0.30072,-0.57802 -0.441759,-1.19618 -0.532839,-1.83848 -0.25028,-1.14443 -0.462928,-2.30362 -0.92954,-3.38603 -0.443542,-1.11823 -0.958733,-2.21698 -1.637273,-3.21419 -0.05853,-0.06 -0.107527,-0.13104 -0.175599,-0.17992 -0.03052,-0.0219 -0.141779,-0.005 -0.109897,-0.0251 4.898681,-3.05499 2.78625,-2.11219 2.279076,-1.10922 -0.254262,0.4238 -0.459648,0.89779 -0.620059,1.3637 -0.194871,0.55481 -0.31056,1.12728 -0.496059,1.68664 -0.234548,0.97207 -0.573255,1.91504 -0.793936,2.89117 -0.120271,0.56698 -0.253216,1.13004 -0.348601,1.7019 -0.0173,0.10365 -0.102161,0.71367 -0.135041,0.7382 -0.882991,0.65872 -1.84553,1.20347 -2.768296,1.80521 -0.476652,0.0578 -0.807056,-0.32103 -0.974262,-0.73014 -0.290322,-0.9197 -0.438518,-1.8761 -0.593304,-2.82649 -0.225571,-1.2084 -0.457822,-2.41949 -0.794234,-3.60247 -0.063,-0.21525 -0.173107,-0.95918 -0.549352,-0.72886 0.842539,-0.50204 1.681633,-1.0099 2.527618,-1.5061 0.09791,-0.0574 -0.165071,0.035 -0.352724,0.33966 -0.199438,0.32376 -0.2535,0.70831 -0.409491,1.05085 -0.398581,1.21281 -0.950002,2.36562 -1.370573,3.57073 -0.214784,0.62151 -0.430025,1.24162 -0.626489,1.8692 -0.04822,0.15403 -0.09695,0.30791 -0.14352,0.46244 -0.03302,0.10956 2.64e-4,0.26697 -0.09525,0.3298 -0.923623,0.60677 -1.924801,1.08634 -2.887202,1.62951 -0.116136,-0.23927 -0.04341,-0.49443 -0.03308,-0.75975 0.0284,-0.72943 0.03077,-1.45944 0.0373,-2.1893 -0.0016,-1.50053 0.0021,-3.00249 -0.07361,-4.50148 0,0 2.810862,-1.4322 2.810862,-1.4322 z"
         id="path846"
         style="fill:#00002b;fill-opacity:1;stroke:none;stroke-width:0.90200001;stroke-miterlimit:4;stroke-dasharray:none;stroke-opacity:1" />
      <path
         inkscape:connector-curvature="0"
         d="m 56.219536,228.79359 c 0.204981,1.01377 0.572397,1.98747 0.944444,2.94967 0.416179,1.01348 0.78328,2.04957 1.32253,3.00652 0.292404,0.54035 0.722344,0.79584 1.307963,0.89842 0.317254,0.006 0.680069,0.11751 0.987388,-0.009 0.123356,-0.0509 0.22452,-0.14442 0.338754,-0.21343 -4.656101,2.70674 -2.659433,1.77299 -1.873417,0.81318 0.278376,-0.46675 0.397949,-1.00371 0.546097,-1.52107 0.182518,-0.66209 0.236043,-1.34624 0.271473,-2.02891 0.02545,-0.76488 0.02543,-1.53031 0.02069,-2.29551 0.0085,-0.61845 0.03471,-1.21687 -0.208804,-1.7942 -0.293069,-0.5718 -0.697582,-1.06837 -1.07424,-1.58413 -0.320011,-0.43111 -0.643353,-0.88028 -1.139346,-1.11273 -0.459044,-0.15151 -0.94895,-0.14542 -1.426986,-0.15077 -0.365233,0.0356 -0.796358,0.11163 -1.127617,0.28234 0.856676,-0.48367 1.71086,-0.97179 2.570031,-1.45101 0.04336,-0.0242 -0.08347,0.0541 -0.121934,0.0855 -0.177575,0.14497 -0.218895,0.33593 -0.25714,0.55184 -0.09796,0.35515 -0.189606,0.70959 -0.269322,1.07024 -0.153154,0.4187 -0.226931,0.85314 -0.268619,1.29503 -0.03758,0.52081 -0.03692,1.04338 -0.03825,1.56525 -1.43e-4,0.5353 0.0011,1.0706 0.0019,1.6059 0.01056,0.42836 -0.02429,0.8585 0.02598,1.2846 0,0 -2.788396,1.46857 -2.788396,1.46857 v 0 c -0.06636,-0.43892 -0.03096,-0.88231 -0.03913,-1.32533 -5.3e-4,-0.53551 -0.0016,-1.07103 -0.0021,-1.60654 7.7e-5,-0.52835 -0.0019,-1.05704 0.02334,-1.58494 0.02907,-0.45617 0.06784,-0.91688 0.229402,-1.34877 0.12737,-0.33274 0.09633,-0.71194 0.284482,-1.02772 0.196393,-1.67829 1.115984,-1.36834 3.140988,-2.53134 0.391065,-0.0965 0.776833,-0.22313 1.185654,-0.17707 0.516538,0.0169 1.044826,0.0368 1.517089,0.2713 0.500171,0.30705 0.853392,0.771 1.194165,1.24219 0.388236,0.53575 0.808373,1.04894 1.113615,1.64054 0.276712,0.62027 0.293915,1.24179 0.255119,1.91452 -0.003,0.7689 0.0039,1.53795 -0.01416,2.3067 -0.02027,0.70148 -0.06444,1.40365 -0.235204,2.0874 -0.132291,0.53969 -0.271425,1.07875 -0.474152,1.59592 -0.622525,1.22198 -2.776595,1.84482 -3.487258,2.43495 -0.463167,0.19641 -0.963316,0.13053 -1.447075,0.0376 -0.638157,-0.18247 -1.109044,-0.54176 -1.420466,-1.1418 -0.505413,-0.99006 -0.866481,-2.04131 -1.290624,-3.06689 -0.383263,-0.97103 -0.750171,-1.94892 -1.071243,-2.94251 0,0 2.794627,-1.49414 2.794627,-1.49414 z"
         id="path848"
         style="fill:#00002b;fill-opacity:1;stroke:none;stroke-width:0.90200001;stroke-miterlimit:4;stroke-dasharray:none;stroke-opacity:1" />
      <path
         inkscape:connector-curvature="0"
         d="m 66.700219,226.44731 c -0.646932,-0.32445 -1.331526,-0.29002 -2.012444,-0.11454 -1.420178,0.76108 1.273836,-0.75773 1.936599,-1.08778 0.138647,-0.069 -0.24365,0.19331 -0.348655,0.30717 -0.347408,0.3767 -0.527672,0.82022 -0.706318,1.29015 -0.275604,0.94234 -0.292018,1.60414 0.322111,2.39272 0.608918,0.55544 1.342848,0.95266 2.048243,1.37118 0.603308,0.31529 1.116478,0.73816 1.642716,1.16099 0.446064,0.37857 0.766702,0.82524 0.887971,1.39962 0.02819,0.56701 -0.394513,0.98767 -0.859846,1.25473 -1.003906,0.57614 -2.019519,1.13164 -3.029281,1.69746 -0.660653,0.25317 -1.330078,0.32611 -2.025642,0.23964 -0.09632,-0.0134 -0.19264,-0.0267 -0.288959,-0.0401 0,0 2.563389,-1.81299 2.563389,-1.81299 v 0 c 0.09386,0.011 0.187714,0.022 0.281572,0.033 0.659781,0.0429 1.302576,-0.0882 1.907577,-0.35826 -0.771786,0.45521 -1.547201,0.90432 -2.315358,1.36562 -0.107929,0.0648 0.227746,-0.10872 0.334225,-0.17589 0.187864,-0.11852 0.485103,-0.34359 0.600427,-0.54543 0.03139,-0.0549 0.03317,-0.12213 0.04975,-0.18319 -0.05104,-0.51334 -0.391075,-0.87837 -0.765439,-1.20865 -0.50369,-0.42382 -1.021776,-0.81185 -1.599295,-1.13352 -0.730729,-0.44192 -1.493354,-0.86911 -2.101501,-1.47529 -0.672611,-0.8809 -0.719783,-1.60627 -0.450326,-2.67278 0.69297,-2.15398 1.968338,-2.85782 4.3937,-3.69644 0.748805,-0.11736 1.489368,-0.0806 2.186038,0.24818 0,0 -2.651258,1.74443 -2.651258,1.74443 z"
         id="path850"
         style="fill:#00002b;fill-opacity:1;stroke:none;stroke-width:0.90200001;stroke-miterlimit:4;stroke-dasharray:none;stroke-opacity:1" />
      <path
         inkscape:connector-curvature="0"
         d="m 80.639625,221.12057 c 0.02111,-0.74197 0.04358,-1.48469 0.0055,-2.22621 -0.08238,-0.95873 -0.371792,-1.61994 -1.184063,-2.14824 -0.669245,-0.29818 -1.412716,-0.39148 -2.137744,-0.31838 0.314733,-0.40764 -1.566341,0.7541 -1.07007,0.47912 0.758852,-0.42049 1.495616,-0.88242 2.271699,-1.27017 0.146651,-0.0733 -0.256458,0.20533 -0.372401,0.32122 -0.127733,0.12768 -0.237889,0.27181 -0.356835,0.40771 -0.865045,1.15435 -1.345237,2.5307 -1.710317,3.91108 -0.35986,1.36422 -0.542743,2.76262 -0.631494,4.16795 -0.05508,0.95554 -0.04596,1.91288 -0.04461,2.8695 0.0049,0.81097 0.01013,1.62196 0.0094,2.43296 0.0027,0.68249 0.0093,1.36496 0.01278,2.04745 0.01185,0.28902 -0.08163,0.54365 -0.207787,0.79605 0,0 -2.944149,1.20271 -2.944149,1.20271 v 0 c 0.244139,-0.0782 0.326644,-0.33764 0.35627,-0.57425 0.0034,-0.68622 0.0095,-1.37242 0.01024,-2.05864 -0.0034,-0.81203 -0.0035,-1.62408 -0.0037,-2.43612 -5.29e-4,-0.96869 0.0071,-1.93812 0.06584,-2.90531 0.114083,-1.42767 0.297196,-2.84874 0.653577,-4.23896 0.342013,-1.39902 0.800335,-2.79641 1.602107,-4.00571 1.025457,-1.38281 1.787062,-1.48452 3.707945,-2.61473 0.360863,-0.21232 0.749885,-0.351 1.168739,-0.38069 0.780187,-0.004 1.559949,0.0996 2.247937,0.49386 0.838089,0.6292 1.190059,1.35475 1.305809,2.39728 0.06164,0.73602 0.04128,1.47372 0.06948,2.2115 0,0 -2.824237,1.43902 -2.824237,1.43902 z"
         id="path852"
         style="fill:#00002b;fill-opacity:1;stroke:none;stroke-width:0.90200001;stroke-miterlimit:4;stroke-dasharray:none;stroke-opacity:1" />
      <path
         inkscape:connector-curvature="0"
         d="m 72.001181,227.91471 c 1.289235,-0.0456 2.54876,-0.31481 3.811669,-0.55417 1.246513,-0.20629 2.475987,-0.49947 3.727082,-0.67878 0.127897,-0.0143 0.255792,-0.0287 0.383688,-0.043 0,0 -2.502011,1.86133 -2.502011,1.86133 v 0 c -0.122721,0.0141 -0.24544,0.0282 -0.368159,0.0422 -1.222169,0.17125 -2.428968,0.42971 -3.645419,0.63573 -1.315347,0.25327 -2.631919,0.51037 -3.971203,0.59974 0,0 2.564353,-1.86311 2.564353,-1.86311 z"
         id="path854"
         style="fill:#00002b;fill-opacity:1;stroke:none;stroke-width:0.90200001;stroke-miterlimit:4;stroke-dasharray:none;stroke-opacity:1" />
      <path
         inkscape:connector-curvature="0"
         d="m 82.703444,227.77072 c 0.826209,0.47637 1.778709,0.64124 2.708463,0.78424 0.731911,0.0516 1.520066,0.25044 2.248032,0.0401 0.1309,-0.0378 0.2472,-0.1147 0.3708,-0.17205 -0.794882,0.44299 -1.589762,0.88597 -2.384644,1.32896 0.519591,-0.43588 0.617876,-1.09931 0.610962,-1.74221 -0.14828,-0.71204 -0.806539,-1.07717 -1.41384,-1.36942 -0.721217,-0.28654 -1.468192,-0.45994 -2.236229,-0.55603 -0.384765,-0.0397 -0.769388,-0.10198 -1.125506,0.0878 -0.07556,0.0402 -0.290105,0.18173 -0.215432,0.13985 0.821365,-0.46067 1.637287,-0.93098 2.455931,-1.39647 -0.521128,0.36513 -0.751157,0.96633 -0.98353,1.53396 -0.260636,0.70218 -0.316166,1.45064 -0.350523,2.19192 -0.01976,0.61257 -0.08906,1.22159 0.209177,1.7758 0.555596,0.7352 1.407271,1.06083 2.222019,1.42044 1.042278,0.49108 2.168189,0.70934 3.304146,0.83943 0.389913,0.018 0.78687,0.10139 1.176147,0.0214 0.09616,-0.0198 0.191394,-0.0502 0.278881,-0.0947 0.07589,-0.0386 0.28004,-0.19297 0.205436,-0.1519 -0.845151,0.4653 -1.67926,0.95038 -2.518889,1.42557 0.335584,-0.35454 0.331099,-0.86019 0.347816,-1.3198 0,0 2.805845,-1.42084 2.805845,-1.42084 v 0 c -0.0072,0.52073 -0.0037,1.06103 -0.238535,1.53903 -2.368703,1.45095 -2.420784,2.08185 -4.581416,1.78514 -1.148403,-0.17322 -2.280881,-0.43312 -3.34259,-0.91883 -0.881444,-0.3869 -1.781453,-0.7667 -2.374707,-1.56421 -0.357987,-0.63787 -0.32344,-1.22009 -0.280027,-1.93282 0.03522,-0.76611 0.07169,-1.54232 0.305557,-2.27878 0.207367,-0.60316 0.446884,-1.23417 0.891503,-1.7036 2.210223,-1.29649 2.406221,-2.043 4.362002,-1.77791 0.785006,0.12912 1.55615,0.32518 2.287866,0.64375 0.702894,0.37397 1.385551,0.83127 1.588275,1.65105 0.04738,0.71715 -0.05001,1.43747 -0.481192,2.03453 -0.992318,0.57426 -1.96845,1.17745 -2.976952,1.72279 -0.658341,0.35599 -1.960504,0.0138 -2.666024,-0.0254 -0.980379,-0.16104 -1.959948,-0.35732 -2.860079,-0.79633 0,0 2.651257,-1.74443 2.651257,-1.74443 z"
         id="path856"
         style="fill:#00002b;fill-opacity:1;stroke:none;stroke-width:0.90200001;stroke-miterlimit:4;stroke-dasharray:none;stroke-opacity:1" />
      <path
         inkscape:connector-curvature="0"
         d="m 83.850204,223.75959 c 0.02619,-1.00467 0.233521,-1.99304 0.449286,-2.97103 0.114554,-0.65917 0.325284,-1.29024 0.61436,-1.89168 0.595887,-1.20649 -3.313581,1.19159 2.96032,-1.36658 0,0 -2.83496,1.43759 -2.83496,1.43759 v 0 c 0.969359,-0.47585 1.938721,-0.9517 2.90808,-1.42756 -0.09586,-0.0386 -0.04092,-0.0359 -0.152755,0.0625 -0.337597,0.57371 -0.587819,1.19186 -0.714515,1.84779 -0.227526,0.93871 -0.464614,1.90062 -0.412266,2.8734 0,0 -2.81755,1.43561 -2.81755,1.43561 z"
         id="path858"
         style="fill:#00002b;fill-opacity:1;stroke:none;stroke-width:0.90200001;stroke-miterlimit:4;stroke-dasharray:none;stroke-opacity:1" />
      <path
         inkscape:connector-curvature="0"
         d="m 92.047284,225.51629 c 0.216167,0.93489 0.604618,1.80538 0.995862,2.67604 0.419981,0.86843 0.868045,1.72364 1.323147,2.574 0.684721,1.00209 1.958962,-0.78079 -2.626497,1.56163 -0.02413,0.0123 0.06439,0.0176 0.08116,-0.004 0.05285,-0.067 0.03578,-0.35683 0.03599,-0.39043 -0.08051,-1.31082 -0.413936,-2.58904 -0.689089,-3.86838 -0.217054,-1.12845 -0.592984,-2.26191 -0.377888,-3.41518 0.52111,-1.31786 2.119767,-2.34541 3.542937,-2.24992 0.313883,0.0211 0.509675,0.0913 0.815282,0.17364 0.898287,0.32814 1.78385,0.71323 2.638673,1.14296 0.388843,0.14643 0.67473,0.37887 0.91177,0.71201 0,0 -2.715598,1.60277 -2.715598,1.60277 v 0 c -0.204798,-0.28629 -0.480145,-0.45964 -0.801772,-0.60293 -0.829728,-0.4271 -1.682147,-0.83846 -2.584998,-1.08387 -0.286009,-0.0482 -0.479451,-0.10751 -0.767374,-0.0614 -0.09853,0.0158 -0.368368,0.14775 -0.284152,0.0942 4.69273,-2.98282 2.652004,-1.90042 2.062057,-1.07422 -0.369832,1.08993 0.03828,2.24551 0.210759,3.33918 0.283874,1.27781 0.644658,2.54209 0.828334,3.83988 0.0026,0.0154 0.108889,0.66182 0.06946,0.68467 -2.132444,1.2356 -2.454489,2.38288 -3.071879,1.14544 -0.390768,-0.88798 -0.86451,-1.73254 -1.273257,-2.61219 -0.391361,-0.8595 -0.790405,-1.71279 -1.080878,-2.61391 0,0 2.757948,-1.57033 2.757948,-1.57033 z"
         id="path860"
         style="fill:#00002b;fill-opacity:1;stroke:none;stroke-width:0.90200001;stroke-miterlimit:4;stroke-dasharray:none;stroke-opacity:1" />
      <path
         inkscape:connector-curvature="0"
         d="m 103.01207,220.36179 c 0.40672,0.42976 0.9477,0.76972 1.5243,0.91035 0.0693,-0.008 0.14279,0.001 0.20802,-0.0234 0.0555,-0.0211 0.19259,-0.13769 0.14064,-0.10906 -0.87091,0.47999 -1.73136,0.97872 -2.59927,1.4641 -0.0378,0.0211 0.0784,-0.0401 0.10852,-0.0711 0.0732,-0.0756 0.14376,-0.22795 0.1903,-0.31695 0.16209,-0.39036 0.24207,-0.80713 0.10717,-1.21474 -0.19573,-0.27509 -0.54281,-0.29155 -0.85164,-0.31554 -0.0486,-0.002 -0.0988,-0.0177 -0.1459,-0.005 -0.0674,0.0174 -0.21631,0.17353 -0.1558,0.1391 6.64504,-3.60219 2.86103,-2.29773 2.54603,-1.36684 -0.0352,0.18308 -0.0208,0.0861 -0.0405,0.29141 0,0 -2.82979,1.42344 -2.82979,1.42344 v 0 c 0.003,-0.22802 -5.3e-4,-0.11712 0.009,-0.33272 0.0127,-0.10182 -0.0506,-0.24891 0.0347,-0.30586 1.57538,-1.05107 1.87287,-1.86012 3.16748,-1.67066 0.42305,0.0762 0.807,0.22017 1.0323,0.61401 0.1725,0.47125 0.14382,0.94644 -0.003,1.42427 -0.0154,0.0446 -0.1924,0.53301 -0.21728,0.54845 -1.30129,0.80717 -2.00885,1.87505 -3.29735,1.59314 -0.59951,-0.23654 -1.15884,-0.58189 -1.63572,-1.01674 0,0 2.70747,-1.65914 2.70747,-1.65914 z"
         id="path864"
         style="fill:#00002b;fill-opacity:1;stroke:none;stroke-width:0.90200001;stroke-miterlimit:4;stroke-dasharray:none;stroke-opacity:1" />
      <path
         inkscape:connector-curvature="0"
         d="m 112.39798,221.50913 c -0.36139,-0.46858 -0.8875,-0.63642 -1.44556,-0.73817 -0.39263,-0.0403 -0.74507,0.091 -1.09055,0.26517 -0.12464,0.0628 -0.48554,0.27554 -0.36328,0.20822 2.43764,-1.34207 2.964,-1.92378 2.03013,-0.99021 -0.75405,0.8855 -1.01224,2.00855 -1.20032,3.12596 -0.19923,1.43608 0.13413,2.79322 0.69628,4.10336 0.44012,0.84867 1.05442,1.58003 1.88761,2.05563 0.25596,0.0881 0.55323,0.24936 0.83555,0.23254 0.16567,-0.01 0.28956,-0.12346 0.41582,-0.21127 -0.82378,0.46552 -1.64756,0.93104 -2.47134,1.39656 0.51297,-0.37799 0.74907,-0.95996 0.9066,-1.55555 0.0177,-0.0953 0.0355,-0.19055 0.0532,-0.28582 0,0 2.81813,-1.3775 2.81813,-1.3775 v 0 c -0.0153,0.10211 -0.0306,0.20422 -0.046,0.30633 -0.13865,0.64173 -0.35544,1.26768 -0.80766,1.76098 -1.9651,1.15086 -2.5625,2.34956 -4.32947,1.42612 -0.84115,-0.56557 -1.47325,-1.34772 -1.92327,-2.2559 -0.56304,-1.36277 -0.9359,-2.76415 -0.76928,-4.2545 0.15873,-1.14692 0.37482,-2.30521 1.07224,-3.26248 0.99314,-1.24285 0.23058,-0.37016 3.25642,-2.15866 0.48101,-0.28432 1.04338,-0.40116 1.59337,-0.31214 0.62682,0.14751 1.18072,0.40244 1.60718,0.90367 0,0 -2.72585,1.61766 -2.72585,1.61766 z"
         id="path866"
         style="fill:#00002b;fill-opacity:1;stroke:none;stroke-width:0.90200001;stroke-miterlimit:4;stroke-dasharray:none;stroke-opacity:1" />
      <path
         inkscape:connector-curvature="0"
         d="m 118.74344,222.40668 c -0.10306,1.00925 0.0495,1.99571 0.32567,2.96405 0.3119,0.86545 0.57664,1.50703 1.45523,1.87614 0.47761,0.15188 0.93671,0.0937 1.37559,-0.1415 0.12039,-0.0645 0.46875,-0.28036 0.34883,-0.21498 -0.77213,0.42101 -1.53727,0.85472 -2.30591,1.28209 0.58155,-0.51548 1.04064,-1.15107 1.42512,-1.82236 0.35393,-0.72132 0.53888,-1.2386 0.42559,-2.04455 -0.23652,-0.93245 -0.86566,-1.68167 -1.5204,-2.3585 -0.64174,-0.63365 -1.38037,-1.00416 -2.25551,-1.17652 -0.877,-0.0931 -1.7766,-0.17945 -2.65491,-0.0656 -0.0938,0.0347 -0.19375,0.056 -0.28144,0.10414 -0.0739,0.0406 -0.27102,0.19904 -0.19709,0.15853 0.84906,-0.46519 1.66745,-0.98602 2.52557,-1.43427 0.0656,-0.0343 -0.0983,0.11373 -0.12765,0.18167 -0.0819,0.18963 -0.0657,0.40078 -0.0722,0.59975 0.0479,0.84881 0.31537,1.65872 0.50854,2.4806 0.10459,0.45306 0.33712,0.75638 0.79685,0.83898 0.47381,0.14956 0.87716,0.40987 1.25926,0.72227 0.28325,0.29277 0.14303,0.15306 0.41983,0.41995 0,0 -2.67646,1.64414 -2.67646,1.64414 v 0 c -0.26641,-0.26451 -0.13365,-0.13365 -0.39825,-0.39261 -0.37039,-0.27662 -0.76946,-0.48291 -1.21594,-0.60979 -0.51452,-0.2042 -0.81638,-0.60195 -0.93293,-1.1467 -0.17571,-0.84683 -0.43277,-1.67577 -0.54174,-2.53593 -0.009,-0.17318 -0.12148,-0.85324 0.0698,-0.98679 1.00401,-0.70089 2.08969,-1.69388 3.37263,-1.89895 0.90013,-0.035 1.81,0.006 2.69953,0.14992 0.90885,0.22581 1.67754,0.66384 2.33415,1.34171 0.69176,0.72564 1.35767,1.52216 1.6361,2.50479 0.18459,0.92707 0.0447,1.37324 -0.32778,2.2234 -0.34902,0.72284 -0.85012,1.35797 -1.388,1.95087 -0.99969,0.60668 -1.99258,1.22472 -2.9991,1.82003 -0.59822,0.35382 -1.27378,0.38568 -1.91196,0.12855 -0.90205,-0.48794 -1.21461,-1.182 -1.54069,-2.12907 -0.28097,-0.97891 -0.4635,-1.97199 -0.45453,-2.9944 0,0 2.82424,-1.43902 2.82424,-1.43902 z"
         id="path868"
         style="fill:#00002b;fill-opacity:1;stroke:none;stroke-width:0.90200001;stroke-miterlimit:4;stroke-dasharray:none;stroke-opacity:1" />
      <path
         inkscape:connector-curvature="0"
         d="m 105.4156,223.03031 c -0.0341,1.21638 -0.0247,2.43436 -0.0222,3.65146 0.003,1.1276 0.004,2.25521 0.006,3.38281 3.8e-4,0.53363 3.8e-4,1.06725 7.4e-4,1.60088 0,0 -3.93295,2.83789 -3.93295,2.83789 l 0,0 c 1.1e-4,-0.53392 2.2e-4,-1.06784 7.4e-4,-1.60175 0.001,-1.13036 0.003,-2.26073 0.006,-3.39108 0.003,-1.20642 0.0126,-2.41381 -0.0222,-3.61952 0,0 3.96458,-2.86069 3.96458,-2.86069 z"
         id="path870"
         style="fill:#00002b;fill-opacity:1;stroke:none;stroke-width:0.90200001;stroke-miterlimit:4;stroke-dasharray:none;stroke-opacity:1" />
    </g>
  </g>
</svg>
