<?xml version="1.0" encoding="UTF-8" standalone="no"?>
<!-- Created with Inkscape (http://www.inkscape.org/) -->

<svg
   xmlns:dc="http://purl.org/dc/elements/1.1/"
   xmlns:cc="http://creativecommons.org/ns#"
   xmlns:rdf="http://www.w3.org/1999/02/22-rdf-syntax-ns#"
   xmlns:svg="http://www.w3.org/2000/svg"
   xmlns="http://www.w3.org/2000/svg"
   xmlns:sodipodi="http://sodipodi.sourceforge.net/DTD/sodipodi-0.dtd"
   xmlns:inkscape="http://www.inkscape.org/namespaces/inkscape"
   width="210mm"
   height="297mm"
   viewBox="0 0 210 297"
   version="1.1"
   id="svg8"
   inkscape:version="0.92.3 (2405546, 2018-03-11)"
   sodipodi:docname="bequer1.svg">
  <defs
     id="defs2" />
  <sodipodi:namedview
     id="base"
     pagecolor="#ffffff"
     bordercolor="#666666"
     borderopacity="1.0"
     inkscape:pageopacity="0.0"
     inkscape:pageshadow="2"
     inkscape:zoom="0.7"
     inkscape:cx="270.58337"
     inkscape:cy="479.27284"
     inkscape:document-units="mm"
     inkscape:current-layer="layer1"
     showgrid="false"
     inkscape:window-width="1366"
     inkscape:window-height="719"
     inkscape:window-x="0"
     inkscape:window-y="25"
     inkscape:window-maximized="1" />
  <metadata
     id="metadata5">
    <rdf:RDF>
      <cc:Work
         rdf:about="">
        <dc:format>image/svg+xml</dc:format>
        <dc:type
           rdf:resource="http://purl.org/dc/dcmitype/StillImage" />
        <dc:title />
      </cc:Work>
    </rdf:RDF>
  </metadata>
  <g
     inkscape:label="Layer 1"
     inkscape:groupmode="layer"
     id="layer1">
    <path
       style="fill:none;fill-opacity:1;stroke:#000000;stroke-width:2.80495477;stroke-miterlimit:4;stroke-dasharray:none;stroke-opacity:1"
       d="m 142.20645,111.79166 c 4.75233,0.0731 8.5791,4.09561 8.5791,9.183 v 94.2709 c 0,5.08738 -3.82628,9.183 -8.5791,9.183 H 61.197496 c -4.752818,0 -6.096863,-4.09563 -6.10726,-9.183 l -0.176559,-86.3901 c -0.0071,-3.48068 -18.471243,-4.73165 -17.209747,-10.68315 5.859806,-1.57827 9.115909,-3.15946 16.078066,-6.90982 5.011816,0.0644 63.185794,0.44728 88.424454,0.52917 z"
       id="rect815"
       inkscape:connector-curvature="0"
       sodipodi:nodetypes="cssssssccc" />
    <path
       style="fill:#ff0000;fill-opacity:1;stroke:none;stroke-width:2.7199378;stroke-miterlimit:4;stroke-dasharray:none;stroke-opacity:1"
       d="m 56.737435,145.89387 92.375435,0.0668 c 0,0 0.10713,2.64746 0.10713,5.936 v 65.61312 c 0,3.28854 -2.46244,5.936 -5.52115,5.936 H 62.280757 c -3.058717,0 -5.521149,-2.64746 -5.521149,-5.936 v -65.61312 c 0,-3.28854 -0.02218,-6.00282 -0.02218,-6.00282 z"
       id="rect818"
       inkscape:connector-curvature="0"
       sodipodi:nodetypes="ccsssssscc" />
    <rect
       style="fill:#000000;fill-opacity:1;stroke:none;stroke-width:1.79128122;stroke-miterlimit:4;stroke-dasharray:none;stroke-opacity:1"
       id="rect820"
       width="41.95536"
       height="4.5357137"
       x="80.130959"
       y="145.43155" />
    <rect
       y="155.75029"
       x="93.133324"
       height="4.5357137"
       width="15.595933"
       id="rect822"
       style="fill:#000000;fill-opacity:1;stroke:none;stroke-width:1.09213352;stroke-miterlimit:4;stroke-dasharray:none;stroke-opacity:1" />
    <rect
       style="fill:#000000;fill-opacity:1;stroke:none;stroke-width:1.79128122;stroke-miterlimit:4;stroke-dasharray:none;stroke-opacity:1"
       id="rect824"
       width="41.95536"
       height="4.5357137"
       x="80.130959"
       y="167.65656" />
    <path
       style="fill:none;fill-opacity:1;stroke:#000000;stroke-width:0;stroke-miterlimit:4;stroke-dasharray:none;stroke-opacity:1"
       id="path876"
       d="m 182.61538,140.37174 c 0.33507,0.16508 0.70018,0.26089 1.06103,0.35189 0.40566,0.1426 0.82802,0.20726 1.2545,0.24308 0.42507,0.0134 0.84924,0.0568 1.26746,0.13438 0.39534,0.0779 0.7824,0.18688 1.18168,0.24581 0.28504,0.0375 0.57283,0.0407 0.85983,0.0424 0.26644,2.7e-4 0.53288,-7.9e-4 0.79931,-0.002 0.26693,-5.3e-4 0.53386,-5.3e-4 0.80079,-8e-4 0.26726,-4e-5 0.53452,-2e-5 0.80178,-2e-5 0.26727,1e-5 0.53455,1e-5 0.80182,1e-5 0.26727,0 0.53454,0 0.80181,0 0.23088,-0.0319 0.39378,0.0995 0.57833,0.20955 0.1242,0.12814 0.18371,0.30929 0.22837,0.47877 0.10697,0.36199 0.1514,0.73578 0.18064,1.11078 0.0224,0.39231 0.0308,0.78523 0.0353,1.1781 0.004,0.30187 0.002,0.60372 -0.002,0.90557 -0.002,0.37471 -0.003,0.74944 -0.002,1.12415 0.002,0.34305 0.001,0.6861 0.002,1.02915 0.001,0.28698 0.002,0.57396 0.002,0.86095 1.9e-4,0.17858 2.1e-4,0.35716 2.4e-4,0.53575 0,0 -1.40358,0.71516 -1.40358,0.71516 v 0 c 2e-5,-0.17867 5e-5,-0.35733 2.4e-4,-0.53599 2.6e-4,-0.28782 0.001,-0.57564 0.002,-0.86345 0.001,-0.34387 5.3e-4,-0.68774 0.002,-1.03161 7.9e-4,-0.37429 7.9e-4,-0.74859 -0.001,-1.12288 -0.003,-0.30137 -0.003,-0.60271 5.3e-4,-0.90409 0.002,-0.39091 0.004,-0.78223 -0.021,-1.17257 -0.0277,-0.36374 -0.0642,-0.72901 -0.18572,-1.07565 -0.0339,-0.12663 -0.0781,-0.27938 -0.1752,-0.37066 -0.16575,-0.10591 -0.31199,-0.17176 -0.5176,-0.14513 -0.26727,0 -0.53454,0 -0.80181,0 -0.26727,0 -0.53455,-1e-5 -0.80182,-1e-5 -0.26725,0 -0.53451,-2e-5 -0.80176,7e-5 -0.26689,1.3e-4 -0.53377,2.7e-4 -0.80066,10e-4 -0.26679,8e-4 -0.53359,0.002 -0.80038,-5.3e-4 -0.29012,-0.005 -0.58093,-0.0164 -0.86745,-0.0662 -0.39396,-0.0722 -0.77849,-0.18526 -1.17347,-0.2521 -0.41855,-0.0632 -0.83908,-0.10541 -1.262,-0.12466 -0.43155,-0.0464 -0.85552,-0.12657 -1.26872,-0.26287 -0.37143,-0.0975 -0.73872,-0.20816 -1.09463,-0.3535 0,0 1.31708,-0.88237 1.31708,-0.88237 z"
       inkscape:connector-curvature="0" />
    <path
       style="fill:none;fill-opacity:1;stroke:#000000;stroke-width:0;stroke-miterlimit:4;stroke-dasharray:none;stroke-opacity:1"
       id="path878"
       d="m 65.163398,70.785264 c 0.873617,-0.0425 1.725276,0.08593 2.586106,0.210704 0.782645,0.09461 1.556337,0.120742 2.322367,0.310274 0.64544,0.10586 1.245595,0.261922 1.715111,0.735547 0.33964,0.520721 0.524854,1.124487 0.740585,1.703766 0.293034,0.779737 0.374737,1.614942 0.555998,2.424223 0.214016,0.760423 0.211624,1.556219 0.34866,2.327807 0.176347,0.657302 0.271115,1.327782 0.324239,2.004894 0,0 -3.959765,2.054068 -3.959765,2.054068 v 0 c -0.0445,-0.661614 -0.125317,-1.318458 -0.30249,-1.959514 -0.150585,-0.766599 -0.118084,-1.562661 -0.325332,-2.322627 -0.176517,-0.786738 -0.262414,-1.596535 -0.542922,-2.355013 -0.206431,-0.510514 -0.356627,-1.055831 -0.649746,-1.523937 -0.443505,-0.367096 -1.032462,-0.418113 -1.575731,-0.547142 -0.751919,-0.160925 -1.523907,-0.161021 -2.28129,-0.293616 -0.859393,-0.124016 -1.71721,-0.189947 -2.586416,-0.131631 0,0 3.630626,-2.637803 3.630626,-2.637803 z"
       inkscape:connector-curvature="0" />
    <g
       id="g924"
       transform="matrix(0.82854346,0,0,0.99999999,-4.772889,49.141612)">
      <g
         transform="matrix(0.40692021,0,0,0.45028939,117.31962,57.055079)"
         id="g868">
        <g
           id="g861">
          <rect
             transform="matrix(-0.00882188,0.99996109,-0.99999416,-0.00341726,0,0)"
             style="fill:#000000;fill-opacity:1;stroke:none;stroke-width:1.1357969;stroke-miterlimit:4;stroke-dasharray:none;stroke-opacity:1"
             id="rect855"
             width="20.987333"
             height="3.6454372"
             x="78.8088"
             y="-100.17843" />
          <rect
             y="-127.38277"
             x="8.8880796"
             height="2.0035055"
             width="11.227105"
             id="rect857"
             style="fill:#000000;fill-opacity:1;stroke:none;stroke-width:0.61585206;stroke-miterlimit:4;stroke-dasharray:none;stroke-opacity:1"
             transform="matrix(-0.70188728,0.71228804,-0.81413471,-0.58067605,0,0)" />
        </g>
      </g>
      <g
         transform="matrix(0.72863506,0,0,0.80113098,140.67945,35.330448)"
         id="g910">
        <path
           style="fill:#000000;fill-opacity:1;stroke:none;stroke-width:1.10000002;stroke-miterlimit:4;stroke-dasharray:none;stroke-opacity:1"
           id="path892"
           d="m 25.608661,71.622528 c -0.0078,0.216267 -0.0056,0.432765 -0.0051,0.649136 7.94e-4,0.200565 0.0011,0.40113 0.0013,0.601697 1.62e-4,0.189294 1.59e-4,0.378584 1.62e-4,0.567878 0,0.188825 -8e-6,0.377653 -1.1e-5,0.566478 -3e-6,0.188973 -3e-6,0.377947 -3e-6,0.56692 0,0.188989 0,0.377979 0,0.566971 -0.0034,0.187274 0.0075,0.375038 -0.0069,0.56189 -0.03236,0.162988 -0.06026,0.325898 -0.07449,0.49154 -0.01262,0.183856 -0.01291,0.368255 -0.01363,0.552453 -0.0011,0.179863 5.3e-4,0.359711 0.0019,0.539565 2.3e-4,0.168759 -5.3e-4,0.337515 -7.94e-4,0.506272 -2.65e-4,0.186804 -2.65e-4,0.373605 -5.29e-4,0.560408 0.0026,0.163222 0.0013,0.32647 7.93e-4,0.489702 -5.29e-4,0.183327 -7.93e-4,0.366654 -7.93e-4,0.549984 -0.0011,0.174522 0.0013,0.349022 0.0013,0.523539 -5.3e-4,0.173093 -0.0011,0.346186 -0.0013,0.519279 -2.49e-4,0.187799 -2.65e-4,0.375597 -2.65e-4,0.563393 -0.01619,0.170958 0.02379,0.334799 0.05366,0.501333 0.0208,0.131566 0.09193,0.208259 0.182049,0.294227 0.08499,0.03585 0.1421,0.113213 0.225541,0.147722 0.0891,0.03385 0.187883,0.03516 0.282319,0.03741 0.116146,-0.0069 0.188677,-7.94e-4 0.296402,0.04145 0.09043,0.04459 0.192397,0.03359 0.28367,0.07108 0.09405,0.05097 0.199996,0.0636 0.304951,0.07111 0.059,0.01418 0.125814,-0.0078 0.184428,0.0053 0.04766,0.01066 0.09654,0.04277 0.144343,0.05722 0.144883,0.03146 0.294129,0.0336 0.441751,0.03738 0.157803,0.0013 0.315624,0.0024 0.47343,0.0011 0.145272,3.9e-5 0.290539,-0.0011 0.435808,-7.94e-4 0.150008,5.29e-4 0.300008,-1.48e-4 0.450019,2.65e-4 0.156856,5.29e-4 0.313703,-2.65e-4 0.470562,9.2e-5 0.176133,5.29e-4 0.352269,7.94e-4 0.528404,7.94e-4 0.162992,-0.0016 0.325993,-7.94e-4 0.48899,-5.29e-4 0.169275,0.0011 0.338545,-5.29e-4 0.50782,-5.29e-4 0.153892,2.64e-4 0.307774,-5.3e-4 0.461666,-3.7e-5 0.135948,-5.3e-4 0.271899,-0.0011 0.407848,-5.3e-4 0.126539,-2.64e-4 0.253081,-5.29e-4 0.379618,-10e-5 0.125871,-2.65e-4 0.251743,-5.29e-4 0.377614,3e-6 0.117771,-0.0011 0.235548,1.5e-5 0.353319,-5.3e-4 0.102828,5.3e-4 0.20565,8.2e-5 0.308478,5.3e-4 0,0 -0.906061,0.658291 -0.906061,0.658291 v 0 c -0.103341,5.29e-4 -0.206676,5.8e-5 -0.310017,5.29e-4 -0.117226,-5.29e-4 -0.234455,5.29e-4 -0.351682,-5.29e-4 -0.125873,5.29e-4 -0.251748,2.64e-4 -0.377621,5e-6 -0.126447,5.29e-4 -0.252899,2.65e-4 -0.379344,-1e-4 -0.135403,5.29e-4 -0.270806,-7.7e-5 -0.406204,-5.3e-4 -0.15386,5.3e-4 -0.307708,-5.29e-4 -0.461566,-3.7e-5 -0.168835,2.9e-5 -0.337666,-0.0016 -0.506502,-5.29e-4 -0.162592,2.65e-4 -0.325191,0.0011 -0.48778,-5.29e-4 -0.176946,1.35e-4 -0.353889,2.65e-4 -0.530834,7.94e-4 -0.156938,2.64e-4 -0.313865,-5.29e-4 -0.470802,8.7e-5 -0.150313,5.29e-4 -0.30062,-2.54e-4 -0.450935,5.29e-4 -0.145092,5.29e-4 -0.290184,-1.56e-4 -0.435279,2.65e-4 -0.157729,-0.0011 -0.315545,0.0011 -0.473176,-0.0059 -0.156522,-0.0062 -0.315502,-0.01164 -0.466209,-0.05866 -0.102751,-0.03544 -0.205137,-0.03929 -0.313878,-0.04455 -0.110066,-0.0154 -0.215437,-0.04434 -0.318042,-0.08741 -0.09782,-0.01611 -0.194535,-0.03376 -0.286422,-0.07298 -0.09106,-0.02424 -0.186415,-0.0059 -0.279688,-0.0173 -0.106736,-0.0098 -0.215715,-0.02352 -0.310161,-0.0781 -0.08272,-0.0531 -0.159628,-0.115941 -0.239768,-0.172937 -0.107992,-0.100264 -0.179522,-0.213294 -0.212982,-0.35927 -0.02969,-0.1728 -0.07727,-0.342464 -0.06018,-0.519798 -2.1e-5,-0.187701 -4e-5,-0.375401 -2.65e-4,-0.563102 -2.64e-4,-0.17268 -7.93e-4,-0.345363 -0.0013,-0.518044 6.1e-5,-0.175006 0.0026,-0.349996 0.0013,-0.525007 -9.8e-5,-0.183063 -2.43e-4,-0.366125 -7.93e-4,-0.549188 -5.3e-4,-0.163512 -0.0016,-0.327043 7.93e-4,-0.490548 -3.4e-5,-0.186655 -7.6e-5,-0.373311 -5.29e-4,-0.559967 -2.64e-4,-0.16837 -0.0011,-0.33674 -0.0013,-0.50511 7.94e-4,-0.180465 0.0019,-0.360924 0.0011,-0.541396 2.27e-4,-0.186338 -1.4e-5,-0.372787 0.0089,-0.558959 0.0104,-0.167463 0.02732,-0.334595 0.07063,-0.497268 0.03662,-0.179766 0.0055,-0.366964 0.01569,-0.549434 0,-0.188989 0,-0.377978 0,-0.566968 0,-0.188973 0,-0.377944 -3e-6,-0.566917 -5e-6,-0.188823 -10e-6,-0.377645 -10e-6,-0.566468 2e-6,-0.189349 0,-0.378695 1.61e-4,-0.568042 2.12e-4,-0.201009 5.29e-4,-0.402018 0.0013,-0.603027 5.29e-4,-0.214654 0.0028,-0.429446 -0.0051,-0.643994 0,0 0.999641,-0.509344 0.999641,-0.509344 z"
           inkscape:connector-curvature="0" />
      </g>
    </g>
    <rect
       y="185.04346"
       x="80.130959"
       height="4.5357137"
       width="41.95536"
       id="rect929"
       style="fill:#000000;fill-opacity:1;stroke:none;stroke-width:1.79128122;stroke-miterlimit:4;stroke-dasharray:none;stroke-opacity:1" />
    <rect
       style="fill:#000000;fill-opacity:1;stroke:none;stroke-width:1.09213352;stroke-miterlimit:4;stroke-dasharray:none;stroke-opacity:1"
       id="rect931"
       width="15.595933"
       height="4.5357137"
       x="93.133324"
       y="176.91698" />
  </g>
</svg>
