<?xml version="1.0" encoding="UTF-8" standalone="no"?>
<!-- Created with Inkscape (http://www.inkscape.org/) -->

<svg
   xmlns:dc="http://purl.org/dc/elements/1.1/"
   xmlns:cc="http://creativecommons.org/ns#"
   xmlns:rdf="http://www.w3.org/1999/02/22-rdf-syntax-ns#"
   xmlns:svg="http://www.w3.org/2000/svg"
   xmlns="http://www.w3.org/2000/svg"
   xmlns:sodipodi="http://sodipodi.sourceforge.net/DTD/sodipodi-0.dtd"
   xmlns:inkscape="http://www.inkscape.org/namespaces/inkscape"
   width="210mm"
   height="297mm"
   viewBox="0 0 210 297"
   version="1.1"
   id="svg8"
   inkscape:version="0.92.3 (2405546, 2018-03-11)"
   sodipodi:docname="bequer1.svg">
  <defs
     id="defs2" />
  <sodipodi:namedview
     id="base"
     pagecolor="#ffffff"
     bordercolor="#666666"
     borderopacity="1.0"
     inkscape:pageopacity="0.0"
     inkscape:pageshadow="2"
     inkscape:zoom="0.98994949"
     inkscape:cx="198.6563"
     inkscape:cy="389.47515"
     inkscape:document-units="mm"
     inkscape:current-layer="layer1"
     showgrid="false"
     inkscape:window-width="1366"
     inkscape:window-height="719"
     inkscape:window-x="0"
     inkscape:window-y="25"
     inkscape:window-maximized="1" />
  <metadata
     id="metadata5">
    <rdf:RDF>
      <cc:Work
         rdf:about="">
        <dc:format>image/svg+xml</dc:format>
        <dc:type
           rdf:resource="http://purl.org/dc/dcmitype/StillImage" />
        <dc:title />
      </cc:Work>
    </rdf:RDF>
  </metadata>
  <g
     inkscape:label="Layer 1"
     inkscape:groupmode="layer"
     id="layer1">
    <path
       style="fill:none;fill-opacity:1;stroke:#000000;stroke-width:2.80495477;stroke-miterlimit:4;stroke-dasharray:none;stroke-opacity:1"
       d="m 142.20645,111.79166 c 4.75233,0.0731 8.5791,4.09561 8.5791,9.183 v 94.2709 c 0,5.08738 -3.82628,9.183 -8.5791,9.183 H 61.197496 c -4.752818,0 -6.096863,-4.09563 -6.10726,-9.183 l -0.176559,-86.3901 c -0.0071,-3.48068 -18.471243,-4.73165 -17.209747,-10.68315 5.859806,-1.57827 9.115909,-3.15946 16.078066,-6.90982 5.011816,0.0644 63.185794,0.44728 88.424454,0.52917 z"
       id="rect815"
       inkscape:connector-curvature="0"
       sodipodi:nodetypes="cssssssccc" />
    <path
       style="fill:#80e5ff;fill-opacity:1;stroke:none;stroke-width:2.7199378;stroke-miterlimit:4;stroke-dasharray:none;stroke-opacity:1"
       d="m 56.737435,145.89387 92.375435,0.0668 c 0,0 0.10713,2.64746 0.10713,5.936 v 65.61312 c 0,3.28854 -2.46244,5.936 -5.52115,5.936 H 62.280757 c -3.058717,0 -5.521149,-2.64746 -5.521149,-5.936 v -65.61312 c 0,-3.28854 -0.02218,-6.00282 -0.02218,-6.00282 z"
       id="rect818"
       inkscape:connector-curvature="0"
       sodipodi:nodetypes="ccsssssscc" />
    <rect
       style="fill:#000000;fill-opacity:1;stroke:none;stroke-width:1.79128122;stroke-miterlimit:4;stroke-dasharray:none;stroke-opacity:1"
       id="rect820"
       width="41.95536"
       height="4.5357137"
       x="80.130959"
       y="145.43155" />
    <rect
       y="155.75029"
       x="93.133324"
       height="4.5357137"
       width="15.595933"
       id="rect822"
       style="fill:#000000;fill-opacity:1;stroke:none;stroke-width:1.09213352;stroke-miterlimit:4;stroke-dasharray:none;stroke-opacity:1" />
    <rect
       style="fill:#000000;fill-opacity:1;stroke:none;stroke-width:1.79128122;stroke-miterlimit:4;stroke-dasharray:none;stroke-opacity:1"
       id="rect824"
       width="41.95536"
       height="4.5357137"
       x="80.130959"
       y="167.65656" />
    <path
       style="fill:none;fill-opacity:1;stroke:#000000;stroke-width:0;stroke-miterlimit:4;stroke-dasharray:none;stroke-opacity:1"
       id="path876"
       d="m 182.61538,140.37174 c 0.33507,0.16508 0.70018,0.26089 1.06103,0.35189 0.40566,0.1426 0.82802,0.20726 1.2545,0.24308 0.42507,0.0134 0.84924,0.0568 1.26746,0.13438 0.39534,0.0779 0.7824,0.18688 1.18168,0.24581 0.28504,0.0375 0.57283,0.0407 0.85983,0.0424 0.26644,2.7e-4 0.53288,-7.9e-4 0.79931,-0.002 0.26693,-5.3e-4 0.53386,-5.3e-4 0.80079,-8e-4 0.26726,-4e-5 0.53452,-2e-5 0.80178,-2e-5 0.26727,1e-5 0.53455,1e-5 0.80182,1e-5 0.26727,0 0.53454,0 0.80181,0 0.23088,-0.0319 0.39378,0.0995 0.57833,0.20955 0.1242,0.12814 0.18371,0.30929 0.22837,0.47877 0.10697,0.36199 0.1514,0.73578 0.18064,1.11078 0.0224,0.39231 0.0308,0.78523 0.0353,1.1781 0.004,0.30187 0.002,0.60372 -0.002,0.90557 -0.002,0.37471 -0.003,0.74944 -0.002,1.12415 0.002,0.34305 0.001,0.6861 0.002,1.02915 0.001,0.28698 0.002,0.57396 0.002,0.86095 1.9e-4,0.17858 2.1e-4,0.35716 2.4e-4,0.53575 0,0 -1.40358,0.71516 -1.40358,0.71516 v 0 c 2e-5,-0.17867 5e-5,-0.35733 2.4e-4,-0.53599 2.6e-4,-0.28782 0.001,-0.57564 0.002,-0.86345 0.001,-0.34387 5.3e-4,-0.68774 0.002,-1.03161 7.9e-4,-0.37429 7.9e-4,-0.74859 -0.001,-1.12288 -0.003,-0.30137 -0.003,-0.60271 5.3e-4,-0.90409 0.002,-0.39091 0.004,-0.78223 -0.021,-1.17257 -0.0277,-0.36374 -0.0642,-0.72901 -0.18572,-1.07565 -0.0339,-0.12663 -0.0781,-0.27938 -0.1752,-0.37066 -0.16575,-0.10591 -0.31199,-0.17176 -0.5176,-0.14513 -0.26727,0 -0.53454,0 -0.80181,0 -0.26727,0 -0.53455,-1e-5 -0.80182,-1e-5 -0.26725,0 -0.53451,-2e-5 -0.80176,7e-5 -0.26689,1.3e-4 -0.53377,2.7e-4 -0.80066,10e-4 -0.26679,8e-4 -0.53359,0.002 -0.80038,-5.3e-4 -0.29012,-0.005 -0.58093,-0.0164 -0.86745,-0.0662 -0.39396,-0.0722 -0.77849,-0.18526 -1.17347,-0.2521 -0.41855,-0.0632 -0.83908,-0.10541 -1.262,-0.12466 -0.43155,-0.0464 -0.85552,-0.12657 -1.26872,-0.26287 -0.37143,-0.0975 -0.73872,-0.20816 -1.09463,-0.3535 0,0 1.31708,-0.88237 1.31708,-0.88237 z"
       inkscape:connector-curvature="0" />
    <path
       style="fill:none;fill-opacity:1;stroke:#000000;stroke-width:0;stroke-miterlimit:4;stroke-dasharray:none;stroke-opacity:1"
       id="path878"
       d="m 65.163398,70.785264 c 0.873617,-0.0425 1.725276,0.08593 2.586106,0.210704 0.782645,0.09461 1.556337,0.120742 2.322367,0.310274 0.64544,0.10586 1.245595,0.261922 1.715111,0.735547 0.33964,0.520721 0.524854,1.124487 0.740585,1.703766 0.293034,0.779737 0.374737,1.614942 0.555998,2.424223 0.214016,0.760423 0.211624,1.556219 0.34866,2.327807 0.176347,0.657302 0.271115,1.327782 0.324239,2.004894 0,0 -3.959765,2.054068 -3.959765,2.054068 v 0 c -0.0445,-0.661614 -0.125317,-1.318458 -0.30249,-1.959514 -0.150585,-0.766599 -0.118084,-1.562661 -0.325332,-2.322627 -0.176517,-0.786738 -0.262414,-1.596535 -0.542922,-2.355013 -0.206431,-0.510514 -0.356627,-1.055831 -0.649746,-1.523937 -0.443505,-0.367096 -1.032462,-0.418113 -1.575731,-0.547142 -0.751919,-0.160925 -1.523907,-0.161021 -2.28129,-0.293616 -0.859393,-0.124016 -1.71721,-0.189947 -2.586416,-0.131631 0,0 3.630626,-2.637803 3.630626,-2.637803 z"
       inkscape:connector-curvature="0" />
    <g
       id="g924"
       transform="matrix(0.82854346,0,0,0.99999999,-4.772889,49.141612)">
      <g
         transform="matrix(0.40692021,0,0,0.45028939,117.31962,57.055079)"
         id="g868">
        <ellipse
           style="fill:none;fill-opacity:1;stroke:#000000;stroke-width:2.7019999;stroke-miterlimit:4;stroke-dasharray:none;stroke-opacity:1"
           id="path847"
           cx="107.75171"
           cy="92.725166"
           rx="6.614583"
           ry="6.4255953" />
        <ellipse
           ry="6.4255953"
           rx="6.614583"
           cy="92.457901"
           cx="122.8249"
           id="ellipse849"
           style="fill:none;fill-opacity:1;stroke:#000000;stroke-width:2.7019999;stroke-miterlimit:4;stroke-dasharray:none;stroke-opacity:1" />
        <g
           id="g861">
          <rect
             transform="matrix(-0.00882188,0.99996109,-0.99999416,-0.00341726,0,0)"
             style="fill:#000000;fill-opacity:1;stroke:none;stroke-width:1.1357969;stroke-miterlimit:4;stroke-dasharray:none;stroke-opacity:1"
             id="rect855"
             width="20.987333"
             height="3.6454372"
             x="78.8088"
             y="-100.17843" />
          <rect
             y="-127.38277"
             x="8.8880796"
             height="2.0035055"
             width="11.227105"
             id="rect857"
             style="fill:#000000;fill-opacity:1;stroke:none;stroke-width:0.61585206;stroke-miterlimit:4;stroke-dasharray:none;stroke-opacity:1"
             transform="matrix(-0.70188728,0.71228804,-0.81413471,-0.58067605,0,0)" />
        </g>
      </g>
      <g
         transform="matrix(0.72863506,0,0,0.80113098,140.67945,35.330448)"
         id="g910">
        <path
           style="fill:#000000;fill-opacity:1;stroke:none;stroke-width:1.10000002;stroke-miterlimit:4;stroke-dasharray:none;stroke-opacity:1"
           id="path892"
           d="m 51.904582,71.622528 c -0.0078,0.216267 -0.0056,0.432765 -0.0051,0.649136 7.94e-4,0.200565 0.0011,0.40113 0.0013,0.601697 1.62e-4,0.189294 1.59e-4,0.378584 1.62e-4,0.567878 0,0.188825 -8e-6,0.377653 -1.1e-5,0.566478 -3e-6,0.188973 -3e-6,0.377947 -3e-6,0.56692 0,0.188989 0,0.377979 0,0.566971 -0.0034,0.187274 0.0075,0.375038 -0.0069,0.56189 -0.03236,0.162988 -0.06026,0.325898 -0.07449,0.49154 -0.01262,0.183856 -0.01291,0.368255 -0.01363,0.552453 -0.0011,0.179863 5.3e-4,0.359711 0.0019,0.539565 2.3e-4,0.168759 -5.3e-4,0.337515 -7.94e-4,0.506272 -2.65e-4,0.186804 -2.65e-4,0.373605 -5.29e-4,0.560408 0.0026,0.163222 0.0013,0.32647 7.93e-4,0.489702 -5.29e-4,0.183327 -7.93e-4,0.366654 -7.93e-4,0.549984 -0.0011,0.174522 0.0013,0.349022 0.0013,0.523539 -5.3e-4,0.173093 -0.0011,0.346186 -0.0013,0.519279 -2.49e-4,0.187799 -2.65e-4,0.375597 -2.65e-4,0.563393 -0.01619,0.170958 0.02379,0.334799 0.05366,0.501333 0.0208,0.131566 0.09193,0.208259 0.182049,0.294227 0.08499,0.03585 0.1421,0.113213 0.225541,0.147722 0.0891,0.03385 0.187883,0.03516 0.282319,0.03741 0.116146,-0.0069 0.188677,-7.94e-4 0.296402,0.04145 0.09043,0.04459 0.192397,0.03359 0.28367,0.07108 0.09405,0.05097 0.199996,0.0636 0.304951,0.07111 0.059,0.01418 0.125814,-0.0078 0.184428,0.0053 0.04766,0.01066 0.09654,0.04277 0.144343,0.05722 0.144883,0.03146 0.294129,0.0336 0.441751,0.03738 0.157803,0.0013 0.315624,0.0024 0.47343,0.0011 0.145272,3.9e-5 0.290539,-0.0011 0.435808,-7.94e-4 0.150008,5.29e-4 0.300008,-1.48e-4 0.450019,2.65e-4 0.156856,5.29e-4 0.313703,-2.65e-4 0.470562,9.2e-5 0.176133,5.29e-4 0.352269,7.94e-4 0.528404,7.94e-4 0.162992,-0.0016 0.325993,-7.94e-4 0.48899,-5.29e-4 0.169275,0.0011 0.338545,-5.29e-4 0.50782,-5.29e-4 0.153892,2.64e-4 0.307774,-5.3e-4 0.461666,-3.7e-5 0.135948,-5.3e-4 0.271899,-0.0011 0.407848,-5.3e-4 0.126539,-2.64e-4 0.253081,-5.29e-4 0.379618,-10e-5 0.125871,-2.65e-4 0.251743,-5.29e-4 0.377614,3e-6 0.117771,-0.0011 0.235548,1.5e-5 0.353319,-5.3e-4 0.102828,5.3e-4 0.20565,8.2e-5 0.308478,5.3e-4 0,0 -0.906061,0.658291 -0.906061,0.658291 v 0 c -0.103341,5.29e-4 -0.206676,5.8e-5 -0.310017,5.29e-4 -0.117226,-5.29e-4 -0.234455,5.29e-4 -0.351682,-5.29e-4 -0.125873,5.29e-4 -0.251748,2.64e-4 -0.377621,5e-6 -0.126447,5.29e-4 -0.252899,2.65e-4 -0.379344,-1e-4 -0.135403,5.29e-4 -0.270806,-7.7e-5 -0.406204,-5.3e-4 -0.15386,5.3e-4 -0.307708,-5.29e-4 -0.461566,-3.7e-5 -0.168835,2.9e-5 -0.337666,-0.0016 -0.506502,-5.29e-4 -0.162592,2.65e-4 -0.325191,0.0011 -0.48778,-5.29e-4 -0.176946,1.35e-4 -0.353889,2.65e-4 -0.530834,7.94e-4 -0.156938,2.64e-4 -0.313865,-5.29e-4 -0.470802,8.7e-5 -0.150313,5.29e-4 -0.30062,-2.54e-4 -0.450935,5.29e-4 -0.145092,5.29e-4 -0.290184,-1.56e-4 -0.435279,2.65e-4 -0.157729,-0.0011 -0.315545,0.0011 -0.473176,-0.0059 -0.156522,-0.0062 -0.315502,-0.01164 -0.466209,-0.05866 -0.102751,-0.03544 -0.205137,-0.03929 -0.313878,-0.04455 -0.110066,-0.0154 -0.215437,-0.04434 -0.318042,-0.08741 -0.09782,-0.01611 -0.194535,-0.03376 -0.286422,-0.07298 -0.09106,-0.02424 -0.186415,-0.0059 -0.279688,-0.0173 -0.106736,-0.0098 -0.215715,-0.02352 -0.310161,-0.0781 -0.08272,-0.0531 -0.159628,-0.115941 -0.239768,-0.172937 -0.107992,-0.100264 -0.179522,-0.213294 -0.212982,-0.35927 -0.02969,-0.1728 -0.07727,-0.342464 -0.06018,-0.519798 -2.1e-5,-0.187701 -4e-5,-0.375401 -2.65e-4,-0.563102 -2.64e-4,-0.17268 -7.93e-4,-0.345363 -0.0013,-0.518044 6.1e-5,-0.175006 0.0026,-0.349996 0.0013,-0.525007 -9.8e-5,-0.183063 -2.43e-4,-0.366125 -7.93e-4,-0.549188 -5.3e-4,-0.163512 -0.0016,-0.327043 7.93e-4,-0.490548 -3.4e-5,-0.186655 -7.6e-5,-0.373311 -5.29e-4,-0.559967 -2.64e-4,-0.16837 -0.0011,-0.33674 -0.0013,-0.50511 7.94e-4,-0.180465 0.0019,-0.360924 0.0011,-0.541396 2.27e-4,-0.186338 -1.4e-5,-0.372787 0.0089,-0.558959 0.0104,-0.167463 0.02732,-0.334595 0.07063,-0.497268 0.03662,-0.179766 0.0055,-0.366964 0.01569,-0.549434 0,-0.188989 0,-0.377978 0,-0.566968 0,-0.188973 0,-0.377944 -3e-6,-0.566917 -5e-6,-0.188823 -1e-5,-0.377645 -1e-5,-0.566468 2e-6,-0.189349 0,-0.378695 1.61e-4,-0.568042 2.12e-4,-0.201009 5.29e-4,-0.402018 0.0013,-0.603027 5.29e-4,-0.214654 0.0028,-0.429446 -0.0051,-0.643994 0,0 0.999641,-0.509344 0.999641,-0.509344 z"
           inkscape:connector-curvature="0" />
        <g
           id="g903"
           transform="translate(6.093927,0.055726)">
          <path
             inkscape:connector-curvature="0"
             d="m 33.961236,75.743191 c 0.215302,0.01037 0.43152,-0.01042 0.645258,0.01929 0.204769,0.03803 0.399886,0.109691 0.606129,0.144042 0.168862,0.02519 0.329546,0.08076 0.499687,0.103298 0.177707,0.01857 0.356634,0.01894 0.535106,0.02 0.162118,0.02867 0.319596,0.06235 0.474144,0.117946 0.122756,0.07531 0.218043,0.191926 0.306017,0.304842 0.101383,0.100703 0.193699,0.201978 0.253021,0.333087 0.0498,0.14823 0.103095,0.295317 0.156049,0.442555 0.0583,0.157176 0.115408,0.31378 0.167814,0.473271 0.06833,0.141896 0.155676,0.273375 0.22306,0.415478 0.04613,0.15145 0.102463,0.300053 0.139322,0.454331 0.02985,0.15607 0.08219,0.305258 0.108897,0.462331 0.02371,0.170555 0.01783,0.341863 0.05246,0.510775 0.0677,0.137673 0.113646,0.279596 0.139832,0.430551 0.0249,0.182634 0.02543,0.367377 0.0268,0.55135 -0.0033,0.189304 0.04117,0.374991 0.06478,0.562078 0.0081,0.176157 0.02985,0.34725 0.0672,0.519282 0.03453,0.146814 0.04601,0.296428 0.05466,0.446473 0.02495,0.109138 0.05748,0.216014 0.07898,0.326086 0.01209,0.07721 0.01574,0.155438 0.01849,0.233429 0,0 -0.997786,0.512257 -0.997786,0.512257 v 0 c -0.0019,-0.07303 -0.0031,-0.146233 -0.01238,-0.218803 -0.01741,-0.116207 -0.05054,-0.227782 -0.0825,-0.340624 -0.0038,-0.144508 -0.01405,-0.288922 -0.04359,-0.430766 -0.03763,-0.175813 -0.06677,-0.349295 -0.06925,-0.529891 -0.02188,-0.191392 -0.06882,-0.3805 -0.07086,-0.57317 -7.93e-4,-0.178376 -5.29e-4,-0.357354 -0.02098,-0.534813 -0.02289,-0.150463 -0.06968,-0.289369 -0.137859,-0.425677 -0.03725,-0.170839 -0.03811,-0.342109 -0.0545,-0.515787 -0.02379,-0.155472 -0.07639,-0.301829 -0.106061,-0.455514 -0.03257,-0.147622 -0.08917,-0.287655 -0.128436,-0.433295 -0.06761,-0.146328 -0.15783,-0.281255 -0.226931,-0.427144 -0.05591,-0.157181 -0.106667,-0.315915 -0.167002,-0.4714 -0.05289,-0.144327 -0.10927,-0.287581 -0.154895,-0.434242 -0.0533,-0.122753 -0.151593,-0.209587 -0.239641,-0.308194 -0.07708,-0.09522 -0.156194,-0.20187 -0.270785,-0.252215 -0.145151,-0.04855 -0.297776,-0.07669 -0.450014,-0.09059 -0.182346,-0.0024 -0.365443,-0.0048 -0.546148,-0.03197 -0.168074,-0.02985 -0.329964,-0.08457 -0.499274,-0.107871 -0.200808,-0.04191 -0.394203,-0.115046 -0.598599,-0.138031 -0.215577,-0.01386 -0.431987,-0.0056 -0.647871,-0.0033 0,0 0.907655,-0.65945 0.907655,-0.65945 z"
             id="path894"
             style="fill:#000000;fill-opacity:1;stroke:none;stroke-width:1.10000002;stroke-miterlimit:4;stroke-dasharray:none;stroke-opacity:1" />
          <path
             inkscape:connector-curvature="0"
             d="m 37.268528,76.499142 c 0.209627,-2.64e-4 0.415126,-7.94e-4 0.621617,0.03677 0.173255,0.01498 0.33569,0.06462 0.502754,0.10778 0.156371,0.01797 0.300296,0.07997 0.454197,0.110271 0.171653,0.02728 0.345934,0.02898 0.519318,0.03126 0.186233,0.0091 0.375164,-0.01736 0.558964,0.01704 0.158555,0.06072 0.302459,0.150861 0.449647,0.23476 0.159189,0.06137 0.276561,0.16937 0.391609,0.289692 0.105281,0.120309 0.133633,0.279122 0.184523,0.425916 0.05625,0.165957 0.111035,0.330324 0.143055,0.502973 0.02619,0.189378 0.07366,0.374425 0.100225,0.563869 0.0097,0.17634 0.0307,0.347911 0.06776,0.520362 0.02593,0.158924 0.04091,0.31605 0.09815,0.467545 0.07632,0.167677 0.110492,0.346969 0.130791,0.528719 0.01595,0.177991 0.0062,0.355733 0.03997,0.531633 0.04334,0.161978 0.04184,0.331001 0.07177,0.494779 0.04441,0.157652 0.06563,0.319312 0.08227,0.481763 -0.0038,0.144497 0.03735,0.281279 0.06504,0.421389 0.08965,0.573646 0.06236,0.233148 -0.962538,0.721233 0,0 1.00819,-0.501544 1.00819,-0.501544 v 0 c -1.202844,0.657027 -0.945867,0.883139 -1.031875,0.306853 -0.02739,-0.144068 -0.07755,-0.283435 -0.07025,-0.432117 -0.01074,-0.159232 -0.03119,-0.317315 -0.07583,-0.471057 -0.03475,-0.163057 -0.02843,-0.332602 -0.07172,-0.494818 -0.03695,-0.179644 -0.0339,-0.359325 -0.04273,-0.542062 -0.01606,-0.172141 -0.04356,-0.34266 -0.118163,-0.500574 -0.06461,-0.156038 -0.08568,-0.317439 -0.107325,-0.483909 -0.03722,-0.175755 -0.0657,-0.349216 -0.06906,-0.529574 -0.02347,-0.188598 -0.07128,-0.37174 -0.09875,-0.559293 -0.02787,-0.167909 -0.08098,-0.325818 -0.137798,-0.485655 -0.04547,-0.131694 -0.06802,-0.276479 -0.161189,-0.384617 -0.10617,-0.113607 -0.226518,-0.200052 -0.370914,-0.261872 -0.13875,-0.074 -0.269439,-0.170039 -0.426432,-0.200445 -0.18293,-0.01336 -0.366802,-7.94e-4 -0.550066,-0.0078 -0.178906,-0.0044 -0.359029,-0.0096 -0.534585,-0.04779 -0.152657,-0.03762 -0.301784,-0.08775 -0.457158,-0.114292 -0.162489,-0.04563 -0.326096,-0.07756 -0.493437,-0.100756 -0.204804,-0.03027 -0.411221,-0.02109 -0.617702,-0.01704 0,0 0.907656,-0.65945 0.907656,-0.65945 z"
             id="path896"
             style="fill:#000000;fill-opacity:1;stroke:none;stroke-width:1.10000002;stroke-miterlimit:4;stroke-dasharray:none;stroke-opacity:1" />
          <path
             inkscape:connector-curvature="0"
             d="m 40.57582,77.066107 c 0.169867,0.0033 0.339783,0.0019 0.509674,0.0019 0.182645,2.36e-4 0.365292,2.65e-4 0.547937,5.3e-4 0.18874,5.8e-5 0.377481,5.5e-5 0.566218,5.8e-5 0.189072,0 0.378143,-3e-6 0.567217,-3e-6 0.188997,0 0.377994,0 0.566991,0 0.170283,5.29e-4 0.33486,0.05324 0.503907,0.07409 0.13747,0.0019 0.231759,0.07785 0.310393,0.182229 0.0567,0.110246 0.09407,0.227139 0.166767,0.328432 0.06546,0.115695 0.127434,0.232826 0.166394,0.360442 0.03688,0.151678 0.08804,0.297604 0.114641,0.451977 0.01969,0.160155 0.06989,0.313566 0.0952,0.473054 0.02421,0.181875 0.0263,0.365652 0.02838,0.548823 0.0013,0.189142 5.3e-4,0.378293 2.65e-4,0.567438 0.006,0.182687 -0.01265,0.36698 0.0084,0.548791 0.05747,0.125622 0.113982,0.249912 0.148939,0.384149 0.02992,0.151714 0.03137,0.307329 0.03391,0.461446 5.29e-4,0.147701 7.94e-4,0.295389 -5.29e-4,0.44309 -0.0054,0.117351 0.04004,0.227925 0.06444,0.34113 0.01297,0.06621 0.007,0.03468 0.01805,0.0946 0,0 -0.994352,0.525978 -0.994352,0.525978 v 0 c -0.0072,-0.05821 -0.003,-0.02774 -0.01267,-0.09138 -0.02315,-0.121417 -0.07533,-0.238712 -0.07155,-0.363114 -2.65e-4,-0.147185 0.0013,-0.294343 5.29e-4,-0.441528 -7.94e-4,-0.146228 2.64e-4,-0.293445 -0.02365,-0.438156 -0.03109,-0.14015 -0.09238,-0.265914 -0.150865,-0.396166 -0.0283,-0.186084 -0.0074,-0.375592 -0.01339,-0.563313 2.64e-4,-0.188736 7.94e-4,-0.377474 4.2e-5,-0.566206 -0.0016,-0.178118 -0.0026,-0.356751 -0.02315,-0.533913 -0.02294,-0.159713 -0.07423,-0.312211 -0.09474,-0.471747 -0.02334,-0.150612 -0.07377,-0.291526 -0.109998,-0.438658 -0.03327,-0.117264 -0.09305,-0.222142 -0.151133,-0.32847 -0.06713,-0.101245 -0.115541,-0.210193 -0.164494,-0.320831 -0.07052,-0.08224 -0.149159,-0.108683 -0.258117,-0.114612 -0.163864,-0.02537 -0.325789,-0.07204 -0.493061,-0.06287 -0.188998,0 -0.377995,0 -0.566989,0 -0.189069,-3e-6 -0.378137,-3e-6 -0.567206,-3e-6 -0.188793,0 -0.377587,0 -0.56638,5.8e-5 -0.183036,6.9e-5 -0.366073,1.88e-4 -0.549109,5.3e-4 -0.171627,1.64e-4 -0.343275,-0.0013 -0.514879,0.0019 0,0 0.907656,-0.65945 0.907656,-0.65945 z"
             id="path898"
             style="fill:#000000;fill-opacity:1;stroke:none;stroke-width:1.10000002;stroke-miterlimit:4;stroke-dasharray:none;stroke-opacity:1" />
        </g>
      </g>
    </g>
    <rect
       y="185.04346"
       x="80.130959"
       height="4.5357137"
       width="41.95536"
       id="rect929"
       style="fill:#000000;fill-opacity:1;stroke:none;stroke-width:1.79128122;stroke-miterlimit:4;stroke-dasharray:none;stroke-opacity:1" />
    <rect
       style="fill:#000000;fill-opacity:1;stroke:none;stroke-width:1.09213352;stroke-miterlimit:4;stroke-dasharray:none;stroke-opacity:1"
       id="rect931"
       width="15.595933"
       height="4.5357137"
       x="93.133324"
       y="176.91698" />
  </g>
</svg>
