<?xml version="1.0" encoding="UTF-8" standalone="no"?>
<!-- Created with Inkscape (http://www.inkscape.org/) -->

<svg
   xmlns:dc="http://purl.org/dc/elements/1.1/"
   xmlns:cc="http://creativecommons.org/ns#"
   xmlns:rdf="http://www.w3.org/1999/02/22-rdf-syntax-ns#"
   xmlns:svg="http://www.w3.org/2000/svg"
   xmlns="http://www.w3.org/2000/svg"
   xmlns:sodipodi="http://sodipodi.sourceforge.net/DTD/sodipodi-0.dtd"
   xmlns:inkscape="http://www.inkscape.org/namespaces/inkscape"
   width="210mm"
   height="297mm"
   viewBox="0 0 210 297"
   version="1.1"
   id="svg8"
   inkscape:version="0.91 r13725"
   sodipodi:docname="Granito.svg">
  <defs
     id="defs2">
    <inkscape:perspective
       sodipodi:type="inkscape:persp3d"
       inkscape:vp_x="0 : 148.5 : 1"
       inkscape:vp_y="0 : 1000 : 0"
       inkscape:vp_z="210 : 148.5 : 1"
       inkscape:persp3d-origin="105 : 99 : 1"
       id="perspective817" />
  </defs>
  <sodipodi:namedview
     id="base"
     pagecolor="#ffffff"
     bordercolor="#666666"
     borderopacity="1.0"
     inkscape:pageopacity="0.0"
     inkscape:pageshadow="2"
     inkscape:zoom="0.7"
     inkscape:cx="195.49247"
     inkscape:cy="244.22441"
     inkscape:document-units="mm"
     inkscape:current-layer="layer1"
     showgrid="false"
     inkscape:window-width="1366"
     inkscape:window-height="719"
     inkscape:window-x="0"
     inkscape:window-y="25"
     inkscape:window-maximized="1" />
  <metadata
     id="metadata5">
    <rdf:RDF>
      <cc:Work
         rdf:about="">
        <dc:format>image/svg+xml</dc:format>
        <dc:type
           rdf:resource="http://purl.org/dc/dcmitype/StillImage" />
        <dc:title />
      </cc:Work>
    </rdf:RDF>
  </metadata>
  <g
     inkscape:label="Layer 1"
     inkscape:groupmode="layer"
     id="layer1">
    <g
       id="g3343"
       style="fill:#00002b;fill-opacity:1">
      <path
         inkscape:connector-curvature="0"
         d="m 45.022584,201.39171 c -6.647262,4.00504 -2.964862,1.89853 -1.772105,0.4021 0.568534,-0.71328 0.609476,-0.90357 1.02131,-1.72394 0.645343,-1.63323 1.053579,-3.40101 0.721614,-5.156 -0.06884,-0.36391 -0.186885,-0.71677 -0.280328,-1.07516 -0.7951,-2.21796 -1.869946,-3.43357 -3.96697,-4.46145 -1.186799,-0.43873 -2.325814,-0.38155 -3.477426,0.12408 -0.320786,0.14084 -1.242783,0.64697 -0.937713,0.47472 0.876052,-0.49466 1.767512,-0.96151 2.651268,-1.44227 -2.143638,1.62016 -3.893902,3.70555 -5.263158,6.01149 -0.336349,0.56644 -0.627763,1.15837 -0.941644,1.73756 -1.358191,2.69803 -2.250133,5.61067 -2.661967,8.60388 -0.271661,1.97442 -0.226161,2.87719 -0.257636,4.8621 0.106852,2.96827 0.40462,6.13489 1.946709,8.75547 0.189841,0.32261 0.427011,0.61492 0.640519,0.92238 1.308444,1.53367 3.122303,2.29555 4.976244,2.94209 1.349166,0.37468 2.783713,0.7945 4.199099,0.5517 0.25962,-0.0445 0.509053,-0.13567 0.763579,-0.20351 0.23821,-0.0968 0.483508,-0.17782 0.714632,-0.29053 0.236281,-0.11522 0.913773,-0.52027 0.684451,-0.39176 -1.024618,0.57422 -2.024708,1.19391 -3.07036,1.72886 -0.226071,0.11566 0.410665,-0.29983 0.602448,-0.46627 0.429675,-0.37291 0.666567,-0.66493 1.042776,-1.08651 0.867288,-1.04205 1.249256,-2.32412 1.526579,-3.6254 0.183359,-1.23141 0.324919,-2.4924 0.226143,-3.73787 -0.200944,-0.99758 -0.713854,-0.97091 -1.597155,-1.19225 -1.443262,-0.34747 -2.892314,-0.65115 -4.314121,-1.08114 -0.728689,-0.17664 -1.439021,-0.41025 -2.15831,-0.62051 0,0 3.678627,-2.50706 3.678627,-2.50706 v 0 c 0.700026,0.23049 1.406453,0.43767 2.110867,0.6538 1.409631,0.45507 2.856346,0.74857 4.304003,1.0564 1.076259,0.26501 1.670257,0.48766 1.901465,1.65303 0.09406,1.28795 -0.0752,2.58781 -0.217101,3.86665 -0.248446,1.36082 -0.606573,2.70917 -1.444942,3.83793 -0.283959,0.33511 -0.706319,0.84905 -1.019519,1.15509 -1.768502,1.72806 -4.118332,2.85522 -6.430473,3.67872 -1.852012,0.33307 -3.303686,0.0224 -5.072801,-0.56784 -1.922939,-0.70014 -3.783089,-1.54869 -5.086773,-3.19768 -0.21105,-0.33161 -0.447344,-0.64845 -0.633145,-0.99484 -1.473245,-2.74658 -1.694586,-5.99892 -1.806515,-9.04491 0.0097,-0.81855 -0.0096,-1.63795 0.02903,-2.45564 0.182162,-3.85373 1.02735,-7.65315 2.710353,-11.13509 1.560841,-3.00776 3.270126,-5.73181 5.957531,-7.86953 1.55358,-0.92551 3.089357,-1.88157 4.660736,-2.77652 1.479425,-0.84258 3.104687,-0.95989 4.667416,-0.29315 2.146168,1.16365 3.27166,2.47309 4.113782,4.7877 0.263284,0.93277 0.412236,1.2689 0.474686,2.23692 0.09353,1.4498 -0.291211,2.8991 -0.76131,4.25427 -1.527093,3.46534 -3.095712,3.9078 -6.659292,5.90348 0,0 3.504898,-2.80359 3.504898,-2.80359 z"
         id="path826"
         style="fill:#00002b;fill-opacity:1;stroke:none;stroke-width:0.90200001;stroke-miterlimit:4;stroke-dasharray:none;stroke-opacity:1" />
      <path
         inkscape:connector-curvature="0"
         d="m 53.009638,207.52698 c -0.08553,1.98235 -0.0862,3.96757 -0.08217,5.95144 0.02011,1.55971 0.0099,3.12126 0.07254,4.68012 0.125283,1.73619 1.254432,0.37154 -3.973422,2.15152 -0.155858,0.0531 0.02135,-0.32861 0.02951,-0.49305 0.04273,-0.8623 0.04521,-1.11737 0.07366,-2.05319 -0.09079,-3.75392 0.516977,-7.25262 1.639628,-10.81949 0.606404,-1.56526 1.312111,-3.19305 2.589905,-4.34187 1.481604,-1.33205 3.436332,-2.01846 5.182881,-2.97715 1.476391,-0.27734 3.002701,-0.13936 4.442865,0.26238 0.653528,0.1868 1.22066,0.42785 1.588426,1.01534 0.125552,0.25856 0.157895,0.53638 0.182491,0.81814 0,0 -3.993256,2.06144 -3.993256,2.06144 v 0 c -0.0032,-0.21091 -0.0041,-0.42429 -0.07487,-0.62601 -0.273066,-0.47757 -0.854096,-0.59273 -1.335273,-0.77287 -1.383109,-0.35685 -2.832814,-0.49753 -4.217733,-0.0662 0.987782,-0.6036 1.978803,-1.20192 2.963346,-1.81078 0.250172,-0.15471 -0.525332,0.27104 -0.760105,0.44825 -1.391537,1.05034 -2.175748,2.68203 -2.843977,4.23803 -0.19304,0.56415 -0.409681,1.12076 -0.57912,1.69243 -0.860793,2.9043 -1.17108,5.92492 -0.991148,8.94517 0.02802,0.89316 0.03074,1.15571 0.07366,1.97813 0.0081,0.15442 0.157469,0.37614 0.02951,0.46297 -1.268412,0.8607 -2.669336,1.50802 -4.01525,2.24164 -0.02021,0.011 0.015,-0.0435 0.02249,-0.0653 0.0065,-0.0929 0.01289,-0.18583 0.01934,-0.27874 0.06112,-1.58359 0.05322,-3.16964 0.07254,-4.75404 0.004,-1.95594 0.0048,-3.91335 -0.08217,-5.8677 0,0 3.965708,-2.02063 3.965708,-2.02063 z"
         id="path828"
         style="fill:#00002b;fill-opacity:1;stroke:none;stroke-width:0.90200001;stroke-miterlimit:4;stroke-dasharray:none;stroke-opacity:1" />
      <path
         inkscape:connector-curvature="0"
         d="m 64.046046,206.78665 c 1.468803,-0.16767 2.933674,-0.37376 4.406337,-0.51841 1.105365,-0.17849 2.024983,-0.005 2.797172,0.81534 0.48932,0.64201 0.582284,1.42528 0.654256,2.20279 -0.03287,1.94026 -1.741193,1.74305 -4.080359,3.01513 -0.129288,0.0703 -1.42631,-0.17787 -1.579456,-0.19976 -1.914594,-0.35046 -3.101131,-0.11342 -4.876822,0.60412 -2.494496,1.42044 1.89035,-1.0784 2.255499,-1.26077 0.223211,-0.11148 -0.399052,0.30178 -0.577686,0.47596 -0.576699,0.56235 -0.8846,1.1757 -1.165524,1.91527 -0.45761,1.575 0.07049,3.06858 0.736643,4.48998 0.157697,0.22363 0.43857,0.9659 0.877128,0.81719 0.130508,-0.0443 0.456168,-0.30731 0.33379,-0.24394 -3.301412,1.70946 -4.162464,2.60756 -2.523736,1.09862 1.608725,-1.5877 3.14265,-3.25192 4.577919,-4.99804 1.412962,-1.84056 2.132208,-1.66055 4.997339,-3.13552 0,0 -3.645239,2.62137 -3.645239,2.62137 v 0 c 1.237398,-0.71023 2.481892,-1.40825 3.712194,-2.1307 0.08197,-0.0481 -0.186301,0.0524 -0.264633,0.10625 -0.272757,0.18748 -0.625579,0.62562 -0.820222,0.84542 -1.445456,1.74734 -3.005794,3.39687 -4.568354,5.03909 -1.671836,1.81673 -0.866214,1.07074 -4.97137,3.26169 -0.728186,0.38864 -1.277792,-0.67796 -1.513089,-1.13262 -0.663056,-1.51851 -1.247888,-3.11121 -0.872191,-4.78889 0.0767,-0.25443 0.12949,-0.51733 0.230106,-0.76328 1.094081,-2.67443 4.25867,-3.61854 6.606034,-4.88507 1.818458,-0.65067 3.131924,-0.77532 5.04701,-0.47127 0.272515,0.024 0.851471,0.0964 1.154168,0.0531 0.121062,-0.0173 0.450482,-0.18296 0.347987,-0.11624 -7.99688,5.20544 -3.696459,3.16414 -3.374683,1.83382 -0.03,-0.67372 -0.074,-1.37357 -0.491387,-1.93405 -0.696915,-0.67887 -1.579716,-0.65378 -2.504292,-0.53899 -1.500886,0.1419 -2.993443,0.34538 -4.477893,0.60988 0,0 3.573354,-2.68746 3.573354,-2.68746 z"
         id="path830"
         style="fill:#00002b;fill-opacity:1;stroke:none;stroke-width:0.90200001;stroke-miterlimit:4;stroke-dasharray:none;stroke-opacity:1" />
      <path
         inkscape:connector-curvature="0"
         d="m 79.834141,206.66801 c -0.396227,1.5557 -0.74717,3.12335 -1.11905,4.68538 -0.324657,1.52356 -0.607933,3.05362 -1.132737,4.52409 -0.331269,1.68437 -4.208981,5.01539 -4.613425,2.65954 -0.03261,-0.18993 -2.65e-4,-0.38541 -5.3e-4,-0.57811 0.252521,-2.13758 0.95684,-4.27364 2.122506,-6.09361 0.300199,-0.46871 0.659641,-0.89671 0.98946,-1.34506 0.917866,-1.02754 1.868824,-2.12283 3.06074,-2.85219 1.500002,-0.91789 3.017337,-1.80905 4.561218,-2.65105 0.265655,-0.14488 0.56008,-0.23839 0.855654,-0.3032 0.249487,-0.0547 0.509649,-0.0347 0.764472,-0.052 1.658839,0.45331 2.223341,2.07424 2.709296,3.55717 0.421039,1.38466 0.465198,2.79212 0.287763,4.21632 -0.08153,0.73629 -0.314497,1.43421 -0.611169,2.10783 0,0 -4.063904,1.86162 -4.063904,1.86162 v 0 c 0.295407,-0.66388 0.682281,-1.29181 0.744336,-2.03772 0.228029,-1.35943 0.193815,-2.71689 -0.173252,-4.05367 -0.311819,-1.0201 -0.715057,-2.49086 -1.826998,-2.93194 -0.179459,-0.0712 -0.37883,-0.0747 -0.568248,-0.11206 -0.223084,0.0388 -0.452702,0.0502 -0.669256,0.11629 -0.641075,0.19579 -5.182642,2.47687 1.940804,-1.2817 0.365524,-0.19286 -0.690497,0.45576 -1.017429,0.70859 -1.111112,0.85925 -1.191281,1.02577 -2.184032,2.06791 -0.335042,0.42984 -0.701707,0.83681 -1.005131,1.28953 -1.139492,1.70014 -1.832814,3.74948 -1.982486,5.78459 -0.0045,1.84115 -0.81752,0.95464 -3.867417,2.6681 -0.06078,0.0341 0.11771,-0.079 0.16056,-0.13404 0.155376,-0.19941 0.294745,-0.55047 0.39198,-0.76413 0.64058,-1.43259 0.908693,-2.98233 1.245288,-4.50642 0.364921,-1.52274 0.710588,-3.05012 0.968491,-4.59464 0,0 4.03252,-1.95539 4.03252,-1.95539 z"
         id="path832"
         style="fill:#00002b;fill-opacity:1;stroke:none;stroke-width:0.90200001;stroke-miterlimit:4;stroke-dasharray:none;stroke-opacity:1" />
      <path
         inkscape:connector-curvature="0"
         d="m 96.86433,204.7859 c -0.213235,2.06362 -1.015833,4.00295 -1.764128,5.91819 -0.718695,1.68201 -1.36857,3.38762 -1.986399,5.10847 0,0 -3.929451,1.82739 -3.929451,1.82739 v 0 c 0.677423,-1.7272 1.33582,-3.46035 2.083959,-5.15916 0.705442,-1.82321 1.504725,-3.68914 1.611402,-5.66462 0,0 3.984617,-2.03027 3.984617,-2.03027 z"
         id="path834"
         style="fill:#00002b;fill-opacity:1;stroke:none;stroke-width:0.90200001;stroke-miterlimit:4;stroke-dasharray:none;stroke-opacity:1" />
      <path
         inkscape:connector-curvature="0"
         d="m 96.805323,200.25778 c -7.507494,3.8643 -3.333314,2.36573 -2.357514,1.09552 0.04647,0.0506 0.162282,-0.44582 0.166327,-0.43346 0.05221,0.15958 -0.108325,0.16382 -0.217635,0.18051 -0.09698,0.0477 -0.21621,-0.004 -0.313537,0.0355 -0.09965,0.0408 -0.340262,0.26181 -0.246621,0.20864 3.932852,-2.23274 5.092936,-2.63446 3.628335,-2.11761 -0.220448,0.23853 -0.199718,0.60207 -0.215368,0.90858 -0.02745,0.42294 -0.02982,0.85694 0.293134,1.16705 0.367416,0.27732 0.864936,0.25829 1.306092,0.2743 1.452354,-0.58168 3.429594,-1.80135 -2.993411,1.76319 -0.164767,0.0914 0.275854,-0.25896 0.391903,-0.40742 0.340352,-0.58932 0.383072,-1.2775 0.41097,-1.94226 -0.0082,-0.0772 -0.0163,-0.15433 -0.02445,-0.23149 0,0 3.956122,-2.08418 3.956122,-2.08418 v 0 c 0.0166,0.10342 0.0332,0.20683 0.0499,0.31024 -0.0367,0.72107 -0.0546,1.45631 -0.31165,2.14068 -0.865948,1.83831 -3.124934,2.96124 -5.116773,3.05588 -0.547899,-0.0548 -1.100852,-0.13608 -1.49787,-0.55712 -0.354004,-0.42253 -0.503028,-0.90505 -0.474297,-1.45746 -7.94e-4,-0.38801 0.0284,-0.77539 0.08947,-1.15857 0.506497,-1.71159 2.962617,-2.55036 4.7122,-2.54324 0.577882,0.0916 0.72363,0.57101 0.48704,1.07292 -0.110154,0.24838 -0.135043,0.35641 -0.31754,0.56285 -1.265827,1.43192 -4.636148,0.45218 -4.909709,2.96058 0,0 3.504901,-2.80359 3.504901,-2.80359 z"
         id="path840"
         style="fill:#00002b;fill-opacity:1;stroke:none;stroke-width:0.90200001;stroke-miterlimit:4;stroke-dasharray:none;stroke-opacity:1" />
      <path
         inkscape:connector-curvature="0"
         d="m 112.74406,187.35138 c -0.10626,2.21369 -0.12835,4.43056 -0.15191,6.64636 -0.0361,3.2113 -0.004,6.4226 0.0451,9.63351 0.0257,1.40227 0.0628,2.8043 0.082,4.20668 0.009,0.77114 0.01,1.54234 0.01,2.31352 0.0354,0.68806 -0.0112,1.35095 -0.28421,1.98736 -0.2911,0.56312 -0.37816,1.18246 -0.4333,1.80508 -0.0264,0.4726 -0.007,0.23839 -0.059,0.70266 0,0 -4.00634,1.95706 -4.00634,1.95706 v 0 c 0.0988,-0.41932 0.0672,-0.1975 0.0834,-0.66697 0.0376,-0.6589 0.0838,-1.32945 0.34907,-1.94316 0.3182,-0.63863 0.45348,-1.0838 0.3864,-1.82227 2.1e-4,-0.77451 5.3e-4,-1.54905 0.01,-2.32352 0.0193,-1.43022 0.0563,-2.86009 0.082,-4.2902 0.049,-3.22624 0.0813,-6.45286 0.0451,-9.67947 -0.0233,-2.16419 -0.0438,-4.3296 -0.15192,-6.49156 0,0 3.99408,-2.03508 3.99408,-2.03508 z"
         id="path850"
         style="fill:#00002b;fill-opacity:1;stroke:none;stroke-width:0.90200001;stroke-miterlimit:4;stroke-dasharray:none;stroke-opacity:1" />
      <path
         inkscape:connector-curvature="0"
         d="m 107.53561,201.9476 c 1.55643,0.0432 3.11438,0.0696 4.67,-0.001 2.07065,-0.0453 4.11772,-0.29943 6.15423,-0.65677 0.57716,-0.0999 0.86796,-0.12554 1.40927,-0.30504 1.52603,-0.50602 4.6057,-2.46255 -2.01207,1.31397 1.64936,-0.99498 1.26975,-0.77011 4.54024,-2.60212 1.16744,-0.65396 -2.32119,1.33207 -3.48393,1.99435 -0.10116,0.0576 0.19939,-0.12021 0.29909,-0.18031 0,0 4.15717,-1.59673 4.15717,-1.59673 v 0 c -2.51941,1.40525 -8.29759,4.79832 -1.00348,0.56515 0.12664,-0.0735 -0.2521,0.14903 -0.37815,0.22355 -2.4649,1.42331 -4.25759,2.86711 -6.98849,3.19022 -2.0397,0.32616 -4.09403,0.51119 -6.15831,0.59431 -1.60726,0.0694 -3.2156,0.0386 -4.82353,0.0892 0,0 3.61796,-2.6286 3.61796,-2.6286 z"
         id="path856"
         style="fill:#00002b;fill-opacity:1;stroke:none;stroke-width:0.90200001;stroke-miterlimit:4;stroke-dasharray:none;stroke-opacity:1" />
      <path
         inkscape:connector-curvature="0"
         d="m 120.68156,206.25019 c -0.0431,0.86004 -0.0469,1.71655 0.0705,2.5701 0.15476,0.72461 0.59389,1.28309 1.09064,1.80648 0.55176,0.52202 1.25833,0.6666 1.98646,0.74725 0.76161,0.094 1.49214,0.0357 2.21326,-0.22403 1.4205,-0.52654 3.77972,-1.91748 -2.84698,1.69918 -0.0874,0.0477 0.15798,-0.12306 0.22479,-0.19696 0.15072,-0.16668 0.22419,-0.34587 0.32578,-0.54418 0.32798,-0.6568 0.4241,-1.38007 0.48347,-2.10206 0.0418,-0.70838 0.0797,-1.41408 -0.054,-2.11341 -0.21237,-0.45528 -0.57643,-0.85664 -0.92622,-1.22114 -0.50085,-0.4304 -1.15027,-0.50476 -1.78271,-0.56318 -0.61276,-0.12051 -1.15144,0.0482 -1.73702,0.1818 -0.53079,0.13915 -1.04583,0.34162 -1.58204,0.48888 -1.16471,1.1306 -0.0229,0.001 3.56352,-2.01427 0.0505,-0.0284 -0.0837,0.0818 -0.11415,0.13104 -0.12581,0.20333 -0.20121,0.40232 -0.35578,0.59132 -0.36702,0.28841 -0.44196,0.71398 -0.5426,1.14206 -0.10064,0.28357 -0.19921,0.56784 -0.29611,0.85271 0,0 -4.08539,1.85236 -4.08539,1.85236 v 0 c 0.16985,-0.24082 0.20041,-0.53385 0.32256,-0.80279 0.20429,-0.42189 0.12222,-0.95951 0.4529,-1.33309 0.16566,-0.1254 0.34992,-0.22592 0.42612,-0.43258 0.0298,-0.0807 -0.0175,-0.20451 0.054,-0.25238 3.47932,-2.33054 2.46299,-2.06192 4.1296,-2.46838 0.52923,-0.15141 1.03633,-0.3723 1.58226,-0.46186 0.60298,-0.13833 1.2009,-0.1492 1.81399,-0.0472 0.72177,0.10723 1.42183,0.28497 1.96252,0.80938 0.40989,0.4236 0.82009,0.89981 1.04783,1.44477 0.1523,0.73708 0.14073,1.47469 0.0969,2.22506 -0.0452,0.76341 -0.11605,1.53299 -0.40464,2.24956 -0.10416,0.23404 -0.23385,0.79375 -0.46394,0.93931 -1.73547,1.09789 -3.01275,2.13397 -4.81415,2.6578 -0.77156,0.17358 -1.54511,0.20139 -2.32894,0.0745 -0.80569,-0.14196 -1.55694,-0.39927 -2.14578,-0.99749 -0.56095,-0.58924 -1.03045,-1.24263 -1.21594,-2.05114 -0.12684,-0.86623 -0.13502,-1.72784 -0.14478,-2.60242 0,0 3.99408,-2.03508 3.99408,-2.03508 z"
         id="path858"
         style="fill:#00002b;fill-opacity:1;stroke:none;stroke-width:0.90200001;stroke-miterlimit:4;stroke-dasharray:none;stroke-opacity:1" />
    </g>
  </g>
</svg>
