<?xml version="1.0" encoding="UTF-8" standalone="no"?>
<!-- Created with Inkscape (http://www.inkscape.org/) -->

<svg
   xmlns:dc="http://purl.org/dc/elements/1.1/"
   xmlns:cc="http://creativecommons.org/ns#"
   xmlns:rdf="http://www.w3.org/1999/02/22-rdf-syntax-ns#"
   xmlns:svg="http://www.w3.org/2000/svg"
   xmlns="http://www.w3.org/2000/svg"
   xmlns:sodipodi="http://sodipodi.sourceforge.net/DTD/sodipodi-0.dtd"
   xmlns:inkscape="http://www.inkscape.org/namespaces/inkscape"
   width="210mm"
   height="297mm"
   viewBox="0 0 210 297"
   version="1.1"
   id="svg8"
   inkscape:version="0.91 r13725"
   sodipodi:docname="Laranjada.svg">
  <defs
     id="defs2">
    <inkscape:perspective
       sodipodi:type="inkscape:persp3d"
       inkscape:vp_x="0 : 148.5 : 1"
       inkscape:vp_y="0 : 1000 : 0"
       inkscape:vp_z="210 : 148.5 : 1"
       inkscape:persp3d-origin="105 : 99 : 1"
       id="perspective817" />
  </defs>
  <sodipodi:namedview
     id="base"
     pagecolor="#ffffff"
     bordercolor="#666666"
     borderopacity="1.0"
     inkscape:pageopacity="0.0"
     inkscape:pageshadow="2"
     inkscape:zoom="0.7"
     inkscape:cx="232.02957"
     inkscape:cy="255.65299"
     inkscape:document-units="mm"
     inkscape:current-layer="layer1"
     showgrid="false"
     inkscape:window-width="1366"
     inkscape:window-height="719"
     inkscape:window-x="0"
     inkscape:window-y="25"
     inkscape:window-maximized="1" />
  <metadata
     id="metadata5">
    <rdf:RDF>
      <cc:Work
         rdf:about="">
        <dc:format>image/svg+xml</dc:format>
        <dc:type
           rdf:resource="http://purl.org/dc/dcmitype/StillImage" />
        <dc:title />
      </cc:Work>
    </rdf:RDF>
  </metadata>
  <g
     inkscape:label="Layer 1"
     inkscape:groupmode="layer"
     id="layer1">
    <g
       id="g3344"
       style="fill:#00002b;fill-opacity:1">
      <path
         inkscape:connector-curvature="0"
         d="m 38.579094,198.50499 c -1.011148,4.36832 -2.408293,8.62506 -3.865676,12.86156 -3.323942,9.17392 -6.788584,18.29486 -9.94443,27.52891 -0.994652,3.10158 -1.940275,6.22061 -2.731705,9.38097 -0.382927,1.52912 -0.717066,2.99581 -0.79203,4.56751 0.0482,0.20787 0.03179,0.44249 0.144606,0.62361 0.206324,0.33124 0.93427,0.27132 1.162145,0.26224 1.906494,-0.076 4.101962,-0.56215 5.979181,-0.86029 5.672685,-0.99416 11.331191,-2.0656 17.001061,-3.07543 0,0 -3.049619,2.29541 -3.049619,2.29541 v 0 c -5.703573,0.92919 -11.383317,1.99529 -17.052422,3.11507 -0.936742,0.1742 -1.873124,0.35035 -2.810227,0.5226 -0.952452,0.17507 -4.402367,1.18047 -5.086056,-0.20406 -0.114563,-0.232 -0.07739,-0.51167 -0.116093,-0.7675 0.190005,-1.72224 0.603222,-3.1329 1.096337,-4.80499 0.948786,-3.21723 2.005914,-6.40093 3.089756,-9.57479 3.292951,-9.1468 6.786885,-18.2239 9.819018,-27.46217 1.280811,-4.09736 2.542672,-8.22425 3.144496,-12.4869 0,0 4.011658,-1.92175 4.011658,-1.92175 z"
         id="path824"
         style="fill:#00002b;fill-opacity:1;stroke:none;stroke-width:0.90200001;stroke-miterlimit:4;stroke-dasharray:none;stroke-opacity:1" />
      <path
         inkscape:connector-curvature="0"
         d="m 48.195907,231.29364 c 2.01458,-0.58084 4.017909,-1.17107 6.073857,-1.5941 1.410687,-0.31635 3.03766,-0.4319 3.963199,0.91568 0.170264,0.2479 0.2717,0.53662 0.407551,0.80493 0.737785,1.88833 0.91073,3.92159 1.069448,5.92429 0.199758,3.42256 0.162383,2.2074 -4.0259,4.64548 -0.842359,-0.71254 -1.656035,-1.45404 -2.535132,-2.12216 -1.029554,-0.74291 -2.229855,-1.37214 -3.5317,-1.39987 -0.283043,-0.006 -0.564475,0.0444 -0.846712,0.0665 -0.296246,0.0757 -0.603213,0.11771 -0.88874,0.22711 -0.32329,0.12386 -1.230083,0.63571 -0.926934,0.46851 0.909209,-0.50147 1.758231,-1.14993 2.745499,-1.47153 0.384861,-0.12537 -0.596614,0.54993 -0.859954,0.85731 -0.705805,0.82385 -0.843555,1.1916 -1.360103,2.1352 -0.768634,1.71431 -1.192226,3.63846 -0.640022,5.48597 0.0811,0.27133 0.213087,0.52478 0.31963,0.78717 0.966337,1.72287 2.205132,1.50192 3.822583,0.85549 2.306347,-1.3721 -0.943914,0.57408 -2.095746,1.11296 -0.280932,0.13143 0.489313,-0.38131 0.731004,-0.57569 1.656236,-1.33199 -0.287755,0.20139 1.215911,-0.97918 0,0 4.053137,-1.61516 4.053137,-1.61516 v 0 c -0.747268,0.55151 -0.502801,0.3563 -1.265008,0.9846 -0.243332,0.20058 -0.460711,0.43639 -0.726858,0.60554 -3.617036,2.29876 -3.122133,2.02329 -5.320641,3.12412 -1.986828,0.61344 -3.111143,0.54148 -4.192759,-1.40385 -0.11234,-0.28839 -0.251598,-0.56769 -0.337019,-0.86516 -0.55523,-1.93359 -0.186441,-3.96176 0.574144,-5.77917 0.42278,-0.83703 1.321816,-2.6269 2.106874,-3.16451 1.472044,-1.00805 3.03439,-1.87909 4.585999,-2.75977 0.771218,-0.43773 1.11964,-0.43515 1.952493,-0.58954 0.299291,-0.001 0.599593,-0.0278 0.897874,-0.003 1.364559,0.11246 2.589876,0.77581 3.677637,1.56349 0.638447,0.47869 0.517287,0.37656 1.115546,0.86776 0.353547,0.29028 0.75542,0.71862 1.193229,0.89069 0.04005,0.0157 0.0852,-0.0122 0.127802,-0.0183 -1.235065,0.75526 -2.465658,1.51789 -3.705194,2.26579 -0.03721,0.0225 0.07676,-0.0492 0.09606,-0.0882 0.04404,-0.0888 0.06698,-0.18721 0.08841,-0.28402 0.133125,-0.60128 0.149971,-1.22232 0.109466,-1.83451 -0.09261,-1.95073 -0.239469,-3.9363 -0.991889,-5.7618 -0.12115,-0.22764 -0.21141,-0.47464 -0.363452,-0.68293 -0.852403,-1.16769 -2.433273,-0.84621 -3.637444,-0.61283 -2.107618,0.44815 -4.15993,1.07341 -6.2088,1.73681 0,0 3.532648,-2.71997 3.532648,-2.71997 z"
         id="path826"
         style="fill:#00002b;fill-opacity:1;stroke:none;stroke-width:0.90200001;stroke-miterlimit:4;stroke-dasharray:none;stroke-opacity:1" />
      <path
         inkscape:connector-curvature="0"
         d="m 64.726901,229.07162 c -0.103838,2.6764 -0.139999,5.35393 -0.245319,8.03065 -0.110212,2.63479 -0.161208,5.27138 -0.1651,7.90835 -0.01003,3.47253 0.890445,1.84145 -3.959704,4.14937 0.08337,-2.3699 0.238316,-4.73296 0.43366,-7.0965 0.187862,-2.58445 0.684721,-5.15814 1.784901,-7.51369 1.308989,-2.22777 3.798763,-3.82398 6.349529,-4.24804 0.716737,-0.15262 1.262168,0.26455 1.87807,0.54662 0.294275,0.23814 0.584378,0.47693 0.825093,0.76734 0.119441,0.22788 0.05628,0.1295 0.180919,0.30047 0,0 -3.871142,2.28474 -3.871142,2.28474 v 0 c -0.13892,-0.19785 -0.08661,-0.10674 -0.168164,-0.26657 -0.200845,-0.2351 -0.443659,-0.45017 -0.701011,-0.61902 -0.561512,-0.27886 -1.029179,-0.5269 -1.675006,-0.32685 -1.452202,0.41944 -3.541522,1.81406 2.542747,-1.6768 0.166028,-0.0953 -0.325522,0.20394 -0.471673,0.32755 -0.482343,0.40797 -0.577202,0.60933 -0.96148,1.13469 -1.23531,2.2842 -1.787747,4.8614 -2.005042,7.43572 -0.159795,2.29807 -0.350602,4.60311 -0.128172,6.90486 -5.080042,2.75447 -4.085373,3.62349 -3.975581,1.77884 0.03825,-0.64264 0.0406,-1.28655 0.07013,-1.92956 0.09942,-2.66643 0.222681,-5.33187 0.326705,-7.99814 0.08826,-2.62415 0.130778,-5.25064 -0.03007,-7.8734 0,0 3.965707,-2.02063 3.965707,-2.02063 z"
         id="path828"
         style="fill:#00002b;fill-opacity:1;stroke:none;stroke-width:0.90200001;stroke-miterlimit:4;stroke-dasharray:none;stroke-opacity:1" />
      <path
         inkscape:connector-curvature="0"
         d="m 75.313679,228.24563 c 1.389319,-0.5037 2.865059,-0.78038 4.318908,-1.04255 1.955633,-0.33407 2.43618,-0.096 3.061189,1.80837 0.462865,2.35495 0.457216,4.77248 0.385718,7.16191 -0.01886,0.44876 -0.07817,2.84437 -0.529971,3.13378 -1.302518,0.83437 -2.661941,1.57638 -3.992915,2.36456 -0.621289,-0.20608 -1.027752,-0.8334 -1.402966,-1.33835 -0.456486,-0.5095 -0.971727,-0.96857 -1.621091,-1.20263 -0.79587,-0.22245 -1.590742,-0.18113 -2.386465,5.3e-4 -1.416707,0.46341 -4.093226,1.95942 2.045462,-1.33648 0.198035,-0.10633 -0.37373,0.2511 -0.547259,0.39397 -0.504868,0.41564 -0.540443,0.5139 -0.945182,1.02038 -0.877131,1.31047 -0.950515,2.79898 -0.789771,4.31467 0.157266,0.97251 0.523399,1.78111 1.466713,2.15187 0.930672,0.20468 1.888585,-0.24666 2.779792,-0.48909 2.125117,-0.43224 5.273561,-2.44407 -1.180471,1.2066 0.232781,-0.13674 0.364787,-0.33415 0.497195,-0.55907 0,0 4.065468,-1.87178 4.065468,-1.87178 v 0 c -0.09,0.30026 -0.206973,0.56351 -0.412075,0.8078 -3.020703,1.74921 -3.684561,2.4372 -6.451447,3.09369 -0.97523,0.27973 -2.016722,0.68251 -3.008661,0.26238 -0.997204,-0.55181 -1.458741,-1.4637 -1.618475,-2.58256 -0.17108,-1.58923 -0.174606,-3.16557 0.641162,-4.60152 1.574591,-2.32677 4.308846,-3.71639 6.974853,-4.46745 0.866675,-0.13053 1.748769,-0.14136 2.578907,0.18267 0.678559,0.32868 1.241991,0.83374 1.729531,1.40599 0.210016,0.26794 0.688002,1.08872 1.092838,0.81066 -8.035232,4.84951 -3.704349,2.91797 -3.186594,1.6182 0.303601,-0.76216 0.339944,-1.59023 0.391673,-2.39794 0.128855,-2.33087 0.137864,-4.69426 -0.380508,-6.98388 -0.08438,-0.23688 -0.142764,-0.4847 -0.253153,-0.71064 -0.486114,-0.99492 -1.583092,-0.72959 -2.473809,-0.57834 -1.484157,0.27348 -2.981069,0.58282 -4.369067,1.19271 0,0 3.520471,-2.76836 3.520471,-2.76836 z"
         id="path832"
         style="fill:#00002b;fill-opacity:1;stroke:none;stroke-width:0.90200001;stroke-miterlimit:4;stroke-dasharray:none;stroke-opacity:1" />
      <path
         inkscape:connector-curvature="0"
         d="m 89.678056,230.91388 c -0.09432,1.89138 -0.07806,3.78641 -0.0802,5.67958 5.29e-4,1.73681 0.01844,3.47346 0.04545,5.21003 0.02992,0.8473 0.04848,1.68544 -0.102724,2.52144 -0.251876,1.57918 -0.07713,0.75226 -4.108638,1.82175 -0.188058,0.0499 -0.02617,-0.38835 -0.0315,-0.58284 -0.0073,-0.26695 -0.0061,-0.53409 -0.0064,-0.80114 -0.0013,-1.21671 -0.0013,-0.86933 0.05437,-2.16867 0.08921,-2.40661 0.359841,-4.79429 0.810879,-7.15819 0.326906,-1.49436 0.830707,-2.94297 1.344705,-4.38144 0.319127,-0.93131 0.836903,-1.75956 1.579121,-2.40587 1.372793,-0.78519 2.729743,-1.59876 4.118382,-2.35558 0.831387,-0.45311 1.706647,0.72765 2.139339,1.22247 1.107585,1.44565 1.892289,3.07334 2.498661,4.7807 0.583433,1.92772 0.65137,3.95272 0.727215,5.95051 0.08005,1.40506 -0.0053,2.81939 0.109858,4.22198 0.07417,0.55776 0.02809,0.30172 0.128453,0.76984 0,0 -3.93269,2.09374 -3.93269,2.09374 v 0 c -0.0778,-0.51058 -0.03892,-0.23539 -0.11366,-0.82598 -0.121105,-1.42561 0.06204,-2.86386 -0.02146,-4.29298 -0.05034,-1.95649 -0.117874,-3.93698 -0.6791,-5.82679 -0.573628,-1.65538 -1.326859,-3.24352 -2.455403,-4.60026 -0.227102,-0.23129 -0.556937,-0.61403 -0.865806,-0.77724 -1.215935,-0.64252 -5.870599,3.03757 2.487292,-1.9956 -0.834744,0.47735 -1.397759,1.30994 -1.750436,2.18962 -0.529756,1.43467 -1.060955,2.87427 -1.440113,4.35736 -0.521306,2.33796 -0.852578,4.70921 -0.878459,7.10958 -0.02085,0.95943 -0.01879,1.9053 0.0567,2.86252 0.01333,0.16916 0.191339,0.40756 0.05331,0.50627 -1.238906,0.88593 -2.634943,1.52846 -3.956796,2.28508 -0.03317,0.019 0.05973,-0.0477 0.0896,-0.0715 0.291645,-0.79247 0.227012,-1.6274 0.239609,-2.4587 0.02683,-1.75201 0.04499,-3.5041 0.04546,-5.25634 -0.0021,-1.8659 0.01558,-3.73386 -0.0802,-5.59786 0,0 3.975163,-2.02545 3.975163,-2.02545 z"
         id="path834"
         style="fill:#00002b;fill-opacity:1;stroke:none;stroke-width:0.90200001;stroke-miterlimit:4;stroke-dasharray:none;stroke-opacity:1" />
      <path
         inkscape:connector-curvature="0"
         d="m 102.96718,228.15769 c 0.52525,2.22285 1.24479,4.39301 1.91932,6.57344 1.06998,3.43527 1.84402,6.94861 2.34029,10.50998 0.29482,2.14958 0.37419,4.31676 -0.0158,6.45852 -0.2005,1.1011 -0.37579,1.62103 -0.67845,2.68098 -0.49213,1.60623 -1.17668,3.14294 -2.37858,4.33642 -1.59273,1.07739 -3.80497,3.03318 -5.907744,2.80783 -0.463833,-0.0497 -0.828969,-0.21809 -1.260404,-0.37929 -1.159237,-0.47524 -2.006769,-1.28738 -2.65005,-2.33969 -0.513504,-1.01399 -0.897049,-2.0858 -1.376286,-3.11653 -0.422836,-0.82367 -0.660307,-1.70291 -0.758912,-2.6186 0,0 3.929223,-2.05356 3.929223,-2.05356 v 0 c 0.08692,0.87003 0.271693,1.71489 0.66779,2.50292 0.465217,1.01796 0.843484,2.07548 1.354259,3.0713 0.583679,0.9684 1.381734,1.70112 2.460934,2.09304 0.61445,0.17811 1.11034,0.29493 1.75031,0.15627 0.18158,-0.0393 0.68809,-0.26643 0.53236,-0.16511 -1.56523,1.01837 -4.672362,2.71887 -2.8143,1.69772 1.34497,-1.04072 2.0699,-2.61669 2.63346,-4.18544 0.42403,-1.34976 0.82912,-2.69981 0.99035,-4.11258 0.18688,-1.63744 0.0595,-3.28241 -0.12684,-4.91273 -0.46675,-3.54231 -1.20196,-7.03423 -2.34277,-10.42645 -0.70888,-2.14703 -1.435946,-4.2888 -2.18237,-6.4227 0,0 3.91423,-2.15574 3.91423,-2.15574 z"
         id="path836"
         style="fill:#00002b;fill-opacity:1;stroke:none;stroke-width:0.90200001;stroke-miterlimit:4;stroke-dasharray:none;stroke-opacity:1" />
      <path
         inkscape:connector-curvature="0"
         d="m 99.970917,220.72028 c 0.640773,0.44135 1.365813,0.7623 2.145663,0.594 1.37955,-0.47614 3.96789,-2.01729 -2.991481,1.76613 -0.07889,0.0429 0.136666,-0.11753 0.195382,-0.18547 0.07218,-0.0835 0.26081,-0.37538 0.322741,-0.46914 0.238395,-0.39935 0.606178,-0.76429 0.522658,-1.26082 -0.1349,-0.45629 -0.28085,-0.89586 -0.820568,-0.89832 -1.431964,0.10285 -5.64025,2.87887 2.058238,-1.50279 -0.47551,0.30385 -0.93755,0.63881 -1.23791,1.12305 -0.172482,0.34527 -0.0784,0.17689 -0.282308,0.50511 0,0 -4.113729,1.75445 -4.113729,1.75445 v 0 c 0.25477,-0.23625 0.143561,-0.10091 0.329486,-0.4094 0.214921,-0.59372 0.616458,-1.01471 1.14971,-1.34906 0.93032,-0.54075 3.828511,-2.95595 5.777221,-2.6608 0.60327,0.2555 0.89852,0.68331 1.08207,1.30296 0.18073,0.59164 0.0384,1.12143 -0.38391,1.57851 -0.98056,1.94129 -3.03691,3.03615 -5.185773,3.34954 -0.861317,-0.0323 -1.639991,-0.37107 -2.355961,-0.84177 0,0 3.788471,-2.39618 3.788471,-2.39618 z"
         id="path840"
         style="fill:#00002b;fill-opacity:1;stroke:none;stroke-width:0.90200001;stroke-miterlimit:4;stroke-dasharray:none;stroke-opacity:1" />
      <path
         inkscape:connector-curvature="0"
         d="m 106.52499,226.30669 c 0.39752,-0.7236 1.01346,-1.2776 1.68974,-1.73387 1.28239,0.73028 3.39133,-2.89403 5.33517,-2.49044 0.2728,0.0566 0.38344,0.16933 0.60485,0.32518 0.92959,0.86548 1.55993,2.00054 2.12042,3.12613 0.5704,1.29919 1.15936,2.594 1.65816,3.92291 0.23989,0.78407 0.41194,1.58495 0.61599,2.37938 0.56575,1.78607 0.96936,0.22103 -3.80467,2.60788 -0.0354,0.0177 -0.0923,-0.22096 -0.15269,-0.44848 -0.0684,-0.52195 -0.26173,-1.00832 -0.58367,-1.42387 -0.38706,-0.46631 -0.92463,-0.74142 -1.41409,-1.07671 -0.5153,-0.25417 -1.0561,-0.48319 -1.60695,-0.656 -0.69813,-0.15951 -1.42421,-0.22283 -2.13415,-0.12805 -1.4522,0.46518 -3.73801,1.89473 2.63585,-1.62232 0.13878,-0.0766 -0.27036,0.16651 -0.39636,0.26266 -0.37714,0.28779 -0.40719,0.36747 -0.7203,0.74009 -0.7564,1.08809 -0.90434,2.405 -1.01874,3.68928 -0.1076,0.95062 -0.0181,1.81046 0.69958,2.48128 0.48422,0.41718 0.97084,0.83792 1.47764,1.22838 0.53881,0.36356 1.11989,0.55571 1.75544,0.66299 0.73272,0.0945 1.4732,0.0923 2.21064,0.0949 0.30276,-0.10275 0.64208,-0.10931 0.94343,-0.21314 0.0915,-0.0315 0.34272,-0.17971 0.25859,-0.13191 -3.78463,2.15037 -4.73561,2.83842 -3.43442,1.91015 0.1994,-0.15615 0.28203,-0.37394 0.35996,-0.60468 0,0 4.11973,-1.81217 4.11973,-1.81217 v 0 c -0.21311,0.16738 -0.18578,0.48909 -0.33575,0.71382 -1.29684,1.56147 -3.45965,2.63276 -5.51124,2.74874 -0.75654,-0.01 -1.51816,-0.0189 -2.26384,-0.16177 -0.67979,-0.15942 -1.3213,-0.41117 -1.88672,-0.83075 -0.50229,-0.41807 -1.01305,-0.82954 -1.48311,-1.28346 -0.75997,-0.80914 -0.96855,-1.74625 -0.82639,-2.84695 0.0997,-1.33644 0.23322,-2.7067 0.88911,-3.90279 0.29353,-0.43216 0.56414,-0.87044 1.0275,-1.14334 1.71556,-1.01042 3.14423,-2.3173 5.06654,-2.61363 0.76266,-0.021 1.53496,0.0172 2.26498,0.25944 0.57009,0.21391 1.15359,0.42358 1.66914,0.75073 0.54136,0.34755 1.07984,0.70907 1.50043,1.20432 0.33664,0.46662 0.59652,0.99291 0.68013,1.56752 0.015,0.0592 0.0273,0.11908 0.045,0.17751 0.008,0.0279 0.0576,0.0652 0.0331,0.081 -3.43408,2.21164 -3.52127,3.77868 -3.9854,1.83918 -0.18874,-0.78927 -0.35091,-1.58011 -0.54641,-2.36712 -0.44992,-1.33002 -1.01029,-2.6222 -1.59303,-3.89864 -0.52579,-1.04551 -1.12944,-2.1384 -2.08145,-2.85417 -0.20273,-0.0905 -0.22869,-0.12984 -0.45443,-0.12323 -1.49891,0.0439 -4.48241,2.5026 2.40334,-1.73435 -0.69131,0.35433 -1.28808,0.84187 -1.74135,1.4782 0,0 -4.0892,1.85009 -4.0892,1.85009 z"
         id="path844"
         style="fill:#00002b;fill-opacity:1;stroke:none;stroke-width:0.90200001;stroke-miterlimit:4;stroke-dasharray:none;stroke-opacity:1" />
      <path
         inkscape:connector-curvature="0"
         d="m 125.26083,210.26986 c 0.42123,1.39579 1.05545,2.71307 1.65771,4.03681 0.96555,2.1504 1.94423,4.29434 2.86182,6.46594 0.71167,1.67367 1.34714,3.37851 2.08028,5.04334 0.32226,0.86492 0.77809,1.67481 1.05854,2.5547 0.0276,0.11754 0.0546,0.23521 0.0828,0.35262 0.0298,0.12439 0.17341,0.47639 0.10289,0.36968 -0.0264,-0.0399 -0.009,-0.15648 -0.0511,-0.1342 -4.01224,2.10887 -3.52837,3.67561 -3.96749,2.02547 -0.15377,-0.57537 -0.36641,-1.14538 -0.63607,-1.67753 -0.3269,-0.70937 -0.85968,-1.30002 -1.44822,-1.80358 -0.59986,-0.37072 -1.22795,-0.71025 -1.91556,-0.8835 -0.68847,-0.13133 -1.39272,-0.12984 -2.09093,-0.13564 -0.30403,-5.3e-4 -0.40573,-0.0289 -0.68895,0.0724 -0.10109,0.0362 -0.38183,0.19632 -0.28847,0.14331 7.06243,-4.01038 4.03792,-2.72109 3.15239,-1.59869 -0.38896,0.64956 -0.58174,1.38887 -0.84943,2.092 -0.32229,0.70653 -0.48586,1.45576 -0.57361,2.22266 -0.11338,0.95904 -0.10089,1.61936 0.30374,2.5101 0.55551,0.93155 1.34053,1.59105 2.35035,1.96339 0.73118,0.17223 1.52696,0.30874 2.2695,0.14455 0.60247,-0.13966 1.21322,-0.21309 1.71685,-0.59514 -7.97702,4.3553 -3.88375,2.94944 -3.3144,1.65712 0.10345,-0.23481 0.14203,-0.50213 0.19893,-0.75041 0.13047,-0.33131 0.0464,-0.1766 0.2514,-0.4646 0,0 4.15334,-1.68058 4.15334,-1.68058 v 0 c -0.26973,0.11697 -0.15196,0.0374 -0.35636,0.23419 -0.10648,0.25812 -0.12366,0.51415 -0.19374,0.78408 -0.48348,1.86209 -1.92563,1.77433 -4.21587,3.03011 -0.58197,0.2343 -1.19171,0.36552 -1.81357,0.44713 -0.8068,0.0222 -1.62084,-0.0551 -2.37957,-0.34736 -1.05479,-0.49199 -1.8877,-1.25639 -2.50172,-2.25133 -0.48251,-0.99672 -0.56689,-1.61151 -0.4505,-2.70256 0.0701,-0.80135 0.19631,-1.59704 0.52451,-2.33901 0.30207,-0.70329 0.47222,-1.45238 0.8038,-2.14241 0.87085,-1.98099 3.39263,-3.07703 5.50418,-3.03847 0.72712,0.0153 1.46319,0.0311 2.16808,0.23046 0.71657,0.24272 1.39349,0.61017 2.00244,1.05785 0.61364,0.55873 1.19417,1.17147 1.54268,1.9356 0.29566,0.54782 0.52267,1.13567 0.71305,1.72665 0.57007,1.55906 -3.27182,4.01307 -3.88085,2.40977 -0.0485,-0.12765 -0.0418,-0.2699 -0.0663,-0.40423 -0.0197,-0.10795 -0.0433,-0.21516 -0.0649,-0.32274 -0.24886,-0.87586 -0.67883,-1.68797 -0.96362,-2.55253 -0.6926,-1.68766 -1.28595,-3.41382 -1.98637,-5.09812 -0.90635,-2.16987 -1.86922,-4.3132 -2.87693,-6.43783 -0.6259,-1.30108 -1.28965,-2.58674 -1.82502,-3.92872 0,0 3.90033,-2.22079 3.90033,-2.22079 z"
         id="path848"
         style="fill:#00002b;fill-opacity:1;stroke:none;stroke-width:0.90200001;stroke-miterlimit:4;stroke-dasharray:none;stroke-opacity:1" />
      <path
         inkscape:connector-curvature="0"
         d="m 131.14579,222.09737 c 2.17503,-1.30652 4.20997,-2.81734 6.71307,-3.30613 1.29408,-0.20473 1.97788,-0.35424 3.13535,0.36982 1.20453,1.02005 1.8862,2.49002 2.51717,3.90493 0.59863,1.19412 0.84521,2.51617 1.32115,3.75314 0.62952,1.99333 -0.0722,1.05224 -3.83009,2.91035 -0.0762,0.0377 -0.13221,-0.10732 -0.20301,-0.15438 -0.0588,-0.0391 -0.12318,-0.0689 -0.18477,-0.10336 -0.45639,-0.40334 -0.96595,-0.74333 -1.50008,-1.03477 -0.64626,-0.31686 -1.30475,-0.40284 -2.00368,-0.27836 -1.46487,0.61589 -1.1906,0.51325 3.2255,-1.842 0.13416,-0.0716 -0.24927,0.17602 -0.35955,0.2807 -0.3948,0.37472 -0.64113,0.84837 -0.88761,1.32409 -0.53442,1.04036 -0.80949,2.16621 -0.95728,3.3184 -0.13819,0.98917 0.0246,1.97487 0.50569,2.84882 0.44175,0.60489 1.12552,0.69501 1.82117,0.75207 0.77292,0.10214 1.20673,-0.0683 1.86551,-0.40749 1.90252,-0.79748 -4.40687,2.62413 -3.32281,1.93905 1.32313,-0.83616 2.70583,-1.57428 4.06947,-2.34258 0.0847,-0.0477 0.35643,-0.15294 0.27255,-0.10381 -4.69524,2.75046 -4.69577,2.75605 -3.38239,1.91359 0.29507,-0.23952 0.38585,-0.57893 0.46494,-0.93318 0,0 4.02015,-1.95216 4.02015,-1.95216 v 0 c -0.0691,0.41081 -0.12317,0.83084 -0.34452,1.19396 -1.17561,1.43134 -0.11338,0.19185 -4.25769,2.5561 -0.0823,0.0469 -0.33229,0.18171 -0.25041,0.13415 1.19198,-0.69237 4.80802,-2.6965 3.58084,-2.06864 -8.5208,4.35942 -2.38775,1.55218 -4.34636,2.44563 -0.64129,0.27221 -1.31289,0.29191 -1.99945,0.19763 -0.82372,-0.12698 -1.56151,-0.3842 -2.0356,-1.12072 -0.50094,-0.95585 -0.73516,-2.01906 -0.61153,-3.09922 0.13605,-1.18921 0.37667,-2.3651 0.9073,-3.44897 0.95871,-2.2778 2.93448,-3.84393 5.60273,-4.24668 0.75466,-0.0338 1.4847,0.15812 2.1517,0.513 0.52444,0.30529 1.02421,0.64433 1.51965,0.99357 0.0606,0.0262 0.11686,0.0665 0.18175,0.0785 0.0293,0.005 0.11021,-0.0443 0.0846,-0.0291 -1.25308,0.74516 -2.54016,1.43456 -3.76852,2.21981 -0.0476,0.0304 0.0794,0.11874 0.13382,0.10373 0.13378,-0.0369 -0.26232,-0.48058 -0.0448,-0.41393 -0.38986,-1.26189 -0.63941,-2.56951 -1.21645,-3.76883 -0.58721,-1.33146 -1.24263,-2.73172 -2.43145,-3.62949 -1.03762,-0.51166 -1.85065,-0.31028 -2.94701,-0.10688 -0.48585,0.12473 -0.58965,0.13755 -1.05714,0.31178 -1.60084,0.59661 -4.56438,2.65706 2.01344,-1.32865 0,0 -4.16536,1.6565 -4.16536,1.6565 z"
         id="path850"
         style="fill:#00002b;fill-opacity:1;stroke:none;stroke-width:0.90200001;stroke-miterlimit:4;stroke-dasharray:none;stroke-opacity:1" />
    </g>
  </g>
</svg>
