<?xml version="1.0" encoding="UTF-8" standalone="no"?>
<!-- Created with Inkscape (http://www.inkscape.org/) -->

<svg
   xmlns:dc="http://purl.org/dc/elements/1.1/"
   xmlns:cc="http://creativecommons.org/ns#"
   xmlns:rdf="http://www.w3.org/1999/02/22-rdf-syntax-ns#"
   xmlns:svg="http://www.w3.org/2000/svg"
   xmlns="http://www.w3.org/2000/svg"
   xmlns:sodipodi="http://sodipodi.sourceforge.net/DTD/sodipodi-0.dtd"
   xmlns:inkscape="http://www.inkscape.org/namespaces/inkscape"
   width="210mm"
   height="297mm"
   viewBox="0 0 210 297"
   version="1.1"
   id="svg8"
   inkscape:version="0.91 r13725"
   sodipodi:docname="Leite.svg">
  <defs
     id="defs2">
    <inkscape:perspective
       sodipodi:type="inkscape:persp3d"
       inkscape:vp_x="0 : 148.5 : 1"
       inkscape:vp_y="0 : 1000 : 0"
       inkscape:vp_z="210 : 148.5 : 1"
       inkscape:persp3d-origin="105 : 99 : 1"
       id="perspective817" />
  </defs>
  <sodipodi:namedview
     id="base"
     pagecolor="#ffffff"
     bordercolor="#666666"
     borderopacity="1.0"
     inkscape:pageopacity="0.0"
     inkscape:pageshadow="2"
     inkscape:zoom="0.7"
     inkscape:cx="75.363564"
     inkscape:cy="261.36728"
     inkscape:document-units="mm"
     inkscape:current-layer="layer1"
     showgrid="false"
     inkscape:window-width="1366"
     inkscape:window-height="719"
     inkscape:window-x="0"
     inkscape:window-y="25"
     inkscape:window-maximized="1" />
  <metadata
     id="metadata5">
    <rdf:RDF>
      <cc:Work
         rdf:about="">
        <dc:format>image/svg+xml</dc:format>
        <dc:type
           rdf:resource="http://purl.org/dc/dcmitype/StillImage" />
        <dc:title />
      </cc:Work>
    </rdf:RDF>
  </metadata>
  <g
     inkscape:label="Layer 1"
     inkscape:groupmode="layer"
     id="layer1">
    <g
       id="g3349"
       style="fill:#00002b;fill-opacity:1">
      <path
         inkscape:connector-curvature="0"
         d="m 94.706251,213.59752 c 2.815148,-0.34414 5.611809,-0.82225 8.410479,-1.2777 0.55105,-0.11766 1.10209,-0.23533 1.65313,-0.353 0,0 -3.30084,2.50142 -3.30084,2.50142 v 0 c -0.54575,0.10655 -1.09151,0.2131 -1.637263,0.31965 -2.903533,0.46621 -5.801069,0.96957 -8.696701,1.48249 0,0 3.571195,-2.67286 3.571195,-2.67286 z"
         id="path838"
         style="fill:#00002b;fill-opacity:1;stroke:none;stroke-width:0.90200001;stroke-miterlimit:4;stroke-dasharray:none;stroke-opacity:1" />
      <g
         style="fill:#00002b;fill-opacity:1"
         id="g3341">
        <path
           style="fill:#00002b;fill-opacity:1;stroke:none;stroke-width:0.90200001;stroke-miterlimit:4;stroke-dasharray:none;stroke-opacity:1"
           id="path828"
           d="m 56.033447,186.73829 c -0.05302,3.43003 -1.008113,6.73743 -1.915274,10.01743 -1.871847,6.32647 -4.374869,12.4403 -6.807869,18.56555 -1.655506,4.2505 -3.11853,8.57126 -4.705181,12.84739 -0.739399,1.93188 -1.393245,3.89438 -2.163961,5.81425 -0.719918,1.75837 -1.413904,3.52785 -2.087821,5.30436 -0.21911,0.62079 -0.452747,1.23935 -0.552339,1.89322 -0.02082,0.13676 -0.08654,0.50779 0.01577,0.4147 0.06429,-0.0585 0.08245,-0.15305 0.123669,-0.22957 1.393036,-0.94684 0.413282,-0.26447 -2.49999,1.3819 -0.38975,0.22026 0.775579,-0.4474 1.161079,-0.67501 0.486982,-0.28752 0.965274,-0.58983 1.45632,-0.87036 5.129273,-2.93027 3.63198,-2.14062 6.961425,-3.82078 2.759639,-1.16458 5.379403,-2.63038 8.123367,-3.82603 0.977324,-0.42091 2.032466,-0.61187 3.033295,-0.95614 0.879747,-0.23457 1.748591,-0.51891 2.605704,-0.82622 0,0 -3.461089,2.69568 -3.461089,2.69568 v 0 c -0.881488,0.29579 -1.76194,0.59605 -2.657313,0.84759 -0.981052,0.27165 -1.968453,0.53451 -2.911658,0.92246 -2.665611,1.16194 -5.246828,2.51309 -7.90775,3.6865 -1.904116,0.97791 -2.915111,1.55067 0.08251,-0.2173 0.463767,-0.27352 -0.91631,0.56568 -1.376619,0.84499 -2.020168,1.22582 -3.950571,2.75522 -6.216486,3.45484 -0.141542,-0.0695 -0.309327,-0.10085 -0.424622,-0.2084 -0.43856,-0.4091 0.396547,-2.24965 0.522584,-2.69221 0.693163,-1.76912 1.377862,-3.54128 2.075778,-5.30843 0.811255,-1.9469 1.501103,-3.94069 2.3281,-5.88144 1.73971,-4.31333 3.315362,-8.68732 5.038185,-13.00742 2.475625,-6.06241 4.985203,-12.13599 6.707196,-18.46566 0.802248,-3.16016 1.719188,-6.39075 1.48727,-9.68526 0,0 3.965705,-2.02063 3.965705,-2.02063 z"
           inkscape:connector-curvature="0" />
        <path
           style="fill:#00002b;fill-opacity:1;stroke:none;stroke-width:0.90200001;stroke-miterlimit:4;stroke-dasharray:none;stroke-opacity:1"
           id="path830"
           d="m 61.75957,223.8671 c 1.547336,0.0898 3.091812,-0.0791 4.611516,-0.35917 1.551529,-0.35116 3.0985,-0.75928 4.508245,-1.5117 -1.127622,0.63684 -2.242404,1.29698 -3.382869,1.91054 -0.113642,0.0611 0.205433,-0.15763 0.295804,-0.24975 0.305498,-0.31139 0.414223,-0.64796 0.41539,-1.07012 -0.102576,-0.76835 -0.565666,-1.1374 -1.212659,-1.48139 -1.099069,-0.67347 -2.30382,-1.03482 -3.563083,-1.25558 -0.553873,-0.0458 -1.122513,-0.23318 -1.668706,-0.0301 -0.155305,0.0577 -0.580083,0.32051 -0.43524,0.24007 3.511614,-1.95048 4.26284,-2.69793 2.866764,-1.42806 -1.133229,1.2745 -1.60224,2.90329 -2.017112,4.51788 -0.300117,1.42481 -0.546156,2.9213 -0.151601,4.35575 0.07744,0.28157 0.197294,0.54971 0.295944,0.82456 0.946981,1.89321 2.784917,2.9079 4.693616,3.61706 1.825844,0.59072 3.479199,0.64665 5.299077,0.068 2.658917,-1.43506 -4.418856,2.84693 -2.254533,1.24452 0,0 4.091078,-1.65158 4.091078,-1.65158 v 0 c -1.498463,1.39454 -3.37044,2.36992 -5.291249,3.06373 -1.869469,0.45162 -3.583442,0.30316 -5.404805,-0.33454 -1.995509,-0.81144 -3.895561,-1.92591 -4.91322,-3.91048 -0.109966,-0.29342 -0.241779,-0.57956 -0.329901,-0.88027 -0.435414,-1.48583 -0.235667,-3.03968 0.06881,-4.52746 0.384053,-1.65443 0.84637,-3.31021 1.861836,-4.70225 1.457513,-1.68732 0.47943,-0.65857 4.654738,-2.98803 0.155474,-0.0867 0.337894,-0.11878 0.513926,-0.14541 0.571757,-0.0865 1.150237,0.0985 1.712127,0.1598 1.289796,0.26781 2.524768,0.68805 3.671372,1.34833 0.773956,0.43621 1.290441,0.95305 1.481425,1.8467 0.247071,2.52742 -3.012135,3.14126 -4.736065,4.20381 -1.44354,0.63947 -2.963127,1.05624 -4.511574,1.35821 -1.587162,0.25586 -3.187126,0.39241 -4.795594,0.40186 0,0 3.62654,-2.63484 3.62654,-2.63484 z"
           inkscape:connector-curvature="0" />
        <path
           style="fill:#00002b;fill-opacity:1;stroke:none;stroke-width:0.90200001;stroke-miterlimit:4;stroke-dasharray:none;stroke-opacity:1"
           id="path832"
           d="m 83.257188,214.61328 c -0.01894,1.90133 -0.150596,3.78629 -0.414592,5.66924 -0.430366,2.29019 -0.728808,4.60374 -1.21049,6.88411 -0.192868,0.82877 -0.366138,1.66118 -0.504118,2.50077 0,0 -3.965538,1.93724 -3.965538,1.93724 v 0 c 0.151027,-0.86287 0.346977,-1.71564 0.574561,-2.56174 0.55263,-2.2727 0.906457,-4.58343 1.302147,-6.88721 0.24479,-1.83098 0.392838,-3.66511 0.233413,-5.51214 0,0 3.984617,-2.03027 3.984617,-2.03027 z"
           inkscape:connector-curvature="0" />
        <path
           style="fill:#00002b;fill-opacity:1;stroke:none;stroke-width:0.90200001;stroke-miterlimit:4;stroke-dasharray:none;stroke-opacity:1"
           id="path834"
           d="m 83.597035,208.18735 c -0.255196,0.52262 -0.5299,1.10675 -0.456221,1.70464 -0.693788,-1.56641 0.02955,-0.11835 -3.986914,1.92813 -0.05198,0.0265 0.03114,-0.11268 0.04059,-0.17025 0.04443,-0.27057 0.05041,-0.53526 0.02994,-0.80753 -0.362815,-2.23249 -0.859948,-0.29057 3.728612,-2.79427 -0.406194,0.52071 -0.706136,1.11315 -0.930066,1.73177 -0.208669,0.63763 -0.185568,0.92771 0.345596,1.32995 0.500573,0.2317 1.093483,0.38489 1.577829,0.0654 -1.214281,0.68309 -2.41935,1.38282 -3.642846,2.04927 -0.06919,0.0377 0.125968,-0.0975 0.174114,-0.15983 0.246293,-0.31902 0.266367,-0.76796 0.267573,-1.15008 -0.01778,-0.52996 -0.282662,-0.77217 -0.765093,-0.89448 0,0 3.721478,-2.5073 3.721478,-2.5073 v 0 c 0.571852,0.26915 0.950871,0.70536 0.999691,1.35918 0.25508,2.54032 -1.737555,2.78943 -4.282982,4.05262 -0.64838,0.0762 -1.306039,-0.0672 -1.844786,-0.44553 -0.549828,-0.50458 -0.814581,-1.05303 -0.572291,-1.8062 0.187589,-0.64942 0.465193,-1.25619 0.815726,-1.83333 3.930153,-2.2615 3.842949,-3.62067 4.36291,-1.07288 0.01532,0.0975 0.06934,1.07347 0.03779,1.09382 -3.925396,2.53067 -3.170037,3.64146 -4.07225,2.11074 -0.04203,-0.66938 0.119639,-1.31321 0.3624,-1.93373 0,0 4.089207,-1.85009 4.089207,-1.85009 z"
           inkscape:connector-curvature="0" />
        <path
           style="fill:#00002b;fill-opacity:1;stroke:none;stroke-width:0.90200001;stroke-miterlimit:4;stroke-dasharray:none;stroke-opacity:1"
           id="path836"
           d="m 100.63937,195.38412 c -0.0563,3.32008 -0.51617,6.60654 -1.039264,9.87985 -0.968558,5.93181 -2.600918,11.72048 -4.210169,17.50193 -0.827469,2.9702 -1.890072,5.87003 -2.710752,8.84157 -0.182128,0.83673 -0.380087,1.66786 -0.806362,2.41574 0,0 -4.105058,1.77276 -4.105058,1.77276 v 0 c 0.596349,-0.61833 0.755237,-1.53772 0.992716,-2.3323 0.961073,-3.03196 2.19796,-5.97126 3.100766,-9.02367 1.73151,-5.72853 3.3654,-11.50984 4.215673,-17.44574 0.433273,-3.17191 0.836641,-6.3779 0.587285,-9.5847 0,0 3.975165,-2.02544 3.975165,-2.02544 z"
           inkscape:connector-curvature="0" />
        <path
           style="fill:#00002b;fill-opacity:1;stroke:none;stroke-width:0.90200001;stroke-miterlimit:4;stroke-dasharray:none;stroke-opacity:1"
           id="path840"
           d="m 104.55272,222.36143 c 1.90176,-0.1155 3.7953,-0.46807 5.55764,-1.19579 2.33067,-1.35323 -1.32999,0.78159 -2.41099,1.28217 -0.18206,0.0843 0.29097,-0.27945 0.40852,-0.44204 0.3342,-0.46226 0.35777,-0.85633 0.26942,-1.39142 -0.57688,-1.04435 -1.75662,-1.33774 -2.84525,-1.55194 -0.4138,-0.012 -0.80619,-0.0535 -1.2144,0.0594 -0.21909,0.0606 -0.4181,0.1786 -0.62715,0.2679 1.02023,-0.56708 2.00888,-1.19514 3.06069,-1.70122 0.28189,-0.13564 -0.50566,0.37062 -0.73575,0.58256 -0.24986,0.23014 -0.46694,0.49351 -0.70041,0.74027 -1.22364,1.58835 -2.06851,3.46496 -2.39491,5.45065 -0.0647,0.39382 -0.0752,0.79464 -0.11284,1.19196 0.0109,1.84671 0.5473,3.64159 2.1281,4.74148 0.28521,0.19845 0.60852,0.33557 0.91277,0.50336 1.6085,0.5452 3.15381,0.27603 4.65208,-0.46215 0.41574,-0.20483 1.61632,-0.90769 1.20849,-0.68753 -0.82394,0.44478 -1.63798,0.90766 -2.45697,1.36148 0.89379,-0.60528 1.73106,-1.28247 2.54837,-1.98526 0,0 4.00202,-1.62464 4.00202,-1.62464 v 0 c -0.8407,0.73583 -1.71394,1.42686 -2.61864,2.08357 -1.58378,0.93481 -3.15744,1.88698 -4.75135,2.80442 -2.01823,1.16167 -3.92623,1.69756 -6.17373,0.84313 -0.32293,-0.19134 -0.6669,-0.35096 -0.96878,-0.57403 -1.643409,-1.21435 -2.226447,-3.14374 -2.283862,-5.107 0.03098,-0.41569 0.03293,-0.83457 0.09294,-1.24708 0.294222,-2.02248 1.111252,-3.94626 2.257022,-5.62561 1.89171,-2.25411 4.72758,-4.49533 7.78464,-4.11876 1.24832,0.30764 2.49985,0.75787 3.12633,1.97178 0.0467,0.19408 0.12472,0.38321 0.14016,0.58224 0.19325,2.49238 -4.02879,3.79907 -5.68242,4.70566 -1.86132,0.64925 -3.81662,1.00892 -5.7811,1.16476 0,0 3.60937,-2.62237 3.60937,-2.62237 z"
           inkscape:connector-curvature="0" />
      </g>
    </g>
  </g>
</svg>
