<?xml version="1.0" encoding="UTF-8" standalone="no"?>
<!-- Created with Inkscape (http://www.inkscape.org/) -->

<svg
   xmlns:dc="http://purl.org/dc/elements/1.1/"
   xmlns:cc="http://creativecommons.org/ns#"
   xmlns:rdf="http://www.w3.org/1999/02/22-rdf-syntax-ns#"
   xmlns:svg="http://www.w3.org/2000/svg"
   xmlns="http://www.w3.org/2000/svg"
   xmlns:sodipodi="http://sodipodi.sourceforge.net/DTD/sodipodi-0.dtd"
   xmlns:inkscape="http://www.inkscape.org/namespaces/inkscape"
   width="210mm"
   height="297mm"
   viewBox="0 0 210 297"
   version="1.1"
   id="svg8"
   inkscape:version="0.91 r13725"
   sodipodi:docname="MisHomogenea.svg">
  <defs
     id="defs2" />
  <sodipodi:namedview
     id="base"
     pagecolor="#ffffff"
     bordercolor="#666666"
     borderopacity="1.0"
     inkscape:pageopacity="0.0"
     inkscape:pageshadow="2"
     inkscape:zoom="0.98994949"
     inkscape:cx="274.36971"
     inkscape:cy="300.88647"
     inkscape:document-units="mm"
     inkscape:current-layer="layer1"
     showgrid="false"
     inkscape:window-width="1366"
     inkscape:window-height="719"
     inkscape:window-x="0"
     inkscape:window-y="25"
     inkscape:window-maximized="1" />
  <metadata
     id="metadata5">
    <rdf:RDF>
      <cc:Work
         rdf:about="">
        <dc:format>image/svg+xml</dc:format>
        <dc:type
           rdf:resource="http://purl.org/dc/dcmitype/StillImage" />
        <dc:title />
      </cc:Work>
    </rdf:RDF>
  </metadata>
  <g
     inkscape:label="Layer 1"
     inkscape:groupmode="layer"
     id="layer1">
    <rect
       style="fill:#00222b;fill-opacity:1;stroke:none;stroke-width:0.90200001;stroke-miterlimit:4;stroke-dasharray:none;stroke-opacity:1"
       id="rect815"
       width="114.90475"
       height="77.863091"
       x="25.927702"
       y="188.70543"
       rx="15.982712" />
    <g
       transform="matrix(1.3042898,0,0,1.2932647,-9.2370733,35.082663)"
       id="g886"
       style="fill:#ffffff">
      <path
         inkscape:connector-curvature="0"
         d="m 49.162946,145.93494 c 0.826002,-0.78625 1.539046,-1.68277 2.244568,-2.57597 1.014132,-1.32364 1.980526,-2.68326 2.945432,-4.04305 0.711835,-0.98281 1.354569,-2.0123 2.005624,-3.03554 0.406019,-0.63106 0.805471,-1.26613 1.202134,-1.90311 0.296627,-0.47429 0.611635,-0.94054 0.821751,-1.46106 0.137393,-0.32675 0.244779,-0.66361 0.427286,-0.96874 0.141901,-0.26813 0.280035,-0.5433 0.377775,-0.83116 0.119758,-0.28217 0.196138,-0.57381 0.267287,-0.87088 0.06208,-0.31508 0.220343,-0.58025 0.373531,-0.85601 0.171984,-0.25419 0.277095,-0.53053 0.371377,-0.81956 0.05243,-0.0294 0.123344,-0.45985 0.145468,-0.47126 2.053516,-1.0591 1.851274,-1.71145 2.059167,-0.85999 0.02764,0.33501 0.01648,0.67219 0.01416,1.00805 -0.0029,0.38179 -0.0039,0.76358 -0.0045,1.14538 -5.29e-4,0.37892 -5.29e-4,0.75784 -5.29e-4,1.13676 1.6e-5,0.37797 3.4e-5,0.75595 4.5e-5,1.13393 8e-6,0.37796 8e-6,0.75592 8e-6,1.13388 0,0.37797 0,0.75595 0,1.13393 0,0.37797 0,0.75595 0,1.13393 0.0035,0.32403 5.29e-4,0.64813 0.0043,0.97216 1.03e-4,0.0466 -5.29e-4,0.0932 2.65e-4,0.13984 5.29e-4,0.0324 0.0024,0.0647 0.0039,0.097 0.0011,0.0277 0.03261,0.0711 0.0075,0.0828 -2.044057,0.95009 -2.195838,1.61397 -1.966323,0.7896 0.07997,-0.3566 0.243769,-0.68611 0.392586,-1.01784 0.156322,-0.31583 0.305327,-0.63593 0.406448,-0.97397 0.0972,-0.29912 0.177533,-0.60528 0.36984,-0.8585 0.177101,-0.24814 0.339011,-0.50923 0.489527,-0.77442 0.128749,-0.27199 0.21844,-0.56317 0.369985,-0.82347 0.219766,-0.23617 0.3854,-0.50177 0.531355,-0.78766 0.130892,-0.31677 0.36159,-0.56632 0.556998,-0.84103 0.172093,-0.24649 0.324146,-0.50621 0.461418,-0.77351 0.110124,-0.30853 0.286668,-0.5644 0.486256,-0.81865 0.152204,-0.26424 0.313325,-0.52489 0.443344,-0.80107 0.135961,-0.33279 0.205391,-0.68973 0.362196,-1.01331 0.118991,-0.19719 0.289121,-0.39861 0.307676,-0.63759 2.234282,-1.17066 2.080921,-1.42293 2.07201,-0.0919 0.02347,0.38862 -0.05353,0.76806 -0.113464,1.14941 -0.03217,0.34126 -0.146042,0.66541 -0.207706,1.00126 -0.06649,0.3759 -0.219773,0.72663 -0.321693,1.09278 -0.108172,0.38091 -0.23318,0.7566 -0.347279,1.13566 -0.141047,0.40678 -0.260236,0.82063 -0.398174,1.2284 -0.157168,0.37681 -0.217218,0.7813 -0.332777,1.17031 -0.06797,0.30561 -0.18169,0.59723 -0.266227,0.89785 -0.08065,0.33568 -0.08893,0.68237 -0.09729,1.02579 -0.01238,0.37304 0.01093,0.74694 -0.0172,1.11922 -0.06388,0.32651 -0.119372,0.65279 -0.147677,0.98445 -0.02508,0.36778 -0.02572,0.73662 -0.0271,1.10507 0.0031,0.35627 0.03259,0.70662 -0.1118,1.0394 -0.155231,0.27129 -0.208825,0.57154 -0.240969,0.87783 -0.02822,0.36759 -0.02635,0.73662 -0.0267,1.10503 5.3e-4,0.37864 0.0016,0.75729 0.0021,1.13593 0.01288,0.36534 -0.0241,0.73392 0.0182,1.09749 0.03766,0.30592 0.131792,0.59397 0.223518,0.88606 0.09974,0.23109 0.308025,0.38856 0.475639,0.57035 0.02201,0.0244 0.04405,0.0488 0.06607,0.0732 0,0 -1.924492,1.16087 -1.924492,1.16087 l 0,0 c -0.01987,-0.0238 -0.03975,-0.0477 -0.05962,-0.0715 -0.18619,-0.20904 -0.415563,-0.38903 -0.518253,-0.65837 -0.09332,-0.30453 -0.197223,-0.60212 -0.237884,-0.92038 -0.05669,-0.37198 -0.01511,-0.75082 -0.02792,-1.12608 -5.3e-4,-0.37871 -0.0013,-0.75742 -0.0021,-1.13613 -5.29e-4,-0.37361 -0.0029,-0.74751 0.01532,-1.1208 0.02217,-0.32444 0.0502,-0.65515 0.198451,-0.9506 0.04398,-0.0771 0.103854,-0.14642 0.134692,-0.22963 0.08424,-0.22732 0.0031,-0.48731 0.03064,-0.7217 5.29e-4,-0.3727 -1.1e-5,-0.74562 0.01773,-1.118 0.02066,-0.3352 0.05443,-0.66972 0.140184,-0.99555 0.07214,-0.35958 0.0088,-0.73332 0.03173,-1.09814 0.0049,-0.35656 0.0089,-0.71521 0.06982,-1.06756 0.06681,-0.31251 0.203877,-0.59728 0.263429,-0.91134 0.127215,-0.39211 0.194527,-0.79747 0.340948,-1.18437 0.15001,-0.39842 0.240384,-0.81581 0.397018,-1.21208 0.103385,-0.38053 0.236254,-0.7521 0.349125,-1.12985 0.08657,-0.36572 0.234228,-0.70826 0.325837,-1.07223 0.0482,-0.34134 0.162068,-0.6629 0.213395,-1.00144 0.05405,-0.37252 0.151325,-0.73985 0.125507,-1.11908 0.0016,-1.38124 -0.292893,-0.62908 1.995837,-1.80188 -0.01429,-5.3e-4 -0.03247,-0.0115 -0.04283,-0.002 -0.133877,0.12718 -0.112504,0.5085 -0.300797,0.62098 -0.226965,0.27362 -0.258667,0.65274 -0.38,0.97983 -0.109672,0.29828 -0.2868,0.55619 -0.420216,0.84169 -0.163333,0.26947 -0.422794,0.45892 -0.502973,0.7808 -0.109696,0.28607 -0.275588,0.55562 -0.452541,0.80397 -0.162785,0.29572 -0.420052,0.51371 -0.570516,0.81832 -0.1305,0.29966 -0.271346,0.59395 -0.501348,0.8311 -0.219226,0.19567 -0.278326,0.52014 -0.393134,0.78241 -0.126698,0.28818 -0.32259,0.53427 -0.467352,0.81375 -0.05555,0.0689 -0.126299,0.12478 -0.179938,0.19515 -0.128828,0.16901 -0.121949,0.40688 -0.235984,0.58534 -0.08431,0.35556 -0.226354,0.68859 -0.387273,1.0158 -0.170085,0.30024 -0.313402,0.63733 -0.400117,0.97008 -0.217035,0.86282 1.14e-4,0.11978 -2.073947,1.20378 -0.0067,0.003 0.0038,-0.0147 0.0044,-0.0222 0.0047,-0.0563 0.006,-0.11278 0.0069,-0.16923 7.94e-4,-0.0467 2.06e-4,-0.0934 2.65e-4,-0.14015 0.0037,-0.3255 7.93e-4,-0.65108 0.0043,-0.97658 0,-0.37797 0,-0.75595 0,-1.13393 0,-0.37797 3e-6,-0.75595 0,-1.13392 0,-0.37796 0,-0.75592 -8e-6,-1.13388 -1e-5,-0.37798 -2.6e-5,-0.75597 -2.6e-5,-1.13395 1.8e-5,-0.37907 2.4e-5,-0.75814 5.29e-4,-1.13722 5.29e-4,-0.38195 0.0019,-0.76391 0.0037,-1.14586 0.0011,-0.32088 0.0064,-0.64232 -0.01373,-0.96274 -0.02095,-0.80502 -0.01844,-0.0761 1.975805,-1.13294 0.0185,-0.01 -0.02916,0.031 -0.03815,0.0499 -0.06245,0.13142 -0.06663,0.28251 -0.12917,0.41413 -0.118687,0.28382 -0.151352,0.60411 -0.364799,0.84375 -0.126609,0.28001 -0.335682,0.50814 -0.38711,0.82009 -0.106116,0.28355 -0.100848,0.6048 -0.269361,0.86895 -0.0766,0.31384 -0.228158,0.5905 -0.354494,0.88548 -0.05627,0.0912 -0.126095,0.17396 -0.178626,0.2674 -0.118176,0.21021 -0.141004,0.46616 -0.27772,0.66909 -0.19237,0.54717 -0.515196,1.02768 -0.82963,1.51177 -0.397213,0.64443 -0.802621,1.28339 -1.21902,1.91559 -0.682119,1.03013 -1.343197,2.07484 -2.070867,3.07411 -0.968796,1.35353 -1.934374,2.7095 -2.92766,4.04509 -0.673343,0.87724 -1.362659,1.74802 -2.121532,2.55331 0,0 -2.063861,0.85488 -2.063861,0.85488 z"
         id="path819"
         style="fill:#ffffff;fill-opacity:1;stroke:none;stroke-width:0.90200001;stroke-miterlimit:4;stroke-dasharray:none;stroke-opacity:1" />
      <path
         inkscape:connector-curvature="0"
         d="m 70.345312,139.57451 c -0.0976,0.43231 -0.21854,0.85753 -0.29401,1.29466 -0.03515,0.36123 -0.145785,0.70753 -0.206812,1.06419 -0.02625,0.32737 -0.06523,0.64458 -0.202551,0.94531 -0.152339,0.2759 -0.178427,0.58753 -0.230434,0.89161 -0.01244,0.0509 -0.0249,0.10186 -0.03733,0.15279 0,0 -2.016635,0.96348 -2.016635,0.96348 l 0,0 c 0.01363,-0.0489 0.02726,-0.0979 0.04088,-0.14681 0.09006,-0.30617 0.05853,-0.64252 0.205946,-0.93562 0.150275,-0.29558 0.242713,-0.54524 0.236709,-0.88784 0.049,-0.3639 0.165643,-0.70915 0.215525,-1.07135 0.06822,-0.43627 0.189687,-0.85913 0.270139,-1.2916 0,0 2.018575,-0.97882 2.018575,-0.97882 z"
         id="path821"
         style="fill:#ffffff;fill-opacity:1;stroke:none;stroke-width:0.90200001;stroke-miterlimit:4;stroke-dasharray:none;stroke-opacity:1" />
      <path
         inkscape:connector-curvature="0"
         d="m 67.64017,138.60358 c 0.204946,-0.23077 0.419682,-0.449 0.596802,-0.70282 0.106984,-0.18706 0.119285,-0.40216 0.123664,-0.61259 -0.01558,-0.14026 -0.114131,-0.18559 -0.232315,-0.22892 -0.188209,-0.0415 -0.381291,-0.0408 -0.572953,-0.043 -0.702286,0.30998 -1.583264,0.86783 1.678202,-0.96529 0.06008,-0.0338 -0.08883,0.0623 -0.144348,0.12509 -0.06619,0.16991 -0.05771,0.36016 -0.05692,0.54002 -0.0011,0.21103 -7.94e-4,0.42208 0.0045,0.63306 0.02948,0.0817 0.234037,0.0559 0.313912,0.0573 0.08531,-0.0184 0.193707,0.0274 0.276717,-7.9e-4 0.06458,-0.022 0.108231,-0.10036 0.177163,-0.129 0.826738,-0.36896 -2.481882,1.52038 -1.759223,1.0166 0,0 2.075471,-0.8793 2.075471,-0.8793 l 0,0 c -0.39647,0.71809 -1.351092,0.90409 -2.07708,1.26637 -0.159223,0.0871 -0.348742,0.0376 -0.52325,0.0307 -0.216935,-0.0336 -0.418828,-0.10777 -0.487492,-0.3396 0.0031,-0.21153 5.29e-4,-0.42308 -0.0033,-0.6346 2.65e-4,-0.20442 -0.0026,-0.40898 0.01651,-0.6128 0.0096,-0.062 0.03416,-0.20509 0.09754,-0.24331 0.671173,-0.4047 1.375635,-1.17394 2.229606,-1.17838 0.215286,0.008 0.43252,0.025 0.630886,0.11711 0.185637,0.10485 0.306295,0.24498 0.361413,0.45377 -0.0075,0.23942 -0.0072,0.48075 -0.08151,0.7114 -0.126942,0.28741 -0.358534,0.51711 -0.58339,0.73102 0,0 -2.060655,0.88802 -2.060655,0.88802 z"
         id="path823"
         style="fill:#ffffff;fill-opacity:1;stroke:none;stroke-width:0.90200001;stroke-miterlimit:4;stroke-dasharray:none;stroke-opacity:1" />
      <path
         inkscape:connector-curvature="0"
         d="m 72.849996,140.34062 c -0.26643,-0.1211 -0.596821,-0.22587 -0.878203,-0.10031 0.614889,-0.34135 1.229427,-0.68334 1.844667,-1.02406 0.02662,-0.0147 -0.05434,0.028 -0.07878,0.0461 -0.123415,0.0916 -0.137009,0.24224 -0.156064,0.3833 -0.03017,0.24469 -0.03434,0.48196 0.05401,0.71399 0.129913,0.0888 0.286311,0.15887 0.412538,0.26237 0.132175,0.14967 0.321519,0.14602 0.493911,0.21212 0.242189,0.15689 0.41743,0.40203 0.601911,0.62153 0.189325,0.24098 0.255101,0.51861 0.295772,0.81498 0.01918,0.27453 0.04702,0.55376 -0.01569,0.82392 -0.32652,0.9173 -1.77368,1.30384 -2.366399,1.63581 -0.255609,0.0503 -0.534514,-0.0272 -0.735658,0.16097 3.879937,-2.50414 0.771355,0.0264 -0.695201,0.23899 -0.243041,0.0587 -0.44242,-0.0552 -0.66466,-0.12426 -0.188978,-0.1226 -0.300966,-0.30866 -0.408167,-0.50054 -0.05174,-0.13221 -0.02916,-0.0679 -0.06879,-0.19245 0,0 1.975337,-1.07656 1.975337,-1.07656 l 0,0 c 0.02487,0.10135 0.01027,0.051 0.04397,0.15115 0.07409,0.14516 0.157951,0.29882 0.320429,0.35697 0.197528,0.0739 0.383667,0.0915 0.591865,0.0339 0.117642,-0.0274 0.222817,-0.0614 0.331433,-0.11498 0.03446,-0.017 0.135639,-0.0722 0.102442,-0.0529 -0.670444,0.39092 -4.434009,2.56487 0.219424,-0.12426 0.248473,-0.0608 0.513683,-0.0356 0.752202,-0.14065 -0.60647,0.35221 -1.212942,0.70442 -1.819415,1.05663 0.100148,-0.0373 0.196168,-0.0912 0.267679,-0.17461 0.025,-0.0292 0.04038,-0.0654 0.06056,-0.0981 0.02223,-0.0242 0.04448,-0.0484 0.06672,-0.0726 0.08742,-0.25299 0.08278,-0.47935 0.05799,-0.74709 -0.02275,-0.25421 -0.06428,-0.49455 -0.228703,-0.70015 -0.161259,-0.18491 -0.307489,-0.41636 -0.537554,-0.51489 -0.203208,-0.0501 -0.385972,-0.1202 -0.539113,-0.26936 -0.172595,-0.10671 -0.368683,-0.20101 -0.480441,-0.37608 -0.09338,-0.26433 -0.125285,-0.52789 -0.0962,-0.80811 0.09941,-1.17463 0.66426,-1.01177 2.184289,-1.75603 0.334028,-0.007 0.648255,0.0741 0.954527,0.20728 0,0 -1.862635,1.24786 -1.862635,1.24786 z"
         id="path825"
         style="fill:#ffffff;fill-opacity:1;stroke:none;stroke-width:0.90200001;stroke-miterlimit:4;stroke-dasharray:none;stroke-opacity:1" />
      <path
         inkscape:connector-curvature="0"
         d="m 79.807677,130.86113 c -0.05071,0.50825 -0.155178,1.00786 -0.24716,1.50955 -0.100124,0.48994 -0.101732,0.99082 -0.153017,1.48601 -0.05046,0.46361 -0.168391,0.9132 -0.310821,1.35586 -0.122868,0.42375 -0.251365,0.84604 -0.336334,1.27935 -0.101126,0.40494 -0.194585,0.80962 -0.243985,1.22438 -0.01453,0.34161 -0.11426,0.66971 -0.168749,1.00551 -0.04914,0.35401 -0.05394,0.71201 -0.05863,1.06877 0.0079,0.32286 -0.143076,0.59955 -0.250878,0.89236 -0.0895,0.27909 -0.109326,0.57172 -0.121669,0.86247 -0.0098,0.35892 -0.0078,0.71803 -0.0074,1.07704 7.94e-4,0.31372 0.0054,0.62741 0.0065,0.94113 0.0076,0.15179 -0.0065,0.30491 0.0091,0.4563 0,0 -2.012903,1.02565 -2.012903,1.02565 l 0,0 c 0.01434,-0.15452 0.0024,-0.31036 0.0088,-0.46524 5.3e-4,-0.31529 0.0043,-0.63057 0.0035,-0.94587 -0.0011,-0.3603 -0.0037,-0.72062 -7.94e-4,-1.08092 0.0054,-0.30838 0.01656,-0.61673 0.09218,-0.9176 0.07995,-0.2894 0.250319,-0.53482 0.28721,-0.83574 0.0026,-0.3647 0.0045,-0.73022 0.04173,-1.0934 0.04269,-0.33867 0.146828,-0.66297 0.177541,-1.00136 0.04186,-0.42147 0.119769,-0.83622 0.242829,-1.24214 0.07709,-0.44398 0.19924,-0.8742 0.324358,-1.30645 0.14336,-0.43145 0.275731,-0.8645 0.329243,-1.31833 0.07689,-0.4969 0.0487,-1.0063 0.156591,-1.50041 0.0866,-0.48539 0.192508,-0.96592 0.233484,-1.45824 0,0 1.999284,-1.01868 1.999284,-1.01868 z"
         id="path827"
         style="fill:#ffffff;fill-opacity:1;stroke:none;stroke-width:0.90200001;stroke-miterlimit:4;stroke-dasharray:none;stroke-opacity:1" />
      <path
         inkscape:connector-curvature="0"
         d="m 76.426937,135.88965 c 0.423633,0.0953 0.856724,0.13819 1.289148,0.16872 0.424178,0.0248 0.849263,0.0255 1.274006,0.0298 0.65046,0.0386 1.291225,-0.0613 1.928606,-0.17708 0.57635,-0.091 1.136364,-0.25417 1.714214,-0.33902 0.273114,-0.0367 0.548527,-0.0467 0.82363,-0.0545 0,0 -1.796569,1.3155 -1.796569,1.3155 l 0,0 c -0.268012,0.0124 -0.536154,0.0283 -0.801433,0.0708 -0.567097,0.0946 -1.123148,0.2437 -1.692296,0.32721 -0.651793,0.10843 -1.306896,0.18412 -1.969225,0.15861 -0.429723,2.7e-4 -0.859817,-0.003 -1.288283,-0.0403 -0.43343,-0.0395 -0.863219,-0.11278 -1.297112,-0.14076 0,0 1.815314,-1.31891 1.815314,-1.31891 z"
         id="path829"
         style="fill:#ffffff;fill-opacity:1;stroke:none;stroke-width:0.90200001;stroke-miterlimit:4;stroke-dasharray:none;stroke-opacity:1" />
      <path
         inkscape:connector-curvature="0"
         d="m 80.941605,139.55458 c -0.01553,0.43253 -0.01125,0.86553 -0.01008,1.29827 0.0013,0.40113 0.0021,0.80227 0.0026,1.2034 0.0062,0.26236 -0.06394,0.60152 0.183706,0.77461 0.225636,0.0688 0.466293,0.0627 0.699931,0.0617 0.682958,-0.01 2.467332,-1.27781 -1.619964,0.98206 -0.222848,0.12321 0.198236,-0.12768 0.248218,-0.16437 0.140589,-0.0977 0.218821,-0.28239 0.293294,-0.43545 0.07081,-0.18754 0.07383,-0.38898 0.131265,-0.57961 0.07156,-0.22898 0.125431,-0.45885 0.222678,-0.67886 0.13861,-0.19986 0.23172,-0.40698 0.273344,-0.64615 0.03553,-0.25089 0.03745,-0.50536 0.03617,-0.75834 -0.03301,-0.86508 1.835882,-2.18441 2.152724,-1.23885 0.0439,0.32184 0.03096,0.64904 0.0296,0.97317 -0.0045,0.36977 0.01624,0.73915 -0.04578,1.10492 -0.08199,0.32562 -0.09901,0.66107 -0.145904,0.99197 -0.03453,0.15445 -0.07102,0.30826 -0.103627,0.46313 0,0 -2.008979,0.97612 -2.008979,0.97612 l 0,0 c 0.02721,-0.15647 0.05554,-0.31277 0.102608,-0.46483 0.08701,-0.32247 0.05073,-0.66818 0.146484,-0.99158 0.08093,-0.35359 0.07684,-0.70602 0.06925,-1.06844 1.75e-4,-0.30397 0.0048,-0.60891 -0.02196,-0.91199 -0.01982,-0.78571 -0.01236,-0.0396 1.970497,-1.1092 0.01741,-0.009 -0.207669,0.2706 -0.147346,0.25821 -0.0021,0.26299 0.0016,0.52642 -0.02148,0.78872 -0.03515,0.26109 -0.07197,0.50835 -0.236149,0.72462 -0.152397,0.18543 -0.172511,0.40862 -0.242319,0.63085 -0.02106,0.0624 -0.05844,0.11937 -0.07254,0.18367 -0.02826,0.12887 0.003,0.27439 -0.05542,0.39981 -0.04807,0.20547 -0.176573,0.35435 -0.237088,0.55411 -0.73999,0.59617 -1.557409,1.3875 -2.533087,1.33002 -0.275891,-0.0118 -0.56067,-0.0238 -0.792088,-0.1934 -0.25464,-0.26662 -0.284538,-0.58832 -0.260353,-0.94554 5.29e-4,-0.40202 0.0013,-0.80404 0.0026,-1.20605 0.0011,-0.42932 0.0056,-0.8589 -0.01008,-1.28799 0,0 1.999285,-1.01869 1.999285,-1.01869 z"
         id="path831"
         style="fill:#ffffff;fill-opacity:1;stroke:none;stroke-width:0.90200001;stroke-miterlimit:4;stroke-dasharray:none;stroke-opacity:1" />
      <path
         inkscape:connector-curvature="0"
         d="m 85.855296,138.79863 c -0.01553,0.43253 -0.01125,0.86553 -0.01008,1.29827 0.0013,0.40113 0.0021,0.80226 0.0026,1.2034 0.0011,0.33388 -0.004,0.66772 0.0084,1.00142 0.0019,0.0154 0.01902,0.0392 0.0052,0.0461 -2.260648,1.13774 -2.010537,1.59839 -2.000208,0.40807 0.0039,-0.36414 -0.01635,-0.72748 0.0438,-1.0878 0.108276,-0.33618 0.222592,-0.66526 0.281747,-1.01459 0.07427,-0.31141 0.139327,-0.62781 0.244422,-0.93073 0.291754,-1.05076 1.528813,-1.25056 2.432834,-1.76018 0.256973,-0.11413 0.530164,-0.16806 0.799435,-0.24432 0.352526,-0.088 0.716516,-0.10508 1.077998,-0.11769 0.346061,0.0473 0.65873,0.22949 0.920964,0.45373 0,0 -1.894226,1.18764 -1.894226,1.18764 l 0,0 c -0.240874,-0.18435 -0.510593,-0.33339 -0.823077,-0.32319 -0.354753,0.0214 -0.71048,0.0548 -1.050938,0.16369 -0.264073,0.08 -0.5359,0.13642 -0.775666,0.281 -0.758764,0.36328 -0.04226,0.0247 1.659864,-0.99069 0.03725,-0.0222 -0.08136,0.0319 -0.117592,0.0557 -0.12401,0.0817 -0.172336,0.20922 -0.203266,0.34825 -0.109058,0.29405 -0.175762,0.59417 -0.269877,0.89417 -0.04551,0.35242 -0.119981,0.69867 -0.27363,1.02182 -0.07832,0.34776 -0.07547,0.69353 -0.06382,1.04972 0.01061,1.21254 0.13925,0.52678 -2.000208,1.63025 -0.01529,0.008 0.0035,-0.0343 0.0052,-0.0514 0.01201,-0.33656 0.0077,-0.67322 0.0084,-1.00995 5.29e-4,-0.40202 0.0013,-0.80404 0.0026,-1.20606 0.0011,-0.42931 0.0056,-0.85889 -0.01008,-1.28799 0,0 1.999284,-1.01868 1.999284,-1.01868 z"
         id="path833"
         style="fill:#ffffff;fill-opacity:1;stroke:none;stroke-width:0.90200001;stroke-miterlimit:4;stroke-dasharray:none;stroke-opacity:1" />
      <path
         inkscape:connector-curvature="0"
         d="m 91.557934,138.5238 c 0.294098,0.37447 0.567217,0.76267 0.826852,1.16169 0.221697,0.34481 0.440333,0.67493 0.556805,1.07107 0.07678,0.3186 0.08784,0.64641 0.09726,0.97231 0.1627,0.90851 -1.411068,1.92775 -2.117492,1.33263 -0.181047,-0.14504 -0.368935,-0.27885 -0.568257,-0.40102 -0.268295,-0.20131 -0.598564,-0.2885 -0.912762,-0.39278 -0.358552,-0.10959 -0.733451,-0.1318 -1.10559,-0.14613 -0.33926,-0.0414 -0.659456,0.0579 -0.987177,0.1288 -0.665009,0.39005 -1.573035,0.86715 1.620653,-0.92549 0.03131,-0.0176 -0.06089,0.0392 -0.08604,0.0648 -0.0706,0.0719 -0.07895,0.11861 -0.117557,0.21118 -0.07069,0.26685 -0.09752,0.54908 -0.06734,0.8236 0.07711,0.22624 0.302779,0.24645 0.509302,0.26942 0.214768,0.0143 0.430363,0.006 0.645456,0.005 0.267497,-0.005 0.535046,-0.001 0.802564,-0.003 0.287771,7.9e-4 0.575535,-10e-4 0.863306,-2.6e-4 0.212011,0.005 0.459629,-0.0315 0.61626,-0.18563 -0.60959,0.35198 -1.219179,0.70395 -1.828769,1.05593 0,0 2.095191,-0.80697 2.095191,-0.80697 l 0,0 c -0.670714,0.38818 -1.341427,0.77637 -2.012141,1.16456 -0.225287,0.0654 -0.44369,0.11308 -0.680582,0.0872 -0.287769,8e-4 -0.575532,-7.9e-4 -0.863301,0.001 -0.268333,-5.3e-4 -0.536594,0.005 -0.804913,0.006 -0.223649,0.002 -0.450043,0.008 -0.670218,-0.0376 -0.296347,-0.0709 -0.5421,-0.20762 -0.64977,-0.51135 -0.05243,-0.29972 -0.03039,-0.61128 0.02231,-0.91025 0.213056,-1.02502 1.428652,-1.38931 2.38888,-1.65991 0.336114,-0.0661 0.668356,-0.11977 1.012749,-0.0768 0.386466,0.0249 0.773237,0.0675 1.141071,0.19645 0.330507,0.11516 0.667141,0.21896 0.951926,0.43083 0.194061,0.12775 0.38278,0.26214 0.575823,0.38994 0.949939,0.13458 -2.046375,2.08829 -1.767369,0.90888 0.0019,-0.30908 -0.003,-0.62064 -0.06289,-0.92494 -0.09791,-0.37782 -0.308126,-0.68936 -0.510233,-1.01943 -0.256839,-0.39619 -0.520875,-0.7875 -0.843632,-1.13434 0,0 1.929638,-1.14514 1.929638,-1.14514 z"
         id="path835"
         style="fill:#ffffff;fill-opacity:1;stroke:none;stroke-width:0.90200001;stroke-miterlimit:4;stroke-dasharray:none;stroke-opacity:1" />
      <path
         inkscape:connector-curvature="0"
         d="m 40.687143,144.27928 c -0.02773,0.53061 -0.110294,1.05628 -0.15153,1.58623 -0.04588,0.64052 -0.05134,1.283 -0.05788,1.92485 -0.0044,0.67993 -0.004,1.35991 -2.65e-4,2.03984 0.0043,0.49195 0.0093,0.98389 0.0118,1.47584 0.005,0.43088 -0.0027,0.8617 -0.0041,1.29256 -0.0069,0.54702 -0.0031,1.09405 5.29e-4,1.64108 -4.3e-5,0.48318 2.64e-4,0.96635 2.64e-4,1.44953 -2.64e-4,0.51253 -0.0011,1.02507 -0.0033,1.53759 -0.0079,0.51701 0.08146,1.02913 0.135511,1.54205 0.04266,0.41272 0.05432,0.82757 0.06045,1.24214 0.0011,0.36808 0.02283,0.73591 -0.03925,1.10001 -0.05824,0.28809 -0.24547,0.51388 -0.393216,0.75908 -0.09574,0.15669 -0.227441,0.30817 -0.26779,0.49151 0,0 -2.050529,0.94525 -2.050529,0.94525 l 0,0 c 0.107924,-0.16105 0.112919,-0.39948 0.265065,-0.54377 0.16882,-0.20736 0.296066,-0.4503 0.436526,-0.6774 0.08131,-0.35124 0.076,-0.70126 0.06612,-1.06144 -0.0031,-0.41021 -0.009,-0.82074 -0.04294,-1.22979 -0.04625,-0.52159 -0.140406,-1.04054 -0.138398,-1.56466 -0.0024,-0.51141 -0.003,-1.02283 -0.0033,-1.53424 -1.6e-5,-0.48329 2.65e-4,-0.96657 2.65e-4,-1.44986 0.0037,-0.54723 0.0075,-1.09447 5.29e-4,-1.6417 -0.0013,-0.42942 -0.009,-0.85882 -0.0042,-1.28826 0.0024,-0.49568 0.0068,-0.99133 0.01032,-1.487 0.0028,-0.6808 0.0011,-1.36161 0.0019,-2.04242 0.0019,-0.64541 0.0074,-1.29111 0.04551,-1.9356 0.03801,-0.51778 0.110477,-1.03506 0.122381,-1.55273 0,0 1.999287,-1.01869 1.999287,-1.01869 z"
         id="path837"
         style="fill:#ffffff;fill-opacity:1;stroke:none;stroke-width:0.90200001;stroke-miterlimit:4;stroke-dasharray:none;stroke-opacity:1" />
      <path
         inkscape:connector-curvature="0"
         d="m 41.287797,154.0733 c 0.419434,0.0882 0.847969,0.11782 1.275128,0.13894 0.400934,0.016 0.802267,0.0156 1.203447,0.0157 0.378666,-5.3e-4 0.75733,-10e-4 1.135993,-10e-4 0.335347,0.0424 0.592582,-0.14998 0.887998,-0.26028 -0.134956,0.15344 0.618146,-0.29045 0.402278,-0.16538 -3.11082,1.80238 -2.241852,1.29758 -1.586768,0.8904 0.739132,-0.45593 0.05396,-0.0347 2.097974,-1.19186 0,0 -1.761566,1.39588 -1.761566,1.39588 l 0,0 c 1.870646,-1.08068 2.451687,-1.42491 1.754872,-1.01259 -0.870272,0.52111 -1.702596,1.13407 -2.664158,1.46783 -0.299725,0.13411 -0.599255,0.21435 -0.93282,0.18562 -0.378614,2.6e-4 -0.75723,0.001 -1.135846,2.6e-4 -0.402124,-0.002 -0.804481,-0.005 -1.206005,-0.0294 -0.439201,-0.0302 -0.877194,-0.0755 -1.31113,-0.1513 0,0 1.840603,-1.28254 1.840603,-1.28254 z"
         id="path839"
         style="fill:#ffffff;fill-opacity:1;stroke:none;stroke-width:0.90200001;stroke-miterlimit:4;stroke-dasharray:none;stroke-opacity:1" />
      <path
         inkscape:connector-curvature="0"
         d="m 46.734761,143.9013 c -0.01294,0.39446 -0.0064,0.78928 -0.01005,1.1839 -0.0013,0.53561 -0.0059,1.07118 -0.0089,1.60679 0.0013,0.56044 0.0024,1.12087 0.0062,1.68131 2.4e-5,0.48564 5.29e-4,0.97126 5.29e-4,1.45689 0.0011,0.55895 -0.0047,1.11787 -0.0088,1.67679 -0.0019,0.5979 0.0031,1.19576 0.0081,1.79363 -0.01945,0.42987 0.02095,0.85218 0.08062,1.27686 0.03361,0.39195 0.09454,0.77414 0.183581,1.15667 0.08767,0.3461 0.08338,0.70456 0.129453,1.05613 0.07741,0.37464 0.127508,0.75284 0.155633,1.13412 0.06288,0.3771 0.135263,0.75129 0.174525,1.13196 0.03345,0.38004 0.03628,0.76181 0.03873,1.14304 0.0013,0.37818 1.79e-4,0.75636 -2.65e-4,1.13454 0.0047,0.4229 0.0048,0.84357 -0.05023,1.2633 -0.01685,0.40306 -0.213156,0.74782 -0.359478,1.1117 -0.131435,0.32342 -0.295894,0.63349 -0.47533,0.9326 -0.226718,0.34007 -0.470283,0.66831 -0.720256,0.99151 -0.197856,0.29593 -0.436592,0.55583 -0.720667,0.76985 -0.25177,0.0871 -0.379622,0.35998 -0.59541,0.48962 -0.675971,0.40611 -1.362467,0.79443 -2.0437,1.19165 4.456782,-2.56319 0.120208,-0.0652 -0.241369,0.12551 -0.03366,0.0178 -0.07435,-0.0163 -0.111525,-0.0244 0,0 1.810912,-1.33535 1.810912,-1.33535 l 0,0 c 1.3769,-0.89025 -6.497071,3.85309 0.281048,-0.1692 -0.590325,0.34674 -1.18065,0.69348 -1.770975,1.04022 0.04283,-0.0275 0.08837,-0.0513 0.128503,-0.0826 0.16574,-0.12946 0.263633,-0.33094 0.457782,-0.42966 0.313325,-0.14921 0.573392,-0.41053 0.760206,-0.7003 0.254373,-0.31524 0.491662,-0.64185 0.728411,-0.96973 0.188767,-0.28237 0.331724,-0.58813 0.490445,-0.88754 0.12233,-0.36479 0.361889,-0.68063 0.388064,-1.07377 0.06434,-0.41017 0.07087,-0.81715 0.05854,-1.23223 5.29e-4,-0.37777 0.0013,-0.75554 7.94e-4,-1.13331 -0.0013,-0.37518 -0.0021,-0.75079 -0.0293,-1.12519 -0.03394,-0.38328 -0.09861,-0.76094 -0.177525,-1.13748 -0.02296,-0.37543 -0.06458,-0.74903 -0.147444,-1.11656 -0.06114,-0.34443 -0.0435,-0.69844 -0.12501,-1.0408 -0.08728,-0.39043 -0.155504,-0.77807 -0.181907,-1.17836 -0.06324,-0.43547 -0.127904,-0.86491 -0.09054,-1.30715 0.005,-0.60064 0.01005,-1.20126 0.0081,-1.80193 -0.0041,-0.55592 -0.0099,-1.11185 -0.0088,-1.6678 2.9e-5,-0.48581 5.29e-4,-0.97161 5.29e-4,-1.45742 0.0037,-0.56256 0.005,-1.12512 0.0062,-1.68769 -0.003,-0.53258 -0.0075,-1.06513 -0.0089,-1.59771 -0.0037,-0.39121 0.003,-0.78263 -0.01003,-1.17366 0,0 1.999284,-1.01869 1.999284,-1.01869 z"
         id="path841"
         style="fill:#ffffff;fill-opacity:1;stroke:none;stroke-width:0.90200001;stroke-miterlimit:4;stroke-dasharray:none;stroke-opacity:1" />
      <path
         inkscape:connector-curvature="0"
         d="m 51.270476,156.37452 c -0.03543,0.35738 0.0041,0.68851 0.189111,0.99882 0.190146,0.26066 0.49888,0.39239 0.767289,0.55897 0.322638,0.16171 0.655982,0.29762 1.008536,0.37767 0.367477,0.0686 0.742453,0.0725 1.114997,0.0767 0.366612,-0.0193 0.744553,0.0451 1.10418,-0.0374 -0.06508,0.12337 0.577527,-0.27365 0.40413,-0.17379 -3.524139,2.0296 -2.069349,1.32623 -1.550109,0.83474 0.173283,-0.27337 0.361847,-0.53987 0.49118,-0.83784 0.122187,-0.33694 0.135589,-0.69717 0.147336,-1.05154 0.0067,-0.35483 0.0244,-0.70787 -0.04321,-1.05752 -0.09265,-0.30594 -0.341265,-0.41096 -0.628748,-0.47826 -0.369757,-0.0347 -0.727979,-0.13061 -1.095573,-0.18294 -0.374904,-0.0466 -0.753099,-0.0518 -1.13034,-0.0559 -0.344109,-0.0387 -0.655492,0.0212 -0.982673,0.11108 -0.663075,0.15311 -2.348441,1.24038 1.592961,-0.94964 0.219136,-0.12177 -0.200998,0.1582 -0.266213,0.21163 -0.703231,0.49786 -1.374338,0.80065 -2.20712,1.29314 -0.600511,0.35513 1.209678,-0.69543 1.815939,-1.04066 0.05899,-0.0336 -0.113512,0.0745 -0.168894,0.11381 -0.160936,0.18251 -0.244049,0.41765 -0.35583,0.63086 -0.134766,0.25393 -0.17081,0.53885 -0.196411,0.82078 -0.0035,0.27303 -0.05927,0.55858 0.02561,0.82352 0.06615,0.0589 0.110011,0.13312 0.155911,0.20759 0,0 -1.940444,1.13082 -1.940444,1.13082 l 0,0 c -0.05805,-0.0887 -0.127278,-0.16707 -0.183986,-0.25694 -0.09506,-0.29455 -0.06379,-0.59765 -0.0571,-0.9038 0.01603,-0.304 0.04881,-0.61191 0.15612,-0.89893 0.109442,-0.22932 0.227203,-0.45199 0.325744,-0.6845 0.05607,-0.0898 0.05672,-0.11531 0.15013,-0.17034 0.671746,-0.39578 1.340308,-0.79751 2.023401,-1.17337 0.612132,-0.3368 -1.206812,0.7044 -1.810451,1.0562 -0.0637,0.0371 0.26248,-0.14462 0.174559,-0.13584 0.111384,-0.0511 0.173109,-0.13259 0.275669,-0.19372 1.212602,-0.72268 1.369809,-1.03686 2.26944,-1.24209 0.331843,-0.0777 0.668959,-0.0637 1.007917,-0.056 0.383585,0.008 0.768125,0.0211 1.147763,0.0813 0.372932,0.0629 0.745013,0.13393 1.116126,0.20465 0.349522,0.12228 0.636079,0.31553 0.756086,0.68422 0.07638,0.36576 0.07208,0.73181 0.06143,1.10467 -0.0075,0.37433 -0.01561,0.75279 -0.112178,1.11698 -0.107561,0.33167 -0.307385,0.5936 -0.458608,0.90241 -0.564306,0.88258 -1.689631,1.34111 -2.697154,1.55209 -0.373245,0.0208 -0.747594,0.008 -1.121246,0.007 -0.383855,-0.01 -0.770467,-0.0249 -1.144744,-0.11902 -0.363873,-0.10345 -0.717401,-0.24623 -1.048427,-0.42998 -0.303419,-0.17994 -0.625036,-0.35328 -0.826458,-0.65331 -0.195305,-0.34306 -0.275645,-0.70192 -0.254944,-1.09715 0,0 1.999287,-1.01869 1.999287,-1.01869 z"
         id="path847"
         style="fill:#ffffff;fill-opacity:1;stroke:none;stroke-width:0.90200001;stroke-miterlimit:4;stroke-dasharray:none;stroke-opacity:1" />
      <path
         inkscape:connector-curvature="0"
         d="m 59.031136,153.70917 c 0.0714,0.57163 0.105728,1.14724 0.136655,1.72225 0.0019,0.45421 0.03674,0.90083 0.110395,1.34846 0.03111,0.20535 0.01812,0.16746 0.07102,0.35174 0.0035,0.0123 0.110357,0.34965 0.138289,0.30504 -2.433526,1.40407 -1.900687,1.50091 -1.888397,0.2551 5.29e-4,-0.37744 -0.0024,-0.75488 -0.0036,-1.13231 0.0055,-0.37608 -0.01664,-0.75313 0.01228,-1.12837 0.286949,-0.97802 1.500539,-1.5206 2.495161,-1.58615 0.253259,-0.0295 0.469905,-0.0278 0.65033,0.16871 0.171048,0.25086 0.371435,0.47934 0.549262,0.72486 0.228835,0.32328 0.424603,0.66808 0.632902,1.00465 0.191627,0.32861 0.326802,0.67472 0.406402,1.04584 0.03269,0.0623 0.04693,0.25815 0.129842,0.30114 0.03403,0.0176 0.01746,-0.13195 -0.0163,-0.11383 -0.648099,0.34779 -1.268563,0.74478 -1.902843,1.11717 0.08039,-0.15924 0.05759,-0.3651 0.06099,-0.53994 0.004,-0.2946 7.94e-4,-0.58921 0.0016,-0.88383 0.0013,-0.35343 0.0019,-0.70686 0.0021,-1.06029 0.03746,-1.02846 1.244045,-1.85634 2.301373,-1.71764 0.302299,0.0424 0.497353,0.27264 0.719516,0.45573 0.207626,0.2277 0.396774,0.47472 0.582252,0.72135 0.156758,0.24024 0.293137,0.4906 0.43076,0.74221 0.137904,0.3209 0.291561,0.63481 0.413748,0.96216 0.02387,0.0502 0.04773,0.10046 0.0716,0.15068 0,0 -1.940875,1.09886 -1.940875,1.09886 l 0,0 c -0.02619,-0.0563 -0.0524,-0.11263 -0.0786,-0.16894 -0.115266,-0.31832 -0.273187,-0.61744 -0.406823,-0.92809 -0.132398,-0.24191 -0.262141,-0.48342 -0.413602,-0.71409 -0.176676,-0.2319 -0.347657,-0.47282 -0.553249,-0.67928 -0.184957,-0.15581 -0.362683,-0.34291 -0.626073,-0.30148 -0.7215,0.35211 0.05387,-0.0234 1.721464,-1.03021 0.03016,-0.0182 -0.06908,0.0197 -0.0978,0.0401 -0.112655,0.0801 -0.106805,0.23824 -0.138203,0.35691 5.29e-4,0.35234 0.0011,0.70468 0.0034,1.05701 0.0019,0.29417 7.94e-4,0.58833 0.0043,0.88249 0.0019,0.2055 0.0019,0.41121 -0.0052,0.61658 -1.324671,0.82128 -1.865082,1.90963 -2.228929,0.68639 -0.06582,-0.34927 -0.190172,-0.66962 -0.368906,-0.97761 -0.201067,-0.33335 -0.39112,-0.67496 -0.6233,-0.98797 -0.173908,-0.23183 -0.364292,-0.4517 -0.54546,-0.67783 -0.155726,-0.0893 -0.358838,-0.0189 -0.526351,-0.009 -0.08332,0.0207 -0.317098,0.12817 -0.243409,0.0841 0.6013,-0.35938 1.206992,-0.71136 1.810488,-1.06704 -0.0503,0.028 -0.162748,0.0855 -0.201851,0.12813 -0.02944,0.0321 -0.04512,0.0745 -0.06768,0.11179 -0.0733,0.36089 -0.01085,0.7367 -0.0303,1.10299 0.0011,0.37744 0.0033,0.75487 0.0064,1.13229 0.0075,1.40381 0.124584,0.75553 -2.016795,1.95152 -0.165761,-0.22921 -0.21028,-0.53854 -0.257241,-0.80966 -0.07307,-0.45886 -0.122923,-0.91347 -0.105804,-1.37975 -0.02024,-0.5601 -0.0415,-1.12437 -0.153585,-1.67506 0,0 1.978371,-1.05773 1.978371,-1.05773 z"
         id="path849"
         style="fill:#ffffff;fill-opacity:1;stroke:none;stroke-width:0.90200001;stroke-miterlimit:4;stroke-dasharray:none;stroke-opacity:1" />
      <path
         inkscape:connector-curvature="0"
         d="m 66.578511,154.10666 c -0.03081,0.43509 0.109995,0.85891 0.245285,1.26702 0.121949,0.43499 0.337105,0.80509 0.675404,1.10235 0.384426,0.31889 0.868114,0.50196 1.341686,0.64708 0.390303,0.10758 0.795436,0.12249 1.197594,0.13052 0.366229,-0.0177 0.744297,0.0459 1.103379,-0.0376 0.725588,-0.46863 -0.160128,0.10678 -1.693934,0.94716 -0.03847,0.0211 0.06781,-0.0557 0.09996,-0.0856 0.107892,-0.10009 0.169286,-0.20603 0.238361,-0.33491 0.127479,-0.24558 0.192918,-0.5144 0.319754,-0.76009 0.113186,-0.24428 0.145121,-0.52127 0.126159,-0.78773 -0.03005,-0.26825 -0.108601,-0.51372 -0.280795,-0.72292 -0.166515,-0.19502 -0.303527,-0.41393 -0.462036,-0.61553 -0.241536,-0.18751 -0.527609,-0.31725 -0.798174,-0.46059 -0.299993,-0.12421 -0.621229,-0.15808 -0.931508,-0.25027 -0.320164,-0.0891 -0.65323,-0.1042 -0.98339,-0.11628 -0.33542,-0.009 -0.671005,-0.006 -1.00651,-0.005 -0.150841,-0.0192 -0.285728,0.0252 -0.423558,0.0793 -0.03109,0.0122 -0.120716,0.057 -0.09172,0.0404 1.967304,-1.12499 2.436376,-1.47072 1.790755,-1.00068 -0.152447,0.11812 -0.256619,0.28433 -0.396864,0.41817 -0.150926,0.16258 -0.222798,0.36861 -0.229262,0.58776 0.02934,0.19553 0.125643,0.41047 0.259879,0.55864 0.06108,0.10838 0.15398,0.18313 0.233503,0.27529 0,0 -1.922632,1.16478 -1.922632,1.16478 l 0,0 c -0.08661,-0.0908 -0.171558,-0.18036 -0.239995,-0.28623 -0.147794,-0.19754 -0.267047,-0.4377 -0.319993,-0.67788 -0.04171,-0.26312 0.02662,-0.51563 0.150752,-0.74978 0.119687,-0.16228 0.293431,-0.26582 0.375827,-0.45751 0.789472,-0.6367 1.61343,-1.28933 2.620307,-1.26536 0.336558,-5.3e-4 0.673179,0.002 1.00948,0.0166 0.343565,0.0201 0.687642,0.0523 1.017781,0.15615 0.321318,0.0909 0.66148,0.12272 0.95668,0.29125 0.292595,0.16266 0.616847,0.28998 0.850059,0.53736 0.156033,0.2042 0.307459,0.41177 0.467519,0.61258 0.18288,0.24976 0.294209,0.52447 0.334602,0.83296 0.04285,0.29708 0.01421,0.60516 -0.06433,0.89493 -0.110453,0.25727 -0.252465,0.49621 -0.325297,0.77161 -0.04574,0.0921 -0.08053,0.18949 -0.127325,0.2811 -0.0315,0.0617 -0.108569,0.18092 -0.171546,0.21947 -1.963713,1.2019 -1.260803,1.03749 -2.169906,1.22845 -0.373417,0.0213 -0.748106,0.009 -1.121883,0.004 -0.414698,-0.0183 -0.83044,-0.0545 -1.226521,-0.18837 -0.493123,-0.17542 -0.991463,-0.37779 -1.391007,-0.72443 -0.356368,-0.32863 -0.603198,-0.72971 -0.734314,-1.19948 -0.14518,-0.42486 -0.286076,-0.86827 -0.301514,-1.31924 0,0 1.999284,-1.01869 1.999284,-1.01869 z"
         id="path851"
         style="fill:#ffffff;fill-opacity:1;stroke:none;stroke-width:0.90200001;stroke-miterlimit:4;stroke-dasharray:none;stroke-opacity:1" />
      <path
         inkscape:connector-curvature="0"
         d="m 76.250452,154.80894 c -0.316841,-0.3799 -0.702984,-0.68111 -1.141468,-0.90629 -0.423063,-0.18876 -0.854527,-0.33349 -1.312362,-0.40459 -0.38127,-0.047 -0.766146,-0.0454 -1.14963,-0.0459 -0.33342,-0.008 -0.666806,0.10845 -0.940949,0.29444 -0.837226,0.47272 1.093843,-0.63732 1.646934,-0.94507 0.04013,-0.0223 -0.07373,0.0554 -0.105686,0.0884 -0.09672,0.0998 -0.158882,0.23372 -0.228917,0.35203 -0.156263,0.28328 -0.180658,0.60616 -0.200742,0.92242 -0.0089,0.36834 0.162922,0.6025 0.49422,0.73516 0.346107,0.0954 0.708928,0.0896 1.065009,0.0914 0.37973,-0.001 0.759447,-0.005 1.139174,-0.007 0.378439,-0.002 0.756881,-0.002 1.135319,-0.002 0.706525,-0.17375 1.997819,-1.0133 -1.483405,0.89742 -0.04275,0.0235 0.08209,-0.0538 0.117044,-0.0878 0.09005,-0.0876 0.102748,-0.13967 0.156499,-0.25128 0.388969,-1.38049 -0.252638,-0.46592 2.161942,-1.87243 0.369763,0.4108 0.555548,0.97629 0.784759,1.4754 0.499994,0.89819 0.938337,1.82056 1.318302,2.77477 0.246349,0.58546 0.38144,1.20494 0.448448,1.83411 0.03791,0.42132 0.02984,0.84455 0.02661,1.26696 0.04621,0.46671 -0.129862,0.8124 -0.414027,1.16432 -0.800394,0.81477 -1.83229,1.39804 -2.952015,1.47617 -0.558064,0.0123 -1.116372,7.9e-4 -1.674521,-8e-4 -0.494896,-0.0159 -0.915432,-0.11542 -1.236189,-0.50677 -0.306779,-0.5003 -0.460717,-1.07426 -0.604118,-1.63816 -0.141687,-0.60808 -0.183245,-1.23071 -0.0276,-1.83798 0.126124,-0.42687 0.404024,-0.77358 0.673465,-1.11824 0.278561,-0.29882 0.535138,-0.61625 0.785331,-0.93882 0.202779,-0.24842 0.354779,-0.53193 0.547476,-0.78786 0.536064,-0.71576 1.429639,-0.93153 2.226167,-1.39425 0.03972,-0.0231 0.156204,-0.0967 0.116305,-0.0739 -1.815063,1.03557 -2.340856,1.4838 -1.702355,0.9517 0.166949,-0.13049 0.296465,-0.28201 0.349133,-0.48785 0,0 2.014477,-0.98518 2.014477,-0.98518 l 0,0 c -0.02387,0.26076 -0.09654,0.44825 -0.28575,0.63784 -0.497168,0.39035 -4.778603,2.85918 -0.451602,0.30567 0.07586,-0.0448 -0.315679,0.16565 -0.213632,0.15555 -0.182586,0.27004 -0.386006,0.5247 -0.55185,0.80712 -0.270057,0.30606 -0.487949,0.65903 -0.785709,0.94184 -0.283922,0.30895 -0.549899,0.65481 -0.716148,1.04213 -0.221337,0.55794 -0.168891,1.15973 -0.04423,1.7371 0.128643,0.53171 0.280734,1.0714 0.582877,1.53373 0.281988,0.32214 0.697347,0.34667 1.103876,0.36415 0.561136,0.002 1.124048,0.0109 1.683726,-0.0351 0.180719,-0.0249 0.357804,-0.0507 0.527749,-0.1215 0.05542,-0.0231 0.212704,-0.11127 0.161176,-0.0804 -1.998247,1.19541 -2.272046,1.38587 -1.57703,0.91481 0.296838,-0.28812 0.526563,-0.58165 0.485515,-1.0179 0.0013,-0.41666 0.0057,-0.83371 -0.01355,-1.25003 -0.04467,-0.61596 -0.154596,-1.2234 -0.380294,-1.80137 -0.35747,-0.95798 -0.780759,-1.88071 -1.308441,-2.7592 -0.166534,-0.32365 -0.335113,-0.64479 -0.509209,-0.9643 -0.04375,-0.0803 -0.06081,-0.19724 -0.145037,-0.23282 -0.01244,-0.005 -0.01304,0.0236 -0.01955,0.0355 0.620655,-0.37079 1.242402,-0.73975 1.861961,-1.11237 0.02252,-0.0135 -0.05415,-0.055 -0.125931,0.1391 -0.06225,0.16832 -0.05431,0.34407 -0.09632,0.517 -0.297768,1.05435 -1.558243,1.61926 -2.616494,1.69358 -0.378198,2.6e-4 -0.756399,7.9e-4 -1.134594,0.003 -0.380542,0.002 -0.761106,0.007 -1.141648,0.003 -0.379966,-0.009 -0.768808,-0.017 -1.12367,-0.16972 -0.374353,-0.20988 -0.59994,-0.52108 -0.623358,-0.96142 0.01312,-0.3401 0.02658,-0.68712 0.1515,-1.00816 0.516242,-1.06206 1.064607,-1.16069 2.467624,-1.81292 0.322598,-0.13811 0.649329,-0.23081 1.004948,-0.20155 0.390639,0.004 0.78328,0.0102 1.168929,0.0798 0.467019,0.0975 0.91277,0.26076 1.342292,0.46884 0.448249,0.25406 0.838504,0.57872 1.199767,0.94567 0,0 -1.910506,1.17076 -1.910506,1.17076 z"
         id="path853"
         style="fill:#ffffff;fill-opacity:1;stroke:none;stroke-width:0.90200001;stroke-miterlimit:4;stroke-dasharray:none;stroke-opacity:1" />
      <path
         inkscape:connector-curvature="0"
         d="m 80.96265,153.46555 c 0.337537,-0.003 0.688125,0.0652 0.992301,-0.10535 -4.004347,2.04902 -1.887881,1.31777 -1.498679,0.73405 0.06712,-0.10066 0.07534,-0.14919 0.114808,-0.26369 0.08816,-0.30772 0.07787,-0.61089 0.0054,-0.91842 -0.08553,-0.20988 -0.347856,-0.19748 -0.542806,-0.21049 -0.223515,0.0922 -0.452149,0.14226 -0.691814,0.16506 -0.752631,0.32466 -0.22397,0.10135 1.710896,-0.97373 0.0332,-0.0184 -0.06696,0.037 -0.09568,0.0618 -0.09496,0.0822 -0.169206,0.19588 -0.235212,0.30083 -0.134913,0.29313 -0.163041,0.62339 -0.146195,0.94205 0.04629,0.33644 0.07738,0.67927 0.233418,0.98555 0.127823,0.26752 0.275582,0.52324 0.446151,0.76603 0.219493,0.31322 0.390199,0.65411 0.568756,0.99112 0.197631,0.33204 0.501489,0.53104 0.844307,0.69047 0.42174,0.17213 0.874151,0.21673 1.324483,0.23924 0.35466,0.0133 0.71842,0.0472 1.034161,-0.13955 0.707964,-0.36222 0.683831,-0.35226 -1.679179,0.96379 -0.04292,0.0239 0.0808,-0.0563 0.11787,-0.0885 0.115276,-0.10026 0.206002,-0.22745 0.302075,-0.34513 0.03157,-0.0405 0.06315,-0.081 0.09472,-0.12144 0,0 2.059824,-0.86977 2.059824,-0.86977 l 0,0 c -0.03427,0.0351 -0.06855,0.0701 -0.10282,0.10519 -0.58856,0.87918 -1.512125,1.38028 -2.549871,1.73968 -0.356881,0.0903 -0.719135,0.0786 -1.084496,0.0504 -0.468939,-0.0402 -0.93595,-0.11464 -1.366898,-0.31478 -0.375618,-0.19357 -0.718738,-0.42486 -0.931011,-0.80232 -0.169825,-0.33015 -0.331938,-0.66383 -0.552823,-0.96418 -0.181946,-0.24953 -0.337812,-0.51363 -0.467878,-0.79369 -0.16586,-0.3338 -0.214297,-0.69638 -0.267235,-1.06222 -0.04374,-0.34987 -0.01,-0.70816 0.08366,-1.04845 0.36667,-0.94209 1.519074,-1.48007 2.451846,-1.65362 0.241467,-0.0452 0.478076,-0.14603 0.726924,-0.1186 0.293429,0.0502 0.573734,0.1384 0.686089,0.44408 0.07614,0.33988 0.114964,0.67223 0.03998,1.01826 -0.234969,1.12867 -1.384771,1.26471 -2.393254,1.86765 -0.345173,0.0729 -0.696625,0.0317 -1.04716,0.0475 0,0 1.815311,-1.3189 1.815311,-1.3189 z"
         id="path855"
         style="fill:#ffffff;fill-opacity:1;stroke:none;stroke-width:0.90200001;stroke-miterlimit:4;stroke-dasharray:none;stroke-opacity:1" />
      <path
         inkscape:connector-curvature="0"
         d="m 77.656538,151.26578 c 0.245317,-0.33808 0.580065,-0.58965 0.864809,-0.89147 0.198739,-0.23271 0.37052,-0.47808 0.585939,-0.69695 0.213331,-0.17265 0.389694,-0.35483 0.514088,-0.59964 0.485055,-0.9353 1.384265,-1.08012 2.39546,-1.64058 0.244261,0.19413 0.440053,0.45029 0.593008,0.72097 0.176287,0.28662 0.420405,0.52026 0.67867,0.73221 0.293081,0.21994 0.600443,0.41695 0.86963,0.66797 0,0 -1.897671,1.17438 -1.897671,1.17438 l 0,0 c -0.271804,-0.24396 -0.579356,-0.43579 -0.864942,-0.66178 -0.268801,-0.23806 -0.535659,-0.48635 -0.721349,-0.79737 -0.0558,-0.0983 -0.327861,-0.55324 -0.450607,-0.47178 3.748786,-2.16505 2.137352,-1.3752 1.58428,-0.86679 -0.08425,0.0774 -0.0945,0.12718 -0.14251,0.23 -0.17463,0.28019 -0.125105,0.32453 -0.390948,0.56736 -0.03416,0.0312 -0.06187,0.0688 -0.09281,0.10321 -0.25432,0.18547 -0.431673,0.42312 -0.60221,0.6845 -0.54963,0.53445 0.314309,-0.31419 -0.26734,0.28855 -0.191297,0.19824 -0.449527,0.32607 -0.594844,0.5692 0,0 -2.060655,0.88801 -2.060655,0.88801 z"
         id="path857"
         style="fill:#ffffff;fill-opacity:1;stroke:none;stroke-width:0.90200001;stroke-miterlimit:4;stroke-dasharray:none;stroke-opacity:1" />
      <path
         inkscape:connector-curvature="0"
         d="m 86.258798,151.83105 c 0.114536,0.4895 0.280745,0.96405 0.400072,1.45219 0.08924,0.36479 0.0755,0.74892 0.224734,1.09747 0.167148,0.27554 0.273913,0.57662 0.402323,0.86996 0.13626,0.26057 0.20302,0.53648 0.243506,0.82522 0.09619,0.80834 0.202886,0.20465 -1.971566,1.09811 -0.04096,0.0168 0.0024,-0.0885 0.0033,-0.13281 7.94e-4,-0.0505 0.0013,-0.10094 0.0019,-0.15141 0.01024,-0.33956 -0.08685,-0.67259 -0.190156,-0.99283 -0.162642,-0.45471 -0.35207,-0.89549 -0.465013,-1.36633 -0.07722,-0.34705 -0.05549,-0.70962 -0.193998,-1.04125 -0.12383,-0.24335 -0.236577,-0.50386 -0.05619,-0.74496 1.424008,-1.0204 1.548627,-1.17142 2.726298,-1.17348 0.325488,0.009 0.651211,0.0976 0.946737,0.2329 0.265078,0.0812 0.400458,0.32908 0.578223,0.52077 0.230799,0.14241 0.399759,0.34022 0.576183,0.5406 0.210884,0.27146 0.365544,0.57875 0.52972,0.87906 0.181343,0.36484 0.337963,0.7423 0.444614,1.13581 0.0613,0.31953 0.159567,0.63045 0.288004,0.92881 0.06545,0.14361 0.02758,0.0813 0.10768,0.19048 0,0 -1.934469,1.13658 -1.934469,1.13658 l 0,0 c -0.09692,-0.14899 -0.05613,-0.0716 -0.123325,-0.23174 -0.132225,-0.30931 -0.238384,-0.63087 -0.295246,-0.96333 -0.09365,-0.37832 -0.245038,-0.73762 -0.417049,-1.08668 -0.160695,-0.28478 -0.31055,-0.57721 -0.517634,-0.8324 -0.172942,-0.20204 -0.365067,-0.37215 -0.575307,-0.53618 -0.156419,-0.17788 -0.284679,-0.37121 -0.524664,-0.44123 -0.281569,-0.11448 -0.587914,-0.1668 -0.891825,-0.15546 -0.986695,0.0281 -1.919626,0.68643 1.170339,-0.97768 -0.335904,0.11842 -0.205269,0.18978 -0.08114,0.48429 0.146129,0.34649 0.146798,0.71475 0.200186,1.08247 0.09861,0.46672 0.279302,0.90163 0.44935,1.34574 0.126915,0.33574 0.240567,0.68871 0.240773,1.05097 5.29e-4,0.0502 0.0013,0.10035 0.0019,0.15053 5.3e-4,0.0442 0.03917,0.10846 0.0021,0.13266 -1.85534,1.21267 -1.955205,1.91183 -2.013614,0.95846 -0.02585,-0.26976 -0.08248,-0.52682 -0.20664,-0.77054 -0.128182,-0.29446 -0.23373,-0.59587 -0.405032,-0.87042 -0.155374,-0.36422 -0.15907,-0.7549 -0.227002,-1.14064 -0.106899,-0.48282 -0.262707,-0.95225 -0.408082,-1.4243 0,0 1.959911,-1.07941 1.959911,-1.07941 z"
         id="path859"
         style="fill:#ffffff;fill-opacity:1;stroke:none;stroke-width:0.90200001;stroke-miterlimit:4;stroke-dasharray:none;stroke-opacity:1" />
      <path
         inkscape:connector-curvature="0"
         d="m 92.868902,152.89858 c 0.427884,0.0104 0.855988,0.007 1.283968,0.007 0.706993,-0.14639 2.125633,-1.06117 -1.479236,0.90342 -0.03708,0.0202 0.06891,-0.0503 0.09613,-0.0825 0.07073,-0.0839 0.0809,-0.14973 0.114789,-0.25223 0.0163,-0.20475 0.136364,-0.50942 0.0042,-0.69316 -0.117861,-0.19559 -0.24035,-0.33615 -0.461219,-0.40871 -0.218678,-0.1605 -0.480427,-0.19134 -0.742399,-0.2168 -0.345821,-0.037 -0.677286,-0.0316 -1.014032,0.0493 -0.677217,0.37762 -1.624774,0.88288 1.555499,-0.89167 0.03641,-0.0203 -0.06972,0.0467 -0.0994,0.0759 -0.08029,0.0792 -0.08857,0.12144 -0.13603,0.22298 -0.09475,0.27937 -0.0939,0.57673 -0.09873,0.86823 0.01286,0.30245 -0.01826,0.6077 0.02008,0.90837 0.140518,0.23761 0.213231,0.5014 0.312608,0.75609 0.08817,0.25957 0.269264,0.46731 0.431774,0.68291 0.210566,0.205 0.452897,0.37093 0.734869,0.4577 0.334526,0.14225 0.691968,0.21282 1.040818,0.31124 0.354428,0.0761 0.728747,0.16601 1.09033,0.10124 0.05114,-0.011 0.104417,-0.0147 0.153426,-0.0329 0.181994,-0.0679 0.346528,-0.20314 0.518792,-0.2921 -0.592984,0.33954 -1.185971,0.67908 -1.778955,1.01861 0.809406,-0.55481 -0.35392,0.23765 2.179185,-1.27038 0.589968,-0.35122 -1.188683,0.6876 -1.786665,1.025 -0.03956,0.0223 0.07383,-0.0529 0.11075,-0.0794 0,0 2.069499,-0.85055 2.069499,-0.85055 l 0,0 c -0.599406,0.72421 -0.03749,0.0727 -2.134476,1.30581 -0.544544,0.32021 2.529925,-1.50587 1.640621,-0.94867 -0.190254,0.11193 -1.915055,1.36346 -2.767844,1.45081 -0.382979,-0.005 -0.763029,-0.0633 -1.131533,-0.16861 -0.354539,-0.10018 -0.716933,-0.17452 -1.056777,-0.32119 -0.304303,-0.1282 -0.578133,-0.32097 -0.80337,-0.56326 -0.179253,-0.22872 -0.366771,-0.45823 -0.463931,-0.73611 -0.108149,-0.26901 -0.1841,-0.54866 -0.335352,-0.80015 -0.05624,-0.31038 -0.02646,-0.62833 -0.03315,-0.94279 -2.41e-4,-0.31093 -0.01019,-0.6271 0.06289,-0.93156 0.261508,-1.04198 1.510736,-1.40888 2.486668,-1.70313 0.349911,-0.0532 0.704715,-0.027 1.055663,0.008 0.280019,0.0425 0.544296,0.11451 0.787477,0.26512 0.231164,0.12396 0.397798,0.29521 0.533355,0.51934 0.157893,0.26276 0.106511,0.56361 0.06944,0.85765 -0.18741,1.10981 -1.467027,1.64368 -2.542701,1.70371 -0.434091,-7.9e-4 -0.868291,-0.004 -1.302293,0.007 0,0 1.815315,-1.3189 1.815315,-1.3189 z"
         id="path861"
         style="fill:#ffffff;fill-opacity:1;stroke:none;stroke-width:0.90200001;stroke-miterlimit:4;stroke-dasharray:none;stroke-opacity:1" />
      <path
         inkscape:connector-curvature="0"
         d="m 99.079038,149.79608 c 0.331777,-0.14041 0.67917,-0.2242 1.035822,-0.26618 0.36165,-0.0423 0.7125,-0.041 1.0669,0.0385 0.31311,0.13625 0.59568,0.33241 0.85991,0.54664 0.23571,0.29638 0.50861,0.56419 0.72632,0.87421 0.18686,0.27543 0.29211,0.58346 0.41682,0.88759 0.12358,0.2845 0.1977,0.58992 0.20856,0.89984 -0.004,0.9126 -1.56705,1.83868 -2.22189,1.14628 -0.22384,-0.17531 -0.50793,-0.27567 -0.77896,-0.35675 -0.30986,-0.15756 -0.639572,-0.2762 -0.945846,-0.43894 -0.28788,-0.16124 -0.610576,-0.20002 -0.933543,-0.22457 -0.338343,8e-4 -0.707987,-0.0951 -1.006337,0.0971 3.968846,-2.08893 1.906101,-1.36576 1.548813,-0.74221 -0.05844,0.10199 -0.06628,0.15431 -0.09957,0.26757 -0.06551,0.29559 -0.0664,0.59952 -0.07001,0.9007 7.94e-4,0.28633 -0.03782,0.61315 0.160835,0.84485 0.156345,0.20308 0.408482,0.29318 0.638726,0.38911 0.312864,0.10615 0.645742,0.11755 0.972842,0.1296 0.32341,0.006 0.64703,0.006 0.97049,0.003 0.76336,-0.29671 0.16517,-0.0698 -1.743659,0.98434 -0.06626,0.0366 0.125029,-0.0856 0.190449,-0.12365 1.91832,-1.11628 1.32156,-0.82441 2.09628,-1.20018 0.0928,-0.0455 0.20987,-0.004 0.30345,-0.0389 0.0942,-0.0347 0.14805,-0.0895 0.26164,-0.1191 0,0 -1.77187,1.37805 -1.77187,1.37805 l 0,0 c -0.18156,0.0769 -0.37447,0.0913 -0.54738,0.18721 -0.702329,0.38915 0.16768,-0.0923 1.75043,-1.01486 0.0648,-0.0378 -0.12276,0.0866 -0.18792,0.12367 -2.026401,1.15388 -1.25951,1.10811 -2.161151,1.13885 -0.323549,-0.002 -0.647219,2.7e-4 -0.970465,-0.0171 -0.348737,-0.0216 -0.701554,-0.0519 -1.02629,-0.19191 -0.261138,-0.12094 -0.527844,-0.23824 -0.699333,-0.48193 -0.21159,-0.29049 -0.241853,-0.62617 -0.226007,-0.97875 -5.3e-4,-0.31484 -0.0085,-0.63258 0.04565,-0.94395 0.199734,-1.1325 1.23434,-1.28489 2.322563,-1.87695 0.350226,-0.0713 0.71111,-0.0291 1.065183,-0.008 0.34364,0.0418 0.67798,0.11594 0.98138,0.29108 0.30515,0.14398 0.61275,0.2845 0.925,0.41244 0.29799,0.1048 0.60597,0.21615 0.84517,0.42936 0.0417,0.0316 0.17884,0.0551 0.13386,0.0817 -0.63674,0.37717 -1.30024,0.70753 -1.94143,1.07709 -0.0143,0.008 0.0326,0.0222 0.0473,0.0146 0.0204,-0.0105 0.0631,-0.12617 0.0668,-0.1352 0.0583,-0.27092 -0.0618,-0.56038 -0.15504,-0.81174 -0.1189,-0.2884 -0.20896,-0.58543 -0.38648,-0.84776 -0.2053,-0.292 -0.46097,-0.54775 -0.69277,-0.81837 -0.245531,-0.18639 -0.504257,-0.37193 -0.804697,-0.45616 -0.338481,-0.0547 -0.681119,-0.0253 -1.019561,0.0209 -0.349655,0.064 -0.687932,0.17018 -1.013291,0.3143 0,0 1.762374,-1.38586 1.762374,-1.38586 z"
         id="path863"
         style="fill:#ffffff;fill-opacity:1;stroke:none;stroke-width:0.90200001;stroke-miterlimit:4;stroke-dasharray:none;stroke-opacity:1" />
    </g>
  </g>
</svg>
