<?xml version="1.0" encoding="UTF-8" standalone="no"?>
<!-- Created with Inkscape (http://www.inkscape.org/) -->

<svg
   xmlns:dc="http://purl.org/dc/elements/1.1/"
   xmlns:cc="http://creativecommons.org/ns#"
   xmlns:rdf="http://www.w3.org/1999/02/22-rdf-syntax-ns#"
   xmlns:svg="http://www.w3.org/2000/svg"
   xmlns="http://www.w3.org/2000/svg"
   xmlns:sodipodi="http://sodipodi.sourceforge.net/DTD/sodipodi-0.dtd"
   xmlns:inkscape="http://www.inkscape.org/namespaces/inkscape"
   width="210mm"
   height="297mm"
   viewBox="0 0 210 297"
   version="1.1"
   id="svg1010"
   sodipodi:docname="MisHeterogenea.svg"
   inkscape:version="0.91 r13725">
  <defs
     id="defs1004" />
  <sodipodi:namedview
     id="base"
     pagecolor="#ffffff"
     bordercolor="#666666"
     borderopacity="1.0"
     inkscape:pageopacity="0.0"
     inkscape:pageshadow="2"
     inkscape:zoom="1.4"
     inkscape:cx="351.18882"
     inkscape:cy="803.95459"
     inkscape:document-units="mm"
     inkscape:current-layer="g886"
     showgrid="false"
     inkscape:window-width="1366"
     inkscape:window-height="719"
     inkscape:window-x="0"
     inkscape:window-y="25"
     inkscape:window-maximized="1" />
  <metadata
     id="metadata1007">
    <rdf:RDF>
      <cc:Work
         rdf:about="">
        <dc:format>image/svg+xml</dc:format>
        <dc:type
           rdf:resource="http://purl.org/dc/dcmitype/StillImage" />
      </cc:Work>
    </rdf:RDF>
  </metadata>
  <g
     inkscape:label="Layer 1"
     inkscape:groupmode="layer"
     id="layer1">
    <g
       transform="matrix(1.2694516,0,0,1.2528144,12.931282,-31.981902)"
       id="g886">
      <rect
         style="fill:#00222b;fill-opacity:1;stroke:none;stroke-width:0.71524543;stroke-miterlimit:4;stroke-dasharray:none;stroke-opacity:1"
         id="rect815"
         width="90.515266"
         height="62.150539"
         x="28.480988"
         y="59.488728"
         rx="12.590249" />
      <g
         id="g3359"
         style="fill:#dbe3de">
        <path
           style="fill:#dbe3de;fill-opacity:1;stroke:none;stroke-width:0.90200001;stroke-miterlimit:4;stroke-dasharray:none;stroke-opacity:1"
           id="path819-3"
           d="m 50.638048,85.381906 c 0.826002,-0.78625 1.539046,-1.68277 2.244568,-2.57597 1.014132,-1.32364 1.980526,-2.68326 2.945432,-4.04305 0.711835,-0.98281 1.354568,-2.0123 2.005622,-3.03554 0.40602,-0.63106 0.805473,-1.26613 1.202136,-1.90311 0.296626,-0.47429 0.611635,-0.94054 0.821751,-1.46106 0.137393,-0.32675 0.244779,-0.66361 0.427287,-0.96874 0.1419,-0.26813 0.280033,-0.5433 0.377773,-0.83116 0.119758,-0.28217 0.196139,-0.57381 0.267288,-0.87088 0.06208,-0.31508 0.220343,-0.58025 0.37353,-0.85601 0.171985,-0.25419 0.277095,-0.53053 0.371377,-0.81956 0.05243,-0.0294 0.123345,-0.45985 0.14547,-0.47126 2.053515,-1.0591 1.851272,-1.71145 2.059166,-0.85999 0.02764,0.33501 0.01649,0.67219 0.01415,1.00805 -0.0029,0.38179 -0.0039,0.76358 -0.0045,1.14538 -6.25e-4,0.37892 -6.25e-4,0.75784 -6.25e-4,1.13676 1.6e-5,0.37797 3.3e-5,0.75595 4.3e-5,1.13393 9e-6,0.37796 9e-6,0.75592 9e-6,1.13388 0,0.37797 0,0.75595 0,1.13393 0,0.37797 0,0.75595 0,1.13393 0.0035,0.32403 6.25e-4,0.64813 0.0043,0.97216 1.04e-4,0.0466 -6.25e-4,0.0932 2.09e-4,0.13984 6.25e-4,0.0324 0.0024,0.0647 0.0039,0.097 10e-4,0.0277 0.03261,0.0711 0.0075,0.0828 -2.044057,0.95009 -2.195837,1.61397 -1.966322,0.7896 0.07997,-0.3566 0.243768,-0.68611 0.392587,-1.01784 0.156321,-0.31583 0.305325,-0.63593 0.406446,-0.97397 0.0972,-0.29912 0.177533,-0.60528 0.369841,-0.8585 0.177101,-0.24814 0.339011,-0.50923 0.489526,-0.77442 0.128749,-0.27199 0.21844,-0.56317 0.369987,-0.82347 0.219765,-0.23617 0.385399,-0.50177 0.531354,-0.78766 0.130892,-0.31677 0.36159,-0.56632 0.556997,-0.84103 0.172093,-0.24649 0.324146,-0.50621 0.461418,-0.77351 0.110124,-0.30853 0.286669,-0.5644 0.486256,-0.81865 0.152205,-0.26424 0.313327,-0.52489 0.443345,-0.80107 0.135961,-0.33279 0.205391,-0.68973 0.362196,-1.01331 0.118991,-0.19719 0.289121,-0.39861 0.307675,-0.63759 2.234283,-1.17066 2.080921,-1.42293 2.072011,-0.0919 0.02347,0.38862 -0.05353,0.76806 -0.113463,1.14941 -0.03217,0.34126 -0.146043,0.66541 -0.207707,1.00126 -0.06649,0.3759 -0.219774,0.72663 -0.321693,1.09278 -0.108172,0.38091 -0.23318,0.7566 -0.347279,1.13566 -0.141046,0.40678 -0.260237,0.82063 -0.398174,1.2284 -0.157168,0.37681 -0.217219,0.7813 -0.332777,1.17031 -0.06797,0.30561 -0.181691,0.59723 -0.266228,0.89785 -0.08065,0.33568 -0.08893,0.68237 -0.09729,1.02579 -0.01238,0.37304 0.01092,0.74694 -0.01719,1.11922 -0.06388,0.32651 -0.119373,0.65279 -0.147679,0.98445 -0.02508,0.36778 -0.02572,0.73662 -0.0271,1.10507 0.0031,0.35627 0.03259,0.70662 -0.1118,1.0394 -0.155232,0.27129 -0.208826,0.57154 -0.240969,0.87783 -0.02822,0.36759 -0.02635,0.73662 -0.0267,1.10503 6.25e-4,0.37864 0.0017,0.75729 0.0021,1.13593 0.01288,0.36534 -0.0241,0.73392 0.01819,1.09749 0.03766,0.30592 0.131793,0.59397 0.22352,0.88606 0.09974,0.23109 0.308025,0.38856 0.475639,0.57035 0.02201,0.0244 0.04405,0.0488 0.06607,0.0732 0,0 -1.924494,1.16087 -1.924494,1.16087 v 0 c -0.01986,-0.0238 -0.03975,-0.0477 -0.05962,-0.0715 -0.186191,-0.20904 -0.415563,-0.38903 -0.518253,-0.65837 -0.09332,-0.30453 -0.197223,-0.60212 -0.237884,-0.92038 -0.05669,-0.37198 -0.01511,-0.75082 -0.02792,-1.12608 -6.25e-4,-0.37871 -0.0013,-0.75742 -0.0021,-1.13613 -6.25e-4,-0.37361 -0.0029,-0.74751 0.01532,-1.1208 0.02217,-0.32444 0.0502,-0.65515 0.198451,-0.9506 0.04398,-0.0771 0.103855,-0.14642 0.134693,-0.22963 0.08424,-0.22732 0.0031,-0.48731 0.03064,-0.7217 6.25e-4,-0.3727 -1.1e-5,-0.74562 0.01774,-1.118 0.02066,-0.3352 0.05443,-0.66972 0.140184,-0.99555 0.07214,-0.35958 0.0088,-0.73332 0.03173,-1.09814 0.0049,-0.35656 0.0089,-0.71521 0.06982,-1.06756 0.06681,-0.31251 0.203878,-0.59728 0.26343,-0.91134 0.127216,-0.39211 0.194526,-0.79747 0.340948,-1.18437 0.15001,-0.39842 0.240385,-0.81581 0.397017,-1.21208 0.103386,-0.38053 0.236254,-0.7521 0.349126,-1.12985 0.08657,-0.36572 0.234228,-0.70826 0.325836,-1.07223 0.0482,-0.34134 0.162068,-0.6629 0.213396,-1.00144 0.05405,-0.37252 0.151324,-0.73985 0.125507,-1.11908 0.0017,-1.38124 -0.292893,-0.62908 1.995837,-1.80188 -0.0143,-5.3e-4 -0.03247,-0.0115 -0.04283,-0.002 -0.133879,0.12718 -0.112505,0.5085 -0.300799,0.62098 -0.226965,0.27362 -0.258666,0.65274 -0.379999,0.97983 -0.109673,0.29828 -0.286799,0.55619 -0.420215,0.84169 -0.163333,0.26947 -0.422795,0.45892 -0.502974,0.7808 -0.109697,0.28607 -0.275587,0.55562 -0.452541,0.80397 -0.162785,0.29572 -0.420052,0.51371 -0.570517,0.81832 -0.130498,0.29966 -0.271344,0.59395 -0.501348,0.8311 -0.219226,0.19567 -0.278324,0.52014 -0.393132,0.78241 -0.126699,0.28818 -0.322592,0.53427 -0.467354,0.81375 -0.05555,0.0689 -0.126298,0.12478 -0.179938,0.19515 -0.128827,0.16901 -0.121949,0.40688 -0.235983,0.58534 -0.08431,0.35556 -0.226354,0.68859 -0.387274,1.0158 -0.170084,0.30024 -0.313402,0.63733 -0.400116,0.97008 -0.217036,0.86282 1.14e-4,0.11978 -2.073948,1.20378 -0.0067,0.003 0.0038,-0.0147 0.0044,-0.0222 0.0047,-0.0563 0.006,-0.11278 0.0069,-0.16923 8.33e-4,-0.0467 2.06e-4,-0.0934 2.08e-4,-0.14015 0.0037,-0.3255 8.34e-4,-0.65108 0.0043,-0.97658 0,-0.37797 0,-0.75595 0,-1.13393 0,-0.37797 4e-6,-0.75595 0,-1.13392 0,-0.37796 0,-0.75592 -9e-6,-1.13388 -8e-6,-0.37798 -2.5e-5,-0.75597 -2.5e-5,-1.13395 1.9e-5,-0.37907 2.3e-5,-0.75814 6.25e-4,-1.13722 6.26e-4,-0.38195 0.0019,-0.76391 0.0037,-1.14586 10e-4,-0.32088 0.0064,-0.64232 -0.01374,-0.96274 -0.02095,-0.80502 -0.01844,-0.0761 1.975806,-1.13294 0.01851,-0.01 -0.02916,0.031 -0.03815,0.0499 -0.06245,0.13142 -0.06663,0.28251 -0.129171,0.41413 -0.118686,0.28382 -0.15135,0.60411 -0.364797,0.84375 -0.126611,0.28001 -0.335682,0.50814 -0.387111,0.82009 -0.106116,0.28355 -0.100847,0.6048 -0.26936,0.86895 -0.0766,0.31384 -0.228159,0.5905 -0.354494,0.88548 -0.05627,0.0912 -0.126097,0.17396 -0.178628,0.2674 -0.118176,0.21021 -0.141002,0.46616 -0.277719,0.66909 -0.192369,0.54717 -0.515196,1.02768 -0.82963,1.51177 -0.397213,0.64443 -0.802621,1.28339 -1.21902,1.91559 -0.682119,1.03013 -1.343196,2.07484 -2.070867,3.07411 -0.968795,1.35353 -1.934375,2.7095 -2.92766,4.04509 -0.673343,0.87724 -1.362659,1.74802 -2.121532,2.55331 0,0 -2.063861,0.85488 -2.063861,0.85488 z"
           inkscape:connector-curvature="0" />
        <path
           style="fill:#dbe3de;fill-opacity:1;stroke:none;stroke-width:0.90200001;stroke-miterlimit:4;stroke-dasharray:none;stroke-opacity:1"
           id="path821-6"
           d="m 71.820414,79.021476 c -0.0976,0.43231 -0.21854,0.85753 -0.29401,1.29466 -0.03515,0.36123 -0.145786,0.70753 -0.206812,1.06419 -0.02625,0.32737 -0.06523,0.64458 -0.202552,0.94531 -0.152339,0.2759 -0.178427,0.58753 -0.230433,0.89161 -0.01244,0.0509 -0.0249,0.10186 -0.03733,0.15279 0,0 -2.016635,0.96348 -2.016635,0.96348 v 0 c 0.01363,-0.0489 0.02726,-0.0979 0.04088,-0.14681 0.09006,-0.30617 0.05853,-0.64252 0.205947,-0.93562 0.150276,-0.29558 0.242713,-0.54524 0.236709,-0.88784 0.049,-0.3639 0.165642,-0.70915 0.215524,-1.07135 0.06822,-0.43627 0.189688,-0.85913 0.27014,-1.2916 0,0 2.018575,-0.97882 2.018575,-0.97882 z"
           inkscape:connector-curvature="0" />
        <path
           style="fill:#dbe3de;fill-opacity:1;stroke:none;stroke-width:0.90200001;stroke-miterlimit:4;stroke-dasharray:none;stroke-opacity:1"
           id="path823-7"
           d="m 69.115271,78.050546 c 0.204947,-0.23077 0.419683,-0.449 0.596802,-0.70282 0.106985,-0.18706 0.119284,-0.40216 0.123663,-0.61259 -0.01557,-0.14026 -0.11413,-0.18559 -0.232314,-0.22892 -0.188209,-0.0415 -0.38129,-0.0408 -0.572952,-0.043 -0.702287,0.30998 -1.583265,0.86783 1.678202,-0.96529 0.06008,-0.0338 -0.08883,0.0623 -0.144348,0.12509 -0.06619,0.16991 -0.05771,0.36016 -0.05692,0.54002 -10e-4,0.21103 -8.34e-4,0.42208 0.0045,0.63306 0.02948,0.0817 0.234036,0.0559 0.313912,0.0573 0.08531,-0.0184 0.193707,0.0274 0.276718,-7.82e-4 0.06458,-0.022 0.10823,-0.100359 0.177161,-0.129 0.826739,-0.36896 -2.481882,1.52038 -1.759222,1.016601 0,0 2.075472,-0.879301 2.075472,-0.879301 v 0 c -0.396472,0.718091 -1.351094,0.90409 -2.077081,1.266371 -0.159223,0.0871 -0.348742,0.0376 -0.523251,0.0307 -0.216935,-0.0336 -0.418828,-0.10777 -0.487491,-0.339601 0.0031,-0.211529 6.25e-4,-0.423079 -0.0033,-0.634599 2.08e-4,-0.204421 -0.0026,-0.408981 0.01651,-0.6128 0.0096,-0.062 0.03416,-0.205091 0.09754,-0.24331 0.671173,-0.4047 1.375635,-1.173941 2.229606,-1.17838 0.215285,0.008 0.43252,0.025 0.630885,0.11711 0.185639,0.10485 0.306295,0.24498 0.361415,0.453769 -0.0075,0.239421 -0.0072,0.480751 -0.08151,0.7114 -0.126942,0.287411 -0.358534,0.51711 -0.583391,0.731021 0,0 -2.060655,0.88802 -2.060655,0.88802 z"
           inkscape:connector-curvature="0" />
        <path
           style="fill:#dbe3de;fill-opacity:1;stroke:none;stroke-width:0.90200001;stroke-miterlimit:4;stroke-dasharray:none;stroke-opacity:1"
           id="path825-5"
           d="m 74.325098,79.787586 c -0.26643,-0.1211 -0.596822,-0.22587 -0.878204,-0.10031 0.61489,-0.34135 1.229429,-0.68334 1.844667,-1.02406 0.02662,-0.0147 -0.05434,0.028 -0.07878,0.0461 -0.123416,0.0916 -0.137009,0.24224 -0.156063,0.3833 -0.03017,0.24469 -0.03434,0.48196 0.05401,0.71399 0.129914,0.0888 0.286311,0.15887 0.412538,0.26237 0.132176,0.14967 0.32152,0.14602 0.493911,0.21212 0.24219,0.15689 0.417431,0.40203 0.601912,0.62153 0.189324,0.24098 0.2551,0.51861 0.295772,0.81498 0.01917,0.27453 0.04702,0.55376 -0.01569,0.82392 -0.32652,0.9173 -1.773681,1.30384 -2.366399,1.63581 -0.255611,0.0503 -0.534514,-0.0272 -0.73566,0.16097 3.879938,-2.50414 0.771356,0.0264 -0.6952,0.23899 -0.24304,0.0587 -0.44242,-0.0552 -0.66466,-0.12426 -0.188977,-0.1226 -0.300965,-0.30866 -0.408168,-0.50054 -0.05174,-0.13221 -0.02916,-0.0679 -0.06879,-0.19245 0,0 1.975337,-1.07656 1.975337,-1.07656 v 0 c 0.02487,0.10135 0.01028,0.051 0.04397,0.15115 0.07409,0.14516 0.157951,0.29882 0.32043,0.35697 0.197527,0.0739 0.383665,0.0915 0.591864,0.0339 0.117642,-0.0274 0.222817,-0.0614 0.331432,-0.11498 0.03446,-0.017 0.13564,-0.0722 0.102442,-0.0529 -0.670443,0.39092 -4.434008,2.56487 0.219424,-0.12426 0.248474,-0.0608 0.513685,-0.0356 0.752204,-0.14065 -0.60647,0.35221 -1.212942,0.70442 -1.819417,1.05663 0.10015,-0.0373 0.196168,-0.0912 0.267681,-0.17461 0.025,-0.0292 0.04038,-0.0654 0.06056,-0.0981 0.02223,-0.0242 0.04448,-0.0484 0.06672,-0.0726 0.08742,-0.25299 0.08278,-0.47935 0.05799,-0.74709 -0.02275,-0.25421 -0.06428,-0.49455 -0.228703,-0.70015 -0.161259,-0.18491 -0.307489,-0.41636 -0.537553,-0.51489 -0.203208,-0.0501 -0.385973,-0.1202 -0.539114,-0.26936 -0.172595,-0.10671 -0.368682,-0.20101 -0.480441,-0.37608 -0.09338,-0.26433 -0.125285,-0.52789 -0.0962,-0.80811 0.09941,-1.17463 0.664259,-1.01177 2.184289,-1.75603 0.334027,-0.007 0.648255,0.0741 0.954526,0.20728 0,0 -1.862635,1.24786 -1.862635,1.24786 z"
           inkscape:connector-curvature="0" />
        <path
           style="fill:#dbe3de;fill-opacity:1;stroke:none;stroke-width:0.90200001;stroke-miterlimit:4;stroke-dasharray:none;stroke-opacity:1"
           id="path829-3"
           d="m 77.902038,75.336616 c 0.423633,0.0953 0.856724,0.13819 1.289149,0.16872 0.424177,0.0248 0.849262,0.0255 1.274006,0.0298 0.65046,0.0386 1.291224,-0.0613 1.928606,-0.17708 0.576349,-0.091 1.136363,-0.25417 1.714213,-0.33902 0.273114,-0.0367 0.548528,-0.0467 0.823631,-0.0545 0,0 -1.79657,1.3155 -1.79657,1.3155 v 0 c -0.268012,0.0124 -0.536154,0.0283 -0.801434,0.0708 -0.567097,0.0946 -1.123147,0.2437 -1.692295,0.32721 -0.651792,0.10843 -1.306895,0.18412 -1.969225,0.15861 -0.429723,2.74e-4 -0.859817,-0.003 -1.288282,-0.0403 -0.43343,-0.0395 -0.86322,-0.11278 -1.297112,-0.14076 0,0 1.815313,-1.31891 1.815313,-1.31891 z"
           inkscape:connector-curvature="0" />
        <path
           style="fill:#dbe3de;fill-opacity:1;stroke:none;stroke-width:0.90200001;stroke-miterlimit:4;stroke-dasharray:none;stroke-opacity:1"
           id="path831-5"
           d="m 82.416707,79.001546 c -0.01553,0.43253 -0.01125,0.86553 -0.01009,1.29827 0.0013,0.40113 0.0021,0.80227 0.0026,1.2034 0.0062,0.26236 -0.06394,0.60152 0.183707,0.77461 0.225634,0.0688 0.466293,0.0627 0.699931,0.0617 0.682957,-0.01 2.467332,-1.27781 -1.619964,0.98206 -0.222848,0.12321 0.198235,-0.12768 0.248217,-0.16437 0.14059,-0.0977 0.218822,-0.28239 0.293294,-0.43545 0.07081,-0.18754 0.07383,-0.38898 0.131265,-0.57961 0.07156,-0.22898 0.125431,-0.45885 0.222679,-0.67886 0.13861,-0.19986 0.231719,-0.40698 0.273343,-0.64615 0.03553,-0.25089 0.03745,-0.50536 0.03617,-0.75834 -0.03301,-0.86508 1.835882,-2.18441 2.152723,-1.23885 0.0439,0.32184 0.03096,0.64904 0.0296,0.97317 -0.0045,0.36977 0.01624,0.73915 -0.04578,1.10492 -0.08199,0.32562 -0.09901,0.66107 -0.145903,0.99197 -0.03453,0.15445 -0.07102,0.30826 -0.103628,0.46313 0,0 -2.008978,0.97612 -2.008978,0.97612 v 0 c 0.02721,-0.15647 0.05554,-0.31277 0.102607,-0.46483 0.08701,-0.32247 0.05073,-0.66818 0.146484,-0.99158 0.08093,-0.35359 0.07684,-0.70602 0.06925,-1.06844 1.75e-4,-0.30397 0.0048,-0.60891 -0.02196,-0.91199 -0.01982,-0.78571 -0.01236,-0.0396 1.970497,-1.1092 0.0174,-0.009 -0.207669,0.2706 -0.147347,0.25821 -0.0021,0.26299 0.0017,0.52642 -0.02148,0.78872 -0.03515,0.26109 -0.07197,0.50835 -0.236148,0.72462 -0.152397,0.18543 -0.172512,0.40862 -0.242319,0.63085 -0.02106,0.0624 -0.05844,0.11937 -0.07254,0.18367 -0.02826,0.12887 0.003,0.27439 -0.05542,0.39981 -0.04807,0.20547 -0.176574,0.35435 -0.23709,0.55411 -0.739988,0.59617 -1.557408,1.3875 -2.533085,1.33002 -0.275892,-0.0118 -0.560671,-0.0238 -0.792088,-0.1934 -0.254641,-0.26662 -0.284539,-0.58832 -0.260354,-0.94554 6.25e-4,-0.40202 0.0013,-0.80404 0.0026,-1.20605 0.001,-0.42932 0.0056,-0.8589 -0.01009,-1.28799 0,0 1.999286,-1.01869 1.999286,-1.01869 z"
           inkscape:connector-curvature="0" />
        <path
           style="fill:#dbe3de;fill-opacity:1;stroke:none;stroke-width:0.90200001;stroke-miterlimit:4;stroke-dasharray:none;stroke-opacity:1"
           id="path833-6"
           d="m 87.330397,78.245596 c -0.01553,0.43253 -0.01126,0.86553 -0.01009,1.29827 0.0013,0.40113 0.0021,0.80226 0.0026,1.2034 0.001,0.33388 -0.004,0.66772 0.0084,1.00142 0.0019,0.0154 0.01903,0.0392 0.0052,0.0461 -2.260649,1.13774 -2.010539,1.59839 -2.00021,0.40807 0.0039,-0.36414 -0.01634,-0.72748 0.0438,-1.0878 0.108275,-0.33618 0.222591,-0.66526 0.281746,-1.01459 0.07427,-0.31141 0.139327,-0.62781 0.244422,-0.93073 0.291756,-1.05076 1.528815,-1.25056 2.432834,-1.76018 0.256974,-0.11413 0.530165,-0.16806 0.799435,-0.24432 0.352527,-0.088 0.716518,-0.10508 1.077999,-0.11769 0.346062,0.0473 0.65873,0.22949 0.920964,0.45373 0,0 -1.894226,1.18764 -1.894226,1.18764 v 0 c -0.240875,-0.18435 -0.510593,-0.33339 -0.823076,-0.32319 -0.354754,0.0214 -0.710482,0.0548 -1.05094,0.16369 -0.264072,0.08 -0.5359,0.13642 -0.775666,0.281 -0.758763,0.36328 -0.04226,0.0247 1.659865,-0.99069 0.03725,-0.0222 -0.08136,0.0319 -0.117593,0.0557 -0.124009,0.0817 -0.172334,0.20922 -0.203264,0.34825 -0.10906,0.29405 -0.175764,0.59417 -0.269877,0.89417 -0.04551,0.35242 -0.119981,0.69867 -0.273631,1.02182 -0.07832,0.34776 -0.07547,0.69353 -0.06382,1.04972 0.01061,1.21254 0.13925,0.52678 -2.00021,1.63025 -0.0153,0.008 0.0035,-0.0343 0.0052,-0.0514 0.012,-0.33656 0.0077,-0.67322 0.0084,-1.00995 6.26e-4,-0.40202 0.0013,-0.80404 0.0026,-1.20606 0.001,-0.42931 0.0056,-0.85889 -0.01009,-1.28799 0,0 1.999284,-1.01868 1.999284,-1.01868 z"
           inkscape:connector-curvature="0" />
        <path
           style="fill:#dbe3de;fill-opacity:1;stroke:none;stroke-width:0.90200001;stroke-miterlimit:4;stroke-dasharray:none;stroke-opacity:1"
           id="path835-2"
           d="m 93.033035,77.970766 c 0.294099,0.37447 0.567217,0.76267 0.826852,1.16169 0.221698,0.34481 0.440334,0.67493 0.556805,1.07107 0.07678,0.3186 0.08784,0.64641 0.09726,0.97231 0.1627,0.90851 -1.41107,1.92775 -2.117493,1.33263 -0.181047,-0.14504 -0.368935,-0.27885 -0.568256,-0.40102 -0.268295,-0.20131 -0.598565,-0.2885 -0.912763,-0.39278 -0.358551,-0.10959 -0.73345,-0.1318 -1.10559,-0.14613 -0.339259,-0.0414 -0.659456,0.0579 -0.987176,0.1288 -0.66501,0.39005 -1.573036,0.86715 1.620652,-0.92549 0.03131,-0.0176 -0.06089,0.0392 -0.08604,0.0648 -0.0706,0.0719 -0.07895,0.11861 -0.117557,0.21118 -0.07069,0.26685 -0.09752,0.54908 -0.06734,0.8236 0.07711,0.22624 0.302779,0.24645 0.509301,0.26942 0.214768,0.0143 0.430363,0.006 0.645456,0.005 0.267497,-0.005 0.535046,-9.93e-4 0.802565,-0.003 0.28777,7.81e-4 0.575534,-9.93e-4 0.863306,-2.54e-4 0.212011,0.005 0.459628,-0.0315 0.61626,-0.18563 -0.60959,0.35198 -1.21918,0.70395 -1.828769,1.05593 0,0 2.095191,-0.806969 2.095191,-0.806969 v 0 c -0.670715,0.388179 -1.341428,0.77637 -2.012142,1.164559 -0.225287,0.0654 -0.44369,0.113081 -0.680582,0.0872 -0.287768,8.03e-4 -0.575532,-7.81e-4 -0.8633,9.93e-4 -0.268334,-5.28e-4 -0.536594,0.005 -0.804914,0.006 -0.223648,0.002 -0.450042,0.008 -0.670218,-0.0376 -0.296347,-0.0709 -0.542099,-0.20762 -0.64977,-0.51135 -0.05243,-0.29972 -0.03039,-0.61128 0.02231,-0.91025 0.213055,-1.02502 1.42865,-1.38931 2.38888,-1.65991 0.336114,-0.0661 0.668355,-0.11977 1.012749,-0.0768 0.386465,0.0249 0.773236,0.0675 1.14107,0.19645 0.330508,0.11516 0.66714,0.21896 0.951926,0.43083 0.194061,0.12775 0.38278,0.26214 0.575824,0.38994 0.949939,0.13458 -2.046376,2.08829 -1.76737,0.90888 0.0019,-0.30908 -0.003,-0.62064 -0.06289,-0.92494 -0.09791,-0.37782 -0.308127,-0.68936 -0.510233,-1.01943 -0.25684,-0.39619 -0.520875,-0.7875 -0.843633,-1.13434 0,0 1.929639,-1.14514 1.929639,-1.14514 z"
           inkscape:connector-curvature="0" />
        <path
           inkscape:connector-curvature="0"
           d="m 38.245268,84.339786 c -0.347204,0.69362 -0.44834,1.4719 -0.529477,2.23538 -0.06919,0.7943 -0.07116,1.59225 -0.07407,2.388949 -0.0015,0.635411 0.0097,1.270761 0.0098,1.90615 0.0044,0.54266 0.0023,1.085312 0.0038,1.627961 -6.26e-4,0.565011 -0.0037,1.12997 -10e-4,1.694991 0.0028,0.47446 0.0045,0.948939 0.0054,1.423409 6.25e-4,0.427749 6.25e-4,0.8555 6.25e-4,1.283251 -7e-6,0.425989 -3.2e-5,0.851989 -4.4e-5,1.277979 -1e-5,0.42661 -1e-5,0.85322 -1.3e-5,1.279831 0.0043,0.435269 0.0129,0.867383 -0.05115,1.298573 -0.08011,0.40727 -0.09607,0.82314 -0.189219,1.22754 -0.07745,0.3347 -0.212954,0.65044 -0.320622,0.97598 -0.136213,0.3306 -0.376179,0.59765 -0.533238,0.9158 -0.02387,0.053 -0.04774,0.10596 -0.0716,0.15895 0,0 -2.270932,1.03769 -2.270932,1.03769 v 0 c 0.02712,-0.0473 0.05424,-0.0945 0.08136,-0.14181 0.119521,-0.34369 0.336079,-0.61126 0.531534,-0.91224 0.07634,-0.1562 0.102472,-0.31468 0.163652,-0.47682 0.03765,-0.0998 0.09896,-0.18954 0.133983,-0.29029 0.02011,-0.0578 0.02762,-0.11942 0.04142,-0.17913 0.109227,-0.3985 0.139019,-0.80276 0.204624,-1.21101 0.07465,-0.41926 0.08262,-0.83528 0.06875,-1.26148 0,-0.42661 -2e-6,-0.853224 -1.2e-5,-1.279824 -1.3e-5,-0.425981 -3.6e-5,-0.85196 -4.4e-5,-1.27793 1.3e-5,-0.42797 -2e-6,-0.855941 6.25e-4,-1.28392 8.34e-4,-0.476339 0.0026,-0.952679 0.0054,-1.42901 0.0026,-0.564601 -4.17e-4,-1.12914 -0.0013,-1.693741 0.0013,-0.543339 -0.0013,-1.086669 0.001,-1.630019 -0.0024,-0.63837 0.0038,-1.27678 0.0042,-1.915149 0.0039,-0.806071 0.01378,-1.612741 0.07644,-2.416731 0.07176,-0.776809 0.168398,-1.55771 0.440532,-2.29299 0,0 2.269297,-1.04034 2.269297,-1.04034 z"
           id="path1695-9"
           style="fill:#dbe3de;fill-opacity:1;stroke:none;stroke-width:0.71524543;stroke-miterlimit:4;stroke-dasharray:none;stroke-opacity:1" />
        <path
           inkscape:connector-curvature="0"
           d="m 38.969007,95.101875 c 0.467292,0.0996 0.944698,0.13296 1.420583,0.156812 0.446651,0.0181 0.893746,0.01759 1.34067,0.0177 0.449611,-0.0441 0.865355,0.0814 1.286451,0.219729 0.403229,0.13383 0.825094,0.17301 1.246128,0.19534 0.23012,0.009 0.46042,0.0106 0.69068,0.009 0,0 -2.018918,1.48357 -2.018918,1.48357 v 0 c -0.229947,-0.005 -0.46012,-0.009 -0.689425,-0.0286 -0.433937,-0.0362 -0.864677,-0.100901 -1.278162,-0.245341 -0.407785,-0.12557 -0.816701,-0.18612 -1.244454,-0.15686 -0.447987,-0.0019 -0.896231,-0.006 -1.343545,-0.0331 -0.489272,-0.0341 -0.977203,-0.0852 -1.460601,-0.17083 0,0 2.050593,-1.44784 2.050593,-1.44784 z"
           id="path1699-1"
           style="fill:#dbe3de;fill-opacity:1;stroke:none;stroke-width:0.71524543;stroke-miterlimit:4;stroke-dasharray:none;stroke-opacity:1" />
        <path
           inkscape:connector-curvature="0"
           d="m 48.42919,96.975857 c 0.414252,0.10903 0.840328,0.15682 1.266028,0.189909 0.439192,0.0356 0.867785,0.14726 1.306806,0.19738 0.414744,0.024 0.837428,0.0825 1.248791,0.009 0.942038,-0.19932 2.762769,-1.428911 -1.127305,0.81671 0.256877,-0.204931 0.294437,-0.494001 0.218236,-0.79668 -0.140478,-0.29627 -0.38406,-0.511391 -0.597098,-0.7508 -0.227362,-0.199309 -0.474955,-0.36599 -0.76583,-0.45012 -0.342167,-0.186209 -0.732271,-0.230749 -1.113006,-0.266039 -0.423829,-0.03 -0.849002,-0.0283 -1.273621,-0.0285 -0.01926,0.004 -0.329848,0.0747 -0.351206,0.0833 -0.04947,0.01979 -0.18391,0.10835 -0.137582,0.0819 3.383836,-1.933311 2.450923,-1.56195 1.795565,-0.967701 -0.206016,0.225831 -0.250548,0.51352 -0.277505,0.807821 -0.02272,0.40147 -0.01778,0.803921 -0.01669,1.20586 -0.03216,0.431641 0.04563,0.839981 0.171309,1.249079 0.06131,0.37422 0.300151,0.61905 0.536864,0.88763 0.205467,0.286942 0.353017,0.60977 0.571469,0.887224 0.260992,0.25677 0.578671,0.36389 0.928174,0.42796 0.408043,0.0557 0.820892,0.053 1.231778,0.0538 0.373065,0.009 0.746205,-0.12179 1.053336,-0.33218 0.324434,-0.19343 0.700133,-0.26676 1.058548,-0.372323 1.514953,-0.823101 -2.537058,1.613603 -1.529445,0.888263 0,0 2.303411,-0.963475 2.303411,-0.963475 v 0 c -0.654445,0.852535 -1.758945,1.230985 -2.739731,1.613435 -0.354974,0.1123 -0.715419,0.20496 -1.030328,0.41559 -0.361023,0.15616 -0.72687,0.2606 -1.124598,0.22744 -0.422508,-0.005 -0.84846,-0.009 -1.26399,-0.0957 -0.3902,-0.10214 -0.751266,-0.26298 -1.027496,-0.57183 -0.206116,-0.27866 -0.361437,-0.58903 -0.563722,-0.87034 -0.25907,-0.29218 -0.504551,-0.587019 -0.578312,-0.98706 -0.135169,-0.429829 -0.245492,-0.85819 -0.20857,-1.3148 -0.0021,-0.406089 -0.0069,-0.81229 0.0021,-1.21832 0.01396,-0.33323 0.03709,-0.659229 0.204566,-0.955859 0.658315,-0.94389 1.859803,-1.586639 3.000139,-1.65711 0.429942,0.0019 0.860876,0.005 1.288907,0.0506 0.396929,0.0522 0.788209,0.13233 1.152954,0.306529 0.311213,0.12678 0.592993,0.31791 0.833637,0.55519 0.241129,0.26454 0.49463,0.520451 0.650814,0.849922 0.121521,0.367468 0.123147,0.728698 -0.09008,1.065888 -0.974939,0.588541 -1.986249,1.46872 -3.177434,1.62478 -0.427983,0.0204 -0.857149,-0.007 -1.282564,-0.0567 -0.433596,-0.0619 -0.860949,-0.168392 -1.299343,-0.190921 -0.425187,-0.0428 -0.845223,-0.12503 -1.27039,-0.159431 0,0 2.022417,-1.488889 2.022417,-1.488889 z"
           id="path1701-2"
           style="fill:#dbe3de;fill-opacity:1;stroke:none;stroke-width:0.71524543;stroke-miterlimit:4;stroke-dasharray:none;stroke-opacity:1" />
        <path
           inkscape:connector-curvature="0"
           d="m 57.037864,88.312816 c -0.04361,0.73325 0.04805,1.46511 0.08999,2.19656 0.04253,1.018771 0.151126,2.033061 0.289373,3.042529 0.08322,0.782671 0.21374,1.553662 0.392526,2.319061 0.200891,0.6217 0.307666,1.263741 0.437232,1.9021 0.107193,0.543481 0.271801,1.07223 0.481879,1.583329 0.199424,0.445202 0.400744,0.882225 0.516584,1.358475 0.133182,0.34197 0.205343,0.69818 0.273949,1.05729 0,0 -2.206361,1.18365 -2.206361,1.18365 v 0 c -0.04381,-0.35999 -0.124921,-0.70886 -0.251336,-1.04905 -0.100369,-0.46745 -0.295905,-0.8917 -0.488128,-1.32646 -0.216946,-0.52484 -0.387528,-1.070324 -0.499532,-1.628205 -0.130559,-0.63645 -0.211806,-1.283818 -0.424404,-1.901559 -0.178269,-0.776311 -0.309671,-1.558591 -0.377984,-2.35362 -0.133427,-1.015229 -0.242534,-2.034459 -0.297523,-3.05741 -0.05301,-0.72601 -0.147711,-1.448681 -0.163647,-2.176709 0,0 2.227378,-1.149981 2.227378,-1.149981 z"
           id="path1703-7"
           style="fill:#dbe3de;fill-opacity:1;stroke:none;stroke-width:0.71524543;stroke-miterlimit:4;stroke-dasharray:none;stroke-opacity:1" />
        <path
           inkscape:connector-curvature="0"
           d="m 54.7684,92.924066 c 0.679198,0.02 1.358815,0.01521 2.038202,0.0117 0.518155,-0.003 1.036314,-0.006 1.55448,-0.007 0.42353,-8.44e-4 0.847059,-8.44e-4 1.270588,-8.44e-4 0.209592,1e-5 0.419181,2.1e-5 0.628775,2.9e-5 0,0 -2.008069,1.47833 -2.008069,1.47833 v 0 c -0.209619,10e-6 -0.419239,2.1e-5 -0.628855,3.2e-5 -0.422786,-2.2e-5 -0.845571,0 -1.268354,-8.45e-4 -0.511673,-0.0011 -1.023341,-0.004 -1.535003,-0.007 -0.68995,-0.004 -1.380098,-0.008 -2.069873,0.0117 0,0 2.018109,-1.485711 2.018109,-1.485711 z"
           id="path1705-0"
           style="fill:#dbe3de;fill-opacity:1;stroke:none;stroke-width:0.71524543;stroke-miterlimit:4;stroke-dasharray:none;stroke-opacity:1" />
        <path
           inkscape:connector-curvature="0"
           d="m 61.903711,97.189185 c 0.439453,0.01909 0.882125,0.0351 1.290533,-0.149848 -0.665542,0.378649 -1.327955,0.762989 -1.996621,1.13594 -0.04386,0.0245 0.08544,-0.0544 0.121184,-0.0899 0.16515,-0.164129 0.190678,-0.40958 0.220591,-0.62822 0.01415,-0.347538 -0.160984,-0.648128 -0.384091,-0.898379 -0.269985,-0.21003 -0.622075,-0.214359 -0.948107,-0.231559 -0.25609,0.0192 -0.543237,-0.069 -0.789687,0.0333 -0.04932,0.02051 -0.180953,0.1141 -0.134427,0.0877 0.674991,-0.38233 1.346715,-0.770542 2.020076,-1.155811 -0.268142,0.237461 -0.259733,0.62879 -0.2758,0.96266 -0.01078,0.42596 -0.0043,0.852131 -0.0015,1.27816 -0.0047,0.3259 0.02526,0.68354 0.262199,0.924781 0.340664,0.29676 0.799968,0.39225 1.209182,0.56058 0.424667,0.19053 0.890995,0.20329 1.30596,0.4126 0.344443,0.194728 0.72483,0.2633 1.111895,0.301209 0.411853,0.0293 0.825075,0.0262 1.237688,0.0258 0.168146,-0.0586 0.356777,-0.0622 0.524318,-0.12063 0.05083,-0.0177 0.190431,-0.10115 0.143687,-0.0742 -2.09897,1.208552 -2.62589,1.628332 -1.908576,1.068192 0.103468,-0.11251 0.137164,-0.24356 0.158219,-0.39021 0,0 2.226724,-1.137923 2.226724,-1.137923 v 0 c 0.0058,0.19006 -0.0092,0.362269 -0.08919,0.538741 -0.554512,1.002492 -1.938725,1.508832 -3.063348,1.594052 -0.419104,-0.001 -0.839514,-0.001 -1.256505,-0.0493 -0.403874,-0.0597 -0.792371,-0.16657 -1.154567,-0.36313 -0.419611,-0.16696 -0.878332,-0.2111 -1.288763,-0.41003 -0.448996,-0.17254 -0.935979,-0.2979 -1.287706,-0.648453 -0.255321,-0.307801 -0.357108,-0.687071 -0.341675,-1.08906 -0.0026,-0.4289 -0.0081,-0.857829 -0.0047,-1.286739 0.0086,-0.38889 0.0078,-0.79402 0.179036,-1.15137 1.864801,-1.118771 1.73334,-1.48494 3.238469,-1.375362 0.387626,0.0386 0.774447,0.0998 1.06126,0.393221 0.253691,0.312189 0.454586,0.66852 0.476135,1.08154 -0.108845,1.450541 -0.875786,1.432129 -2.53474,2.246071 -0.445249,0.100609 -0.895397,0.0919 -1.349593,0.0944 0,0 2.022419,-1.488891 2.022419,-1.488891 z"
           id="path1707-9"
           style="fill:#dbe3de;fill-opacity:1;stroke:none;stroke-width:0.71524543;stroke-miterlimit:4;stroke-dasharray:none;stroke-opacity:1" />
        <path
           inkscape:connector-curvature="0"
           d="m 66.342957,94.867217 c 0.33155,0.63876 0.616027,1.300669 0.944131,1.94114 0.36244,0.664509 0.654631,1.363579 0.942019,2.063479 0.114775,0.40697 0.379231,0.732211 0.596179,1.08261 0.0082,0.009 0.03485,0.0199 0.02454,0.0256 -2.344135,1.293454 -2.006168,1.833094 -2.68069,0.266614 -0.214897,-0.503334 -0.28572,-1.047865 -0.429598,-1.572346 -0.115544,-0.393478 -0.151943,-0.801658 -0.172833,-1.209559 -0.02376,-0.402129 -0.02875,-0.798129 0.08205,-1.18726 0.560994,-1.020439 1.84127,-1.577509 2.975766,-1.648809 0.376329,-0.0011 0.756039,-0.0317 1.127018,0.0389 0.217366,0.0688 0.420604,0.15327 0.619872,0.263689 0,0 -2.074817,1.381921 -2.074817,1.381921 v 0 c -0.184299,-0.0858 -0.370533,-0.1626 -0.573056,-0.193141 -0.365737,-0.0256 -0.734676,-0.01839 -1.099773,0.0151 -0.26783,0.0426 -0.501783,0.14573 -0.460693,0.120539 3.471154,-2.128579 2.447605,-1.508509 1.748449,-1.036919 -0.186862,0.33599 -0.149,0.719509 -0.136923,1.092881 0.01592,0.390988 0.04232,0.78316 0.145969,1.162218 0.133432,0.516382 0.188148,1.052351 0.393092,1.548441 0.685401,1.530205 1.050773,0.58613 -1.638509,2.243015 -0.0143,0.009 -0.01382,-0.0309 -0.02074,-0.0463 -0.174694,-0.38324 -0.482821,-0.70385 -0.574277,-1.12947 -0.274188,-0.697973 -0.540023,-1.401402 -0.910946,-2.054973 -0.32494,-0.63456 -0.609992,-1.29325 -0.985234,-1.899369 0,0 2.158995,-1.26796 2.158995,-1.26796 z"
           id="path1709-3"
           style="fill:#dbe3de;fill-opacity:1;stroke:none;stroke-width:0.71524543;stroke-miterlimit:4;stroke-dasharray:none;stroke-opacity:1" />
        <path
           inkscape:connector-curvature="0"
           d="m 72.404865,95.379626 c -0.0133,0.48424 -0.0095,0.96878 -0.0083,1.45316 0.0063,0.34936 0.114583,0.60363 0.377005,0.82435 0.236573,0.26992 0.505057,0.493001 0.827786,0.6469 0.394023,0.12111 0.78722,0.244401 1.193943,0.31598 0.415163,0.0614 0.835502,0.0657 1.254187,0.0699 0.425057,0.004 0.839305,0.041 1.241635,-0.11447 0.208062,-0.0661 0.402798,-0.140019 0.597087,-0.238251 0.05787,-0.0293 0.23176,-0.116039 0.175794,-0.0832 -2.174105,1.275741 -2.591133,1.585831 -1.855545,1.050941 0.236682,-0.205031 0.394706,-0.47412 0.537564,-0.750232 0.146261,-0.341808 0.15942,-0.71801 0.174525,-1.08468 -0.01713,-0.376359 0.07849,-0.781749 -0.06048,-1.140519 -0.128037,-0.27001 -0.212352,-0.29685 -0.422481,-0.45213 -0.1706,-0.15878 -0.410152,-0.13364 -0.608089,-0.22867 -0.284025,-0.126319 -0.597598,-0.142319 -0.902882,-0.161101 -0.351714,-0.01601 -0.7039,-0.0151 -1.055883,-0.01569 -0.332694,0.0019 -0.6654,0.003 -0.9981,0.004 -0.278228,-0.0121 -0.586932,0.0177 -0.80689,0.20533 0.07301,-0.01151 -0.317331,0.15422 -0.241279,0.10919 0.671129,-0.3974 2.678955,-1.597329 2.026383,-1.16937 -0.730315,0.47894 -1.512586,0.87142 -2.259955,1.322549 -0.666267,0.402172 1.341423,-0.789088 2.016621,-1.175669 0.03539,-0.0203 -0.06406,0.0507 -0.09609,0.0761 -0.149006,0.11122 -0.224122,0.27589 -0.322037,0.42917 -0.114004,0.172119 -0.252851,0.332101 -0.383793,0.494259 0,0 -2.288855,1.02391 -2.288855,1.02391 v 0 c 0.08225,-0.175768 0.227667,-0.376659 0.379929,-0.488099 0.03045,-0.0557 0.0506,-0.118349 0.09029,-0.16773 0.01599,-0.01989 0.04681,-0.0247 0.06089,-0.046 0.05969,-0.0904 0.03908,-0.22657 0.149319,-0.28813 0.751802,-0.78477 -1.01369,1.041459 2.334892,-1.44799 0.624455,-0.464251 -2.695698,1.54609 -2.010885,1.179509 0.844535,-0.452089 1.645339,-0.991391 2.494025,-1.438869 0.288061,-0.0853 0.572568,-0.127061 0.874671,-0.103632 0.330789,-1.69e-4 0.66159,-8.44e-4 0.992374,0.0011 0.355814,4.23e-4 0.712306,-0.0011 1.067067,0.0308 0.326752,0.0304 0.651417,0.0765 0.955165,0.210169 0.230489,0.0567 0.457525,0.118821 0.641806,0.280032 0.230481,0.14731 0.370329,0.337519 0.489514,0.58577 0.158391,0.395278 0.09805,0.8178 0.101154,1.236678 -0.0092,0.391452 -0.01655,0.788711 -0.12489,1.167621 -0.111081,0.303421 -0.280571,0.606159 -0.500693,0.839369 -0.741831,0.95492 -2.056521,1.386952 -3.185248,1.766859 -0.424567,0.0872 -0.855461,0.0588 -1.286785,0.0561 -0.427885,-0.009 -0.857681,-0.0235 -1.279073,-0.10648 -0.41954,-0.0915 -0.839008,-0.206837 -1.235555,-0.373488 -0.327524,-0.184549 -0.616641,-0.417569 -0.871684,-0.69654 -0.290186,-0.285419 -0.450122,-0.598049 -0.462458,-1.016638 0.0012,-0.481512 0.0051,-0.963191 -0.0083,-1.444571 0,0 2.222635,-1.14752 2.222635,-1.14752 z"
           id="path1724-6"
           style="fill:#dbe3de;fill-opacity:1;stroke:none;stroke-width:0.71524543;stroke-miterlimit:4;stroke-dasharray:none;stroke-opacity:1" />
        <path
           inkscape:connector-curvature="0"
           d="m 83.443838,96.674346 c 0.04374,-0.427971 -0.01303,-0.83403 -0.159947,-1.2341 -0.15149,-0.31074 -0.388326,-0.547059 -0.660912,-0.75031 -0.383907,-0.271991 -0.837401,-0.3475 -1.275274,-0.48059 -0.422121,-0.109169 -0.866257,-0.24351 -1.3041,-0.178531 -0.319632,0.0582 -0.652069,0.15833 -0.925698,0.33995 -0.799335,0.40894 -0.622483,0.321552 1.870008,-1.09336 0.04057,-0.023 -0.07712,0.0535 -0.110288,0.0866 -0.11576,0.11527 -0.156177,0.256139 -0.200392,0.408838 -0.0637,0.379661 -0.0954,0.773551 -0.05307,1.157231 0.02531,0.377291 0.278681,0.522451 0.550931,0.718831 0.27365,0.19898 0.53217,0.355019 0.864703,0.42501 0.385771,0.0589 0.777302,0.0564 1.166458,0.0583 0.403897,-0.0662 0.796262,-0.13833 1.182979,-0.27054 0.81861,-0.22592 1.999176,-1.038159 -1.629851,1.01033 -0.04918,0.0278 0.09592,-0.0602 0.140041,-0.0956 0.09001,-0.0723 0.169457,-0.157101 0.255248,-0.23446 0.744641,-0.624801 2.25364,-2.43095 2.682975,-1.204909 0.05678,0.586739 0.02946,1.18055 0.02548,1.769718 -0.03795,0.947531 0.116202,1.88731 0.336179,2.804611 0.23968,0.892635 0.461326,1.788805 0.655401,2.692855 0.113848,0.70396 0.276445,1.3997 0.383068,2.10484 0.08758,0.5323 0.109591,1.05925 0.0013,1.58822 -0.136217,0.51402 -0.484994,0.88252 -0.869965,1.22124 -1.155172,0.93954 -2.122337,1.54301 -3.478456,1.59918 -0.686874,0.0628 -1.299561,-0.17246 -1.902713,-0.47515 -0.746337,-0.41667 -1.269109,-1.07864 -1.696291,-1.80813 -0.31687,-0.55746 -0.416824,-1.17974 -0.458427,-1.81134 -0.02302,-0.56908 -0.01692,-1.13901 -0.0159,-1.70847 0.02194,-0.57244 0.209803,-1.10625 0.484634,-1.60033 0.305028,-0.45763 0.655,-0.88256 0.979382,-1.32616 0.26136,-0.35606 0.464998,-0.753365 0.7572,-1.085385 0.287051,-0.233679 0.560537,-0.480819 0.823434,-0.74172 0.243366,-0.236099 0.491294,-0.467649 0.728015,-0.710621 0.198419,-0.184099 0.340299,-0.414728 0.52541,-0.612239 0,0 2.305889,-0.95134 2.305889,-0.95134 v 0 c -0.224678,0.16696 -0.367588,0.379321 -0.523088,0.60821 -0.263485,0.215381 -0.484272,0.48269 -0.733442,0.714869 -0.284898,0.234091 -0.508309,0.539032 -0.821863,0.739632 -0.360758,0.260508 -0.532705,0.690468 -0.79411,1.04188 -0.307163,0.453509 -0.661246,0.872504 -0.989164,1.310394 -0.289198,0.44754 -0.496319,0.93741 -0.538299,1.47694 -0.0071,0.56539 -0.0174,1.13103 0.0021,1.6963 0.03309,0.595 0.09978,1.18556 0.386821,1.71867 0.395037,0.69848 0.893648,1.31726 1.620879,1.68087 0.590793,0.27291 1.190362,0.43951 1.846595,0.35843 1.183732,-0.12126 2.047468,-0.90381 -1.013075,0.93066 -0.06763,0.0405 0.138562,-0.0751 0.207844,-0.11269 0.386526,-0.28126 0.749686,-0.614 0.932432,-1.06973 0.147758,-0.49576 0.129639,-0.99736 0.05551,-1.50698 -0.09834,-0.70444 -0.246623,-1.4006 -0.350486,-2.10418 -0.188417,-0.90383 -0.4055,-1.79973 -0.642286,-2.69166 -0.228196,-0.9302 -0.396444,-1.884754 -0.384024,-2.846595 -0.0028,-0.559519 0.0031,-1.120891 -0.04549,-1.678699 -0.07665,-0.82471 1.429522,-0.804191 2.139041,-1.215661 0.140408,-0.0814 -0.456014,0.270219 -0.309607,0.267689 -0.141769,0.0968 -0.145002,0.0875 -0.264114,0.216752 -0.04301,0.0467 -0.06776,0.11372 -0.121836,0.14651 -1.102053,0.668299 -1.653568,1.147589 -2.659329,1.435899 -0.397387,0.11628 -0.813662,0.176319 -1.225596,0.20446 -0.40376,-0.006 -0.81217,-0.009 -1.20707,-0.10462 -0.341152,-0.106088 -0.625835,-0.292 -0.914723,-0.500838 -0.323033,-0.229952 -0.602768,-0.475571 -0.651225,-0.899242 -0.06186,-0.40815 -0.02434,-0.826429 0.01132,-1.236199 0.212769,-1.29178 1.334284,-1.45897 2.628758,-2.07704 0.319342,-0.124951 0.635178,-0.251271 0.984375,-0.25046 0.456868,0.01949 0.903988,0.117699 1.340771,0.253039 0.467716,0.129942 0.937183,0.256471 1.334617,0.553562 0.302319,0.24344 0.571914,0.508368 0.73424,0.87057 0.154751,0.423558 0.231417,0.852669 0.213593,1.306849 0,0 -2.227377,1.14998 -2.227377,1.14998 z"
           id="path1728-0"
           style="fill:#dbe3de;fill-opacity:1;stroke:none;stroke-width:0.71524543;stroke-miterlimit:4;stroke-dasharray:none;stroke-opacity:1" />
        <path
           inkscape:connector-curvature="0"
           d="m 88.431668,95.482505 c 0.219685,-0.0213 0.474057,0.0625 0.682203,-0.0385 0.08726,-0.0423 0.156851,-0.115029 0.238585,-0.167489 -4.120586,2.218561 -2.025275,1.40062 -1.464105,0.699541 0.151846,-0.292441 0.269666,-0.5983 0.337131,-0.92152 0.01482,-0.176212 0.136873,-0.525881 -0.09062,-0.605601 -0.220099,-0.047 -0.48789,-0.0927 -0.697493,6.33e-4 -0.251981,0.10036 -0.522311,0.193561 -0.745588,0.35278 -0.788626,0.40932 -0.70459,0.368421 1.876602,-1.098589 0.04033,-0.0229 -0.07606,0.0541 -0.108783,0.0872 -0.104349,0.10553 -0.169354,0.252029 -0.244068,0.378679 -0.158716,0.287541 -0.194309,0.615271 -0.220497,0.93765 -0.0143,0.37975 -0.03552,0.76178 -6e-5,1.140631 0.09944,0.32545 0.226479,0.646399 0.430502,0.919339 0.226754,0.229771 0.510702,0.379911 0.766275,0.57045 0.296055,0.20048 0.547824,0.447411 0.885053,0.57677 0.505406,0.14747 1.037777,0.15261 1.559798,0.164621 0.490806,0.0242 0.970073,0.0129 1.437432,-0.149771 0.204646,-0.0943 0.433714,-0.11267 0.645301,-0.18049 0.156555,-0.0502 0.176047,-0.0755 0.298919,-0.16123 -0.688919,0.405771 -1.377837,0.811541 -2.066755,1.217311 0,0 2.295658,-1.01742 2.295658,-1.01742 v 0 c -1.745123,1.10925 -1.721777,1.30325 -3.137691,1.67226 -0.486578,0.10715 -0.976525,0.110039 -1.472794,0.082 -0.546726,-0.0222 -1.107388,-0.0352 -1.625431,-0.23318 -0.336322,-0.16271 -0.615134,-0.4021 -0.919455,-0.61683 -0.284365,-0.19543 -0.58241,-0.37273 -0.811405,-0.63864 -0.219363,-0.31499 -0.365718,-0.669379 -0.483444,-1.035059 -0.05872,-0.389821 -0.03092,-0.785451 -0.02906,-1.178951 0.01601,-0.349919 0.04971,-0.70495 0.17263,-1.035099 0.5678,-1.181072 1.053876,-1.217492 2.692886,-1.989592 0.261298,-0.113599 0.511884,-0.254358 0.798645,-0.292358 0.278435,8.45e-4 0.572762,0.003 0.81356,0.16312 0.259405,0.233839 0.281475,0.528759 0.216164,0.864359 -0.05062,0.353851 -0.160501,0.674149 -0.293671,1.00173 -0.05445,0.124871 -0.06941,0.18607 -0.159362,0.28914 -0.672345,0.770341 -2.622775,0.0658 -2.599569,1.622421 -0.316737,0.148389 -0.659026,0.0995 -0.999904,0.108669 0,0 2.022419,-1.48889 2.022419,-1.48889 z"
           id="path1730-6"
           style="fill:#dbe3de;fill-opacity:1;stroke:none;stroke-width:0.71524543;stroke-miterlimit:4;stroke-dasharray:none;stroke-opacity:1" />
        <path
           inkscape:connector-curvature="0"
           d="m 87.770562,90.273625 c 0.431618,-0.16161 0.849363,-0.365099 1.279073,-0.537008 -0.143987,0.0644 0.490789,-0.279541 0.368849,-0.2083 -6.580156,3.844179 5.150516,-3.024791 -1.541922,0.867909 0.843114,-0.601 1.761757,-1.032381 2.645324,-1.60193 0.650843,-0.419539 -1.335356,0.782901 -2.005894,1.16929 -0.03716,0.0214 0.07022,-0.0494 0.105327,-0.0741 1.103037,-0.870699 2.400057,-2.15008 2.512716,-0.632458 0.05596,0.33779 0.169613,0.66921 0.30885,0.980778 0.124773,0.28817 0.310997,0.55037 0.532449,0.77037 0.132532,0.18052 0.276699,0.331311 0.46334,0.452412 0,0 -2.099609,1.354669 -2.099609,1.354669 v 0 c -0.18578,-0.14282 -0.348327,-0.303359 -0.492483,-0.48989 -0.230581,-0.25159 -0.43785,-0.530681 -0.570297,-0.84875 -0.151113,-0.33845 -0.276223,-0.69454 -0.35522,-1.0574 -0.0061,-0.098 -0.03818,-0.228391 -0.03117,-0.326861 0.0019,-0.0267 -0.0266,0.0932 -0.0036,0.0801 0.691405,-0.39614 1.370754,-0.813489 2.056133,-1.220239 -0.58895,0.494609 -5.161209,3.060109 -0.365953,0.247989 0.263936,-0.15478 -0.603482,0.453729 -0.379014,0.276039 -7.546911,4.473602 1.386782,-0.816608 -0.43598,0.273111 -0.758625,0.453539 -1.518268,0.905351 -2.279801,1.35386 -0.125096,0.0737 -0.245892,0.12523 -0.377553,0.185989 -0.431657,0.184791 -0.860634,0.375902 -1.296966,0.548941 0,0 1.963444,-1.564481 1.963444,-1.564481 z"
           id="path1732-2"
           style="fill:#dbe3de;fill-opacity:1;stroke:none;stroke-width:0.71524543;stroke-miterlimit:4;stroke-dasharray:none;stroke-opacity:1" />
        <path
           inkscape:connector-curvature="0"
           d="m 94.49943,93.028696 c -0.171378,0.617069 -0.08518,1.235431 0.04026,1.850601 0.153906,0.631229 0.305353,1.270099 0.508747,1.887449 0.08372,0.176721 0.252042,0.71069 0.402616,0.81655 -0.339193,-0.916661 0.0144,-0.0993 -2.161165,1.120869 -0.02763,0.0155 0.02245,-0.0602 0.0281,-0.0917 0.03852,-0.21468 0.03108,-0.441949 0.03572,-0.65884 0.0048,-0.50495 -4.16e-4,-1.00994 -0.0032,-1.514889 0.0032,-0.495702 1.68e-4,-0.99142 -0.0015,-1.48713 0.01384,-0.463882 0.109155,-0.894222 0.429185,-1.236231 0.499772,0.107629 1.708048,-1.400789 2.688031,-1.410481 0.21584,-0.0019 0.448,0.0571 0.661076,0.0871 0.561592,0.104478 1.065326,0.345629 1.548552,0.645149 0.531775,0.341771 0.817746,0.847671 1.076929,1.407739 0.242071,0.65163 0.396209,1.336722 0.523959,2.020162 0.10128,0.444939 0.0731,0.907678 0.14584,1.35518 0.0535,0.24008 0.15971,0.45714 0.1294,0.706778 0,0 -2.256293,1.104061 -2.256293,1.104061 v 0 c 0.01578,-0.0457 0.0523,-0.0862 0.05364,-0.1346 0.0045,-0.16376 -0.126486,-0.325089 -0.126907,-0.48932 -0.08681,-0.4496 -0.02142,-0.92036 -0.118576,-1.371399 -0.107257,-0.666021 -0.255894,-1.330152 -0.492617,-1.961831 -0.240691,-0.51357 -0.506185,-0.975559 -1.001859,-1.2802 -0.468876,-0.27155 -0.962891,-0.48144 -1.503262,-0.551549 -0.101062,-0.0109 -0.326072,-0.0391 -0.435017,-0.0371 -0.844988,0.0158 -2.504029,1.444378 1.41554,-1.027072 -0.394672,0.227451 -0.492825,0.592121 -0.530041,1.0338 -0.0013,0.495531 -0.0038,0.99108 0.0013,1.486592 -4.16e-4,0.50669 -0.0013,1.013379 -6.25e-4,1.52008 8.34e-4,0.223609 0.0034,0.447178 0.0048,0.670789 2.06e-4,0.0437 0.03596,0.10609 6.25e-4,0.13111 -2.120818,1.5006 -1.56286,2.00345 -2.265272,1.273949 -0.18127,-0.278928 -0.297516,-0.612528 -0.417574,-0.920369 -0.193646,-0.63094 -0.327816,-1.28314 -0.498267,-1.9208 -0.142472,-0.63287 -0.245798,-1.272351 -0.131105,-1.91947 0,0 2.248872,-1.104969 2.248872,-1.104969 z"
           id="path1734-6"
           style="fill:#dbe3de;fill-opacity:1;stroke:none;stroke-width:0.71524543;stroke-miterlimit:4;stroke-dasharray:none;stroke-opacity:1" />
        <path
           inkscape:connector-curvature="0"
           d="m 102.95888,94.415825 c 0.625,0.0192 1.25042,0.0151 1.87562,0.01231 0.2286,-0.0509 0.48126,-0.0423 0.70418,-0.12255 0.0498,-0.01799 0.18468,-0.104622 0.13863,-0.0782 -2.06752,1.18421 -2.64259,1.64955 -1.94861,1.09631 0.18083,-0.1984 0.14634,-0.421339 0.0262,-0.634019 -0.18828,-0.25465 -0.44163,-0.42324 -0.69886,-0.59727 -0.36802,-0.199001 -0.75383,-0.359281 -1.16068,-0.454621 -0.37654,-0.0484 -0.79994,-0.17664 -1.1412,0.0386 -0.865627,0.51266 0.78872,-0.467759 1.88034,-1.08452 0.0438,-0.0247 -0.0795,0.0618 -0.119,0.093 -0.13798,0.108791 -0.25449,0.213901 -0.3673,0.349361 -0.21522,0.323809 -0.24277,0.714169 -0.26648,1.09237 -0.0172,0.424819 -0.0124,0.85016 -0.0107,1.275221 0.0223,0.349529 0.093,0.600809 0.29823,0.876519 0.22052,0.29915 0.52971,0.482741 0.8742,0.596919 0.39667,0.102612 0.80853,0.105501 1.21529,0.110981 0.39985,0.0215 0.77913,0.009 1.14716,-0.160161 -0.66257,0.37826 -1.32257,0.761211 -1.98772,1.1348 -0.0547,0.0307 0.14057,-0.0632 0.29638,-0.237028 0.12937,-0.144301 0.20042,-0.319131 0.27913,-0.493812 0.13507,-0.281949 0.26382,-0.578279 0.46623,-0.818 0,0 2.32273,-0.93574 2.32273,-0.93574 v 0 c -0.27961,0.11821 -0.3931,0.454961 -0.52412,0.713091 -0.0944,0.18247 -0.14647,0.381359 -0.25398,0.55684 -0.54007,0.881459 -2.13437,0.857239 -2.56047,1.62893 -0.3937,0.1033 -0.79151,0.102189 -1.19649,0.0846 -0.42635,-0.0139 -0.85829,-0.0335 -1.26442,-0.179399 -0.37316,-0.158691 -0.71108,-0.38203 -0.95942,-0.71235 -0.226841,-0.31021 -0.330778,-0.63657 -0.363542,-1.02355 -0.0019,-0.429071 -0.0063,-0.858241 0.0037,-1.28724 0.01597,-0.411861 0.0349,-0.83267 0.202719,-1.21516 0.113576,-0.20441 0.247723,-0.389299 0.450933,-0.513019 2.19128,-1.334061 1.44742,-1.026691 2.39976,-1.408622 0.40687,-0.0703 0.82238,0.0019 1.22162,0.0923 0.42139,0.1235 0.83103,0.29413 1.209,0.520939 0.29155,0.19204 0.56515,0.400171 0.76934,0.69065 0.17081,0.295741 0.23077,0.574512 0.11411,0.90861 -0.63362,1.091151 -2.01712,1.511622 -3.18575,1.55957 -0.63637,-0.003 -1.27293,-0.006 -1.90912,0.01229 0,0 2.02242,-1.488879 2.02242,-1.488879 z"
           id="path1736-1"
           style="fill:#dbe3de;fill-opacity:1;stroke:none;stroke-width:0.71524543;stroke-miterlimit:4;stroke-dasharray:none;stroke-opacity:1" />
        <path
           inkscape:connector-curvature="0"
           d="m 45.611489,83.326286 c -0.02434,0.65456 -0.02238,1.30978 -0.02502,1.96471 -0.0035,0.85261 -6.25e-4,1.70522 -0.0053,2.55782 -0.001,0.7979 0.0075,1.59577 0.0096,2.39366 0.0062,0.58346 0.0053,1.16693 0.0075,1.75042 0.0024,0.46996 0.0039,0.93993 0.0047,1.40991 -0.0081,0.53835 -0.006,1.07675 -0.0037,1.61514 0.0023,0.45803 0.0033,0.91606 0.0039,1.37408 4.17e-4,0.4269 4.17e-4,0.8538 4.17e-4,1.28069 -1.3e-5,0.4262 -2.9e-5,0.85239 -3.8e-5,1.27858 -6e-6,0.42664 -6e-6,0.853282 -8e-6,1.279924 0,0.42666 0,0.85334 0,1.28001 0,0.42667 0,0.85335 0,1.28001 0,0.42667 0,0.85334 0,1.28001 0,0.42667 0,0.85333 0,1.28 0,0.42667 0,0.85334 0,1.28001 -0.0064,0.43128 0.01676,0.86335 -0.0187,1.29346 -0.06009,0.37498 -0.249927,0.69164 -0.4867,0.97788 -0.63809,0.76133 -1.696958,1.08312 -2.506783,1.55254 -0.147561,0.0855 -0.275981,0.14647 -0.439225,0.19734 -0.297316,0.17399 -0.624207,0.30612 -0.954547,0.40293 -0.415188,0.0175 -0.745999,0.23703 -1.118344,0.387 -0.346137,0.11377 -0.717684,0.19499 -1.043592,-0.005 -0.03131,-0.0489 -0.06262,-0.0978 -0.09394,-0.14669 0,0 2.163654,-1.27923 2.163654,-1.27923 v 0 c 0.0051,0.009 0.01023,0.0175 0.01536,0.0263 0.310948,0.075 0.622714,-0.0391 0.909586,-0.15691 0.365977,-0.16886 0.73741,-0.28204 1.130021,-0.37024 0.324049,-0.12428 0.637369,-0.27238 0.953312,-0.41522 0.288764,-0.13396 0.0067,2.1e-4 0.285757,-0.14263 0.04704,-0.0241 0.187741,-0.0969 0.142411,-0.0696 -3.62122,2.17686 -2.405668,1.51092 -1.736327,1.01088 0.209349,-0.27254 0.456929,-0.50873 0.554938,-0.8543 0.06621,-0.41788 0.01661,-0.84462 0.03167,-1.26657 0,-0.42666 0,-0.85333 0,-1.28 0,-0.42667 0,-0.85334 0,-1.28001 0,-0.42666 0,-0.85333 0,-1.28 0,-0.42667 0,-0.85334 0,-1.28001 0,-0.42667 2e-6,-0.85335 0,-1.28002 0,-0.42663 0,-0.85326 -8e-6,-1.2799 -9e-6,-0.426182 -2.3e-5,-0.852361 -3.6e-5,-1.278541 -2e-6,-0.42703 -2.9e-5,-0.85406 4.17e-4,-1.28108 6.25e-4,-0.45938 0.0017,-0.91875 0.0039,-1.37812 0.0023,-0.53712 0.0044,-1.07425 -0.0037,-1.61134 8.34e-4,-0.4716 0.0024,-0.94319 0.0047,-1.41479 0.0022,-0.58606 0.0013,-1.17211 0.0075,-1.75815 0.0021,-0.80118 0.01067,-1.60234 0.0096,-2.40353 -0.0046,-0.85078 -0.0017,-1.70158 -0.0053,-2.55237 -0.0026,-0.64631 -4.17e-4,-1.29294 -0.02502,-1.93887 0,0 2.227378,-1.14998 2.227378,-1.14998 z"
           id="path1697-8"
           style="fill:#dbe3de;fill-opacity:1;stroke:none;stroke-width:0.71524543;stroke-miterlimit:4;stroke-dasharray:none;stroke-opacity:1" />
        <path
           inkscape:connector-curvature="0"
           d="m 81.466563,72.119132 c -0.09841,0.24642 -0.176636,0.50104 -0.252902,0.755302 -0.08436,0.287475 -0.130982,0.582592 -0.179295,0.877634 -0.04983,0.30103 -0.116437,0.598983 -0.182495,0.896703 -0.06226,0.283148 -0.106227,0.57013 -0.152749,0.856315 -0.03548,0.225125 -0.07377,0.449727 -0.110596,0.674652 -0.03788,0.201259 -0.09195,0.399563 -0.148879,0.596136 -0.05704,0.18393 -0.07542,0.375878 -0.08498,0.56742 -0.01895,0.18989 -0.0475,0.37845 -0.06333,0.568698 -0.0047,0.159451 -0.0159,0.316674 -0.0426,0.473902 -0.02707,0.146163 -0.03663,0.294521 -0.04216,0.442851 0.01119,0.163924 -0.02375,0.315811 -0.07341,0.469995 -0.04944,0.140385 -0.06094,0.288551 -0.07712,0.435352 -0.02999,0.127963 -0.05359,0.256295 -0.06551,0.387291 -0.01225,0.134852 -0.0058,0.270297 -0.01161,0.405349 -0.02617,0.116458 -0.04997,0.232239 -0.06166,0.351268 -0.0059,0.139632 -0.01,0.277208 -0.03788,0.414349 -0.03124,0.132529 -0.03602,0.268772 -0.04785,0.403852 -0.0129,0.123794 -0.06175,0.236241 -0.1013,0.352286 -0.03374,0.135872 -0.07306,0.26986 -0.09677,0.408034 -0.0085,0.138417 -0.03526,0.272663 -0.06366,0.407861 -0.01321,0.129038 -0.04329,0.253637 -0.07272,0.379475 -0.02993,0.134911 -0.03012,0.273577 -0.04007,0.410773 -0.01805,0.109558 -0.0809,0.20166 -0.112017,0.307653 -0.0182,0.09483 -0.04596,0.185611 -0.07274,0.278362 -0.03522,0.06704 -0.06261,0.137237 -0.09494,0.205663 0,0 -1.281666,0.57268 -1.281666,0.57268 v 0 c 0.0037,-0.0046 0.04775,-0.05884 0.04968,-0.06314 0.01922,-0.0427 0.01507,-0.09398 0.05553,-0.126923 0.0515,-0.07342 0.0678,-0.171376 0.07929,-0.258733 0.02933,-0.103959 0.05136,-0.213081 0.126209,-0.295015 0.03577,-0.134453 0.0086,-0.278721 0.03706,-0.41559 0.02137,-0.127982 0.07091,-0.247079 0.07404,-0.377828 0.02173,-0.136089 0.07027,-0.26504 0.06871,-0.404378 0.01738,-0.143794 0.05316,-0.281735 0.08524,-0.421953 0.02592,-0.119452 0.08513,-0.220995 0.108257,-0.340626 0.03734,-0.131355 0.01251,-0.2737 0.04582,-0.407173 0.02691,-0.133285 0.05824,-0.260656 0.04696,-0.398834 0.0063,-0.121503 0.01255,-0.245043 0.05176,-0.361122 0.04328,-0.12375 0.0035,-0.266547 0.0224,-0.395424 0.0071,-0.135458 0.01726,-0.271681 0.05733,-0.40199 0.0423,-0.146022 0.02045,-0.306428 0.0736,-0.451694 0.04407,-0.145124 0.109362,-0.277591 0.08913,-0.4345 0.0036,-0.154024 0.0093,-0.308417 0.03395,-0.460737 0.02633,-0.15452 0.05466,-0.305959 0.05064,-0.463934 0.0148,-0.189724 0.04148,-0.377789 0.06876,-0.566028 0.0086,-0.200982 0.01959,-0.402438 0.06989,-0.598121 0.05862,-0.193544 0.11412,-0.388131 0.159898,-0.585055 0.04642,-0.222914 0.07102,-0.451127 0.114519,-0.674688 0.05301,-0.28987 0.10562,-0.579789 0.162099,-0.868918 0.06784,-0.293763 0.124737,-0.59047 0.178675,-0.887077 0.05536,-0.298576 0.09517,-0.599971 0.176674,-0.893206 0.06987,-0.25133 0.158658,-0.497727 0.215681,-0.752438 0,0 1.269096,-0.594731 1.269096,-0.594731 z"
           id="path1888"
           style="fill:#dbe3de;fill-opacity:1;stroke:none;stroke-width:0.71524543;stroke-miterlimit:4;stroke-dasharray:none;stroke-opacity:1" />
        <path
           inkscape:connector-curvature="0"
           d="m 105.50673,92.776548 c 0.21764,-0.144909 0.38701,-0.340502 0.55972,-0.527033 0.17153,-0.187223 0.39935,-0.311751 0.62294,-0.439458 0.69561,-0.406028 0.16248,-0.0975 1.92273,-1.004592 0.17501,-0.09019 0.34998,-0.131836 0.54579,-0.166736 0.30434,-0.04626 0.61401,-0.04561 0.92166,-0.04879 0.30601,0.01109 0.61537,-0.02224 0.91841,0.02223 0.25749,0.07116 0.44205,0.249754 0.60603,0.435116 0.18846,0.175931 0.26278,0.403102 0.35536,0.625584 0.093,0.1963 0.12783,0.406028 0.14799,0.617238 0.016,0.225576 0.0148,0.451775 0.0149,0.67771 3.4e-4,0.20003 -5.3e-4,0.400115 0.003,0.600126 0.007,0.106002 -0.0101,0.218263 0.0104,0.321296 -2.77155,1.281748 -1.44998,1.187678 -1.86064,0.415621 -0.0477,-0.162861 -0.1394,-0.28552 -0.25281,-0.414499 -0.10815,-0.08118 -0.26313,-0.0774 -0.39695,-0.08172 -0.17361,-0.003 -0.34725,-4.79e-4 -0.52086,4.78e-4 -0.21345,1.6e-4 -0.42689,-4.78e-4 -0.64035,-6.37e-4 -0.21131,0.01105 -0.42643,-0.02113 -0.63328,0.02354 -0.14816,0.02563 -0.29906,0.04902 -0.43291,0.116639 -0.0574,0.02901 -0.10665,0.07015 -0.16335,0.100321 3.59927,-1.818685 1.62221,-1.148484 1.40445,-0.604411 -0.1085,0.184445 -0.1824,0.38045 -0.25865,0.577176 -0.0862,0.20658 -0.0973,0.42853 -0.15293,0.641626 -0.0629,0.193799 -0.0861,0.394067 -0.0996,0.594896 -0.0112,0.223846 -0.0105,0.448002 -0.0106,0.672028 -0.0156,0.202593 0.007,0.384123 0.12477,0.558437 0.084,0.157711 0.22754,0.216774 0.40817,0.244399 0.19871,0.0076 0.40685,0.03891 0.59989,-0.01175 0.13184,-0.05153 0.28116,-0.03996 0.417,-0.07067 0.0644,-0.01456 0.12353,-0.04421 0.18636,-0.06362 0.0333,-0.0076 0.0681,-0.01083 0.0999,-0.0227 0.029,-0.01083 0.0534,-0.02974 0.0802,-0.04462 0.0287,-0.01196 0.0568,-0.02561 0.0863,-0.03591 0.0981,-0.03418 0.20022,-0.04728 0.30343,-0.06064 0.0295,-0.01211 0.11672,-0.05091 0.0886,-0.03632 -0.53939,0.27974 -1.08147,0.555138 -1.62269,0.831939 -0.0261,0.01335 0.0514,-0.02792 0.0773,-0.04157 0.58995,-0.310704 1.18423,-0.614646 1.77023,-0.931477 0.52958,-0.286327 -2.14666,1.09994 -1.60096,0.839958 0.6074,-0.289372 1.19078,-0.618798 1.78618,-0.928196 -2.94809,1.526721 -1.68512,1.044108 -1.20634,0.505886 0.11885,-0.158621 0.23756,-0.315225 0.31554,-0.494442 0.0607,-0.197471 0.0806,-0.401374 0.13304,-0.600929 0.0485,-0.214868 0.11459,-0.42642 0.18984,-0.634712 0.0844,-0.207115 0.0978,-0.428769 0.15479,-0.641716 0.18478,-0.669339 1.52533,-1.656418 1.94646,-0.955845 0.0546,0.253148 0.0354,0.516995 0.0371,0.774365 0.002,0.26324 0.003,0.526483 0.003,0.789728 0.0156,0.193611 -0.0359,0.380735 -0.0784,0.568356 -0.0364,0.187056 -0.0424,0.377695 -0.043,0.567238 -5.3e-4,0.191921 -0.004,0.383857 -8.5e-4,0.575766 0.0108,0.113237 -0.0121,0.221945 -0.0406,0.331194 0,0 -1.78869,0.773322 -1.78869,0.773322 v 0 c 0.0356,-0.09413 0.0823,-0.187117 0.0719,-0.288494 0.003,-0.192839 -0.003,-0.385684 3.5e-4,-0.578529 0.005,-0.197031 0.003,-0.394687 0.0255,-0.590921 0.0287,-0.183718 0.11199,-0.35886 0.10397,-0.545965 0.002,-0.264215 0.004,-0.528423 0.006,-0.79264 -5.2e-4,-0.228554 -0.003,-0.45731 -0.0246,-0.685121 0.0104,0.01342 0.005,0.05341 0.0208,0.04553 0.56938,-0.283285 1.12775,-0.584558 1.69161,-0.876838 -0.0749,0.01993 -0.11664,0.04774 -0.15146,0.115853 -0.069,0.215454 -0.0914,0.435374 -0.15521,0.652569 -0.0721,0.203632 -0.14925,0.407273 -0.19204,0.617755 -0.0492,0.205773 -0.10691,0.405605 -0.12772,0.616486 -0.057,0.1961 -0.1499,0.377673 -0.29242,0.534957 -0.3852,0.68797 -1.6517,1.035369 -2.13621,1.339429 4.18381,-2.203016 -0.10522,0.05604 -0.18493,0.09522 -0.54568,0.268183 1.07108,-0.569298 1.6086,-0.850805 0.0264,-0.01383 -0.0485,0.03388 -0.0749,0.04763 -1.78228,0.926831 -1.11491,0.786061 -1.87995,0.936573 -0.19148,0.04893 -0.36584,0.135947 -0.55984,0.177998 -0.20283,0.05143 -0.41496,0.07226 -0.62103,0.111196 -0.21748,0.0036 -0.43925,0.0054 -0.65099,-0.04573 -0.2085,-0.06953 -0.3815,-0.177136 -0.48417,-0.362899 -0.13037,-0.202603 -0.19589,-0.40863 -0.17093,-0.645584 -3.5e-4,-0.226397 -0.002,-0.452842 0.005,-0.679186 0.008,-0.210433 0.0195,-0.422438 0.0788,-0.627068 0.068,-0.216344 0.0885,-0.437053 0.15166,-0.655032 0.0697,-0.196216 0.12518,-0.402391 0.24289,-0.579823 0.0311,-0.06701 0.0408,-0.133969 0.073,-0.200558 0.29705,-0.615453 1.96349,-0.503401 1.85285,-1.08284 0.19763,-0.0978 0.41692,-0.135491 0.63873,-0.160146 0.21569,-0.008 0.43164,-0.0051 0.64748,-0.0042 0.21556,-8.31e-4 0.43111,-0.0022 0.64665,-0.0044 0.17733,-6.38e-4 0.35542,-0.0037 0.532,0.01321 0.18514,0.02332 0.36433,0.06776 0.48834,0.205108 0.11344,0.140212 0.22065,0.275057 0.27003,0.4466 0.46096,0.841118 -0.33489,0.757279 -1.63875,1.300798 0.0183,-0.10818 0.005,-0.221308 0.0109,-0.331259 0.004,-0.201239 0.004,-0.402559 0.006,-0.603827 1.7e-4,-0.221498 0.002,-0.443153 -0.01,-0.664465 -0.0143,-0.195303 -0.0384,-0.390186 -0.12255,-0.572513 -0.0834,-0.205815 -0.13835,-0.416671 -0.32193,-0.574179 -0.1412,-0.151209 -0.2892,-0.297965 -0.51777,-0.323062 -0.3002,-0.0149 -0.60134,-0.0073 -0.90184,-0.0055 -0.3001,0.0054 -0.60268,0.0132 -0.89524,0.08091 -0.14023,0.03808 -0.26663,0.08394 -0.3977,0.143148 -0.0416,0.01877 -0.16444,0.07819 -0.12444,0.05679 1.20658,-0.645562 2.11412,-1.107153 1.43713,-0.762245 -0.21177,0.133958 -0.45192,0.231587 -0.63658,0.39842 -0.19268,0.171341 -0.34653,0.374605 -0.53308,0.551802 0,0 -1.83993,0.666586 -1.83993,0.666586 z"
           id="path1913"
           style="fill:#dbe3de;fill-opacity:1;stroke:none;stroke-width:0.56976497;stroke-miterlimit:4;stroke-dasharray:none;stroke-opacity:1" />
      </g>
    </g>
  </g>
</svg>
