<?xml version="1.0" encoding="UTF-8" standalone="no"?>
<!-- Created with Inkscape (http://www.inkscape.org/) -->

<svg
   xmlns:dc="http://purl.org/dc/elements/1.1/"
   xmlns:cc="http://creativecommons.org/ns#"
   xmlns:rdf="http://www.w3.org/1999/02/22-rdf-syntax-ns#"
   xmlns:svg="http://www.w3.org/2000/svg"
   xmlns="http://www.w3.org/2000/svg"
   xmlns:sodipodi="http://sodipodi.sourceforge.net/DTD/sodipodi-0.dtd"
   xmlns:inkscape="http://www.inkscape.org/namespaces/inkscape"
   width="210mm"
   height="297mm"
   viewBox="0 0 210 297"
   version="1.1"
   id="svg8"
   inkscape:version="0.91 r13725"
   sodipodi:docname="Ouro 18 quilates.svg">
  <defs
     id="defs2">
    <inkscape:perspective
       sodipodi:type="inkscape:persp3d"
       inkscape:vp_x="0 : 148.5 : 1"
       inkscape:vp_y="0 : 1000 : 0"
       inkscape:vp_z="210 : 148.5 : 1"
       inkscape:persp3d-origin="105 : 99 : 1"
       id="perspective817" />
  </defs>
  <sodipodi:namedview
     id="base"
     pagecolor="#ffffff"
     bordercolor="#666666"
     borderopacity="1.0"
     inkscape:pageopacity="0.0"
     inkscape:pageshadow="2"
     inkscape:zoom="0.98994949"
     inkscape:cx="345.86397"
     inkscape:cy="374.36941"
     inkscape:document-units="mm"
     inkscape:current-layer="layer1"
     showgrid="false"
     inkscape:window-width="1366"
     inkscape:window-height="719"
     inkscape:window-x="0"
     inkscape:window-y="25"
     inkscape:window-maximized="1" />
  <metadata
     id="metadata5">
    <rdf:RDF>
      <cc:Work
         rdf:about="">
        <dc:format>image/svg+xml</dc:format>
        <dc:type
           rdf:resource="http://purl.org/dc/dcmitype/StillImage" />
        <dc:title />
      </cc:Work>
    </rdf:RDF>
  </metadata>
  <g
     inkscape:label="Layer 1"
     inkscape:groupmode="layer"
     id="layer1">
    <g
       id="g3351"
       style="fill:#00002b;fill-opacity:1">
      <path
         inkscape:connector-curvature="0"
         d="m 42.559824,174.29958 c -0.231373,0.7667 -0.514305,1.51335 -0.840097,2.24455 -0.463875,0.96135 -0.893268,1.94132 -1.288285,2.933 -0.468638,1.11692 -0.720006,2.2997 -0.95894,3.4813 -0.332457,1.39395 -0.612315,2.79646 -0.785972,4.21906 -0.17155,1.6692 -0.186758,3.34901 -0.201064,5.02533 -0.07107,1.663 0.04764,3.30203 0.383204,4.9302 0.309642,1.3118 0.772379,2.57467 1.496671,3.71267 0.482293,0.80053 1.062233,1.48958 1.887553,1.93833 0.670026,0.28713 1.412507,0.32053 2.129981,0.26587 0.949245,-0.0582 1.85892,-0.30711 2.732997,-0.66925 0.149561,-0.0682 0.299853,-0.13475 0.448686,-0.2045 0.155636,-0.0729 0.310221,-0.14808 0.464669,-0.22349 0.16079,-0.0785 0.635244,-0.32901 0.481031,-0.23826 -4.122692,2.42614 -2.097696,1.22192 -1.221332,0.53447 0.924568,-0.74289 1.732015,-1.60874 2.45048,-2.54905 0.735129,-0.94806 1.18835,-2.04789 1.627892,-3.15179 0.48773,-1.18268 0.991608,-2.35501 1.397635,-3.56879 0.407492,-1.3158 0.658302,-2.66709 0.814117,-4.03329 0.106662,-1.1292 0.110329,-2.26442 0.113925,-3.39758 -0.0095,-1.13102 0.037,-2.26461 -0.03449,-3.39394 -0.08735,-1.01603 -0.488763,-1.9343 -0.939295,-2.83321 -0.454647,-0.93996 -1.127432,-1.75437 -1.819524,-2.52842 -0.611447,-0.64356 -1.260734,-1.24959 -1.899549,-1.86559 -0.603565,-0.56108 -1.178431,-1.1541 -1.794841,-1.70096 -0.578723,-0.46628 -1.238163,-0.82584 -1.907791,-1.14383 -0.514856,-0.23097 -1.072383,-0.28251 -1.628498,-0.30839 -0.231047,-0.0151 -0.487272,0.007 -0.705805,0.0944 -0.124261,0.0495 -0.232029,0.13335 -0.35102,0.19445 0.840036,-0.47966 1.68007,-0.95931 2.520106,-1.43897 -7.596552,4.36646 -0.562393,0.31958 -0.421878,0.23954 0.08043,-0.0458 -0.157099,0.0979 -0.235085,0.14778 -0.225819,0.14436 -0.440642,0.28775 -0.645713,0.46021 -0.391983,0.4104 -0.685011,0.90779 -0.968578,1.39673 -0.310412,0.57205 -0.547093,1.17689 -0.781715,1.78246 -0.252206,0.6717 -0.587991,1.30399 -0.938699,1.92816 0,0 -2.824514,1.26343 -2.824514,1.26343 v 0 c 0.333605,-0.61025 0.653179,-1.22793 0.919803,-1.87055 0.230827,-0.61936 0.47944,-1.23019 0.768902,-1.82474 0.266849,-0.51224 0.572736,-1.00826 0.916488,-1.4714 0.240369,-0.27995 0.533942,-0.4923 0.851726,-0.67946 0.0131,-0.008 7.084536,-4.09834 0.413781,-0.23947 1.377572,-0.78917 2.46452,-1.9196 4.037918,-1.81381 0.583337,0.0495 1.159438,0.14802 1.68643,0.41874 0.679818,0.35134 1.352733,0.72905 1.937782,1.2272 0.606449,0.56365 1.207608,1.13281 1.802691,1.70828 0.638373,0.62423 1.283179,1.24282 1.89062,1.89759 0.705831,0.79759 1.37814,1.64219 1.853956,2.60033 0.478798,0.93289 0.898742,1.88434 1.000734,2.94262 0.07001,1.13623 0.01664,2.27602 0.04022,3.41386 -0.0047,1.14559 -0.01087,2.293 -0.114956,3.43482 -0.149667,1.38652 -0.432387,2.75187 -0.801836,4.09658 -0.386424,1.22104 -0.870132,2.40032 -1.372208,3.5782 -0.441725,1.1168 -0.862558,2.24798 -1.586516,3.22154 -0.703413,0.9682 -1.508763,1.85519 -2.429584,2.62312 -1.619959,1.35878 -3.51404,2.35305 -5.450448,3.18666 -0.901452,0.33478 -1.839537,0.5465 -2.802803,0.59559 -0.770004,0.0176 -1.552588,-0.0287 -2.242569,-0.40771 -0.8284,-0.52335 -1.43044,-1.24669 -1.924812,-2.09068 -0.719791,-1.18425 -1.196096,-2.47953 -1.504876,-3.83082 -0.343212,-1.64764 -0.479044,-3.31151 -0.395832,-4.99548 0.01027,-1.68169 0.01233,-3.36676 0.163549,-5.04307 0.157478,-1.42462 0.413404,-2.83256 0.743911,-4.22745 0.244827,-1.18912 0.45924,-2.39163 0.921959,-3.52129 0.378375,-0.99783 0.810662,-1.97904 1.266915,-2.94315 0.327266,-0.69488 0.599461,-1.4109 0.788223,-2.15643 0,0 2.864572,-1.37225 2.864572,-1.37225 z"
         id="path833"
         style="fill:#00002b;fill-opacity:1;stroke:none;stroke-width:0.90200001;stroke-miterlimit:4;stroke-dasharray:none;stroke-opacity:1" />
      <path
         inkscape:connector-curvature="0"
         d="m 60.475341,190.36801 c -0.04022,0.95117 -0.03549,1.90372 -0.03723,2.85557 -0.03052,1.09598 -0.01945,2.17644 0.212738,3.25042 0.222387,0.9568 0.788874,1.74687 1.315423,2.55394 0.258522,0.35925 0.647968,0.85626 1.136127,0.61264 -4.933972,2.65285 -2.733747,1.92869 -2.17809,0.9573 0.225518,-0.39424 0.385395,-0.82675 0.546505,-1.24944 0.308806,-0.88712 0.412096,-1.82038 0.46469,-2.75245 0.02823,-0.71714 0.02514,-1.43494 0.0191,-2.15244 -0.03659,-0.52276 0.09353,-1.03178 0.1695,-1.54459 0.0061,-0.0591 0.01228,-0.11818 0.01841,-0.17727 0,0 2.839125,-1.39788 2.839125,-1.39788 v 0 c -0.01042,0.0609 -0.02085,0.12172 -0.03127,0.18259 -0.06216,0.50715 -0.213852,1.00304 -0.20697,1.51503 -0.0013,0.72677 0.0051,1.45404 -0.032,2.18012 -0.0558,0.95904 -0.151432,1.91782 -0.439862,2.83965 -0.819153,2.41481 -0.66393,1.83507 -3.701987,3.50013 -0.593939,-0.053 -0.983631,-0.45781 -1.290264,-0.94682 -0.524724,-0.84843 -1.103593,-1.67642 -1.33881,-2.66347 -0.252707,-1.0931 -0.285422,-2.19025 -0.24547,-3.30978 -0.0019,-0.9392 0.0035,-1.87915 -0.03723,-2.81764 0,0 2.81755,-1.43561 2.81755,-1.43561 z"
         id="path835"
         style="fill:#00002b;fill-opacity:1;stroke:none;stroke-width:0.90200001;stroke-miterlimit:4;stroke-dasharray:none;stroke-opacity:1" />
      <path
         inkscape:connector-curvature="0"
         d="m 71.186629,189.77224 c 0.122566,1.09763 0.325178,2.18432 0.466648,3.27983 0.244343,1.5315 0.375021,3.07603 0.466106,4.62311 0.07417,0.92252 0.02103,1.85441 0.12428,2.7748 -0.93781,0.38708 -1.825088,0.93212 -2.813431,1.16125 -0.167187,0.0388 0.01691,-0.34284 0.02307,-0.51435 0.0087,-0.24251 0.01566,-0.48508 0.02159,-0.72767 0.02344,-0.96145 0.02606,-1.92263 0.02755,-2.88432 0.07524,-1.31382 -0.16433,-2.6498 0.02661,-3.95609 0.0662,-0.27455 0.14841,-0.61285 0.412549,-0.77584 1.559456,-0.96225 2.154666,-1.57322 3.553467,-1.88492 0.569392,-0.0993 1.123075,-0.19729 1.586535,0.20429 0.05019,0.0464 0.104441,0.0887 0.150571,0.13906 0.146053,0.15956 0.107953,0.17015 0.25826,0.3093 0.132382,0.12256 0.309547,0.18951 0.458862,0.28951 0.335386,0.19319 0.606171,0.48683 0.89005,0.75025 0,0 -2.688251,1.66635 -2.688251,1.66635 v 0 c -0.281141,-0.246 -0.527481,-0.5334 -0.861994,-0.70796 -0.34063,-0.21164 -0.613656,-0.46344 -0.881094,-0.75934 -0.414444,-0.25608 -0.956493,-0.0633 -1.398953,0.0182 -1.05615,0.34662 -2.446295,1.32877 1.843799,-1.19814 0.191646,-0.11288 -1.016354,0.65401 -0.512937,0.59084 -0.354034,1.23221 -0.08247,2.69539 -0.188015,3.96436 0.0028,1.18666 0.0064,2.37317 0.05385,3.55909 0.0065,0.16333 0.153003,0.38855 0.02463,0.48975 -0.861238,0.67903 -1.874748,1.13866 -2.812122,1.70799 0.08538,-0.93838 0.01434,-1.88463 0.0033,-2.82439 -0.06705,-1.5409 -0.1899,-3.0791 -0.456274,-4.60009 -0.149596,-1.0745 -0.354928,-2.13842 -0.573247,-3.20077 0,0 2.794627,-1.49414 2.794627,-1.49414 z"
         id="path843"
         style="fill:#00002b;fill-opacity:1;stroke:none;stroke-width:0.90200001;stroke-miterlimit:4;stroke-dasharray:none;stroke-opacity:1" />
      <path
         inkscape:connector-curvature="0"
         d="m 84.491755,192.52047 c -0.384585,0.3872 -0.642358,0.88101 -0.827405,1.38926 -0.227613,0.91293 -0.246243,1.86883 -0.213344,2.80471 0.0195,0.92242 0.227933,1.80173 0.76304,2.55864 0.387384,0.51681 0.867068,0.86067 1.484764,1.0332 0.63364,0.14892 1.263259,0.0266 1.859802,-0.20372 1.003683,-0.52434 1.3252,-0.69728 -2.03716,1.17575 -0.107913,0.0601 0.209214,-0.13159 0.310272,-0.20263 0.328909,-0.23118 0.561591,-0.48109 0.80673,-0.79715 0.500309,-0.71595 0.604803,-1.57026 0.679159,-2.41674 0.03923,-0.77878 0.08661,-1.55885 -0.05763,-2.32836 -0.169934,-0.72408 -0.628531,-1.25326 -1.146653,-1.75512 -0.39066,-0.40382 -0.873327,-0.61956 -1.357464,-0.87229 -0.401926,-0.20939 -0.850805,-0.24644 -1.294849,-0.27369 -0.214665,0.0231 -0.451917,-0.0545 -0.665528,-0.0119 -0.09136,0.0182 -0.167796,0.0811 -0.252918,0.11897 0.871736,-0.49071 1.743475,-0.98142 2.615211,-1.47213 -0.304261,0.16543 -0.512993,0.4368 -0.730483,0.69829 0,0 -2.883583,1.24028 -2.883583,1.24028 v 0 c 0.19117,-0.27544 0.394028,-0.57703 0.65736,-0.78368 2.168985,-1.23798 2.13297,-1.77378 3.82274,-1.62014 0.47649,0.0482 0.945462,0.13251 1.367769,0.37289 0.513368,0.25578 0.972513,0.56256 1.38445,0.96781 0.55453,0.54878 1.027544,1.14861 1.232041,1.91917 0.178371,0.79567 0.128375,1.60331 0.08378,2.41346 -0.06062,0.88114 -0.140026,1.78643 -0.599356,2.56338 -0.148077,0.23062 -0.27406,0.45414 -0.467624,0.6515 -0.06887,0.0702 -0.505564,0.41674 -0.59123,0.46727 -2.83092,1.66958 -1.959523,1.29635 -3.340693,1.85965 -0.656143,0.1831 -1.331547,0.27012 -1.993032,0.0532 -0.647412,-0.2456 -1.166395,-0.65476 -1.574879,-1.21856 -0.538279,-0.82235 -0.788845,-1.74226 -0.812176,-2.72643 -0.05357,-0.95786 -0.03043,-1.92978 0.119248,-2.87845 0.144388,-0.54976 0.406275,-1.04245 0.725961,-1.51129 0,0 2.933684,-1.21517 2.933684,-1.21517 z"
         id="path845"
         style="fill:#00002b;fill-opacity:1;stroke:none;stroke-width:0.90200001;stroke-miterlimit:4;stroke-dasharray:none;stroke-opacity:1" />
      <path
         inkscape:connector-curvature="0"
         d="m 10.645316,218.94898 c 0.604679,-1.07762 1.216793,-2.15005 1.79808,-3.24069 0.810059,-1.42151 1.578422,-2.8638 2.179495,-4.38684 0.322871,-0.9453 0.747255,-1.84553 1.210073,-2.7286 0.669246,-1.15052 0.419172,-0.6405 3.051433,-1.70631 0.07118,-0.0288 0.07697,0.13476 0.09733,0.2088 0.04981,0.18111 0.03806,0.52001 0.04002,0.68285 -0.03341,1.9069 -0.0617,3.81382 -0.08117,5.72093 -0.02419,2.46671 -0.0074,4.93354 0.02228,7.40011 0.0251,1.63772 0.02438,3.27548 0.02153,4.91331 0.05446,1.52979 0.16164,3.05687 0.228169,4.58621 0.04341,0.97121 0.0695,1.9432 0.08642,2.91523 0,0 -2.7816,1.41884 -2.7816,1.41884 v 0 c 0.0083,-0.98067 0.01151,-1.9614 -0.01271,-2.94191 -0.04498,-1.53728 -0.137278,-3.07199 -0.209601,-4.60809 -0.0029,-1.64534 -0.0035,-3.29063 0.02247,-4.93584 0.03113,-2.47603 0.05106,-4.95229 0.03288,-7.42851 -0.01462,-1.87165 -0.01858,-3.74434 -0.09875,-5.61461 -0.01353,-0.18659 -0.03775,-0.37243 -0.04645,-0.55931 -0.04867,-1.04575 1.848583,-0.98352 2.761505,-1.4959 0.03698,-0.0207 -0.09066,-0.0106 -0.126679,0.0118 -0.0617,0.0384 -0.09911,0.10624 -0.148671,0.15936 -0.536897,0.85507 -0.95078,1.7779 -1.305592,2.72189 -0.603902,1.54114 -1.388868,2.99612 -2.205528,4.43399 -0.540246,1.05917 -1.119487,2.09821 -1.643423,3.16509 0,0 -2.891506,1.30821 -2.891506,1.30821 z"
         id="path847"
         style="fill:#00002b;fill-opacity:1;stroke:none;stroke-width:0.90200001;stroke-miterlimit:4;stroke-dasharray:none;stroke-opacity:1" />
      <path
         inkscape:connector-curvature="0"
         d="m 28.139069,214.12132 c 0.0075,0.74994 0.349494,1.38829 0.826678,1.94186 0.568843,0.63375 1.273828,1.06559 2.082818,1.31069 0.555861,0.11527 1.141659,0.1942 1.704364,0.0931 0.283761,-0.0371 0.55122,-0.14469 0.806067,-0.27141 0.102113,-0.0508 0.398674,-0.22167 0.299772,-0.16489 -2.530654,1.4529 -3.094894,1.87445 -2.047724,1.12286 0.764509,-0.58764 1.309831,-1.33835 1.756889,-2.18023 0.351867,-0.63383 0.481058,-1.34224 0.630629,-2.04183 0.161322,-0.81428 0.196234,-1.6456 0.216371,-2.47322 0.0218,-0.63225 0.05458,-1.24561 -0.193865,-1.83668 -0.336587,-0.54514 -0.733155,-1.06907 -1.173131,-1.53618 -0.42681,-0.46964 -0.985173,-0.73341 -1.585733,-0.90219 -0.54312,-0.15348 -1.114393,-0.0799 -1.661591,-0.18656 -0.45748,-0.11914 -0.926515,-0.1654 -1.39695,-0.19202 -0.485349,-0.031 -0.974439,0.1033 -1.364085,0.39411 5.057081,-2.61259 2.704816,-1.78404 1.920859,-1.02091 -0.142825,0.13903 -0.201637,0.2369 -0.318731,0.3999 -0.271716,0.40802 -0.499364,0.83201 -0.67937,1.28693 -0.209397,0.40202 -0.290531,0.83773 -0.336198,1.28354 -0.03891,0.51921 -0.03613,1.04037 -0.03651,1.56069 7.94e-4,0.53526 0.0021,1.07052 0.0029,1.60577 -0.0389,0.5357 0.06999,1.05799 0.150688,1.58387 0.09306,0.46127 0.338638,0.87544 0.568921,1.28066 0.236386,0.40623 0.516353,0.77709 0.691517,1.21559 0.0837,0.46091 0.323853,0.83455 0.585005,1.2104 0.200538,0.18318 0.328924,0.42154 0.491535,0.63483 0,0 -2.718869,1.61246 -2.718869,1.61246 v 0 c -0.160383,-0.21945 -0.302115,-0.4511 -0.493324,-0.64696 -0.270555,-0.39372 -0.529955,-0.7967 -0.619521,-1.27562 -0.160887,-0.42695 -0.442981,-0.78339 -0.671147,-1.17566 -0.245905,-0.44071 -0.4964,-0.8929 -0.613764,-1.38702 -0.07865,-0.54021 -0.212195,-1.07474 -0.172571,-1.62466 -5.82e-4,-0.53531 -0.0017,-1.07062 -0.0032,-1.60593 -8.47e-4,-0.52747 -0.0045,-1.05531 0.02043,-1.58234 0.03144,-0.47056 0.0754,-0.94708 0.284583,-1.37775 0.111006,-0.216 0.163396,-0.4444 0.271793,-0.66159 0.186025,-0.37274 0.05745,-0.0682 0.269315,-0.42791 0.0476,-0.0808 0.08441,-0.16751 0.126623,-0.25127 0.09723,-0.1522 0.182691,-0.31259 0.291558,-0.45671 0.69776,-0.92367 3.59849,-1.8782 3.440301,-2.16601 0.469328,-0.20119 0.958011,-0.30209 1.471279,-0.24154 0.476234,0.0388 0.946158,0.11152 1.413237,0.21274 0.56083,0.0605 1.133293,0.0541 1.675228,0.23567 0.632976,0.22091 1.223928,0.53063 1.674331,1.04078 0.449054,0.50653 0.874416,1.04758 1.227789,1.6245 0.282977,0.63768 0.291787,1.27712 0.239466,1.96716 -0.0276,0.84116 -0.05682,1.68494 -0.187005,2.5178 -0.137432,0.7281 -0.262183,1.46619 -0.609804,2.13036 -0.448844,0.85951 -0.934836,1.66469 -1.6951,2.29264 -1.141741,1.01732 -0.293786,0.29757 -3.283646,1.99031 -0.363098,0.20557 -0.776584,0.31329 -1.188217,0.35799 -0.596961,0.0245 -1.197507,-0.0309 -1.768695,-0.21527 -0.826569,-0.31469 -1.555832,-0.80354 -2.151805,-1.46281 -0.522423,-0.61017 -0.880313,-1.29793 -0.99469,-2.10304 0,0 2.824235,-1.43902 2.824235,-1.43902 z"
         id="path849"
         style="fill:#00002b;fill-opacity:1;stroke:none;stroke-width:0.90200001;stroke-miterlimit:4;stroke-dasharray:none;stroke-opacity:1" />
      <path
         inkscape:connector-curvature="0"
         d="m 28.480678,220.30011 c -0.355325,-0.20886 -0.710271,-0.33233 -1.118171,-0.27147 -0.06191,0.009 -0.126132,0.007 -0.185746,0.0263 -0.05577,0.0177 -0.103534,0.0545 -0.155299,0.0817 -0.05673,0.0242 -0.223639,0.10333 -0.170183,0.0726 4.501113,-2.58968 3.160892,-1.85008 2.25443,-1.25262 -0.337143,0.35346 -0.622443,0.77201 -0.874117,1.19174 -0.25104,0.48974 -0.436198,1.00308 -0.545005,1.54177 -0.133985,0.51371 -0.213969,1.04047 -0.367728,1.5487 -0.180322,0.51419 -0.223282,1.05536 -0.250648,1.59515 -0.02201,0.83194 -0.05113,1.66533 -0.0068,2.49673 0.122293,0.96724 0.425474,1.92202 0.889767,2.77913 0.382347,0.59302 0.87856,1.11514 1.464829,1.50882 0.525772,0.34871 1.089461,0.63477 1.659138,0.90434 0.736833,0.3126 1.530575,0.40537 2.32123,0.46079 0.126412,0.005 0.252756,0.0192 0.379238,0.0159 0.198167,-0.005 0.527214,-0.0514 0.713091,-0.11975 0.120941,-0.0445 0.45665,-0.23872 0.345057,-0.17429 -2.740322,1.58222 -3.021156,1.78078 -1.986071,1.09192 0.592735,-0.42825 1.102717,-0.94965 1.4874,-1.57112 0.370739,-0.67839 0.649041,-1.40083 0.947317,-2.11264 0.27737,-0.61668 0.54415,-1.2396 0.76776,-1.87803 0.169907,-0.50913 0.207848,-1.04421 0.229581,-1.57636 0.01894,-0.59659 0.01445,-1.19348 0.01122,-1.79026 0.01251,-0.55235 0.01355,-1.10911 -0.241766,-1.61068 -0.309391,-0.47843 -0.772573,-0.81507 -1.177819,-1.205 -0.424315,-0.47992 -0.931783,-0.86944 -1.392767,-1.30977 -0.352549,-0.4 -0.695346,-0.79838 -1.116997,-1.12842 -0.378536,-0.2825 -0.838843,-0.35895 -1.264891,-0.52919 -0.357026,-0.29296 -0.695052,-0.54985 -1.133549,-0.70659 -0.35946,-0.13912 -0.680032,0.015 -1.031864,0.0894 -0.942533,0.65918 -0.229023,0.15438 2.481046,-1.3963 0.03457,-0.0198 -0.07513,0.0295 -0.106725,0.0538 -0.125437,0.0963 -0.23938,0.24289 -0.350055,0.3559 -0.238889,0.32881 -0.54787,0.58045 -0.847431,0.84778 -0.268976,0.31626 -0.441352,0.69401 -0.609653,1.06949 -0.112099,0.29993 -0.05531,0.14986 -0.170397,0.45021 0,0 -2.866088,1.31306 -2.866088,1.31306 v 0 c 0.140406,-0.27596 0.08054,-0.12853 0.174598,-0.4443 0.155768,-0.40507 0.336249,-0.79148 0.558059,-1.16193 0.238213,-0.33016 0.617453,-0.49421 0.851805,-0.83339 0.09786,-0.1454 0.226708,-0.23719 0.328211,-0.37273 0.71039,-0.94857 1.905097,-1.5501 3.079374,-1.798 0.389988,-0.0866 0.759846,-0.10034 1.134155,0.0705 0.411112,0.1864 0.748247,0.45988 1.123132,0.70207 0.464537,0.15828 0.932223,0.30685 1.324451,0.61654 0.407414,0.35362 0.752102,0.75781 1.111415,1.1576 0.463166,0.43834 0.959805,0.84091 1.396526,1.30806 0.434025,0.41051 0.916024,0.78259 1.239427,1.29371 0.272585,0.54694 0.329843,1.1365 0.302369,1.74329 2.64e-4,0.59905 0.0054,1.19815 0.0011,1.79715 -0.01545,0.55821 -0.04149,1.12058 -0.196559,1.66084 -0.208399,0.6556 -0.490659,1.28774 -0.781878,1.91012 -0.298635,0.71557 -0.577617,1.43817 -0.912043,2.13752 -0.350546,0.67448 -0.860962,1.23178 -1.455144,1.70415 -1.434841,1.10774 -3.018174,2.32479 -4.879557,2.1401 -0.81752,-0.0767 -1.631186,-0.21375 -2.387275,-0.54977 -0.589973,-0.27235 -1.172779,-0.56857 -1.706361,-0.94175 -0.599792,-0.45172 -1.106947,-1.01313 -1.502403,-1.65255 -0.480589,-0.89665 -0.789402,-1.8922 -0.952487,-2.89527 -0.06851,-0.8357 -0.04232,-1.67452 -0.03599,-2.51249 0.01641,-0.55784 0.01561,-1.12295 0.190647,-1.65966 0.166904,-0.49802 0.257501,-1.00774 0.393466,-1.51574 0.09169,-0.57086 0.266301,-1.10775 0.504601,-1.63456 0.228938,-0.45794 0.558332,-0.84226 0.808084,-1.2881 0.150158,-0.1612 0.102667,-0.13456 0.291546,-0.24299 1.056913,-0.6067 2.142988,-1.67113 3.449746,-1.74278 0.435782,0.0237 0.827183,0.21235 1.217044,0.39725 0,0 -2.651257,1.74443 -2.651257,1.74443 z"
         id="path851"
         style="fill:#00002b;fill-opacity:1;stroke:none;stroke-width:0.90200001;stroke-miterlimit:4;stroke-dasharray:none;stroke-opacity:1" />
      <path
         inkscape:connector-curvature="0"
         d="m 61.112135,224.93026 c -0.09478,-0.70715 -0.540732,-1.26516 -1.058715,-1.72334 -0.782857,-0.52742 -1.70068,-0.72712 -2.619925,-0.856 -0.847844,-0.11813 -1.688933,-0.0836 -2.524363,0.0904 -0.361273,0.11871 -0.428641,0.12485 -0.766125,0.29877 -0.118509,0.0611 -0.46201,0.26631 -0.346025,0.20057 4.114395,-2.33198 2.612517,-1.57845 1.717223,-0.86482 -0.827638,0.65795 -1.003366,1.60924 -1.135618,2.60204 -0.143407,1.41547 0.3121,2.71255 1.110686,3.85956 0.926402,1.06249 1.524482,1.31704 2.898034,1.00935 0.187823,-0.0647 0.377984,-0.12286 0.563465,-0.19395 0.39207,-0.15027 0.73215,-0.30818 1.099905,-0.50985 0.164324,-0.0901 0.64716,-0.37825 0.483531,-0.28688 -2.145305,1.19787 -2.937047,1.72795 -1.816328,0.99425 0.484968,-0.32051 0.932593,-0.65321 1.232832,-1.15559 0.253092,-0.36908 0.321924,-0.79594 0.363487,-1.23108 0.03426,-0.51949 0.02947,-1.04056 0.02868,-1.5609 -0.0016,-0.4442 -0.0098,-0.88835 -0.01185,-1.33255 -0.0085,-0.33962 0.01114,-0.6803 -0.009,-1.01955 2.777543,-5.19379 2.909599,-1.71335 2.802607,-0.67987 -0.148942,0.69839 -0.20142,1.40955 -0.238207,2.12098 -0.0447,1.2109 -0.05531,2.42279 -0.06381,3.63439 -0.01603,1.71092 -0.01614,3.42191 -0.01339,5.13289 -0.0019,1.43493 0.01857,2.86973 0.03182,4.30455 0.01,0.77728 0.02204,1.55452 0.02819,2.33184 0.0037,0.5434 0.0038,1.08682 0.004,1.63023 -0.0055,0.64581 -0.0088,1.29167 -0.0075,1.93752 -0.01881,0.30822 0.02561,0.61246 0.069,0.91625 0,0 -2.773064,1.46423 -2.773064,1.46423 v 0 c -0.04788,-0.31806 -0.108735,-0.6368 -0.0832,-0.9603 0.0013,-0.64329 -0.0021,-1.2866 -0.0075,-1.92986 1.43e-4,-0.54477 2.64e-4,-1.08954 0.004,-1.63429 0.0062,-0.78688 0.01823,-1.57369 0.02815,-2.36053 0.0131,-1.44541 0.03328,-2.89079 0.03067,-4.33631 0.0019,-1.70616 -2.25e-4,-3.41232 -0.0158,-5.11842 -0.0063,-1.20517 -0.02503,-2.41056 -1.24e-4,-3.61562 0.02098,-0.71129 0.04227,-1.42517 0.172239,-2.12679 0.368673,-1.7319 -1.553073,0.15652 2.874414,-2.19415 0.01172,-0.006 -0.0053,0.026 -0.0079,0.039 -0.01916,0.34203 -0.0011,0.68526 -0.0079,1.02762 -5.29e-4,0.44684 -0.0056,0.89367 -0.0042,1.3405 0.0019,0.52689 0.0069,1.05407 -0.0131,1.58069 -0.02705,0.46825 -0.06046,0.94716 -0.293806,1.36577 -0.167717,0.25886 -0.08804,0.11961 -0.234961,0.42007 -0.240662,0.39013 -0.658233,0.59521 -0.997834,0.88365 -1.779746,1.14916 -3.605707,2.3951 -5.670531,2.96946 -0.19802,0.0249 -0.394531,0.0701 -0.594056,0.0747 -1.050716,0.0243 -1.862587,-0.59263 -2.484236,-1.38408 -0.814099,-1.2107 -1.306399,-2.5717 -1.212774,-4.05126 0.09302,-1.02085 0.187905,-2.05077 0.980898,-2.79174 1.380286,-1.1916 3.003907,-2.19079 4.765797,-2.67165 0.859351,-0.13379 1.72281,-0.14405 2.583989,-0.004 0.958374,0.17373 1.922585,0.4177 2.719655,1.00569 0.542221,0.50723 1.038024,1.10736 1.212681,1.84715 0,0 -2.793929,1.5109 -2.793929,1.5109 z"
         id="path853"
         style="fill:#00002b;fill-opacity:1;stroke:none;stroke-width:0.90200001;stroke-miterlimit:4;stroke-dasharray:none;stroke-opacity:1" />
      <path
         inkscape:connector-curvature="0"
         d="m 66.355269,221.104 c -0.06113,0.86583 0.02463,1.72735 0.219736,2.57069 0.16415,0.78941 0.501806,1.47924 1.043514,2.07041 0.484873,0.44431 1.090679,0.70757 1.64528,1.04932 0.517194,0.40153 1.088226,0.66786 1.727152,0.79579 0.527915,0.0802 1.06358,0.0742 1.596073,0.0738 1.122793,-0.25364 2.72891,-1.3272 -1.941756,1.237 -0.05066,0.0278 0.0931,-0.0701 0.130299,-0.11437 0.03927,-0.0467 0.06441,-0.10363 0.09661,-0.15544 0.146902,-0.47691 0.19217,-0.98229 0.280274,-1.47447 0.09599,-0.59424 0.122068,-1.19618 0.137898,-1.79693 0.01042,-0.54434 0.0086,-1.08882 0.008,-1.63323 -7.94e-4,-0.44515 -0.0013,-0.8903 -0.0016,-1.33545 0,0 2.801737,-1.4278 2.801737,-1.4278 v 0 c 2.64e-4,0.44516 7.93e-4,0.89032 0.0013,1.33547 5.3e-4,0.54756 0.0019,1.09517 -0.0081,1.64267 -0.01513,0.6131 -0.04162,1.22663 -0.122566,1.83517 -0.07024,0.51391 -0.169058,1.02095 -0.22565,1.53639 -0.431099,1.44305 -2.274654,2.08719 -3.701248,2.19812 -0.54696,-0.005 -1.098693,-0.0117 -1.634561,-0.135 -0.647264,-0.17832 -1.222217,-0.49161 -1.765049,-0.88641 -0.586944,-0.34537 -1.221079,-0.62468 -1.698736,-1.12638 -0.558877,-0.64154 -0.919885,-1.38406 -1.087734,-2.22281 -0.205973,-0.85324 -0.317066,-1.72208 -0.318392,-2.60092 0,0 2.817551,-1.43562 2.817551,-1.43562 z"
         id="path855"
         style="fill:#00002b;fill-opacity:1;stroke:none;stroke-width:0.90200001;stroke-miterlimit:4;stroke-dasharray:none;stroke-opacity:1" />
      <path
         inkscape:connector-curvature="0"
         d="m 78.11513,219.76766 c -0.03963,0.99233 -0.04011,1.98598 -0.04193,2.979 -0.03075,0.98068 -7.94e-4,1.95323 0.244647,2.90544 0.166917,0.53786 0.255034,1.09086 0.298971,1.65074 0.02191,0.28111 0.0071,0.56885 0.05245,0.84538 0,0 -2.849753,1.45992 -2.849753,1.45992 v 0 c 0.07966,-0.27094 -0.02048,-0.58184 0.0038,-0.85725 -0.03342,-0.54575 -0.105143,-1.08648 -0.254254,-1.61417 -0.228269,-0.98518 -0.259958,-1.98802 -0.229539,-2.99718 -0.0019,-0.97876 -0.0019,-1.95822 -0.04193,-2.93627 0,0 2.817551,-1.43561 2.817551,-1.43561 z"
         id="path857"
         style="fill:#00002b;fill-opacity:1;stroke:none;stroke-width:0.90200001;stroke-miterlimit:4;stroke-dasharray:none;stroke-opacity:1" />
      <path
         inkscape:connector-curvature="0"
         d="m 76.819653,216.88729 c 0.34666,0.43405 0.836705,0.64508 1.360599,0.77777 0.246732,0.0635 0.45503,0.0725 0.674851,-0.0634 0.04814,-0.0298 0.184931,-0.12994 0.13561,-0.10218 -2.577809,1.4512 -3.283971,2.2063 -2.495164,1.38406 0.152673,-0.27671 0.163306,-0.57448 0.02913,-0.85776 -0.234307,-0.24276 -0.587438,-0.2562 -0.904028,-0.27652 -0.222112,-0.0112 -0.444465,-0.0114 -0.666776,-0.0109 0,0 2.556227,-1.8521 2.556227,-1.8521 v 0 c 0.22842,0.007 0.457234,0.01 0.684791,0.033 0.423167,0.0592 0.822222,0.17778 1.083091,0.54316 0.176961,0.35897 0.229412,0.73313 0.107442,1.12141 -0.402405,1.34902 -2.438905,2.19689 -3.797245,1.85384 -0.560202,-0.18507 -1.061566,-0.46322 -1.476004,-0.89127 0,0 2.707473,-1.65914 2.707473,-1.65914 z"
         id="path859"
         style="fill:#00002b;fill-opacity:1;stroke:none;stroke-width:0.90200001;stroke-miterlimit:4;stroke-dasharray:none;stroke-opacity:1" />
      <path
         inkscape:connector-curvature="0"
         d="m 83.189907,209.11055 c -0.06586,1.47713 -0.07092,2.95641 -0.0756,4.43478 -0.06309,1.81912 0.04133,3.62912 0.319421,5.42665 0.234656,1.23269 0.371935,2.47966 0.546933,3.72132 0.08589,1.15408 0.371584,2.27456 0.717995,3.37433 0.252015,0.86008 0.504118,1.7194 0.786609,2.57001 0.177331,0.50706 0.272624,1.03343 0.331938,1.56544 0,0 -2.784324,1.45332 -2.784324,1.45332 v 0 c -0.04381,-0.51434 -0.118814,-1.02507 -0.278797,-1.51802 -0.269081,-0.85912 -0.521835,-1.72192 -0.754973,-2.59154 -0.340164,-1.11741 -0.646059,-2.25073 -0.739888,-3.41965 -0.167934,-1.24812 -0.288497,-2.50183 -0.496004,-3.74464 -0.257916,-1.81773 -0.359707,-3.64586 -0.30857,-5.48206 -0.0046,-1.45267 -0.0087,-2.90636 -0.0756,-4.35773 0,0 2.810865,-1.43221 2.810865,-1.43221 z"
         id="path861"
         style="fill:#00002b;fill-opacity:1;stroke:none;stroke-width:0.90200001;stroke-miterlimit:4;stroke-dasharray:none;stroke-opacity:1" />
      <path
         inkscape:connector-curvature="0"
         d="m 88.285689,219.03794 c 0.700847,-0.0899 1.408642,-0.17379 2.115257,-0.12995 0.905565,0.15198 1.308049,0.90102 1.638503,1.67457 0.252537,0.83719 0.47003,1.68886 0.632765,2.54864 0.12478,0.43072 0.166081,0.89142 0.358081,1.30005 -3.676224,2.21469 -2.072433,1.92698 -3.566432,0.70166 -0.419208,-0.30533 -0.922158,-0.37807 -1.424691,-0.42293 -0.330722,0.0309 -0.659644,0.0953 -0.953365,0.25897 -0.06407,0.0357 -0.240533,0.16713 -0.17653,0.13132 0.840205,-0.47004 1.671081,-0.95656 2.506622,-1.43484 -0.402711,0.23535 -0.62181,0.59046 -0.845732,0.98151 -0.238086,0.4942 -0.361956,1.03641 -0.455322,1.57423 -0.1285,0.65147 -0.08957,1.28639 0.09583,1.91879 0.182541,0.45216 0.692684,0.5669 1.138251,0.5245 0.07323,-0.0123 0.146468,-0.0246 0.219675,-0.0371 0.378852,-0.0645 0.793816,-0.31378 0.673058,-0.2452 -2.590681,1.47109 -3.258087,1.9449 -2.271411,1.25862 0.294137,-0.21955 0.564467,-0.46018 0.755491,-0.77486 0,0 2.873492,-1.30567 2.873492,-1.30567 v 0 c -0.14868,0.39126 -0.386924,0.65372 -0.702067,0.92439 -1.221835,0.89604 -2.539037,1.99221 -4.102986,2.02481 -0.57046,-0.0783 -1.122357,-0.28409 -1.340109,-0.86552 -0.19239,-0.67085 -0.269386,-1.35264 -0.14713,-2.04699 0.08012,-0.56229 0.192058,-1.11959 0.383567,-1.65547 0.202408,-0.41173 0.393869,-0.85464 0.797353,-1.10727 1.259642,-0.75295 2.539942,-2.0051 4.116777,-1.9431 0.550558,0.0784 1.083553,0.21567 1.526915,0.57133 0.255323,0.21085 0.440381,0.4366 0.655889,0.6829 0.03363,0.0384 0.153321,0.0783 0.110493,0.10614 -0.885934,0.57559 -1.824099,1.06649 -2.736149,1.59973 0.01519,0.009 0.044,0.046 0.04555,0.0282 0.01516,-0.17457 -0.172633,-0.76547 -0.216826,-0.95146 -0.02617,-0.11009 -0.05186,-0.22029 -0.0778,-0.33043 -0.133183,-0.84365 -0.327964,-1.68051 -0.572206,-2.4982 -0.298744,-0.68365 -0.653119,-1.30924 -1.473536,-1.36506 -0.707162,-0.009 -1.415949,0.0698 -2.107763,0.21656 0,0 2.526487,-1.91292 2.526487,-1.91292 z"
         id="path863"
         style="fill:#00002b;fill-opacity:1;stroke:none;stroke-width:0.90200001;stroke-miterlimit:4;stroke-dasharray:none;stroke-opacity:1" />
      <path
         inkscape:connector-curvature="0"
         d="m 100.56911,209.84501 c -0.0704,1.51101 -0.0859,3.02419 -0.10324,4.53657 -0.0348,2.3498 -0.0119,4.69972 0.0215,7.04935 0.0139,1.06326 0.0547,2.12612 0.0596,3.18949 0.004,0.61813 0.008,1.23626 0.01,1.8544 -5.3e-4,0.24866 -7.9e-4,0.49705 0.008,0.74557 0,0 -2.814878,1.43425 -2.814878,1.43425 v 0 c 0.0083,-0.25118 0.0086,-0.50224 0.0079,-0.75357 0.0019,-0.6214 0.0053,-1.24278 0.0096,-1.86416 0.005,-1.08361 0.04572,-2.16672 0.05958,-3.25021 0.03307,-2.35695 0.05652,-4.7142 0.02154,-7.07131 -0.01712,-1.4773 -0.0317,-2.9555 -0.103238,-4.43136 0,0 2.824236,-1.43902 2.824236,-1.43902 z"
         id="path865"
         style="fill:#00002b;fill-opacity:1;stroke:none;stroke-width:0.90200001;stroke-miterlimit:4;stroke-dasharray:none;stroke-opacity:1" />
      <path
         inkscape:connector-curvature="0"
         d="m 96.055438,217.22393 c 1.306597,0.0971 2.606252,-0.0316 3.90552,-0.15685 0.991622,-0.12959 1.979042,-0.28911 2.965842,-0.45072 0,0 -2.46056,1.84421 -2.46056,1.84421 v 0 c -0.969512,0.13104 -1.93754,0.27341 -2.909077,0.38906 -1.353167,0.13438 -2.705156,0.24049 -4.066077,0.23741 0,0 2.564352,-1.86311 2.564352,-1.86311 z"
         id="path867"
         style="fill:#00002b;fill-opacity:1;stroke:none;stroke-width:0.90200001;stroke-miterlimit:4;stroke-dasharray:none;stroke-opacity:1" />
      <path
         inkscape:connector-curvature="0"
         d="m 106.50788,221.76972 c 0.96764,0.18643 1.94728,0.20821 2.92794,0.16362 0.40329,-0.0898 0.57187,-0.10304 0.94389,-0.27784 0.12741,-0.0599 0.48792,-0.28095 0.36432,-0.21358 -3.72073,2.02807 -2.60776,1.85554 -1.98965,0.77876 0.26876,-0.59491 0.23067,-0.98332 -0.0725,-1.53799 -0.35024,-0.50521 -0.92555,-0.63326 -1.49644,-0.72831 -0.70987,-0.0905 -1.41554,-0.12124 -2.11875,0.013 -0.95104,0.55437 -2.35021,1.21133 2.10355,-1.1878 0.0723,-0.0389 -0.12145,0.11082 -0.17639,0.1718 -0.12901,0.14316 -0.19778,0.26147 -0.3045,0.42316 -0.41487,0.68287 -0.57591,1.461 -0.69253,2.24019 -0.0752,0.7482 -0.16078,1.50467 -0.015,2.24763 0.3369,0.97478 1.30527,1.47927 2.13167,1.99594 0.98158,0.56567 2.02997,0.95417 3.13976,1.16556 0.34206,0.0294 0.70036,0.14241 1.04457,0.0554 0.0759,-0.0192 0.14534,-0.0592 0.21358,-0.0975 0.0556,-0.0312 0.21192,-0.14147 0.15636,-0.11018 -0.86353,0.48613 -1.72071,0.98346 -2.58106,1.4752 0.0332,-0.0347 0.0664,-0.0694 0.0997,-0.10411 0,0 2.88926,-1.29809 2.88926,-1.29809 v 0 c -0.0199,0.0649 -0.0398,0.12988 -0.0597,0.19481 -2.29493,1.38828 -2.30307,2.05562 -4.3101,1.65394 -1.11413,-0.26789 -2.16938,-0.69881 -3.15926,-1.2801 -0.91263,-0.56554 -1.92463,-1.11309 -2.31769,-2.17546 -0.17383,-0.77872 -0.10166,-1.56416 -0.015,-2.35235 0.10008,-0.80583 0.24871,-1.6049 0.59935,-2.3445 0.11134,-0.18307 0.25101,-0.55152 0.43763,-0.67166 0.77386,-0.49818 2.11525,-1.62244 3.32881,-1.88624 0.7211,-0.0823 1.44894,-0.0119 2.16581,0.0846 0.65271,0.14088 1.28566,0.35878 1.66385,0.94999 0.34074,0.63225 0.44895,1.11222 0.19492,1.81169 -0.61975,1.46002 -1.3468,1.30373 -3.28644,2.45615 -0.40907,0.24304 -0.90337,0.30976 -1.3648,0.3648 -1.00542,0.023 -2.00144,-0.0514 -3.00331,-0.12184 0,0 2.55828,-1.8587 2.55828,-1.8587 z"
         id="path869"
         style="fill:#00002b;fill-opacity:1;stroke:none;stroke-width:0.90200001;stroke-miterlimit:4;stroke-dasharray:none;stroke-opacity:1" />
      <path
         inkscape:connector-curvature="0"
         d="m 117.49974,219.82706 c -0.46765,-0.12344 -0.94885,-0.165 -1.42989,-0.19254 -0.65468,-0.0406 -1.3089,-0.0536 -1.93513,0.16146 -0.98616,0.40428 -2.60198,1.35431 2.02869,-1.19676 0.0675,-0.0372 -0.12468,0.0917 -0.17979,0.14563 -0.14273,0.13974 -0.15837,0.19664 -0.25463,0.3687 -0.21803,0.47175 -0.0828,0.9038 0.14449,1.3356 0.25875,0.3703 0.7091,0.52836 1.12719,0.65266 0.60955,0.1118 1.13098,0.47591 1.67135,0.75879 0.73858,0.27072 1.35622,0.72194 1.94914,1.22659 0.53007,0.48758 1.07604,0.97856 1.48797,1.5733 0.26679,0.46943 0.38702,0.99384 0.28527,1.52505 -0.51277,1.20002 -2.41238,1.7134 -3.22078,2.18237 -0.32395,0.18793 -0.69164,0.27786 -1.04873,0.37682 -0.64881,0.16578 -1.31737,0.20698 -1.98379,0.22555 0,0 2.53286,-1.85415 2.53286,-1.85415 v 0 c 0.64664,-0.0285 1.29468,-0.0859 1.91663,-0.27781 0.33179,-0.11259 0.39552,-0.12255 0.71127,-0.27634 0.10472,-0.051 0.40712,-0.22642 0.30732,-0.16635 -4.67074,2.81182 -2.74691,1.85464 -2.06603,1.13947 0.19229,-0.42702 0.0638,-0.88005 -0.14334,-1.28335 -0.38555,-0.57655 -0.90116,-1.05707 -1.41588,-1.51684 -0.58672,-0.4862 -1.21691,-0.87354 -1.9239,-1.16384 -0.53336,-0.28344 -1.06722,-0.57285 -1.66324,-0.70234 -0.48949,-0.17907 -0.97471,-0.39224 -1.25588,-0.85647 -0.26205,-0.49999 -0.45074,-1.02146 -0.2768,-1.58809 0.53745,-1.49384 2.30981,-2.08181 3.76019,-2.53764 0.66003,-0.127 1.32691,-0.1267 1.99633,-0.0809 0.50351,0.0345 1.00136,0.10532 1.49375,0.21792 0,0 -2.61464,1.80347 -2.61464,1.80347 z"
         id="path871"
         style="fill:#00002b;fill-opacity:1;stroke:none;stroke-width:0.90200001;stroke-miterlimit:4;stroke-dasharray:none;stroke-opacity:1" />
    </g>
  </g>
</svg>
