<?xml version="1.0" encoding="UTF-8" standalone="no"?>
<!-- Created with Inkscape (http://www.inkscape.org/) -->

<svg
   xmlns:dc="http://purl.org/dc/elements/1.1/"
   xmlns:cc="http://creativecommons.org/ns#"
   xmlns:rdf="http://www.w3.org/1999/02/22-rdf-syntax-ns#"
   xmlns:svg="http://www.w3.org/2000/svg"
   xmlns="http://www.w3.org/2000/svg"
   xmlns:sodipodi="http://sodipodi.sourceforge.net/DTD/sodipodi-0.dtd"
   xmlns:inkscape="http://www.inkscape.org/namespaces/inkscape"
   width="210mm"
   height="297mm"
   viewBox="0 0 210 297"
   version="1.1"
   id="svg8"
   inkscape:version="0.91 r13725"
   sodipodi:docname="Sangue.svg">
  <defs
     id="defs2">
    <inkscape:perspective
       sodipodi:type="inkscape:persp3d"
       inkscape:vp_x="0 : 148.5 : 1"
       inkscape:vp_y="0 : 1000 : 0"
       inkscape:vp_z="210 : 148.5 : 1"
       inkscape:persp3d-origin="105 : 99 : 1"
       id="perspective817" />
  </defs>
  <sodipodi:namedview
     id="base"
     pagecolor="#ffffff"
     bordercolor="#666666"
     borderopacity="1.0"
     inkscape:pageopacity="0.0"
     inkscape:pageshadow="2"
     inkscape:zoom="0.7"
     inkscape:cx="175.86133"
     inkscape:cy="267.08157"
     inkscape:document-units="mm"
     inkscape:current-layer="layer1"
     showgrid="false"
     inkscape:window-width="1366"
     inkscape:window-height="719"
     inkscape:window-x="0"
     inkscape:window-y="25"
     inkscape:window-maximized="1" />
  <metadata
     id="metadata5">
    <rdf:RDF>
      <cc:Work
         rdf:about="">
        <dc:format>image/svg+xml</dc:format>
        <dc:type
           rdf:resource="http://purl.org/dc/dcmitype/StillImage" />
        <dc:title />
      </cc:Work>
    </rdf:RDF>
  </metadata>
  <g
     inkscape:label="Layer 1"
     inkscape:groupmode="layer"
     id="layer1">
    <g
       id="g3340"
       style="fill:#00002b;fill-opacity:1">
      <path
         inkscape:connector-curvature="0"
         d="m 60.310497,193.06569 c -0.764164,-0.2948 -1.33401,-0.88904 -1.92719,-1.42703 -0.538012,-0.39907 -1.047917,-0.83044 -1.570604,-1.2493 -0.652002,-0.4301 -1.300924,-0.86167 -1.962076,-1.27845 -0.890172,-0.65382 -1.844926,-1.20578 -2.766909,-1.8112 -0.867061,-0.56893 -1.76176,-1.0997 -2.752971,-1.41645 -0.766075,-0.2087 -1.562714,-0.21479 -2.350527,-0.2283 -0.851278,-0.006 -1.702562,0.004 -2.553821,0.009 -0.744257,-0.0179 -1.462577,-0.0218 -2.18617,0.15212 -1.243233,1.16641 0.04136,-0.0719 3.313506,-1.80381 0.122137,-0.0647 -0.203882,0.18813 -0.290264,0.296 -0.326649,0.40791 -0.531574,0.90182 -0.741283,1.37419 -0.434615,1.13571 -0.528687,2.35016 -0.584001,3.55315 -0.08421,0.93847 -0.01611,1.82611 0.231669,2.72921 0.267496,0.91849 0.704548,1.7408 1.266325,2.50876 0.622609,0.77013 1.267002,1.53323 2.09097,2.09202 0.738145,0.47286 1.606206,0.65514 2.36337,1.09015 0.538816,0.31449 1.151106,0.43215 1.733647,0.63972 0.612921,0.21968 1.273189,0.16134 1.896044,0.31701 0.669764,0.0902 1.228881,0.32992 1.816891,0.64358 0.803728,0.4606 1.442011,1.11925 2.051585,1.80402 0.998588,1.18716 1.617392,2.6202 2.252141,4.01984 0.796938,1.63728 1.400524,3.35531 2.050791,5.05349 0.582779,1.37103 1.062394,2.78175 1.353013,4.24341 0.192347,0.86984 0.162377,1.72815 0.0265,2.59958 -0.145005,0.87398 -0.529963,1.63534 -1.031036,2.3537 -0.713132,0.97626 -1.546492,1.83741 -2.480289,2.60133 -2.332064,1.6079 -4.738571,3.19685 -7.50429,3.88214 -1.144939,0.20064 -2.256401,0.53968 -3.392146,0.78157 -1.020926,0.17928 -2.056124,0.2453 -3.090997,0.26464 -1.008923,0.047 -2.003904,0.005 -3.003505,-0.12588 -1.005028,-0.097 -1.951988,-0.37251 -2.762036,-0.97988 -0.930259,-0.74061 -1.634479,-1.68114 -2.322057,-2.63801 -0.856538,-1.28057 -1.507689,-2.67096 -2.063967,-4.10328 -0.463929,-1.31371 -0.618133,-2.69918 -0.693206,-4.08165 -0.03338,-0.70987 -0.04229,-1.42048 -0.04857,-2.13099 0,0 3.942418,-2.0085 3.942418,-2.0085 v 0 c -0.007,0.70932 -0.0145,1.41885 0.0067,2.12802 0.05803,1.34247 0.161353,2.69297 0.601694,3.97383 0.527383,1.40451 1.162132,2.76048 2.029407,3.99155 0.665054,0.91436 1.364062,1.80639 2.274943,2.49299 0.795126,0.50679 1.701268,0.71365 2.634827,0.80587 0.988917,0.10923 1.979789,0.0955 2.973472,0.066 1.015031,-0.0407 2.03314,-0.10131 3.028061,-0.32162 1.1192,-0.25788 2.229344,-0.55455 3.356689,-0.77776 0.567198,-0.16187 0.764204,-0.20038 1.316696,-0.43211 0.217964,-0.0914 0.842992,-0.42574 0.641364,-0.3024 -5.841902,3.57361 -3.295277,1.90519 -1.986865,1.14134 0.942184,-0.71108 1.773145,-1.52248 2.478347,-2.47196 0.510111,-0.65525 0.925041,-1.33186 1.101915,-2.15545 0.142052,-0.83213 0.248304,-1.64137 0.07566,-2.48378 -0.227939,-1.45329 -0.651613,-2.86067 -1.241711,-4.20962 -0.648168,-1.68932 -1.236604,-3.40374 -2.035347,-5.03048 -0.627914,-1.35428 -1.257842,-2.7331 -2.258261,-3.86092 -0.592989,-0.64034 -1.226867,-1.2436 -2.011889,-1.64531 -0.55413,-0.28584 -1.134493,-0.42475 -1.746996,-0.53751 -0.650788,-0.095 -1.317257,-0.12074 -1.936853,-0.36713 -0.597726,-0.21351 -1.226915,-0.34721 -1.763096,-0.70613 -0.779243,-0.40801 -1.641441,-0.64508 -2.370296,-1.15013 -0.823288,-0.62865 -1.511739,-1.40732 -2.156619,-2.21496 -0.591801,-0.81103 -1.053989,-1.67627 -1.350325,-2.6402 -0.310041,-1.04084 -0.376412,-1.77768 -0.273669,-2.87006 0.06259,-1.2417 0.133252,-2.49317 0.516477,-3.68602 0.918279,-2.46256 2.075836,-3.52462 5.270707,-4.40313 0.735205,-0.11574 1.479864,-0.0571 2.221605,-0.0725 0.852064,-0.003 1.704195,-0.008 2.556227,0.003 0.82055,0.0193 1.646256,0.0722 2.427457,0.34783 0.991658,0.38543 1.897642,0.94325 2.790513,1.51742 0.923816,0.59963 1.863137,1.17473 2.775159,1.7924 0.686324,0.41441 1.359831,0.84918 2.021199,1.30227 0.533644,0.41706 1.039064,0.868 1.56949,1.28922 0.568251,0.5313 1.145739,1.04751 1.901783,1.29468 0,0 -3.749445,2.467 -3.749445,2.467 z"
         id="path837"
         style="fill:#00002b;fill-opacity:1;stroke:none;stroke-width:0.90200001;stroke-miterlimit:4;stroke-dasharray:none;stroke-opacity:1" />
      <path
         inkscape:connector-curvature="0"
         d="m 70.34699,202.52564 c -0.106953,0.16414 0.783214,-0.40052 0.592095,-0.29156 -1.176258,0.67059 -4.728213,2.63868 -3.521964,2.02367 2.498606,-1.27393 2.951006,-2.11674 4.906915,-2.53674 1.04077,-0.2044 1.938554,0.2741 2.809097,0.78123 1.027515,0.62706 1.895208,1.44208 2.59539,2.41628 0.716156,1.13699 1.134798,2.42419 1.543709,3.69519 0.263324,1.09651 0.704848,2.13523 1.019847,3.2156 0.186743,0.75816 0.312907,1.54332 0.2877,2.32586 -1.005274,4.14855 -3.703693,3.20296 -5.150162,1.67068 -0.561229,-0.64678 -1.080114,-1.33096 -1.663901,-1.95854 -0.481253,-0.58218 -1.119703,-0.80959 -1.840135,-0.92581 -0.734835,-0.0831 -1.476094,-0.0716 -2.214396,-0.0692 -0.374168,-0.0464 -0.633269,0.0432 -0.939831,0.23259 -0.07969,0.0492 -0.323258,0.18947 -0.241864,0.1431 3.683998,-2.09877 4.635886,-2.99015 3.369101,-1.84506 -0.707012,0.96894 -0.679807,2.2743 -0.750525,3.42341 -0.06859,1.47866 -0.04736,2.95913 -0.0259,4.43858 0.0066,0.73721 -0.07845,1.31784 0.727602,1.53501 0.679868,0.10593 1.372174,0.0813 2.057969,0.075 0.630018,-0.0735 1.171035,-0.3735 1.76177,-0.5657 -0.238146,0.29613 1.24441,-0.55403 0.829048,-0.31314 -7.797718,4.52237 -4.130513,2.71295 -3.226355,1.72265 0.155908,-0.22493 0.292534,-0.45782 0.416266,-0.70144 0,0 4.058621,-1.86826 4.058621,-1.86826 v 0 c -0.09527,0.2742 -0.190048,0.54284 -0.382815,0.76744 -0.854104,1.90798 -3.324709,2.46694 -5.214787,3.14091 -0.590084,0.23371 -1.195599,0.42717 -1.838224,0.43336 -0.727017,7.9e-4 -1.474576,0.0274 -2.172801,-0.20622 -0.82247,-0.41999 -1.010282,-1.12632 -0.93758,-2.02085 0.01675,-1.49471 0.03705,-2.98944 0.06835,-4.48391 0.03953,-1.20826 0.0021,-2.51903 0.527209,-3.63311 1.019469,-1.61524 0.129336,-0.30504 4.221879,-2.69196 0.389507,-0.22717 0.858867,-0.19345 1.290559,-0.1961 0.75775,0.003 1.521663,-7.9e-4 2.269201,0.1404 0.782852,0.19231 1.463331,0.53385 1.989193,1.16566 0.558721,0.6382 1.074277,1.3143 1.651114,1.93529 0.179115,0.16203 0.448389,0.46972 0.706797,0.51696 0.05473,0.01 0.210775,-0.0625 0.163611,-0.033 -3.135289,1.96168 -4.972029,2.88509 -3.518226,2.15028 0.17676,-0.7092 -0.0562,-1.48623 -0.164041,-2.19117 -0.28411,-1.08765 -0.729615,-2.12335 -0.976101,-3.22201 -0.377862,-1.22997 -0.787398,-2.47523 -1.484506,-3.56582 -0.672938,-0.91793 -1.517388,-1.67433 -2.50444,-2.24712 -0.84836,-0.44859 -1.681107,-0.78295 -2.645225,-0.48303 -0.240321,0.0752 -0.925406,0.38899 -0.709543,0.25932 1.153353,-0.69281 4.662514,-2.68744 3.487306,-2.03238 -1.611048,0.89799 -3.079541,1.91754 -4.73192,2.67721 0,0 3.504901,-2.80358 3.504901,-2.80358 z"
         id="path839"
         style="fill:#00002b;fill-opacity:1;stroke:none;stroke-width:0.90200001;stroke-miterlimit:4;stroke-dasharray:none;stroke-opacity:1" />
      <path
         inkscape:connector-curvature="0"
         d="m 83.664167,205.45526 c 0.297373,1.65314 0.650351,3.2933 1.048248,4.92512 0.607533,2.26492 1.244925,4.52433 1.962859,6.75703 0.476676,1.39558 1.020315,2.76722 1.574289,4.13352 0.03424,0.066 0.195527,0.43338 0.313912,0.50962 0.02069,0.0133 0.08367,-0.0516 0.06182,-0.0403 -1.287092,0.66513 -2.53977,1.40062 -3.857861,2.00199 -0.09193,0.0419 0.08293,-0.18688 0.09834,-0.28675 0.0278,-0.1801 0.02013,-0.36391 0.03019,-0.54587 -0.0624,-1.97787 -0.139575,-3.95525 -0.195826,-5.9334 -0.02117,-1.70199 -0.126537,-3.40546 -0.05333,-5.10704 0.06689,-1.19653 0.499298,-2.28366 0.945039,-3.3759 0.845351,-1.83745 3.311805,-4.16321 5.281475,-3.07302 0.977881,0.84138 1.604314,1.98653 2.347986,3.02096 1.066379,1.44441 1.780657,3.07759 2.30052,4.78571 0.341234,1.30776 0.71577,2.60248 1.176939,3.87288 0.330491,0.69299 0.719862,1.34954 1.016518,2.05846 0.100251,0.26537 0.16578,0.53854 0.21985,0.81604 0,0 -3.954719,2.09984 -3.954719,2.09984 v 0 c -0.03594,-0.25157 -0.07809,-0.50155 -0.160853,-0.74308 -0.268616,-0.72892 -0.688697,-1.37838 -0.983441,-2.09654 -0.435281,-1.29306 -0.783034,-2.60726 -1.116933,-3.92999 -0.481602,-1.67225 -1.177033,-3.25985 -2.244677,-4.64845 -0.698064,-0.95867 -1.298033,-2.07807 -2.31003,-2.74405 -1.271823,-0.19466 -5.471157,2.99911 3.163671,-2.07863 0.356126,-0.20942 -1.048382,0.6567 -0.721111,0.80597 -0.434541,1.06873 -0.963769,2.09372 -1.053349,3.26971 -0.139711,1.69848 -0.02708,3.41007 -0.04089,5.11241 0.04271,1.96322 0.112525,3.92666 0.301861,5.8821 0.02201,0.25176 0.09712,0.94464 0.04488,0.97985 -3.092892,2.08475 -3.56434,3.65062 -4.462063,1.53551 -0.530526,-1.39263 -1.003485,-2.80765 -1.484315,-4.21815 -0.690488,-2.25188 -1.29509,-4.52987 -1.946656,-6.79321 -0.423593,-1.61147 -0.798872,-3.23792 -1.25454,-4.83931 0,0 3.952197,-2.11303 3.952197,-2.11303 z"
         id="path841"
         style="fill:#00002b;fill-opacity:1;stroke:none;stroke-width:0.90200001;stroke-miterlimit:4;stroke-dasharray:none;stroke-opacity:1" />
      <path
         inkscape:connector-curvature="0"
         d="m 109.50594,211.6129 c 0.1131,-1.20617 -0.20863,-2.31231 -0.86845,-3.31019 -0.96938,-1.26213 -2.37501,-1.72882 -3.87174,-2.04086 -0.66141,-0.0661 -1.35494,-0.0704 -1.98615,0.17667 -0.18816,0.0736 -0.71001,0.38616 -0.53346,0.28788 3.45455,-1.9231 4.13164,-2.66568 2.81012,-1.36729 -0.99736,1.40514 -1.1816,2.60844 -0.98508,4.2916 0.39609,1.83039 1.47612,3.26976 2.94278,4.38256 0.48078,0.27287 1.0047,0.61604 1.57531,0.6686 1.03182,0.095 5.67596,-2.90706 -2.35652,1.5761 1.06094,-0.71481 1.66841,-1.83655 2.27979,-2.92239 0.50806,-1.64155 3.8962,-5.1009 4.55394,-2.74645 0.0437,0.15647 0.013,0.32466 0.0195,0.48699 0.0515,2.67905 0.36194,5.34278 0.58516,8.01084 0.12407,2.41077 0.18046,4.85552 -0.27236,7.23913 -0.23033,1.21248 -0.51362,2.06088 -0.86264,3.23571 -0.67175,2.45692 -1.93855,4.60636 -3.48336,6.60137 -1.84817,2.08193 -4.35276,4.26569 -7.10717,4.80339 -0.2067,-0.031 -0.42012,-0.0322 -0.62011,-0.093 -1.707868,-0.51899 -2.980112,-2.10642 -4.089422,-3.39918 -1.010955,-1.43861 -2.147597,-3.17461 -1.668267,-5.03074 0.09181,-0.35551 0.276939,-0.68012 0.415409,-1.02018 0.266642,-0.34919 0.503256,-0.7235 0.799925,-1.04757 1.428737,-1.56067 3.320875,-2.71718 5.134575,-3.76918 1.6123,-0.93517 3.23421,-1.85367 4.85132,-2.78051 3.11036,-1.75638 -0.97568,0.59184 -1.47954,0.85888 -0.28758,0.15242 0.54984,-0.34903 0.81492,-0.53788 0.56552,-0.40292 1.05365,-0.85983 1.52125,-1.36889 0.614,-0.74479 1.034,-1.6139 1.63782,-2.36665 0.80191,-0.84461 1.73159,-1.55373 2.58657,-2.34412 0.4929,-0.51168 1.18992,-1.09406 1.19944,-1.8665 0,0 3.96789,-2.06587 3.96789,-2.06587 v 0 c 0.13384,0.91238 -0.47292,1.64797 -1.09162,2.2561 -0.82828,0.80968 -1.74457,1.51572 -2.59236,2.30194 -0.67642,0.71044 -1.07751,1.59192 -1.65755,2.37474 -2.091,2.5222 -5.44136,3.7437 -8.16821,5.39191 0.76507,-0.45029 1.53023,-0.90043 2.29521,-1.35086 0.45686,-0.26902 -0.91933,0.52871 -1.37086,0.80658 -1.67409,1.03026 -3.33312,2.15239 -4.549025,3.72386 -0.149117,0.30064 -0.339482,0.58415 -0.447353,0.90193 -0.583977,1.72037 0.494385,3.39548 1.436358,4.74148 0.99599,1.1474 2.39974,2.81691 4.0257,3.02395 0.18071,0.023 0.36372,-0.0211 0.54558,-0.0316 1.6102,-0.61687 0.86512,-0.36075 -2.79425,1.73592 -0.19118,0.10954 0.37533,-0.23192 0.55253,-0.36289 0.70531,-0.52129 1.30595,-1.16413 1.90616,-1.79862 1.60174,-1.95417 2.94495,-4.0669 3.67347,-6.51319 0.37004,-1.16978 0.65919,-1.98616 0.91382,-3.19423 0.49539,-2.35035 0.45832,-4.76548 0.31815,-7.15083 -0.24164,-2.63151 -0.58232,-5.25174 -0.86529,-7.87866 -0.011,-0.12735 -0.10438,-0.27611 -0.0329,-0.38205 0.0459,-0.0679 0.10016,0.21443 0.1723,0.17549 1.28643,-0.6944 2.48188,-1.54608 3.74145,-2.28809 0.0587,-0.0346 -0.0928,0.10114 -0.12812,0.15944 -0.10123,0.16697 -0.29198,0.60822 -0.35924,0.75747 -0.62051,1.11996 -1.24306,2.27355 -2.20917,3.13777 -3.3944,1.93693 -4.13505,3.62886 -7.00841,1.65758 -1.47384,-1.24786 -2.60762,-2.77968 -3.07381,-4.68513 -0.296141,-1.82927 -0.14464,-2.976 0.76437,-4.60291 1.39466,-1.80048 0.3918,-0.63716 4.67373,-3.06347 0.79336,-0.44956 1.80575,-0.32985 2.65949,-0.21757 1.57639,0.39574 3.04787,0.97058 4.06402,2.31219 0.69393,1.05172 1.07954,2.2127 1.0884,3.48445 0,0 -3.99407,2.03508 -3.99407,2.03508 z"
         id="path843"
         style="fill:#00002b;fill-opacity:1;stroke:none;stroke-width:0.90200001;stroke-miterlimit:4;stroke-dasharray:none;stroke-opacity:1" />
      <path
         inkscape:connector-curvature="0"
         d="m 117.7362,203.18461 c 0.8441,2.30886 1.75148,4.59084 2.70004,6.85871 0.91475,2.10177 1.89939,4.20907 3.33954,6.00771 0.25115,0.17861 0.46283,0.41797 0.80718,0.37539 0.12339,-0.0153 0.44464,-0.22242 0.33606,-0.16183 -1.13003,0.63052 -2.24925,1.28195 -3.40095,1.87196 -0.17876,0.0916 0.32504,-0.23734 0.47375,-0.37235 0.17901,-0.16252 0.33823,-0.34559 0.50734,-0.51839 1.10265,-1.18337 1.7746,-2.62509 2.19748,-4.16793 0.34513,-1.48323 0.0126,-2.88021 -0.41157,-4.29724 -0.27786,-1.03895 -0.65646,-2.0403 -1.16574,-2.98673 -0.19193,-0.34518 -0.34055,-0.71131 -0.5056,-1.06953 0,0 3.86861,-2.18796 3.86861,-2.18796 v 0 c 0.16406,0.35059 0.30582,0.71023 0.48735,1.05243 0.51465,0.9794 0.86236,2.02935 1.14517,3.0974 0.44809,1.4851 0.81418,2.95194 0.50746,4.51523 -0.38977,1.5913 -1.02481,3.0944 -2.09572,4.35692 -1.58623,1.82857 -1.96647,1.78579 -5.15586,3.37655 -0.13768,0.0687 -0.31234,0.0139 -0.46081,-0.0264 -0.41525,-0.11283 -0.57534,-0.34426 -0.88067,-0.63205 -1.36185,-1.9029 -2.29598,-4.0586 -3.22935,-6.19427 -0.94686,-2.24237 -1.85683,-4.51127 -2.94341,-6.68856 0,0 3.8797,-2.20904 3.8797,-2.20904 z"
         id="path845"
         style="fill:#00002b;fill-opacity:1;stroke:none;stroke-width:0.90200001;stroke-miterlimit:4;stroke-dasharray:none;stroke-opacity:1" />
      <path
         inkscape:connector-curvature="0"
         d="m 135.10319,205.14263 c 0.93277,0.41511 1.98086,0.46666 2.9856,0.53977 0.56752,0.0665 1.14256,0.0109 1.65747,-0.25774 0.16149,-0.0843 0.61237,-0.39281 0.45053,-0.30923 -3.43034,1.77159 -4.10495,2.83873 -2.95234,1.27942 0.79416,-1.28027 1.09891,-2.75499 1.29218,-4.2277 0.0687,-1.07327 -0.19636,-1.35488 -1.19787,-1.60366 -1.39173,-0.21582 -2.79878,-0.25503 -4.18682,-0.0161 -0.51551,0.15026 -0.78453,0.20182 -1.26242,0.44427 -0.17368,0.0881 -0.66823,0.40014 -0.49769,0.30607 5.51966,-3.0447 3.74766,-2.55848 2.72549,-1.17722 -0.79951,1.44021 -0.86974,3.12394 -0.97503,4.73107 -0.0128,1.51258 -0.24638,3.12682 0.27999,4.58745 0.0854,0.23694 0.21468,0.45568 0.32202,0.68352 0.91747,1.32418 2.38824,1.87001 3.89794,2.20703 0.6958,0.096 1.41002,0.25844 2.11756,0.16481 1.19163,-0.1577 5.16618,-2.6628 -2.02313,1.34499 0.83564,-0.66339 1.34121,-1.62597 1.94618,-2.48667 0.32395,-0.43102 0.5951,-0.89783 0.89299,-1.34683 0,0 4.1076,-1.76068 4.1076,-1.76068 v 0 c -0.37406,0.40512 -0.59874,0.91207 -0.92381,1.35493 -0.69758,0.84129 -1.17588,1.84431 -1.9362,2.63478 -3.62327,2.12906 -4.17385,3.32927 -7.76154,2.56768 -1.61711,-0.4244 -3.14434,-1.09462 -4.10292,-2.53834 -0.1166,-0.25225 -0.25621,-0.49508 -0.34979,-0.75674 -0.54011,-1.51024 -0.32714,-3.16177 -0.30624,-4.72665 0.0762,-1.63969 0.10655,-3.34708 0.77904,-4.873 0.91918,-1.86462 2.72605,-2.18486 4.73615,-3.36994 0.5578,-0.32886 1.20054,-0.48185 1.82784,-0.6069 1.44204,-0.17186 2.91178,-0.12862 4.34076,0.14046 1.14678,0.39268 1.57128,0.91213 1.48454,2.15676 -0.20888,1.51508 -0.51113,3.03519 -1.2146,4.40803 -1.15812,1.98238 -0.2338,0.60263 -4.48695,3.24817 -0.67385,0.41915 -1.48858,0.42165 -2.24877,0.3464 -1.07187,-0.0954 -2.17138,-0.17827 -3.1672,-0.62119 0,0 3.74944,-2.467 3.74944,-2.467 z"
         id="path847"
         style="fill:#00002b;fill-opacity:1;stroke:none;stroke-width:0.90200001;stroke-miterlimit:4;stroke-dasharray:none;stroke-opacity:1" />
    </g>
  </g>
</svg>
