<?xml version="1.0" encoding="UTF-8" standalone="no"?>
<!-- Created with Inkscape (http://www.inkscape.org/) -->

<svg
   xmlns:dc="http://purl.org/dc/elements/1.1/"
   xmlns:cc="http://creativecommons.org/ns#"
   xmlns:rdf="http://www.w3.org/1999/02/22-rdf-syntax-ns#"
   xmlns:svg="http://www.w3.org/2000/svg"
   xmlns="http://www.w3.org/2000/svg"
   xmlns:sodipodi="http://sodipodi.sourceforge.net/DTD/sodipodi-0.dtd"
   xmlns:inkscape="http://www.inkscape.org/namespaces/inkscape"
   width="210mm"
   height="297mm"
   viewBox="0 0 210 297"
   version="1.1"
   id="svg8"
   inkscape:version="0.91 r13725"
   sodipodi:docname="Soro fisiológico.svg">
  <defs
     id="defs2">
    <inkscape:perspective
       sodipodi:type="inkscape:persp3d"
       inkscape:vp_x="0 : 148.5 : 1"
       inkscape:vp_y="0 : 1000 : 0"
       inkscape:vp_z="210 : 148.5 : 1"
       inkscape:persp3d-origin="105 : 99 : 1"
       id="perspective817" />
  </defs>
  <sodipodi:namedview
     id="base"
     pagecolor="#ffffff"
     bordercolor="#666666"
     borderopacity="1.0"
     inkscape:pageopacity="0.0"
     inkscape:pageshadow="2"
     inkscape:zoom="0.98994949"
     inkscape:cx="252.08554"
     inkscape:cy="499.62833"
     inkscape:document-units="mm"
     inkscape:current-layer="g3354"
     showgrid="false"
     inkscape:window-width="1366"
     inkscape:window-height="719"
     inkscape:window-x="0"
     inkscape:window-y="25"
     inkscape:window-maximized="1" />
  <metadata
     id="metadata5">
    <rdf:RDF>
      <cc:Work
         rdf:about="">
        <dc:format>image/svg+xml</dc:format>
        <dc:type
           rdf:resource="http://purl.org/dc/dcmitype/StillImage" />
        <dc:title />
      </cc:Work>
    </rdf:RDF>
  </metadata>
  <g
     inkscape:label="Layer 1"
     inkscape:groupmode="layer"
     id="layer1">
    <g
       id="g3354">
      <g
         id="g3378"
         style="fill:#00002b;fill-opacity:1">
        <path
           style="fill:#00002b;fill-opacity:1;stroke:none;stroke-width:0.90200001;stroke-miterlimit:4;stroke-dasharray:none;stroke-opacity:1"
           id="path835"
           d="m 55.707822,149.69601 c -1.1855,-0.6313 -2.428113,-1.13589 -3.685874,-1.60196 -1.710851,-0.60458 -3.517172,-0.78993 -5.316048,-0.89977 -1.472821,-0.0421 -2.95099,-0.10924 -4.422491,-0.0111 -0.678749,0.0609 -1.395744,0.12669 -2.011358,0.45019 -0.129317,0.0679 -0.494162,0.3111 -0.365744,0.24146 0.774375,-0.41992 1.536536,-0.86197 2.304804,-1.29296 -0.893215,0.67597 -1.065427,1.71287 -1.200523,2.75827 -0.06357,0.97999 0.05066,2.02351 0.60021,2.86885 0.100367,0.15439 0.234868,0.28368 0.352301,0.42552 0.983136,0.88016 2.220872,1.43136 3.412696,1.97281 1.52745,0.64774 3.051744,1.30074 4.557297,1.99786 1.436344,0.65243 2.665182,1.60871 3.759652,2.73036 1.1302,1.18601 1.952406,2.57328 2.486216,4.11427 0.283488,1.14217 0.599466,2.38091 0.367853,3.56501 -0.04351,0.22242 -0.131212,0.43387 -0.196816,0.65081 -0.468132,1.00491 -1.307986,1.69585 -2.268117,2.21483 -3.613044,1.95298 -2.282991,1.53554 -4.593762,2.09923 -1.681366,0.31207 -3.398975,0.46563 -5.109405,0.37026 -1.0092,-0.0563 -1.486485,-0.15625 -2.470365,-0.31192 -1.736164,-0.342 -3.36238,-1.02052 -4.929391,-1.82178 -0.66658,-0.3147 -1.237572,-0.75518 -1.783733,-1.24168 0,0 2.628754,-1.63158 2.628754,-1.63158 v 0 c 0.522661,0.46696 1.075944,0.88479 1.706666,1.19958 1.514814,0.79518 3.080983,1.49072 4.774189,1.8114 1.03074,0.16471 1.357069,0.24546 2.421959,0.29385 1.709642,0.0777 3.424896,-0.0979 5.095409,-0.45819 1.939997,-0.55578 1.036815,-0.41605 -0.536622,0.76731 -0.236363,0.17777 0.52439,-0.27531 0.773088,-0.43537 0.629714,-0.40527 1.163116,-0.90064 1.526937,-1.56085 0.07709,-0.19807 0.178649,-0.38829 0.231262,-0.59421 0.289025,-1.13122 -0.04901,-2.35178 -0.288237,-3.45475 -0.504913,-1.50767 -1.29439,-2.85881 -2.421472,-3.99405 -1.081982,-1.08283 -2.275957,-2.02168 -3.685244,-2.64953 -1.507225,-0.69883 -3.036422,-1.34576 -4.569002,-1.98705 -1.238054,-0.55955 -2.532854,-1.118 -3.524184,-2.0701 -0.12764,-0.16102 -0.271986,-0.3101 -0.382918,-0.48305 -0.57427,-0.89535 -0.721934,-1.99174 -0.67659,-3.03094 0.112519,-1.07565 0.210952,-2.19294 1.055185,-2.96807 2.254633,-1.36077 3.044611,-2.25991 5.41909,-2.35214 1.469879,-0.05 2.943391,-0.0169 4.41166,0.0635 1.811734,0.13817 3.627501,0.3658 5.348292,0.98058 1.305634,0.47201 2.593737,0.98763 3.860388,1.55662 0,0 -2.656012,1.71849 -2.656012,1.71849 z"
           inkscape:connector-curvature="0" />
        <path
           style="fill:#00002b;fill-opacity:1;stroke:none;stroke-width:0.90200001;stroke-miterlimit:4;stroke-dasharray:none;stroke-opacity:1"
           id="path837"
           d="m 63.970352,162.77802 c 0.100536,0.79387 0.127262,1.59089 0.281704,2.37701 0.198512,0.91022 0.690478,1.63856 1.296654,2.32251 0.554101,0.5583 1.232466,0.97278 1.930919,1.32514 0.607047,0.33838 1.288089,0.53135 1.961599,0.69053 0.742392,0.14565 1.486144,0.20597 2.227078,0.0411 0.999836,-0.41498 2.767475,-1.38229 -1.728743,1.0393 -0.09097,0.049 0.167201,-0.12275 0.240504,-0.19557 0.176839,-0.17568 0.237908,-0.30811 0.366366,-0.52121 0.297656,-0.52733 0.40481,-1.11456 0.460663,-1.7091 0.03654,-0.53785 0.03042,-1.07739 0.02839,-1.61612 0.03192,-0.54068 -0.0089,-1.0456 -0.177522,-1.55904 -0.230423,-0.51591 -0.512387,-1.00829 -0.789379,-1.50068 -0.256164,-0.37704 -0.678114,-0.59102 -1.078648,-0.78484 -0.539578,-0.28285 -1.042411,-0.62707 -1.564069,-0.93983 -0.527679,-0.2565 -1.041564,-0.54247 -1.595257,-0.73987 -0.510614,-0.15951 -1.046673,-0.18008 -1.577097,-0.19425 -0.33184,0.0319 -0.704249,-0.0829 -1.023564,0.0478 -0.06258,0.0256 -0.229489,0.14294 -0.170469,0.10994 0.855898,-0.47845 1.707619,-0.96433 2.561429,-1.4465 -0.254656,0.2287 -0.542115,0.42485 -0.724292,0.71939 -0.111119,0.29622 -0.234111,0.59028 -0.385511,0.86858 -0.210627,0.38586 -0.500681,0.71299 -0.671123,1.12033 -0.189066,0.44282 -0.30266,0.90503 -0.373468,1.37951 -0.04059,0.4523 0.1782,0.82936 0.384813,1.21253 0.573873,0.8807 1.165225,1.74962 1.748885,2.62415 0.119835,0.1857 0.239671,0.3714 0.359506,0.5571 0,0 -2.635623,1.53944 -2.635623,1.53944 v 0 c -0.11915,-0.18388 -0.2383,-0.36777 -0.35745,-0.55165 -0.596929,-0.87802 -1.215096,-1.73975 -1.836131,-2.60058 -0.258633,-0.43286 -0.487254,-0.86829 -0.494504,-1.38629 0.0596,-0.49001 0.152979,-0.97964 0.3469,-1.43618 0.125836,-0.44455 0.365739,-0.79136 0.641303,-1.15726 0.13844,-0.28066 0.300466,-0.54987 0.394404,-0.84689 0.113614,-0.38787 0.370109,-0.60508 0.669686,-0.85833 2.455257,-1.45432 2.175312,-1.82587 4.116393,-1.7333 0.553667,0.0288 1.109848,0.0798 1.632043,0.28112 0.556725,0.22809 1.093499,0.50349 1.621549,0.79124 0.511088,0.31901 1.021397,0.64092 1.559967,0.91254 0.45138,0.23865 0.911011,0.48965 1.179053,0.94357 0.278357,0.51372 0.559689,1.02684 0.811847,1.55342 0.185777,0.54398 0.277236,1.0676 0.227415,1.64616 0.0024,0.54738 0.0087,1.09526 -0.01929,1.64216 -0.04597,0.63084 -0.136488,1.25915 -0.415174,1.83533 -0.03709,0.0718 -0.277082,0.54269 -0.324583,0.60846 -0.874421,1.21071 -2.488062,1.7976 -3.89731,2.21944 -0.774477,0.0994 -1.54959,0.0333 -2.310492,-0.14245 -0.689896,-0.18577 -1.385784,-0.38711 -2.006299,-0.75064 -0.712917,-0.39538 -1.404551,-0.84041 -1.970262,-1.43476 -0.629324,-0.72939 -1.14958,-1.50798 -1.372544,-2.46218 -0.171127,-0.7764 -0.194532,-1.56653 -0.3449,-2.34616 0,0 2.794627,-1.49413 2.794627,-1.49413 z"
           inkscape:connector-curvature="0" />
        <path
           style="fill:#00002b;fill-opacity:1;stroke:none;stroke-width:0.90200001;stroke-miterlimit:4;stroke-dasharray:none;stroke-opacity:1"
           id="path839"
           d="m 76.545651,158.96618 c 0.328104,0.8054 0.641868,1.61676 0.980874,2.41802 0.475739,1.16765 0.755734,2.39214 1.011052,3.62234 0.194604,1.03111 0.507825,2.02449 0.9272,2.98384 0.06907,0.16751 0.199459,0.49349 0.283277,0.66039 0.123568,0.24605 0.1935,0.31255 0.217683,0.2719 0.02577,-0.0433 0.01119,-0.17082 -0.03341,-0.1474 -0.922078,0.48403 -1.796891,1.05321 -2.695337,1.57982 -0.131471,-1.08447 -0.473498,-2.13107 -0.760526,-3.18152 -0.314936,-1.1538 -0.479632,-2.33967 -0.584102,-3.52881 -0.08881,-0.68679 0.03225,-1.34832 0.26421,-1.99212 0.731113,-1.37085 2.375765,-2.20886 3.904612,-2.39983 0.513064,0.0248 0.965669,0.22937 1.367473,0.53792 0.411186,0.27298 0.773364,0.58521 1.003739,1.0253 0,0 -2.740792,1.56544 -2.740792,1.56544 v 0 c -0.201211,-0.39567 -0.562094,-0.65265 -0.921113,-0.9011 -0.366278,-0.24096 -0.775763,-0.40121 -1.221589,-0.33107 -1.090388,0.27274 -2.242809,1.21787 2.012072,-1.30664 0.06946,-0.0412 -0.147222,0.0683 -0.213718,0.11416 -0.191259,0.13186 -0.207893,0.19059 -0.342907,0.37904 -0.265288,0.59516 -0.41488,1.22566 -0.358326,1.88176 0.05995,1.18101 0.190794,2.35952 0.499565,3.50455 0.290852,1.05293 0.638861,2.08953 0.90102,3.15045 -2.656271,1.8356 -2.502331,2.73318 -3.293649,0.63887 -0.403712,-0.99037 -0.711981,-2.0087 -0.913863,-3.06107 -0.241282,-1.21085 -0.514792,-2.41635 -0.993492,-3.55957 -0.346625,-0.7867 -0.663353,-1.59137 -1.057902,-2.35434 0,0 2.757948,-1.57033 2.757949,-1.57033 z"
           inkscape:connector-curvature="0" />
        <path
           style="fill:#00002b;fill-opacity:1;stroke:none;stroke-width:0.90200001;stroke-miterlimit:4;stroke-dasharray:none;stroke-opacity:1"
           id="path841"
           d="m 85.351915,160.63986 c 0.192138,1.10546 0.71964,2.10792 1.212527,3.10289 0.554808,1.09645 1.239732,2.10398 2.015604,3.05205 0.374775,0.47678 0.844037,0.66511 1.4262,0.72673 0.517146,0.0302 1.035661,0.0148 1.553302,0.008 0.09257,0.10162 0.818637,-0.348 0.724308,-0.29561 -3.971235,2.20555 -2.867843,2.01516 -2.189544,1.04169 0.263718,-0.46618 0.441098,-0.98047 0.572278,-1.49852 0.160369,-0.52361 0.286332,-1.05205 0.353412,-1.59555 0.110299,-0.56819 -0.115377,-1.03175 -0.343755,-1.53183 -0.256884,-0.61343 -0.531513,-1.21876 -0.804166,-1.82525 -0.250624,-0.56304 -0.627513,-1.05215 -0.987809,-1.54674 -0.191648,-0.41247 -0.519194,-0.64626 -0.901165,-0.86333 -0.427533,-0.15617 -0.857838,-0.29912 -1.306799,-0.38263 -0.519324,-0.0797 -1.04589,-0.085 -1.570085,-0.0906 -0.320931,0.0161 -0.747117,0.0876 -1.007173,0.29203 3.368698,-2.0356 2.945923,-2.19949 2.273178,-0.99312 -0.117681,0.22776 -0.292642,0.42553 -0.471157,0.60691 -0.199313,0.27957 -0.33524,0.60946 -0.435081,0.93719 -0.104111,0.42009 -0.123483,0.85381 -0.136874,1.28444 -0.01082,0.47914 -0.03293,0.95469 0.05848,1.42676 0.146722,0.31147 0.256746,0.63582 0.375047,0.95853 0,0 -2.754776,1.53335 -2.754776,1.53335 v 0 c -0.134133,-0.33492 -0.243607,-0.67843 -0.401685,-1.00402 -0.103743,-0.49334 -0.102378,-0.98609 -0.08907,-1.4893 0.0051,-0.45129 0.01714,-0.90272 0.102357,-1.34755 0.07727,-0.3699 0.221088,-0.6987 0.363567,-1.04567 0.129241,-0.21391 0.307729,-0.38086 0.497199,-0.55062 0.596623,-1.3663 0.784985,-1.18844 3.097673,-2.29683 0.354616,-0.0948 0.701276,-0.20465 1.075248,-0.15605 0.537562,0.0122 1.078024,0.0294 1.606503,0.13804 0.471098,0.10957 0.944919,0.24678 1.377915,0.46447 0.397161,0.25781 0.750689,0.53566 0.952537,0.98021 0.364223,0.5174 0.746035,1.02938 1.011005,1.60734 0.265724,0.60812 0.537982,1.21351 0.808006,1.81956 0.246163,0.54282 0.527121,1.05835 0.427704,1.67832 -0.05456,0.5545 -0.150873,1.1022 -0.338542,1.62903 -0.115118,0.54948 -0.303649,1.07775 -0.524733,1.59284 -0.004,0.007 -0.25664,0.45249 -0.265319,0.45816 -1.046744,0.68328 -2.297295,1.82409 -3.690739,1.91568 -0.528653,0.006 -1.060632,0.0221 -1.585944,-0.049 -0.63042,-0.12657 -1.132226,-0.41692 -1.515922,-0.94848 -0.746572,-0.99319 -1.415534,-2.03532 -1.991122,-3.13857 -0.506701,-1.01315 -1.046266,-2.01971 -1.367208,-3.11127 0,0 2.794627,-1.49414 2.794627,-1.49414 z"
           inkscape:connector-curvature="0" />
        <path
           style="fill:#00002b;fill-opacity:1;stroke:none;stroke-width:0.90200001;stroke-miterlimit:4;stroke-dasharray:none;stroke-opacity:1"
           id="path843"
           d="m 43.640703,181.24717 c -0.05876,1.27574 -0.06751,2.55344 -0.07503,3.83034 -0.01585,1.87336 -0.0077,3.74676 -0.0016,5.62014 0.0021,1.70475 0.0492,3.40724 -0.09727,5.10706 -0.242999,2.00553 -0.728287,3.96859 -1.272418,5.91033 -0.400886,1.42868 -0.844579,2.84745 -1.647307,4.10409 -0.314785,0.47217 -0.692414,0.89673 -1.006086,1.36902 -0.153709,0.22052 -0.07682,0.10987 -0.230648,0.33193 0,0 -2.908014,1.23978 -2.908014,1.23978 v 0 c 0.180425,-0.18819 0.0986,-0.0829 0.241507,-0.31888 0.335608,-0.4178 -0.07568,0.11211 0.256852,-0.38211 0.237437,-0.35288 0.571788,-0.63877 0.802724,-0.99842 0.142365,-0.19785 0.459973,-0.63116 0.572442,-0.82506 0.585579,-1.00954 0.888857,-2.15495 1.255165,-3.25305 0.529386,-1.91968 1.011037,-3.85368 1.243227,-5.83605 0.15939,-1.69234 0.113273,-3.3895 0.118877,-5.08773 0.0061,-1.87282 0.01426,-3.74568 -0.0016,-5.61849 -0.0074,-1.2514 -0.01527,-2.5037 -0.07503,-3.75388 0,0 2.824236,-1.43902 2.824236,-1.43902 z"
           inkscape:connector-curvature="0" />
        <path
           style="fill:#00002b;fill-opacity:1;stroke:none;stroke-width:0.90200001;stroke-miterlimit:4;stroke-dasharray:none;stroke-opacity:1"
           id="path845"
           d="m 44.216634,180.99855 c 0.826654,0.62504 1.750137,1.09024 2.713919,1.46233 1.294117,0.44691 2.664875,0.52296 4.020674,0.57762 1.650286,0.12836 3.243257,-0.24174 4.803545,-0.73592 1.607177,-0.53786 3.15881,-1.24061 4.628848,-2.08257 0,0 -2.372894,1.91551 -2.372894,1.91551 v 0 c -1.477261,0.79934 -3.021081,1.48099 -4.621157,1.99571 -1.59947,0.47741 -3.221895,0.8225 -4.903234,0.68208 -1.383679,-0.0625 -2.778694,-0.16448 -4.089215,-0.65286 -0.985671,-0.39344 -1.911226,-0.89187 -2.831746,-1.41746 0,0 2.65126,-1.74444 2.65126,-1.74444 z"
           inkscape:connector-curvature="0" />
        <path
           style="fill:#00002b;fill-opacity:1;stroke:none;stroke-width:0.90200001;stroke-miterlimit:4;stroke-dasharray:none;stroke-opacity:1"
           id="path847"
           d="m 45.320058,194.1397 c 1.153096,0.59704 2.348365,1.09053 3.573431,1.51778 1.437306,0.4456 2.936721,0.68541 4.440996,0.68348 0.953919,-0.0881 1.824654,-0.48799 2.657584,-0.93729 0.246181,-0.1328 0.971674,-0.5547 0.729258,-0.41515 -0.615686,0.35443 -1.232713,0.70652 -1.849067,1.05978 1.113557,-0.61857 2.151758,-1.35965 3.051619,-2.26146 0.402341,-0.43326 0.697455,-0.94793 0.952463,-1.4774 0.24248,-0.31269 0.434197,-0.64773 0.625404,-0.9933 0.09761,-0.17879 0.15472,-0.37508 0.220487,-0.56677 0,0 2.868936,-1.32368 2.868936,-1.32368 v 0 c -0.09427,0.19278 -0.136274,0.38946 -0.207169,0.59169 -0.172744,0.35469 -0.323808,0.73759 -0.629637,1.00084 -0.318262,0.52715 -0.537729,1.1216 -0.96992,1.58003 -0.906844,0.94503 -1.956546,1.7338 -3.103062,2.3696 -1.100297,0.63692 -2.1979,1.27852 -3.300887,1.91076 -1.090803,0.62526 -2.240314,1.20309 -3.520778,1.25335 -1.515108,-0.058 -3.019158,-0.31845 -4.463463,-0.78516 -1.26633,-0.44166 -2.500204,-0.95984 -3.732207,-1.48861 0,0 2.656012,-1.71849 2.656012,-1.71849 z"
           inkscape:connector-curvature="0" />
        <path
           style="fill:#00002b;fill-opacity:1;stroke:none;stroke-width:0.90200001;stroke-miterlimit:4;stroke-dasharray:none;stroke-opacity:1"
           id="path849"
           d="m 61.030037,201.75902 c 0.120396,0.72772 0.158745,1.46515 0.188653,2.2011 0.04049,0.84297 0.03124,1.68692 0.03483,2.53052 -0.0073,2.45083 0.267973,1.44958 -2.821728,3.37007 0,0 2.488409,-1.99315 2.488409,-1.99315 v 0 c -4.452107,2.79529 -2.687516,2.45579 -2.479143,1.25334 0.07016,-0.40486 0.04308,-0.81135 0.04573,-1.22001 0.0011,-0.83983 -0.0085,-1.67978 -0.02886,-2.51936 -0.03107,-0.70664 -0.05626,-1.42089 -0.221808,-2.11162 0,0 2.793926,-1.51089 2.793926,-1.51089 z"
           inkscape:connector-curvature="0" />
        <path
           style="fill:#00002b;fill-opacity:1;stroke:none;stroke-width:0.90200001;stroke-miterlimit:4;stroke-dasharray:none;stroke-opacity:1"
           id="path851"
           d="m 59.447133,197.91115 c 0.346326,0.30927 0.792065,0.46102 1.240038,0.54929 0.443196,0.0282 0.931434,0.14875 1.362517,0.01 0.959139,-0.45134 2.345711,-1.23617 -2.286653,1.31753 -0.04593,0.0253 0.07733,-0.0722 0.106447,-0.11586 0.07407,-0.11097 0.08964,-0.20182 0.125452,-0.32708 0.07123,-0.27544 0.0856,-0.51316 -0.113919,-0.72779 -0.239085,-0.11082 -0.515956,-0.11011 -0.77525,-0.11583 -0.305319,-0.001 -0.610648,4e-5 -0.915935,0.005 -0.115871,0.0576 -0.402431,-0.0756 -0.503851,0.007 -0.0304,0.1188 0.0021,0.0726 -0.09357,0.1414 0.883473,-0.51023 1.766943,-1.02045 2.650416,-1.53068 -0.02732,0.0598 -0.09748,0.0225 -0.136419,0.0517 -0.07719,0.0577 -0.126206,0.15465 -0.210405,0.21493 -0.01923,0.0236 -0.03849,0.0473 -0.05774,0.0709 0,0 -2.911891,1.28734 -2.911891,1.28734 v 0 c 0.01558,-0.0332 0.03118,-0.0664 0.04678,-0.0996 0.059,-0.1336 0.136176,-0.11693 0.202346,-0.21968 0.02146,-0.0333 0.0095,-0.0811 0.02985,-0.11506 0.01326,-0.0221 0.04306,-0.0285 0.06459,-0.0427 0.933265,-0.54027 1.866527,-1.08053 2.799792,-1.6208 0.195749,-0.0874 0.469283,0.0453 0.685434,-0.0107 0.309015,5.3e-4 0.618673,-0.008 0.927156,0.0133 0.332978,0.0315 0.671288,0.0855 0.921425,0.32843 0.237516,0.30419 0.322244,0.60944 0.242546,0.99333 -0.02275,0.11765 -0.04798,0.53089 -0.155705,0.60207 -1.1621,0.76787 -1.942137,1.58403 -3.16979,1.79375 -0.477113,0.0103 -0.959205,-0.0176 -1.426633,-0.11754 -0.491281,-0.13825 -0.962621,-0.34829 -1.354498,-0.68209 0,0 2.707471,-1.65914 2.707471,-1.65914 z"
           inkscape:connector-curvature="0" />
        <path
           style="fill:#00002b;fill-opacity:1;stroke:none;stroke-width:0.90200001;stroke-miterlimit:4;stroke-dasharray:none;stroke-opacity:1"
           id="path853"
           d="m 70.424542,200.64324 c -0.968878,-0.16769 -1.954207,-0.21108 -2.935084,-0.24962 -0.747474,-0.0287 -1.545839,-0.0146 -2.204947,0.3781 0.839827,-0.47545 1.671621,-0.96537 2.519484,-1.42633 0.05692,-0.0309 -0.100613,0.083 -0.141362,0.1334 -0.18728,0.23149 -0.209291,0.54589 -0.239252,0.82844 -0.02019,0.48606 0.218866,0.80087 0.5353,1.13542 0.484166,0.47855 0.978053,0.94715 1.465738,1.42213 0.529191,0.49954 1.052899,0.99195 1.412587,1.63006 0.223475,0.4734 0.359881,0.9673 0.02685,1.41304 -0.982382,1.06015 -2.378988,1.85739 -3.823348,1.94536 -0.483632,0.016 -0.96769,0.009 -1.451486,0.006 -0.508143,-0.028 -1.049787,0.10162 -1.505614,-0.16459 -0.243126,-0.26947 -0.176593,-0.3703 0.02016,-0.62802 0,0 2.94254,-1.13502 2.94254,-1.13502 v 0 c -0.172453,0.0129 -0.409646,-0.0373 -0.321122,0.0185 0.448852,0.14271 0.947526,0.0168 1.409943,0.0606 0.480529,2.5e-4 0.962901,0.008 1.441456,-0.0424 0.189163,-0.03 0.378944,-0.0612 0.557516,-0.13452 0.0633,-0.026 0.243174,-0.12528 0.184412,-0.0902 -0.375327,0.224 -3.5037,2.06218 -2.369179,1.39553 0.07971,-0.0784 0.184856,-0.1304 0.256344,-0.21638 0.204909,-0.24647 -0.0031,-0.62031 -0.0871,-0.86602 -0.331401,-0.61868 -0.848775,-1.07784 -1.35196,-1.55772 -0.494414,-0.47685 -0.997051,-0.94497 -1.491811,-1.42141 -0.376571,-0.39513 -0.651806,-0.79703 -0.667874,-1.36347 0.100361,-1.84893 0.941673,-1.80013 3.140879,-2.90177 0.721307,-0.25103 1.481413,-0.27423 2.239031,-0.21618 0.999646,0.0512 1.997591,0.12764 2.996168,0.18805 0,0 -2.55828,1.8587 -2.55828,1.8587 z"
           inkscape:connector-curvature="0" />
        <path
           style="fill:#00002b;fill-opacity:1;stroke:none;stroke-width:0.90200001;stroke-miterlimit:4;stroke-dasharray:none;stroke-opacity:1"
           id="path861"
           d="m 77.812298,198.94181 c -0.316447,0.77783 -0.493249,1.60333 -0.626633,2.42957 -0.142823,1.08551 -0.164648,2.18164 -0.168873,3.27495 5.29e-4,0.14208 0.0011,0.28415 0.0016,0.42622 0,0 -2.768867,1.40813 -2.768867,1.40813 v 0 c 0.0028,-0.14444 0.0055,-0.28888 0.0082,-0.43332 0.02598,-1.1066 0.04583,-2.21523 0.16397,-3.31678 0.104156,-0.83398 0.278829,-1.65318 0.516271,-2.45945 0,0 2.874309,-1.32932 2.874309,-1.32932 z"
           inkscape:connector-curvature="0" />
        <path
           style="fill:#00002b;fill-opacity:1;stroke:none;stroke-width:0.90200001;stroke-miterlimit:4;stroke-dasharray:none;stroke-opacity:1"
           id="path863"
           d="m 84.550106,200.73029 c 0.06572,0.7879 0.386921,1.49895 0.737047,2.19495 0.368549,0.74898 0.878459,1.33814 1.612207,1.73362 0.585036,0.24623 1.233641,0.32699 1.861484,0.24928 0.269719,-0.0317 0.550918,-0.11086 0.792903,-0.23882 0.06854,-0.0362 0.257948,-0.1716 0.190283,-0.13375 -2.543119,1.42253 -3.170655,2.17681 -2.388076,1.28062 0.278474,-0.59261 0.250346,-1.27635 0.2653,-1.91747 -0.01037,-0.70376 0.02278,-1.41076 -0.03448,-2.11268 -0.116835,-0.64747 -0.660972,-1.0173 -1.167191,-1.36769 -0.640842,-0.37277 -1.283203,-0.73482 -1.960833,-1.03703 -0.550886,-0.31163 -1.143436,-0.4904 -1.766839,-0.57412 -0.250307,-0.008 -0.515467,-0.0856 -0.760455,0.007 -0.06227,0.0236 -0.227463,0.13846 -0.169384,0.1059 2.254202,-1.2641 3.44274,-1.96796 2.454262,-1.38347 -0.360995,0.40108 -0.07767,0.94923 0.08221,1.37696 0.202663,0.52994 0.522274,1.00046 0.76826,1.50796 0.155633,0.33462 0.364781,0.64092 0.540592,0.96603 0.09697,0.12951 0.184097,0.25851 0.296576,0.37506 0,0 -2.708161,1.64179 -2.708161,1.64179 v 0 c -0.122579,-0.14143 -0.232259,-0.28838 -0.333917,-0.44589 -0.170704,-0.3333 -0.406374,-0.63064 -0.538785,-0.98241 -0.240104,-0.51948 -0.544562,-1.00838 -0.755007,-1.5432 -0.210732,-0.53861 -0.486103,-1.08506 -0.274936,-1.66913 0.784699,-1.40736 2.510838,-1.99533 3.969911,-1.76162 0.633815,0.12227 1.229294,0.34667 1.797162,0.65567 0.682918,0.3257 1.347866,0.68346 1.990928,1.08269 0.579996,0.40512 1.162725,0.86645 1.307232,1.59903 0.08019,0.71303 0.02952,1.43194 0.04078,2.14837 -0.0027,0.68263 0.01267,1.38177 -0.164436,2.04602 -0.434668,1.12967 -2.588802,2.07289 -3.996521,2.23167 -0.67674,0.006 -1.35573,-0.0771 -1.958287,-0.40759 -0.748744,-0.46896 -1.293032,-1.10136 -1.683485,-1.89786 -0.367914,-0.71025 -0.699836,-1.44214 -0.840973,-2.23587 0,0 2.794627,-1.49414 2.794627,-1.49414 z"
           inkscape:connector-curvature="0" />
        <path
           style="fill:#00002b;fill-opacity:1;stroke:none;stroke-width:0.90200001;stroke-miterlimit:4;stroke-dasharray:none;stroke-opacity:1"
           id="path865"
           d="m 94.421914,183.11806 c -0.09189,1.50948 -0.07912,3.01875 1.22e-4,4.52805 0.211738,2.54073 0.639587,5.05598 0.947126,7.58605 0.152223,1.30983 0.310406,2.6209 0.360775,3.93939 0.01648,0.91198 0.0029,1.82421 -0.0024,2.73625 -0.0099,0.91798 -5.29e-4,1.83594 0.0088,2.75387 0,0 -2.779752,1.41612 -2.779752,1.41612 v 0 c 0.01045,-0.92255 0.02209,-1.84511 0.01704,-2.76775 -5.29e-4,-0.90675 -5.29e-4,-1.81351 -0.0097,-2.72022 -0.01707,-1.33454 -0.0651,-2.66873 -0.192059,-3.99803 -0.252973,-2.54112 -0.688652,-5.05591 -0.958109,-7.59483 -0.118652,-1.47882 -0.169394,-2.95755 -0.216019,-4.43988 0,0 2.824237,-1.43902 2.824237,-1.43902 z"
           inkscape:connector-curvature="0" />
        <path
           style="fill:#00002b;fill-opacity:1;stroke:none;stroke-width:0.90200001;stroke-miterlimit:4;stroke-dasharray:none;stroke-opacity:1"
           id="path867"
           d="m 99.267048,199.63627 c 0.262457,0.90721 0.61086,1.76745 1.133582,2.55639 0.41531,0.69737 0.88959,0.97121 1.66622,1.10092 0.75562,0.11665 1.50139,0.0468 2.24384,-0.11027 0.39071,-0.085 0.78951,-0.18227 1.16337,-0.32756 0.10513,-0.0409 0.40298,-0.20233 0.3053,-0.14592 -2.67521,1.54474 -3.17213,1.944 -2.25298,1.23277 0.54318,-0.53929 0.58179,-1.31969 0.60132,-2.04232 -0.0402,-1.1289 -0.41213,-2.02347 -0.99708,-2.96633 -0.44401,-0.70369 -1.10049,-1.12859 -1.82119,-1.50187 -0.57381,-0.22178 -1.14638,-0.4515 -1.737396,-0.62398 -0.535758,-0.14255 -1.090544,-0.16598 -1.641621,-0.17992 -0.07143,0.0151 -0.336039,0.0636 -0.411768,0.10493 -0.04864,0.0266 -0.171731,0.13851 -0.123323,0.11152 5.744128,-3.20274 3.013648,-1.96203 2.337261,-1.29099 -0.23653,0.38429 -0.225298,0.85901 -0.245695,1.29572 -0.05486,0.64563 0.148193,1.24922 0.396314,1.83349 0.217598,0.47255 0.309748,0.98196 0.386098,1.4922 0.0315,0.48991 -0.0224,0.45446 0.32583,0.74528 0,0 -2.685585,1.68056 -2.685585,1.68056 v 0 c -0.323302,-0.26555 -0.469206,-0.53003 -0.442364,-0.95728 -0.03957,-0.48979 -0.121301,-0.97444 -0.319247,-1.42824 -0.253449,-0.62026 -0.493712,-1.26654 -0.46183,-1.94783 0.0019,-0.4829 0.0037,-0.97603 0.145664,-1.44207 0.572254,-1.30025 2.262259,-1.98449 3.648922,-2.03579 0.568,0.0276 1.13728,0.0783 1.68217,0.25295 0.59942,0.19785 1.20003,0.40772 1.77053,0.67822 0.73673,0.4314 1.41191,0.91473 1.86113,1.66377 0.60222,0.97003 1.00613,1.96011 1.0867,3.11407 0.0135,0.75733 0.0181,1.60329 -0.44722,2.24101 -1.0825,1.33335 -2.9504,1.96861 -4.603,2.31698 -0.77375,0.12967 -1.55054,0.17555 -2.326409,0.0207 -0.826248,-0.1971 -1.349904,-0.57266 -1.77529,-1.32553 -0.506778,-0.81278 -0.872257,-1.68602 -1.227177,-2.57159 0,0 2.764924,-1.54401 2.764924,-1.54401 z"
           inkscape:connector-curvature="0" />
        <path
           style="fill:#00002b;fill-opacity:1;stroke:none;stroke-width:0.90200001;stroke-miterlimit:4;stroke-dasharray:none;stroke-opacity:1"
           id="path869"
           d="m 99.619106,193.0236 c -0.03253,-0.81796 -0.131922,-1.63172 -0.193728,-2.44795 -0.02939,-0.46835 -0.01656,-0.23836 -0.03884,-0.68996 0,0 2.782722,-1.43138 2.782722,-1.43138 v 0 c 0.0125,0.45057 0.005,0.22103 0.0235,0.68861 0.0444,0.81799 0.1051,1.63686 0.24393,2.44507 0,0 -2.817551,1.43561 -2.817551,1.43561 z"
           inkscape:connector-curvature="0" />
        <path
           style="fill:#00002b;fill-opacity:1;stroke:none;stroke-width:0.90200001;stroke-miterlimit:4;stroke-dasharray:none;stroke-opacity:1"
           id="path871"
           d="m 114.81584,198.72242 c -0.25317,-0.73875 -0.77737,-1.27531 -1.34441,-1.7845 -0.63486,-0.64034 -1.44305,-0.90219 -2.30859,-1.04621 -0.36582,-0.0418 -0.73153,-0.0958 -1.09906,-0.0355 -0.99817,0.16376 -2.99176,1.52091 1.67854,-1.1036 -0.75989,0.48801 -1.03953,1.28288 -1.2051,2.12708 -0.10877,0.89761 0.13928,1.5021 0.85468,2.04168 0.5695,0.37552 1.16972,0.35772 1.81413,0.27676 0.66269,-0.22425 1.36157,-0.29456 2.05531,-0.34373 0.2692,-0.0354 0.54239,-0.0124 0.81199,-0.0398 1.24,-0.12577 2.90725,-1.36038 -1.65009,1.19765 -0.0641,0.14344 0.13094,-0.1367 0.1601,-0.084 0.14218,0.2571 0.0102,0.37534 0.0561,0.35134 1.23712,-0.64747 3.5308,-2.08423 2.41971,-1.38959 -0.58628,0.37042 -0.91437,0.95617 -1.17089,1.58069 -0.40414,1.00444 -0.52428,2.07774 -0.6048,3.14774 -0.0652,1.06124 -0.0562,2.12483 -0.0561,3.18748 -0.0126,0.7536 -0.0492,1.48532 -0.55845,2.07243 -1.5268,1.03067 -2.75354,1.88275 -4.48633,2.09153 -0.57942,0.006 -1.21993,0.20745 -1.78384,5.3e-4 -0.12719,-0.0466 -0.24228,-0.12128 -0.36342,-0.18192 -0.82946,-0.57336 -1.29919,-1.45224 -1.65788,-2.36779 -0.24403,-0.75161 -0.0209,-1.42298 0.67036,-1.83432 1.02208,-0.60823 2.0627,-1.18474 3.09406,-1.77711 1.07565,-0.50167 2.21999,-0.81838 3.29786,-1.31346 1.05317,-0.57179 1.35072,-0.73731 -1.81708,1.04833 -0.119,0.0671 0.23513,-0.13922 0.35043,-0.21248 0.26217,-0.16657 0.51182,-0.35005 0.75793,-0.53908 1.1081,-1.05957 2.49904,-1.60377 3.82857,-2.41072 0.79771,-0.48416 -1.62055,0.92566 -2.43082,1.38849 0.40693,-0.24507 0.74007,-0.57099 1.00667,-0.96156 0.11912,-0.24616 0.0676,-0.11811 0.15333,-0.38466 0,0 2.84557,-1.36085 2.84557,-1.36085 v 0 c -0.0627,0.31137 -0.0238,0.15876 -0.11618,0.45799 -0.20775,0.44682 -0.55322,0.8379 -0.97079,1.09977 -0.0728,0.0431 -6.89154,4.06994 -0.51402,0.34007 0.54997,-0.32164 -0.5487,0.31962 -0.69812,0.45735 -0.0671,0.0619 -0.12714,0.13109 -0.19071,0.19664 -0.34195,0.3126 -0.73023,0.5801 -1.13071,0.81282 -3.10926,1.80684 -2.00311,1.2521 -3.48895,1.98025 -1.09085,0.45938 -2.2358,0.78598 -3.28747,1.33764 0.73204,-0.43003 1.46432,-0.85966 2.19612,-1.29009 0.12867,-0.0757 -0.2623,0.14335 -0.38672,0.22583 -0.46111,0.30569 -0.60556,0.69571 -0.45893,1.23297 0.30657,0.8523 0.73266,1.67349 1.54365,2.14506 0.66416,0.23667 1.36056,0.12198 2.04845,0.0371 1.32254,-0.24744 3.75402,-1.58646 -0.91942,0.96369 0.67349,-0.42859 0.65872,-1.11975 0.71299,-1.85141 7.9e-4,-1.07188 0.009,-2.14436 0.0625,-3.21509 0.0727,-1.0856 0.16409,-2.18219 0.53888,-3.21304 0.21453,-0.6467 0.49314,-1.29868 1.04353,-1.73195 0.65013,-0.51256 2.82875,-2.58 3.34259,-1.49326 0.0552,0.11677 -0.0473,0.2314 -0.0961,0.3169 -2.76793,1.57482 -2.32907,1.72515 -4.60329,1.83167 -0.70322,0.0736 -1.38922,0.21351 -2.07874,0.36384 -0.69822,0.0454 -1.35293,-0.0618 -1.93006,-0.49038 -0.75355,-0.64359 -1.08403,-1.33209 -1.00661,-2.33839 0.14864,-0.88791 0.3751,-1.75394 1.08626,-2.3673 2.18433,-1.23937 2.75781,-2.13443 4.88041,-1.7603 0.90044,0.19417 1.73037,0.52583 2.39195,1.19369 0.60141,0.5442 1.14155,1.12122 1.476,1.87303 0,0 -2.76493,1.544 -2.76493,1.544 z"
           inkscape:connector-curvature="0" />
        <path
           style="fill:#00002b;fill-opacity:1;stroke:none;stroke-width:0.90200001;stroke-miterlimit:4;stroke-dasharray:none;stroke-opacity:1"
           id="path873"
           d="m 121.14887,195.947 c -0.0325,0.81795 -0.0312,1.63711 -0.0352,2.45564 0.006,0.92491 0.18633,1.82594 0.44605,2.70889 0.12255,0.32939 0.0561,0.18912 0.18421,0.4276 0,0 -2.75468,1.55403 -2.75468,1.55403 v 0 c -0.11125,-0.28998 -0.0542,-0.12698 -0.16354,-0.49157 -0.25264,-0.91502 -0.4415,-1.84267 -0.4658,-2.79584 -0.004,-0.80655 -0.002,-1.61378 -0.0352,-2.41974 0,0 2.82424,-1.43901 2.82424,-1.43901 z"
           inkscape:connector-curvature="0" />
        <path
           style="fill:#00002b;fill-opacity:1;stroke:none;stroke-width:0.90200001;stroke-miterlimit:4;stroke-dasharray:none;stroke-opacity:1"
           id="path875"
           d="m 120.65185,192.03122 c 0.11338,0.12422 0.67484,0.43763 0.83909,0.36817 0.0272,-0.0115 0.0181,-0.0562 0.0271,-0.0842 -3.5937,2.34085 -1.98376,2.22339 -3.14079,0.92094 -0.33342,-0.28317 -0.77428,-0.30947 -1.19188,-0.34079 -0.21793,0.061 -0.12685,0.005 -0.2771,0.16123 0.86916,-0.4986 1.73599,-1.00128 2.60747,-1.49581 0.0581,-0.0329 -0.10344,0.0903 -0.13217,0.15055 0.26688,0.0948 0.55082,0.10968 0.83097,0.12418 0,0 -2.58354,1.84113 -2.58354,1.84113 v 0 c -0.37479,-0.05 -0.76385,-0.0959 -1.01997,-0.40656 -0.56902,-1.21144 1.94833,-2.2835 3.14694,-2.20171 0.48757,0.0689 0.96738,0.16818 1.32289,0.53857 1.25341,1.49478 0.47043,1.04417 -2.09837,2.64501 -0.35985,-0.16465 -0.7487,-0.26923 -1.03807,-0.56153 0,0 2.70747,-1.65914 2.70747,-1.65914 z"
           inkscape:connector-curvature="0" />
        <path
           style="fill:#00002b;fill-opacity:1;stroke:none;stroke-width:0.90200001;stroke-miterlimit:4;stroke-dasharray:none;stroke-opacity:1"
           id="path877"
           d="m 125.24373,193.96371 c -0.60464,-0.0162 -1.20965,-0.0116 -1.81445,-0.0104 -1.07516,0.16339 -2.70647,1.31131 1.96825,-1.25685 0.0614,-0.0337 -0.12065,0.0732 -0.17206,0.12089 -0.12962,0.12017 -0.14571,0.19354 -0.22007,0.35028 -0.17391,0.61999 -0.1452,1.27901 -0.15823,1.91763 -0.045,1.14862 -0.0186,2.2899 0.39622,3.37236 0.38565,0.82362 0.84995,1.18058 1.72118,1.35575 0.11602,-5.3e-4 0.23267,0.0105 0.34807,-0.002 0.23403,-0.0244 0.44964,-0.0972 0.66092,-0.19771 0.10658,-0.0507 0.41175,-0.23106 0.30896,-0.17303 -2.49145,1.4064 -3.09743,1.94896 -2.17184,1.15874 0.23027,-0.28231 0.12299,-0.1376 0.32263,-0.43354 0,0 2.88171,-1.25805 2.88171,-1.25805 v 0 c -0.21093,0.30912 -0.10706,0.1458 -0.30928,0.49143 -0.94606,1.10579 -0.21332,0.30371 -3.16505,1.98843 -0.43672,0.24925 -0.96041,0.27732 -1.44379,0.19851 -0.93529,-0.26503 -1.44105,-0.7379 -1.84381,-1.63395 -0.4114,-1.11204 -0.49182,-2.27975 -0.46882,-3.45971 -0.0135,-0.66287 -0.0431,-1.33429 0.0647,-1.99106 0.40616,-1.53759 2.29338,-2.30514 3.81603,-2.3909 0.61435,10e-4 1.22889,0.006 1.84308,-0.0104 0,0 -2.56435,1.86311 -2.56435,1.86311 z"
           inkscape:connector-curvature="0" />
        <path
           style="fill:#00002b;fill-opacity:1;stroke:none;stroke-width:0.90200001;stroke-miterlimit:4;stroke-dasharray:none;stroke-opacity:1"
           id="path879"
           d="m 133.69873,194.87933 c -0.23769,0.73271 -0.17927,1.42317 0.0952,2.13204 0.51258,1.07876 1.49805,1.67477 2.52363,2.19236 0.85048,0.36224 1.5455,0.70535 2.45525,0.37502 1.07988,-0.79029 -0.17576,0.14556 -2.09796,1.13248 -0.12685,0.0651 0.21945,-0.18254 0.32227,-0.28133 0.34301,-0.32956 0.60195,-0.68517 0.8509,-1.08732 0.42327,-0.82475 0.53727,-1.72078 0.45296,-2.63261 -0.25391,-1.00914 -0.67225,-1.70323 -1.52641,-2.29821 -0.61769,-0.47981 -1.38208,-0.55374 -2.10776,-0.74832 -0.48578,-0.15228 -0.98983,-0.20313 -1.49543,-0.22932 -0.5206,-0.019 -1.04167,-0.016 -1.56253,-0.0153 -0.25179,0.0175 -0.5163,-0.0457 -0.75874,0.0528 -0.0626,0.0254 -0.22979,0.1423 -0.17081,0.10928 2.53107,-1.41704 3.29946,-2.03385 2.36817,-1.30244 -0.33043,0.36486 -0.37001,0.85711 -0.40607,1.3259 -0.0743,0.55243 0.0523,1.07119 0.19566,1.59856 0.21826,0.95095 0.7602,1.74016 1.34161,2.5032 0.55736,0.69367 1.25263,1.21877 2.04792,1.60418 0,0 -2.59704,1.70161 -2.59704,1.70161 v 0 c -0.798,-0.44965 -1.50832,-1.02207 -2.08986,-1.73539 -0.6092,-0.78524 -1.18422,-1.60371 -1.45448,-2.57413 -0.16422,-0.55407 -0.32406,-1.10109 -0.25501,-1.68753 0.0248,-0.51885 0.0547,-1.05173 0.30617,-1.51886 0.93024,-1.31536 2.49587,-1.98896 4.01661,-1.92573 0.52591,2.1e-4 1.0524,-0.002 1.57754,0.0307 0.51617,0.0426 1.02551,0.12513 1.51991,0.28483 0.75471,0.1935 1.51576,0.37023 2.1431,0.8667 0.87973,0.6845 1.35428,1.44436 1.64638,2.52345 0.12434,0.96474 0.034,1.90551 -0.36185,2.80536 -0.90821,1.71376 -2.55564,2.69236 -4.38858,3.40023 -0.90603,0.15271 -1.7284,-0.20089 -2.53342,-0.59699 -1.0797,-0.56821 -2.09909,-1.23858 -2.66343,-2.36404 -0.31145,-0.74921 -0.42888,-1.46737 -0.25851,-2.26894 0,0 2.86457,-1.37225 2.86457,-1.37225 z"
           inkscape:connector-curvature="0" />
        <path
           inkscape:connector-curvature="0"
           d="m 77.888725,196.30753 c 0.11338,0.12422 0.67484,0.43763 0.83909,0.36817 0.0272,-0.0115 0.0181,-0.0562 0.0271,-0.0842 -3.5937,2.34085 -1.98376,2.22339 -3.14079,0.92094 -0.33342,-0.28317 -0.77428,-0.30947 -1.19188,-0.34079 -0.21793,0.061 -0.12685,0.005 -0.2771,0.16123 0.86916,-0.4986 1.73599,-1.00128 2.60747,-1.49581 0.0581,-0.0329 -0.10344,0.0903 -0.13217,0.15055 0.26688,0.0948 0.55082,0.10968 0.83097,0.12418 0,0 -2.58354,1.84113 -2.58354,1.84113 l 0,0 c -0.37479,-0.05 -0.76385,-0.0959 -1.01997,-0.40656 -0.56902,-1.21144 1.94833,-2.2835 3.14694,-2.20171 0.48757,0.0689 0.96738,0.16818 1.32289,0.53857 1.25341,1.49478 0.47043,1.04417 -2.09837,2.64501 -0.35985,-0.16465 -0.7487,-0.26923 -1.03807,-0.56153 0,0 2.70747,-1.65914 2.70747,-1.65914 z"
           id="path3376"
           style="fill:#00002b;fill-opacity:1;stroke:none;stroke-width:0.90200001;stroke-miterlimit:4;stroke-dasharray:none;stroke-opacity:1" />
      </g>
    </g>
  </g>
</svg>
