<?xml version="1.0" encoding="UTF-8" standalone="no"?>
<!-- Created with Inkscape (http://www.inkscape.org/) -->

<svg
   xmlns:dc="http://purl.org/dc/elements/1.1/"
   xmlns:cc="http://creativecommons.org/ns#"
   xmlns:rdf="http://www.w3.org/1999/02/22-rdf-syntax-ns#"
   xmlns:svg="http://www.w3.org/2000/svg"
   xmlns="http://www.w3.org/2000/svg"
   xmlns:sodipodi="http://sodipodi.sourceforge.net/DTD/sodipodi-0.dtd"
   xmlns:inkscape="http://www.inkscape.org/namespaces/inkscape"
   width="210mm"
   height="297mm"
   viewBox="0 0 210 297"
   version="1.1"
   id="svg8"
   inkscape:version="0.91 r13725"
   sodipodi:docname="Água e óleo.svg">
  <defs
     id="defs2">
    <inkscape:perspective
       sodipodi:type="inkscape:persp3d"
       inkscape:vp_x="0 : 148.5 : 1"
       inkscape:vp_y="0 : 1000 : 0"
       inkscape:vp_z="210 : 148.5 : 1"
       inkscape:persp3d-origin="105 : 99 : 1"
       id="perspective817" />
  </defs>
  <sodipodi:namedview
     id="base"
     pagecolor="#ffffff"
     bordercolor="#666666"
     borderopacity="1.0"
     inkscape:pageopacity="0.0"
     inkscape:pageshadow="2"
     inkscape:zoom="0.7"
     inkscape:cx="412.63533"
     inkscape:cy="249.9387"
     inkscape:document-units="mm"
     inkscape:current-layer="layer1"
     showgrid="false"
     inkscape:window-width="1366"
     inkscape:window-height="719"
     inkscape:window-x="0"
     inkscape:window-y="25"
     inkscape:window-maximized="1" />
  <metadata
     id="metadata5">
    <rdf:RDF>
      <cc:Work
         rdf:about="">
        <dc:format>image/svg+xml</dc:format>
        <dc:type
           rdf:resource="http://purl.org/dc/dcmitype/StillImage" />
        <dc:title />
      </cc:Work>
    </rdf:RDF>
  </metadata>
  <g
     inkscape:label="Layer 1"
     inkscape:groupmode="layer"
     id="layer1">
    <g
       id="g3360"
       style="fill:#00002b">
      <path
         inkscape:connector-curvature="0"
         d="m 53.39707,163.5865 c -0.133758,2.01395 -0.05957,4.03776 -0.209219,6.05082 -0.05356,0.72042 -0.147225,1.43729 -0.220837,2.15594 -0.921221,5.4732 -1.689508,10.96836 -2.505488,16.45763 -0.739392,5.01973 -1.723829,9.99646 -2.352911,15.03211 -0.348337,3.42463 -0.587734,6.85965 -0.984853,10.2792 -0.226481,2.10557 -0.742479,4.14832 -1.379897,6.16157 0,0 -3.937799,1.8491 -3.937799,1.8491 v 0 c 0.702553,-2.00146 1.28724,-4.03429 1.544741,-6.14776 0.472712,-3.44556 0.767222,-6.91174 1.160814,-10.36675 0.665303,-5.06104 1.734016,-10.05427 2.479442,-15.10371 0.822904,-5.44915 1.58917,-10.90768 2.364925,-16.36347 0.05842,-0.70064 0.142063,-1.39962 0.175258,-2.1019 0.09243,-1.95537 -0.05861,-3.91868 -0.118793,-5.87252 0,0 3.984617,-2.03026 3.984617,-2.03026 z"
         id="path825"
         style="fill:#00002b;fill-opacity:1;stroke:none;stroke-width:0.90200001;stroke-miterlimit:4;stroke-dasharray:none;stroke-opacity:1" />
      <path
         inkscape:connector-curvature="0"
         d="m 34.249148,198.54893 c 2.0936,0.0704 4.189087,0.0693 6.28365,0.0656 1.736043,0.0445 3.461158,-0.18043 5.186331,-0.337 0.620228,-0.15749 1.236019,-0.31562 1.870609,-0.40218 0,0 -3.562887,2.67585 -3.562887,2.67585 v 0 c -0.616698,0.11348 -1.222732,0.28619 -1.84877,0.34374 -1.688542,0.12416 -3.379185,0.26247 -5.07418,0.21083 -2.154748,-0.004 -4.310252,-0.002 -6.464125,0.0656 0,0 3.609372,-2.62237 3.609372,-2.62237 z"
         id="path827"
         style="fill:#00002b;fill-opacity:1;stroke:none;stroke-width:0.90200001;stroke-miterlimit:4;stroke-dasharray:none;stroke-opacity:1" />
      <g
         style="fill:#00002b"
         id="g3347">
        <path
           style="fill:#00002b;fill-opacity:1;stroke:none;stroke-width:0.90200001;stroke-miterlimit:4;stroke-dasharray:none;stroke-opacity:1"
           id="path823"
           d="m 53.358941,162.83021 c -1.475513,2.50119 -3.115882,4.89935 -4.677394,7.34676 -4.239853,6.47733 -7.691872,13.40148 -10.901225,20.43146 -2.126451,4.50409 -3.803407,9.19081 -5.189881,13.968 -0.425011,1.36412 -0.57598,2.78713 -1.021694,4.1435 -0.276786,0.77827 -0.734211,1.46832 -1.201087,2.1426 0,0 -4.08068,1.77082 -4.08068,1.77082 v 0 c 0.473385,-0.64811 0.943505,-1.30131 1.272927,-2.03742 0.509855,-1.38244 0.759775,-2.82762 1.226651,-4.2261 1.661668,-4.85078 3.483361,-9.64832 5.721863,-14.26797 3.20494,-6.94145 6.578648,-13.80771 10.575052,-20.33589 1.407919,-2.35422 2.903778,-4.659 4.186261,-7.08568 0,0 4.089207,-1.85008 4.089207,-1.85008 z"
           inkscape:connector-curvature="0" />
        <path
           style="fill:#00002b;fill-opacity:1;stroke:none;stroke-width:0.90200001;stroke-miterlimit:4;stroke-dasharray:none;stroke-opacity:1"
           id="path831"
           d="m 55.907656,162.01271 c 0.989888,-1.02704 2.221794,-1.78648 3.370117,-2.62154 1.055071,-0.72851 2.060599,-1.51666 2.928128,-2.463 0.503653,-0.57513 0.976289,-1.17381 1.490337,-1.74001 0.07064,-0.073 0.141277,-0.14603 0.211913,-0.21905 0,0 4.114022,-1.72882 4.114022,-1.72882 v 0 c -0.06866,0.0813 -0.137322,0.16267 -0.205984,0.24401 -0.581543,0.51482 -1.013825,1.15878 -1.54197,1.72466 -0.840732,1.02325 -1.878095,1.84663 -2.97338,2.58456 -1.086405,0.82335 -2.237859,1.55926 -3.276507,2.44516 0,0 -4.116676,1.77403 -4.116676,1.77403 z"
           inkscape:connector-curvature="0" />
        <path
           style="fill:#00002b;fill-opacity:1;stroke:none;stroke-width:0.90200001;stroke-miterlimit:4;stroke-dasharray:none;stroke-opacity:1"
           id="path835"
           d="m 60.345253,187.89644 c -0.15761,-0.67847 -0.608973,-1.17045 -1.078696,-1.65032 -0.372906,-0.53404 -0.823817,-0.92685 -1.435936,-1.14761 -0.902253,-0.2641 -1.831125,-0.11235 -2.745451,-0.0124 -0.453589,0.10283 -0.554292,0.10239 -0.978884,0.28962 -0.152099,0.0671 -0.587026,0.31199 -0.443064,0.22888 6.159476,-3.55589 3.72032,-2.40873 2.663158,-1.32514 -0.665829,0.81147 -0.865306,1.81523 -0.98934,2.82828 -0.123198,0.88056 -0.08945,1.68536 0.413268,2.43578 0.456013,0.68855 1.196155,0.81724 1.906778,1.09022 0.602774,0.20603 1.258621,0.38783 1.894769,0.26983 0.651378,-0.072 1.204124,-0.3694 1.773761,-0.66226 -6.611847,3.80176 -3.67919,2.37418 -2.464892,1.12758 0.489267,-0.51563 0.757827,-1.15269 1.00063,-1.80707 0.28857,-0.60272 0.410998,-1.24717 0.477494,-1.90614 0.12225,-2.37267 -0.472017,-0.78533 4.030408,-2.83188 -0.193461,1.06208 -0.299955,2.13138 -0.363212,3.209 -0.07892,1.69005 -0.08847,3.38226 -0.09072,5.07384 0.01828,1.74084 -0.05117,3.48515 0.04547,5.22391 0.01852,1.69786 0.521927,3.29872 1.081439,4.88126 0.678071,1.69107 1.341562,3.38468 1.985663,5.08915 0.544574,1.42718 1.015143,2.86699 1.268119,4.37518 0.172596,1.16173 0.196578,2.33819 0.198919,3.51048 0.02492,1.23235 0.01532,2.44702 -0.256701,3.65274 -0.260414,1.0205 -0.864391,1.83859 -1.629677,2.53761 -1.988881,1.48734 -4.112252,2.99676 -6.548044,3.58319 -0.950015,0.21525 -1.875879,0.1694 -2.819159,-0.0333 -1.602277,-0.47937 -2.944238,-1.42175 -4.149997,-2.55246 -0.98321,-1.07925 -1.663351,-2.35508 -2.100032,-3.73915 -0.402207,-1.58389 -0.368007,-3.23169 -0.379252,-4.85362 -2.64e-4,-1.84954 -0.0019,-3.69908 -0.02246,-5.54852 0.006,-1.20901 0.277911,-2.36651 0.839142,-3.43282 0.432406,-0.8803 1.130914,-1.55455 1.819302,-2.23289 0.673912,-0.6836 1.168595,-1.50476 1.846855,-2.18491 1.845659,-1.77198 4.277384,-2.39897 6.485509,-3.46647 0.233688,-0.11701 0.467799,-0.23319 0.701063,-0.35105 0.248524,-0.12557 0.498441,-0.2485 0.744287,-0.37922 3.036276,-1.61451 -4.41487,2.69082 -1.722493,0.95679 0.180586,-0.11631 0.360468,-0.2337 0.540699,-0.35054 0.911117,-0.5701 1.7692,-1.21911 2.539241,-1.96891 0.658873,-0.65265 1.122013,-1.42349 1.411502,-2.29875 0.121343,-0.85049 0.484013,-1.58756 0.893492,-2.32706 0,0 4.057746,-1.82417 4.057746,-1.82417 v 0 c -0.375939,0.73974 -0.895996,1.38829 -0.949055,2.25714 -0.25544,0.9356 -0.653627,1.7842 -1.333133,2.49336 -0.735986,0.81443 -1.615106,1.48471 -2.535414,2.07946 -2.522705,1.58856 -5.072809,3.14648 -7.765511,4.43371 -0.557889,0.25656 -1.122531,0.48461 -1.686239,0.72676 -0.132562,0.057 -0.517848,0.25299 -0.394338,0.17842 1.684623,-1.01704 4.811403,-2.8012 3.120644,-1.8355 -0.765723,0.61446 -1.251821,1.44135 -1.884339,2.17883 -0.668509,0.65627 -1.397087,1.28935 -1.855687,2.11782 -0.618836,0.98687 -0.943956,2.08228 -0.987859,3.25176 -0.03156,1.8551 -0.05056,3.7107 -0.0268,5.56603 0.02911,1.5735 0.02707,3.16813 0.385641,4.7092 0.396965,1.31527 1.023152,2.5376 1.953289,3.56118 1.168779,1.07861 2.469703,1.97327 4.05184,2.31473 0.918274,0.11995 1.832935,0.1062 2.732318,-0.1437 0.390014,-0.12197 0.497102,-0.14259 0.876125,-0.3153 0.156779,-0.0714 0.609473,-0.32098 0.461481,-0.23277 -6.020498,3.58862 -3.640307,2.21086 -2.393193,1.31341 0.792289,-0.59258 1.418132,-1.33235 1.742622,-2.28209 0.07085,-0.25587 0.226417,-0.79097 0.265819,-1.04669 0.12791,-0.83017 0.02183,-1.67788 0.05123,-2.51246 -0.01003,-1.15465 -0.0068,-2.31295 -0.149955,-3.46084 -0.221488,-1.4888 -0.65269,-2.9137 -1.178878,-4.3231 -0.6404,-1.70764 -1.291219,-3.4084 -1.990611,-5.09301 -0.594603,-1.61161 -1.113084,-3.25105 -1.15248,-4.98657 -0.09596,-1.74886 -0.02294,-3.50108 -0.04582,-5.25185 0.0064,-1.69207 -0.0019,-3.3847 0.05053,-5.07615 0.04136,-1.047 0.05708,-2.10594 0.264002,-3.1364 4.454482,-2.50179 4.080933,-3.63715 3.950673,-1.19081 -0.0471,0.69329 -0.12021,1.39089 -0.415295,2.03 -0.304387,0.65211 -0.454012,1.37295 -0.931278,1.94216 -1.339323,1.5967 -3.321423,2.35122 -5.132755,3.38811 -0.591844,0.29083 -1.223042,0.4862 -1.88545,0.52211 -0.68631,-0.0294 -1.357828,-0.16546 -1.994776,-0.42859 -0.800139,-0.28743 -1.545804,-0.60244 -2.04393,-1.33862 -0.53993,-0.84887 -0.693269,-1.71822 -0.537789,-2.71613 0.11348,-1.06129 0.261157,-2.14482 0.875514,-3.04906 1.313789,-1.97241 4.033787,-3.12401 6.367637,-3.5583 0.974148,-0.0914 1.978314,-0.20128 2.912922,0.16588 0.625962,0.29877 1.129115,0.73054 1.532689,1.29816 0.518237,0.54023 0.960017,1.12672 1.226135,1.83632 0,0 -3.951211,2.13674 -3.951211,2.13674 z"
           inkscape:connector-curvature="0" />
        <path
           style="fill:#00002b;fill-opacity:1;stroke:none;stroke-width:0.90200001;stroke-miterlimit:4;stroke-dasharray:none;stroke-opacity:1"
           id="path839"
           d="m 63.921393,194.58814 c 0.670094,-0.22341 1.333736,-0.49085 1.946394,-0.84686 0.524642,-0.27222 1.103831,-0.329 1.605161,-0.63932 -6.319798,4.33835 -4.188587,2.42312 -2.792195,1.42587 0.318113,-0.27935 0.62312,-0.53684 0.817366,-0.91761 0.107321,-0.50331 0.336249,-0.94738 0.576289,-1.39602 0.268849,-0.60171 0.298715,-1.27012 0.433382,-1.90856 0.09348,-0.70234 0.402313,-1.33424 0.680398,-1.97559 0.138229,-0.51787 0.463415,-0.89864 0.797734,-1.29746 0.191596,-0.28953 0.288682,-0.63823 0.291931,-0.98503 4.788395,-2.2519 4.031956,-2.97773 3.993277,0.26566 -0.0094,1.07628 -0.0034,2.15253 0.0037,3.22879 0.03562,0.78856 -0.04758,1.58553 0.0453,2.37029 0.07599,0.53129 0.283861,0.97693 0.788733,1.19226 1.517772,-0.0478 4.223049,-2.12381 -3.242937,1.98992 -0.115117,0.0634 0.218443,-0.14997 0.308073,-0.24611 0.274728,-0.57148 0.570672,-1.12736 0.903327,-1.66801 0.384776,-0.64839 0.639472,-1.35778 0.950516,-2.04108 0.321916,-0.53166 0.590648,-1.054 0.721543,-1.66432 0.09428,-0.5878 0.473331,-1.05352 0.664135,-1.60821 0.550429,-2.39858 -0.948946,-0.54475 4.180727,-2.79589 -0.01109,0.9187 -0.0305,1.83733 -0.04254,2.75607 -0.04264,1.10934 0.02394,2.21567 0.266494,3.29984 0.178668,0.63979 0.275167,1.36944 0.774544,1.84805 0.532122,0.29985 1.172056,0.28224 1.766041,0.29814 0.301979,0.003 0.39711,0.0325 0.678875,-0.0689 0.10091,-0.0363 0.38108,-0.19671 0.287809,-0.14378 -6.23656,3.53927 -4.28421,2.55209 -3.025455,1.62578 0.545026,-0.34796 0.968121,-0.81902 1.374518,-1.31372 0.298551,-0.34642 0.596252,-0.69345 0.916763,-1.01987 0,0 4.121028,-1.73796 4.121028,-1.73796 v 0 c -0.28675,0.36239 -0.65369,0.64836 -0.91827,1.02989 -0.463159,0.45349 -0.771356,1.06494 -1.358834,1.38454 -1.618549,1.37738 -3.501266,2.98153 -5.688571,2.84434 -0.699241,-0.042 -1.419204,-0.0944 -1.971172,-0.57692 -0.50741,-0.58731 -0.688719,-1.32621 -0.857176,-2.07073 -0.260557,-1.11602 -0.299249,-2.2662 -0.273619,-3.40879 -0.0091,-0.89909 -0.01738,-1.79824 -0.04239,-2.69706 4.673526,-2.53629 4.184894,-3.55877 3.84311,-1.16921 -0.06936,0.30175 -0.140395,0.59028 -0.290766,0.86428 -0.08421,0.15344 -0.219948,0.27498 -0.301768,0.4297 -0.04553,0.0861 -0.06436,0.18385 -0.09654,0.27577 -0.09053,0.64408 -0.240866,1.26097 -0.676595,1.76729 -0.314777,0.69596 -0.604226,1.39857 -0.937659,2.08721 -0.306925,0.54445 -0.696786,1.05661 -0.869212,1.66381 -0.727335,1.75063 -3.114469,3.22821 -4.907899,2.50908 -0.562912,-0.36284 -0.886209,-0.89302 -0.98765,-1.55991 -0.118377,-0.80523 -0.02029,-1.62594 -0.04447,-2.43754 0.0082,-1.07912 0.01611,-2.15821 0.01148,-3.23736 -0.02498,-3.26794 -0.707245,-1.75018 3.982643,-4.26417 -0.09431,0.3893 -0.06359,0.8078 -0.234617,1.18158 -0.238196,0.46515 -0.738153,0.70777 -0.847809,1.2411 -0.277855,0.61795 -0.622324,1.22353 -0.731303,1.89867 -0.144066,0.66193 -0.197004,1.33275 -0.369954,1.98771 -0.183946,0.46375 -0.540377,0.8427 -0.581202,1.35634 -0.122497,0.48705 -0.349359,0.81528 -0.733957,1.12377 -1.088633,1.18543 -5.082087,2.42183 -4.856334,3.06679 -0.525976,0.20997 -1.093566,0.31962 -1.580269,0.62712 -0.6516,0.3038 -1.32121,0.5631 -1.975049,0.85987 0,0 3.504899,-2.80358 3.504899,-2.80358 z"
           inkscape:connector-curvature="0" />
        <path
           style="fill:#00002b;fill-opacity:1;stroke:none;stroke-width:0.90200001;stroke-miterlimit:4;stroke-dasharray:none;stroke-opacity:1"
           id="path841"
           d="m 85.194094,178.50996 c 1.565262,0.0586 3.132148,0.053 4.698225,0.0457 1.804802,0.0529 2.661102,0.38464 3.678272,1.89618 0.767527,1.25313 1.178988,2.67256 1.494689,4.09603 0.201057,0.94965 0.259678,1.91834 0.28212,2.88602 0.0096,0.7623 0.0021,1.52469 -0.0013,2.28701 0.05537,1.92871 0.71215,0.33553 -3.997235,2.43708 -0.05379,0.024 0.0066,-0.11762 0.0089,-0.17648 0.0031,-0.0818 0.0047,-0.16368 0.0071,-0.24552 -0.0127,-0.5215 -0.273724,-0.86484 -0.658706,-1.18619 -0.604126,-0.54591 -1.296062,-0.96831 -2.014633,-1.34475 -0.833268,-0.324 -1.596562,-0.79373 -2.396445,-1.18759 -0.704051,-0.32891 -1.471202,-0.40696 -2.236414,-0.44904 -0.669955,-0.027 -1.344166,0.16125 -1.925323,0.48943 1.171453,-0.66422 2.332598,-1.34696 3.514354,-1.99268 0.09847,-0.0538 -0.18098,0.13425 -0.259619,0.2143 -0.43933,0.44718 -0.622792,1.00952 -0.78368,1.59843 -0.20328,1.13349 -0.32756,2.30217 -0.114515,3.44076 0.226703,0.79312 0.804773,1.0452 1.556555,1.16273 0.813964,0.0521 1.650685,-0.2695 2.406904,-0.55678 0.75697,-0.32685 1.591389,-0.3278 2.311431,-0.73247 -0.700373,0.49334 1.95175,-1.0369 1.205678,-0.60657 -3.785812,2.18362 -4.687039,2.82637 -3.33451,1.87801 1.358265,-0.78531 2.731659,-1.54502 4.074793,-2.35594 1.199758,-0.72435 -2.429614,1.39764 -3.644572,2.0962 -0.04236,0.0243 0.08394,-0.0501 0.126777,-0.0736 0.752475,-0.41291 3.85417,-3.73881 4.209405,-1.67738 0,0 -4.092705,1.90663 -4.092705,1.90663 v 0 c 0.107453,0.0772 0.14341,0.35576 0.262435,0.29791 1.313752,-0.63857 2.540797,-1.44197 3.814712,-2.15672 0.04761,-0.0267 -0.08805,0.065 -0.135284,0.0923 -1.337897,0.77586 -2.650175,1.59863 -4.019706,2.31718 -1.217514,0.6388 2.375501,-1.38513 3.56325,-2.0777 -1.769893,1.15963 -3.57981,2.27564 -5.517573,3.12763 -0.75854,0.27087 -1.571932,0.36391 -2.317171,0.68438 -0.832416,0.26035 -1.689285,0.5773 -2.568906,0.37607 -0.88415,-0.23681 -1.528823,-0.70298 -1.793644,-1.62236 -0.245965,-1.19268 -0.110916,-2.40704 0.03303,-3.60798 0.523775,-2.7317 2.087132,-3.05351 4.984663,-4.50288 0.660241,-0.25232 1.351116,-0.38679 2.060173,-0.30569 0.805381,0.076 1.600118,0.2198 2.324769,0.60055 0.792901,0.41252 1.577742,0.84071 2.395882,1.20242 0.739759,0.41291 1.469993,0.84846 2.110586,1.40786 0.447501,0.42569 0.773957,0.87848 0.848683,1.50972 0.0024,0.0792 0.0042,0.15839 0.0075,0.23754 0.0024,0.055 0.05732,0.13759 0.0095,0.16486 -4.890111,2.78919 -4.052945,3.54711 -3.99008,1.63366 0.0033,-0.76084 0.01,-1.52167 0.01109,-2.28252 -0.0057,-0.94917 -0.02973,-1.90113 -0.192715,-2.83885 -0.262387,-1.37915 -0.653971,-2.74535 -1.396915,-3.95002 -0.962427,-1.35787 -1.794463,-1.51875 -3.412435,-1.56774 -1.608013,-0.008 -3.216679,-0.0107 -4.823952,0.0457 0,0 3.626543,-2.63484 3.626543,-2.63484 z"
           inkscape:connector-curvature="0" />
        <path
           style="fill:#00002b;fill-opacity:1;stroke:none;stroke-width:0.90200001;stroke-miterlimit:4;stroke-dasharray:none;stroke-opacity:1"
           id="path845"
           d="m 87.839927,210.63793 c 0.890582,0.0735 1.749507,-0.0623 2.561611,-0.42897 1.737871,-1.03442 -1.268073,0.75874 -3.028352,1.70191 -0.116908,0.0626 0.206934,-0.16712 0.29862,-0.26296 0.276759,-0.2893 0.401611,-0.60756 0.52724,-0.9789 0.120134,-0.7355 0.307256,-1.55257 0.05078,-2.276 -0.36092,-0.44692 -1.018855,-0.40993 -1.544695,-0.43387 -0.782794,-0.0142 -1.565881,-0.005 -2.34877,-0.002 -0.309605,0.002 -0.528643,-0.0234 -0.824974,0.0739 -0.10496,0.0345 -0.391345,0.20511 -0.295187,0.15071 7.263378,-4.10903 4.013258,-2.81656 3.245233,-1.62234 -0.292946,0.76642 -0.426754,1.57293 -0.513818,2.38465 -0.08271,1.22477 -0.174895,2.4558 0.0329,3.67087 0.360953,1.17627 1.337522,1.77694 2.421753,2.20005 1.357465,0.55974 2.828792,0.65101 4.276989,0.73162 1.865125,0.0139 3.642807,-0.66689 5.32202,-1.41791 0.652724,-0.35206 1.31002,-0.69289 1.978833,-1.01306 0,0 -3.428705,2.73567 -3.428705,2.73567 v 0 c -0.648242,0.3181 -1.287899,0.65294 -1.942237,0.95861 -1.736559,0.7148 -3.547171,1.35163 -5.453677,1.26479 -1.498166,-0.0959 -3.012067,-0.21585 -4.406958,-0.8214 -1.193239,-0.53737 -2.22999,-1.27064 -2.648066,-2.57457 -0.229754,-1.2474 -0.156194,-2.50586 -0.09606,-3.76784 0.05496,-0.84845 0.166675,-1.67444 0.396905,-2.49329 0.656277,-2.12185 3.411206,-3.09622 5.518581,-3.06784 0.795192,-0.008 1.591577,-0.0298 2.385959,0.0186 0.717442,0.0705 1.429732,0.18854 1.826573,0.86305 0.29587,0.81232 0.150622,1.68431 0.05076,2.52578 -0.486918,2.43409 -3.122573,3.22947 -5.286422,4.18346 -0.879547,0.28043 -1.782242,0.34799 -2.703378,0.33205 0,0 3.626543,-2.63483 3.626543,-2.63483 z"
           inkscape:connector-curvature="0" />
        <path
           style="fill:#00002b;fill-opacity:1;stroke:none;stroke-width:0.90200001;stroke-miterlimit:4;stroke-dasharray:none;stroke-opacity:1"
           id="path855"
           d="m 20.852988,245.98497 c -0.387464,0.73832 -0.689456,1.51508 -0.996401,2.28894 -0.600199,1.08756 -0.963965,2.26502 -1.313567,3.45013 -0.349577,1.18113 -0.542632,2.39742 -0.643986,3.62256 -0.05538,0.80365 -0.05266,1.60963 -0.0512,2.4147 0.003,0.75213 0.0057,1.50425 0.0071,2.25638 -0.01693,0.6643 -0.06087,1.2871 0.240973,1.88979 0.344664,0.35686 0.773031,0.65131 1.184858,0.93388 0.378811,0.39389 0.827816,0.68804 1.255281,1.01891 0.482259,0.30451 1.053726,0.39815 1.588436,0.58356 0.658421,0.20272 1.350856,0.22344 2.033811,0.24778 0.907029,0.0484 1.79699,0.0265 2.692856,-0.11559 0.746819,-0.10284 1.445528,-0.41714 2.148692,-0.67617 1.488993,-0.93041 -0.292674,0.18815 -3.232074,1.83027 -0.123552,0.069 0.236625,-0.15557 0.350581,-0.2395 0.472756,-0.34816 0.882556,-0.76009 1.299923,-1.17081 0.936984,-0.97459 1.76205,-2.04631 2.594199,-3.10926 0.822241,-0.99486 1.504879,-2.07954 2.143652,-3.19703 0.679037,-1.05465 1.318728,-2.10931 1.802937,-3.26763 0.510495,-1.15375 1.009978,-2.3108 1.475989,-3.48336 0.432392,-1.02493 0.594487,-2.12643 0.815877,-3.20828 0.182096,-0.82959 0.262331,-1.67411 0.302852,-2.52082 0.0407,-0.87457 0.02506,-1.75036 0.03106,-2.62554 0.04036,-0.87559 -0.02392,-1.72949 -0.345953,-2.5481 -0.402783,-0.68997 -0.927746,-1.32441 -1.452893,-1.92866 -0.445233,-0.52525 -0.935535,-1.00958 -1.387176,-1.52836 -0.398606,-0.36798 -0.839769,-0.67253 -1.363869,-0.82433 -0.662205,-0.13838 -1.343065,-0.13663 -2.016549,-0.144 -0.727731,-0.0271 -1.428255,-0.0215 -2.135055,0.15005 -0.623866,0.24703 -1.234464,0.47864 -1.810837,0.82708 6.585333,-3.97092 3.395959,-2.00506 1.979043,-0.95093 -0.645837,0.44122 -1.239792,0.9415 -1.711092,1.56783 -0.430837,0.60107 -0.636905,1.31218 -1.064394,1.91361 -0.334395,0.45693 -0.612472,0.94742 -0.908946,1.42818 -0.256792,0.57067 -0.585584,1.09095 -0.983053,1.57319 -0.443207,0.47001 -0.837625,0.96955 -1.18261,1.51582 -0.327078,0.54867 -0.694889,1.07128 -1.11499,1.55243 -0.38791,0.38939 -0.697164,0.83827 -1.012301,1.2862 -0.311327,0.43397 -0.702654,0.80022 -1.03816,1.21303 -0.318876,0.43332 -0.503156,0.93954 -0.734333,1.42028 0,0 -4.059668,1.84889 -4.059668,1.84889 v 0 c 0.226812,-0.49512 0.432897,-0.9974 0.69932,-1.47214 0.258844,-0.49283 0.701049,-0.80889 1.016894,-1.25948 0.387638,-0.39564 0.577614,-0.93815 1.017321,-1.28534 0.383536,-0.50114 0.838605,-0.94347 1.160915,-1.49424 0.30211,-0.57105 0.651374,-1.14115 1.142965,-1.56828 0.366206,-0.48542 0.830845,-0.90638 1.00342,-1.51234 0.276021,-0.50839 0.585466,-0.98863 0.897417,-1.47366 0.123945,-0.1671 0.275588,-0.31313 0.393096,-0.48482 0.29846,-0.43609 0.348542,-1.00669 0.696761,-1.41907 0.40494,-0.69088 0.973707,-1.27583 1.654882,-1.70115 1.721286,-1.39299 3.68258,-2.40452 5.616933,-3.49481 0.607116,-0.30108 1.23752,-0.56013 1.896944,-0.72269 0.722206,-0.11586 1.454285,-0.0646 2.183246,-0.0661 0.70952,0.0174 1.431573,0.0305 2.113044,0.25168 0.561571,0.23031 1.063155,0.58116 1.485779,1.01791 0.455242,0.51792 0.923798,1.02402 1.376796,1.54396 0.538057,0.65615 1.096971,1.31522 1.510541,2.05729 0.359328,0.86492 0.471651,1.76496 0.421965,2.7002 0.0082,0.87879 7.94e-4,1.75765 -0.0081,2.63642 -0.03521,0.87235 -0.106466,1.74396 -0.296955,2.59823 -0.236987,1.10422 -0.391359,2.22977 -0.802635,3.28883 -0.482089,1.16781 -0.944023,2.34231 -1.477359,3.48832 -0.162618,0.39369 -0.301609,0.79757 -0.481327,1.18375 -0.352301,0.75705 -0.892781,1.4094 -1.299869,2.13568 -0.65046,1.12494 -1.285809,2.25364 -2.12135,3.25763 -0.846775,1.06158 -1.663258,2.14664 -2.57443,3.15553 -1.739059,1.78073 -3.401589,3.09813 -5.973075,4.0016 -0.707934,0.26866 -1.432857,0.50943 -2.190415,0.58507 -0.912585,0.10885 -1.829089,0.0919 -2.746485,0.0561 -0.721886,-0.0348 -1.447153,-0.0852 -2.132229,-0.33713 -0.572049,-0.19754 -1.184402,-0.3052 -1.668877,-0.69485 -0.438884,-0.31284 -0.845156,-0.65559 -1.25024,-1.01134 -0.457987,-0.33856 -0.965454,-0.64842 -1.295072,-1.12177 -0.35036,-0.70129 -0.356792,-1.30675 -0.319148,-2.08162 -0.0013,-0.75229 -0.0038,-1.50458 -0.0064,-2.25686 -9.79e-4,-0.82036 -0.0032,-1.64171 0.05668,-2.46042 0.110342,-1.25919 0.324759,-2.50498 0.65746,-3.72565 0.336439,-1.17722 0.604882,-2.39279 1.235817,-3.45637 0.294615,-0.7742 0.613766,-1.53808 0.927622,-2.3031 0,0 4.089207,-1.85009 4.089207,-1.85009 z"
           inkscape:connector-curvature="0" />
        <path
           style="fill:#00002b;fill-opacity:1;stroke:none;stroke-width:0.90200001;stroke-miterlimit:4;stroke-dasharray:none;stroke-opacity:1"
           id="path857"
           d="m 41.108939,237.31328 c 0.262255,-1.02295 0.530564,-2.03907 0.920734,-3.02149 0.350798,-0.92396 0.827336,-1.78794 1.476513,-2.5336 0.353607,-0.36578 0.724021,-0.71536 1.105013,-1.05239 0,0 4.153287,-1.6433 4.153287,-1.6433 v 0 c -0.441635,0.25918 -0.781489,0.64026 -1.158751,0.98344 -0.699542,0.68386 -1.240036,1.49187 -1.590111,2.41063 -0.414081,0.93313 -0.692492,1.90819 -0.855568,2.91606 0,0 -4.051117,1.94065 -4.051117,1.94065 z"
           inkscape:connector-curvature="0" />
        <path
           style="fill:#00002b;fill-opacity:1;stroke:none;stroke-width:0.90200001;stroke-miterlimit:4;stroke-dasharray:none;stroke-opacity:1"
           id="path859"
           d="m 58.983821,234.70954 c -0.956283,1.56163 -1.959591,3.09352 -2.936658,4.64205 -1.322409,2.20994 -2.458992,4.52549 -3.532645,6.8645 -0.825434,1.71132 -1.770253,3.36149 -2.768711,4.97681 -0.756801,1.29117 -1.600732,2.51838 -2.495119,3.71668 -0.736865,0.93168 -1.426271,1.89561 -2.093555,2.87752 -0.505727,0.66629 -1.04775,1.30387 -1.642264,1.89232 -1.498835,1.52985 -3.163633,2.22215 -5.145645,3.38397 0,0 3.494931,-2.82758 3.494931,-2.82758 v 0 c -6.772164,3.9778 -3.756647,2.45141 -2.452587,1.13672 0.601538,-0.57541 1.158571,-1.1789 1.682901,-1.82595 0.73251,-0.95605 1.35776,-1.99639 2.151298,-2.90916 0.888106,-1.19903 1.779164,-2.39028 2.518082,-3.69109 1.041604,-1.60683 2.005486,-3.26338 2.884024,-4.96518 1.077974,-2.35175 2.234253,-4.67093 3.519752,-6.9166 0.916562,-1.50891 1.895809,-2.98282 2.72609,-4.54221 0,0 4.090106,-1.8128 4.090106,-1.8128 z"
           inkscape:connector-curvature="0" />
        <path
           style="fill:#00002b;fill-opacity:1;stroke:none;stroke-width:0.90200001;stroke-miterlimit:4;stroke-dasharray:none;stroke-opacity:1"
           id="path861"
           d="m 58.398706,248.43867 c 1.465849,0.0848 2.929307,0.0347 4.377361,-0.20817 1.50994,-0.44491 4.153654,-1.98385 -2.223738,1.45986 -0.121938,0.0658 0.226962,-0.16072 0.327488,-0.25611 0.251336,-0.2385 0.261697,-0.32376 0.418971,-0.6302 0.232799,-0.76495 0.301529,-1.59204 0.212915,-2.38647 -0.189436,-0.64042 -0.878813,-0.60539 -1.435412,-0.64693 -1.243581,-0.12429 -2.421295,0.22122 -3.595203,0.57067 -1.433658,0.53976 -4.019423,1.94403 2.182328,-1.37601 0.172191,-0.0922 -0.319884,0.22454 -0.473218,0.34552 -0.469318,0.37028 -0.459303,0.39478 -0.87894,0.84349 -1.134693,1.33406 -1.553046,3.01966 -1.946527,4.6832 -0.166243,1.29446 -0.658095,2.70847 -0.300008,4.00617 0.747075,0.95562 2.120966,1.01081 3.239,1.04721 1.417693,-0.0763 2.795831,-0.46789 4.078689,-1.06451 1.424895,-0.64383 3.7703,-1.9962 -2.554523,1.52106 -0.877315,0.48788 0.759199,-0.5043 0.906931,-0.599 1.458042,-1.03549 3.067619,-1.83773 4.639527,-2.68808 0,0 -3.473937,2.79427 -3.473937,2.79427 v 0 c -2.003769,1.05753 4.888969,-2.90288 2.979873,-1.74293 -0.2886,0.22646 -0.607547,0.43079 -0.923057,0.61818 -1.689132,1.00325 -3.242437,2.08987 -5.032039,2.82863 -1.32475,0.51933 -2.718388,0.87438 -4.15059,0.86763 -1.32142,-0.0976 -2.823343,-0.24341 -3.593915,-1.46751 -0.04937,-0.17329 -0.122836,-0.34146 -0.148111,-0.51986 -0.165402,-1.16747 0.32848,-2.57374 0.443473,-3.73012 0.382932,-1.68769 0.747371,-3.42517 1.7984,-4.8438 1.626827,-2.10481 4.205626,-3.33857 6.682922,-4.2038 1.215562,-0.35036 2.456939,-0.57646 3.728892,-0.45919 0.794446,0.0962 1.515377,0.2913 1.764924,1.14552 0.119729,0.85858 0.03381,1.74342 -0.126555,2.59207 -0.694836,2.3247 -3.7992,3.36614 -6.037011,3.90322 -1.497267,0.18396 -3.00009,0.20222 -4.506868,0.22459 0,0 3.617958,-2.6286 3.617958,-2.6286 z"
           inkscape:connector-curvature="0" />
        <path
           style="fill:#00002b;fill-opacity:1;stroke:none;stroke-width:0.90200001;stroke-miterlimit:4;stroke-dasharray:none;stroke-opacity:1"
           id="path875"
           d="m 74.525607,243.71711 c -0.504978,0.89682 -0.987586,1.80573 -1.48713,2.70577 -0.653127,1.11211 -1.130147,2.31409 -1.523032,3.53928 -0.25496,0.813 -0.330223,1.65938 -0.363794,2.50565 0.01482,0.55162 0.274262,0.94257 0.784998,1.13163 0.646898,0.15543 1.319143,0.14525 1.980393,0.15023 0.471416,-0.0521 0.998331,0.10715 1.451877,-0.0777 0.176112,-0.0718 0.322337,-0.20198 0.486254,-0.2984 -6.065509,3.61413 -3.286342,2.14818 -1.756982,0.3531 0.804035,-0.94667 1.46747,-1.98219 1.88453,-3.15287 0.247171,-0.77643 0.27913,-1.59054 0.29329,-2.3981 -0.02146,-0.72765 0.04455,-1.4632 -0.04612,-2.18673 -0.0538,-0.56801 -0.44023,-0.97855 -0.706409,-1.45377 -0.270925,-0.48737 -0.461417,-1.0938 -1.07846,-1.19328 -0.07277,0.004 -0.148354,-0.01 -0.218313,0.0107 -0.14233,0.0414 -0.256429,0.15104 -0.394084,0.20601 -0.269332,0.10756 -0.515294,0.14335 -0.770704,0.28757 -1.516076,0.66713 -0.472853,0.21867 3.343521,-1.93496 0.0805,-0.0454 -0.156758,0.098 -0.234421,0.14812 -0.225549,0.14556 -0.4255,0.31357 -0.633725,0.48237 -0.4254,0.43881 -0.871865,0.85633 -1.301705,1.29061 -0.435914,0.39891 -0.823764,0.84476 -1.244973,1.25829 -0.480843,0.40407 -0.795644,0.83777 -0.959818,1.44326 0,0 -4.015052,1.93915 -4.015052,1.93915 v 0 c 0.109558,-0.65109 0.283702,-1.26824 0.85752,-1.66276 0.390945,-0.44683 0.836459,-0.84212 1.227333,-1.28814 0.469982,-0.38281 0.873313,-0.84875 1.302382,-1.27438 0.234588,-0.27056 0.524124,-0.53694 0.834986,-0.71668 4.092966,-2.3666 2.636385,-1.72083 4.329744,-2.45806 0.526656,-0.16824 1.036016,-0.43963 1.590818,-0.23133 0.614508,0.33197 0.934008,0.85145 1.239189,1.46283 0.293849,0.52131 0.707491,0.9825 0.774338,1.60479 0.117422,0.74363 0.04252,1.50284 0.06777,2.25359 -0.0084,0.85092 -0.02925,1.709 -0.25899,2.53487 -0.39039,1.22314 -1.034775,2.31821 -1.85266,3.30886 -1.560373,2.04869 -3.21727,2.92289 -5.762297,4.1594 -0.652873,0.27711 -1.356252,0.192 -2.051537,0.19285 -0.710353,-0.0161 -1.442114,-0.0194 -2.108166,-0.2981 -0.603919,-0.34802 -0.971529,-0.87869 -1.02167,-1.58902 0.02691,-0.88662 0.09002,-1.77542 0.345718,-2.63053 0.390639,-1.25066 0.872908,-2.48008 1.510038,-3.62671 0.471887,-0.87964 0.941821,-1.75963 1.396137,-2.64731 0,0 4.089207,-1.85008 4.089207,-1.85008 z"
           inkscape:connector-curvature="0" />
      </g>
    </g>
  </g>
</svg>
