<?xml version="1.0" encoding="UTF-8" standalone="no"?>
<!-- Created with Inkscape (http://www.inkscape.org/) -->

<svg
   xmlns:dc="http://purl.org/dc/elements/1.1/"
   xmlns:cc="http://creativecommons.org/ns#"
   xmlns:rdf="http://www.w3.org/1999/02/22-rdf-syntax-ns#"
   xmlns:svg="http://www.w3.org/2000/svg"
   xmlns="http://www.w3.org/2000/svg"
   xmlns:sodipodi="http://sodipodi.sourceforge.net/DTD/sodipodi-0.dtd"
   xmlns:inkscape="http://www.inkscape.org/namespaces/inkscape"
   width="210mm"
   height="297mm"
   viewBox="0 0 210 297"
   version="1.1"
   id="svg8"
   inkscape:version="0.91 r13725"
   sodipodi:docname="água e sal.svg">
  <defs
     id="defs2">
    <inkscape:perspective
       sodipodi:type="inkscape:persp3d"
       inkscape:vp_x="0 : 148.5 : 1"
       inkscape:vp_y="0 : 1000 : 0"
       inkscape:vp_z="210 : 148.5 : 1"
       inkscape:persp3d-origin="105 : 99 : 1"
       id="perspective817" />
  </defs>
  <sodipodi:namedview
     id="base"
     pagecolor="#ffffff"
     bordercolor="#666666"
     borderopacity="1.0"
     inkscape:pageopacity="0.0"
     inkscape:pageshadow="2"
     inkscape:zoom="0.98994949"
     inkscape:cx="109.93217"
     inkscape:cy="507.70955"
     inkscape:document-units="mm"
     inkscape:current-layer="layer1"
     showgrid="false"
     inkscape:window-width="1366"
     inkscape:window-height="719"
     inkscape:window-x="0"
     inkscape:window-y="25"
     inkscape:window-maximized="1" />
  <metadata
     id="metadata5">
    <rdf:RDF>
      <cc:Work
         rdf:about="">
        <dc:format>image/svg+xml</dc:format>
        <dc:type
           rdf:resource="http://purl.org/dc/dcmitype/StillImage" />
        <dc:title />
      </cc:Work>
    </rdf:RDF>
  </metadata>
  <g
     inkscape:label="Layer 1"
     inkscape:groupmode="layer"
     id="layer1">
    <g
       id="g3405"
       style="fill:#00002b;fill-opacity:1">
      <path
         inkscape:connector-curvature="0"
         d="m 31.143501,141.84627 c 0.755819,-0.14241 1.475327,-0.40695 2.229233,-0.5641 0.789869,-0.18485 1.593628,-0.33427 2.381147,-0.53419 0.866161,-0.20971 1.7072,-0.51293 2.550485,-0.79972 0.709047,-0.44107 1.52518,-0.67103 2.259825,-1.04278 0.609222,-0.24111 1.22786,-0.39418 1.804318,-0.71492 -7.976476,4.55857 -1.059566,0.61383 0.608648,-0.37711 1.146032,-0.68076 -4.617588,2.66589 -3.465703,1.99508 1.379087,-0.80313 2.767147,-1.59076 4.147314,-2.39203 1.145022,-0.66475 -4.603612,2.61754 -3.441866,1.98247 1.403289,-0.7671 2.777767,-1.58578 4.166653,-2.37867 0.122057,-0.0696 0.241638,-0.14368 0.36617,-0.20872 2.281637,-1.19168 -5.324332,3.085 -2.464806,1.42556 1.373942,-0.79733 2.750061,-1.59091 4.12509,-2.38637 -6.61801,3.86989 -3.531629,2.07799 -2.097778,1.07535 1.366144,-0.787 2.731217,-1.57586 4.098433,-2.361 0.09834,-0.0565 0.198776,-0.1092 0.298164,-0.1638 -1.163309,0.66812 -4.644742,2.68707 -3.489931,2.00436 1.370809,-0.8104 2.772603,-1.56793 4.13797,-2.38747 1.151831,-0.69137 -2.326968,1.34324 -3.497252,2.00289 -0.102188,0.0576 0.194733,-0.13083 0.2921,-0.19625 0.617656,-0.38933 1.225703,-0.78087 1.792935,-1.24145 0.513676,-0.50695 1.041485,-0.99968 1.491174,-1.56539 0.395316,-0.44413 0.707382,-0.9479 1.060772,-1.42238 0.420249,-0.43029 0.837039,-0.86009 1.179418,-1.35713 0.280267,-0.48215 0.593635,-0.94357 0.959731,-1.36448 0.404354,-0.4505 0.831675,-0.88944 1.316738,-1.25385 0.49643,-0.38683 0.882063,-0.88972 1.303608,-1.35212 0.32444,-0.45575 0.64054,-0.91529 0.983062,-1.35817 0.343167,-0.41391 0.728509,-0.78832 1.097097,-1.17868 1.184757,-1.25347 3.992748,-4.34267 4.69038,-2.16318 0.06007,0.6984 -0.358992,1.32762 -0.655593,1.93234 -0.513111,0.92795 -1.151715,1.77871 -1.732769,2.66459 -0.482306,0.75544 -0.839086,1.582 -1.209421,2.39589 -0.372708,0.83856 -0.910228,1.5894 -1.411941,2.35382 -0.553982,0.8176 -1.057479,1.6678 -1.527014,2.53624 -0.395412,0.67881 -0.669385,1.41571 -1.040564,2.10669 -0.409961,0.57858 -0.731898,1.19288 -0.992237,1.85102 -0.202682,0.73382 -0.444757,1.45853 -0.632868,2.19661 -0.159276,0.64659 -0.491924,1.22634 -0.700788,1.85566 -0.19911,0.69516 -0.225023,1.42082 -0.246055,2.13877 -0.01386,0.75474 -0.009,1.50966 -0.007,2.26447 0.0021,0.75652 0.0029,1.51304 0.0034,2.26956 -0.04447,0.75534 0.0294,1.4925 0.153852,2.23546 0.226187,0.6423 0.410853,1.28777 0.510644,1.96193 0.09825,0.57999 0.420489,1.07161 0.607702,1.62222 0.283208,0.55462 0.438119,1.15761 0.625706,1.74812 0.198257,0.39317 0.366543,0.79506 0.502549,1.2135 0,0 -3.908745,2.14442 -3.908745,2.14442 v 0 c -0.128169,-0.42081 -0.299778,-0.8202 -0.497181,-1.21361 -0.191124,-0.5874 -0.355584,-1.18472 -0.63422,-1.73873 -0.186727,-0.5794 -0.536945,-1.08952 -0.636598,-1.69904 -0.08684,-0.67345 -0.265993,-1.31638 -0.496887,-1.95479 -0.129122,-0.76535 -0.249621,-1.51994 -0.189005,-2.30038 -2.65e-4,-0.75627 -7.94e-4,-1.51253 -0.0029,-2.2688 -0.0019,-0.7582 -0.0065,-1.51644 0.0013,-2.27462 0.01365,-0.74968 0.02958,-1.505 0.189187,-2.24083 0.166532,-0.6426 0.454512,-1.22342 0.711425,-1.83229 0.161809,-0.76665 0.467532,-1.48641 0.626557,-2.25402 0.231574,-0.68471 0.490773,-1.34606 0.929707,-1.92748 0.475506,-0.63378 0.666435,-1.41598 1.08473,-2.08586 0.4513,-0.88924 0.970971,-1.74448 1.521299,-2.57551 0.474152,-0.76204 1.014772,-1.48455 1.422474,-2.28478 0.362532,-0.84159 0.751843,-1.67716 1.20359,-2.47427 0.578646,-0.86954 1.173596,-1.72832 1.734978,-2.60867 0.271989,-0.52641 0.53304,-1.06497 0.739122,-1.61781 -0.0145,-0.24176 -0.0088,0.068 0.0623,0.0299 6.116905,-3.2741 4.436444,-3.09618 3.340039,-1.70246 -0.413438,0.33206 -0.758811,0.75264 -1.111694,1.14452 -0.409909,0.37546 -0.717331,0.86602 -0.996884,1.34222 -0.387871,0.50552 -0.846286,0.95961 -1.271513,1.43266 -0.62188,0.5415 0.170307,-0.12368 -0.493517,0.35612 -0.319344,0.23082 -0.512019,0.59668 -0.852781,0.80683 -0.32638,0.4393 -0.723927,0.81862 -0.9934,1.30248 -0.261493,0.54865 -0.674343,1.05168 -1.152615,1.4242 -0.398459,0.44997 -0.664934,0.98228 -1.063394,1.4328 -0.699731,0.7831 0.285395,-0.34094 -0.428091,0.55121 -0.311192,0.38912 -0.751501,0.65795 -1.042426,1.0687 -0.521015,0.53044 -1.141831,0.91835 -1.768372,1.31048 -1.445067,0.90462 -2.965773,1.68556 -4.401873,2.60435 -1.125755,0.72024 4.622924,-2.68431 3.468359,-2.01123 -1.374359,0.80122 -2.750121,1.60005 -4.127748,2.39564 -0.09978,0.0576 -0.403688,0.22227 -0.304329,0.16392 1.17448,-0.68964 2.353246,-1.37195 3.529869,-2.05793 -1.818579,1.14445 -3.481255,2.51142 -5.514551,3.34545 1.16033,-0.67381 2.31667,-1.35453 3.480985,-2.02143 0.213963,-0.12255 -0.416523,0.26429 -0.630087,0.38753 -1.627333,0.93912 -3.220061,1.91342 -4.878273,2.78644 8.483957,-4.92383 0.157268,-0.0882 -0.720482,0.40693 -1.158878,0.6537 4.595955,-2.68358 3.45218,-2.00381 -1.37147,0.8151 -2.769057,1.58596 -4.135294,2.4098 -0.208836,0.12593 10.636842,-6.16193 -0.636752,0.36025 -0.595172,0.25324 -1.219433,0.42007 -1.804969,0.69712 -0.773512,0.3045 -1.501436,0.69723 -2.27385,1.0017 -0.846172,0.29116 -1.702816,0.56027 -2.574475,0.76388 -0.796833,0.17579 -1.588836,0.37027 -2.388032,0.53478 -0.769463,0.19098 -1.525037,0.47685 -2.324338,0.51021 0,0 3.626543,-2.63484 3.626543,-2.63484 z"
         id="path823"
         style="fill:#00002b;fill-opacity:1;stroke:none;stroke-width:0.90200001;stroke-miterlimit:4;stroke-dasharray:none;stroke-opacity:1" />
      <path
         inkscape:connector-curvature="0"
         d="m 47.019754,137.32045 c 0.303734,0.56739 0.680022,1.03626 1.258396,1.33121 0.551307,0.10869 1.081196,0.24946 1.621737,0.40715 0.544414,0.12351 1.106151,0.13225 1.661811,0.14458 2.390275,-0.31626 -1.541024,2.70396 -3.33325,2.63739 -0.486421,-0.008 -0.972873,-0.006 -1.459331,-0.009 -0.500054,0.0362 -0.883951,-0.2479 -1.223102,-0.58067 -0.281657,-0.20615 -0.555093,-0.42707 -0.773163,-0.70499 -0.311772,-0.26568 -0.465344,-0.66539 -0.729078,-0.97761 -0.272584,-0.30276 -0.414385,-0.69236 -0.67496,-0.99942 -0.104574,-0.0594 -0.218331,-0.0963 -0.332547,-0.1315 0,0 3.751355,-2.49498 3.751355,-2.49498 v 0 c 0.161444,0.0893 0.317775,0.18155 0.442788,0.32135 0.240462,0.3218 0.393547,0.69417 0.655683,1.00267 0.256191,0.32191 0.443513,0.69462 0.749205,0.97376 0.206962,0.25863 0.500824,0.42869 0.742286,0.65347 0.286713,0.27102 0.618503,0.33744 1.008943,0.3101 0.49285,-0.002 0.985684,7.9e-4 1.478526,-0.004 1.926175,-0.0555 -2.487366,3.00657 -3.927692,2.61696 -0.584057,-0.0282 -1.175345,-0.0608 -1.737516,-0.23509 -0.556186,-0.17952 -1.146545,-0.23529 -1.670793,-0.50224 -0.597572,-0.39917 -1.029761,-0.93276 -1.409624,-1.53853 0,0 3.900326,-2.22079 3.900326,-2.22079 z"
         id="path825"
         style="fill:#00002b;fill-opacity:1;stroke:none;stroke-width:0.90200001;stroke-miterlimit:4;stroke-dasharray:none;stroke-opacity:1" />
      <path
         inkscape:connector-curvature="0"
         d="m 63.369062,141.40537 c -0.156636,-0.58785 -0.33514,-1.1855 -0.580337,-1.74358 -0.33873,-0.38783 -0.662659,-0.7775 -0.993,-1.17272 -0.288041,-0.52253 -0.735361,-0.66952 -1.290727,-0.76051 -0.588328,-0.26955 -1.238782,-0.29415 -1.851657,-0.46628 -0.709901,-0.21019 -1.445837,-0.28237 -2.181559,-0.32531 -0.459846,-0.0246 -0.93718,-0.0542 -1.377283,0.11698 -0.08857,0.0345 -0.329057,0.19036 -0.246264,0.14369 1.207077,-0.68036 2.412762,-1.3632 3.619146,-2.0448 -0.496806,0.42418 -0.578236,1.17626 -0.706747,1.78581 -0.126415,0.82428 -0.32648,1.69672 0.06521,2.47211 0.376653,0.47784 0.901544,0.52487 1.467154,0.56075 0.728745,0.0448 1.450819,0.0419 2.121869,-0.27129 -7.784053,4.62498 -0.881116,0.061 1.612804,-0.92615 0.113676,-0.0338 0.231053,-0.057 0.341024,-0.10144 0.233958,-0.12365 0.340186,-0.18911 0.587704,-0.28308 0.308763,-0.11721 0.608449,-0.16318 0.906864,-0.30826 -6.400482,3.75968 -3.595984,2.48741 -2.569908,0.91095 0.689546,-1.45659 3.717448,-3.64814 4.25332,-1.89295 0.09838,0.32222 0.06956,0.72858 0.10025,1.06065 0.137126,0.98057 0.379601,1.94603 0.649579,2.89805 0.331443,0.72538 0.602824,1.4565 0.722138,2.24627 0.121922,0.98002 0.229552,1.96544 0.400936,2.9383 0.189418,1.0175 0.43388,2.02609 0.763744,3.00732 0.298293,0.81982 0.537564,1.65028 0.686477,2.51031 0.122388,0.7993 0.139491,1.60879 0.14996,2.41571 0.06695,0.73704 -0.175326,1.38331 -0.550463,2.00166 -0.261228,0.54477 -0.634428,0.98798 -1.106818,1.35899 -2.653313,1.86769 -3.390222,2.3892 -5.836772,2.43759 -0.829971,0.12493 -1.41524,-0.20384 -2.101897,-0.60248 -0.730173,-0.49601 -1.192853,-1.23741 -1.63199,-1.9829 -0.549008,-1.08646 -0.955712,-2.23274 -1.223478,-3.41852 -0.17354,-0.83955 -0.202827,-1.69711 -0.215723,-2.55126 -0.02503,-0.77073 0.12622,-1.53357 0.357333,-2.2651 0.265721,-0.85036 0.651248,-1.63541 1.184669,-2.34753 0.587463,-0.62177 1.242984,-1.18773 1.907326,-1.72741 1.583592,-1.10232 3.283413,-2.03799 4.991126,-2.93315 0.387739,-0.20325 0.793859,-0.33654 1.178637,-0.54535 -1.159351,0.66229 -2.313921,1.33303 -3.478056,1.98689 -0.11607,0.0652 0.223218,-0.14518 0.333028,-0.22044 0.261636,-0.17932 0.430334,-0.31898 0.709483,-0.48067 1.395407,-0.80825 2.788296,-1.62125 4.198027,-2.40425 0.134007,-0.0744 0.285988,-0.11046 0.428983,-0.16569 0.924795,-0.3757 1.884182,-0.60402 2.787943,-1.04093 1.859547,-1.08176 -1.313174,0.76643 -2.876145,1.62024 -0.136602,0.0746 0.251706,-0.1832 0.378942,-0.27286 0.316396,-0.22296 0.637005,-0.43863 0.950409,-0.66589 0.469276,-0.32372 0.846799,-0.76342 1.087049,-1.2789 0.214363,-0.62215 0.189963,-1.28636 0.318124,-1.92664 0.02231,-0.10305 0.04577,-0.20587 0.06692,-0.30916 0.03262,-0.15931 0.08151,-0.67574 0.111509,-0.69138 4.088733,-2.13261 3.80352,-3.45039 4.075252,-1.74726 0.02855,0.72598 0.0046,1.45291 7.94e-4,2.17925 -0.0024,0.90494 -0.0085,1.80979 -0.0064,2.71474 0.03105,0.67391 -0.135747,1.39749 0.242324,1.99487 0.375047,0.26262 0.902792,0.21556 1.343821,0.222 0.396817,-0.0426 0.818766,0.0594 1.212832,-0.009 0.157329,-0.0271 0.299534,-0.11063 0.450262,-0.16324 1.234779,-1.09676 -0.0024,0.023 -3.479964,1.94769 -0.07045,0.039 0.113467,-0.11429 0.168966,-0.17263 0.17481,-0.18375 0.325334,-0.38545 0.489709,-0.57837 0.408906,-0.41677 0.661588,-0.85357 0.79502,-1.42047 0.181324,-0.60454 0.309594,-1.21876 0.44127,-1.83528 0.209605,-0.60945 0.318701,-1.2376 0.378277,-1.87712 0.104727,-2.01798 -0.523973,-0.60454 4.035708,-2.50275 0.0685,-0.0285 -0.0026,0.14837 -0.0039,0.22256 -0.0016,0.0918 -0.0032,0.18367 -0.0048,0.27551 -0.01103,0.71588 -0.01278,1.43187 -0.01431,2.14783 -0.0011,0.76261 -0.0011,1.52522 -7.93e-4,2.28783 -0.02482,0.64252 -0.02371,1.26619 0.327787,1.82129 0.424833,0.39998 0.942943,0.68614 1.505375,0.8397 0.715161,0.13857 1.047856,0.23207 1.633731,-0.23987 -1.222941,0.70668 -2.441691,1.42066 -3.668821,2.12004 -0.05561,0.0317 0.09739,-0.0843 0.152892,-0.1162 1.341745,-0.77072 2.676004,-1.55541 4.037433,-2.2908 1.240401,-0.67003 -4.864277,2.85053 -3.674263,2.09463 1.309952,-0.83209 2.689632,-1.54895 4.034449,-2.32343 0,0 -3.490341,2.81345 -3.490341,2.81345 v 0 c 9.367064,-5.42295 0.01593,-0.003 -0.387411,0.20254 -1.258872,0.64043 2.444763,-1.4152 3.66541,-2.12579 0.05413,-0.0315 -0.110492,0.059 -0.16574,0.0885 -1.328428,0.78504 -2.656856,1.57009 -3.985284,2.35513 -0.604311,0.23185 -1.234493,0.0999 -1.841645,-0.0716 -0.629328,-0.23608 -1.225272,-0.58957 -1.672286,-1.09864 -0.399082,-0.62985 -0.479033,-1.31178 -0.433221,-2.05033 1.96e-4,-0.76279 5.29e-4,-1.52557 7.94e-4,-2.28835 9.5e-5,-0.71168 0.0016,-1.4234 -0.008,-2.13503 -0.0019,-0.089 -0.0032,-0.17792 -0.0057,-0.26685 -0.0019,-0.0689 -0.0667,-0.17141 -0.0075,-0.20664 4.849918,-2.88375 4.06773,-3.55685 3.953886,-1.54349 -0.04193,0.65978 -0.102423,1.32374 -0.331267,1.94971 -0.205248,0.58399 -0.184885,1.23429 -0.461219,1.80298 -0.08655,0.59415 -0.200996,1.20511 -0.695936,1.60168 -1.095835,1.63018 -2.940918,2.75958 -4.839158,3.30149 -0.570113,0.11913 -1.161333,0.0507 -1.740217,0.0551 -0.588738,-0.041 -1.199486,-0.0946 -1.591601,-0.59257 -0.390081,-0.70198 -0.339307,-1.44156 -0.314071,-2.22567 0.0037,-0.90488 -2.1e-5,-1.80971 0.0041,-2.71458 5.3e-4,-0.70198 5.3e-4,-1.40459 -0.03227,-2.10592 -0.03648,-1.62838 -0.04138,-0.1954 3.971678,-2.27665 0.03849,-0.02 -0.04117,0.077 -0.05361,0.11851 -0.08627,0.28829 -0.08955,0.59376 -0.17195,0.88308 -0.159869,0.65584 -0.170765,1.31463 -0.28821,1.97895 -0.17525,0.60934 -0.522399,1.1111 -0.991429,1.53654 -1.973892,1.28841 -3.861614,2.74218 -6.05001,3.68664 -0.924176,0.38942 -1.898287,0.62767 -2.809846,1.04802 -1.575554,0.75043 -0.603035,0.30099 2.977933,-1.77884 0.127461,-0.074 -0.254608,0.14871 -0.379346,0.22725 -0.226211,0.14242 -0.417912,0.33631 -0.647811,0.4727 -1.370158,0.81284 -2.759072,1.59365 -4.138607,2.39048 -0.38948,0.17466 -0.774102,0.34721 -1.148107,0.55389 -0.137808,0.0761 -0.546407,0.31319 -0.410474,0.23373 3.616409,-2.11405 4.455075,-2.66319 2.980129,-1.71216 -0.714066,0.44908 -1.279618,1.11281 -1.948495,1.62491 -0.591428,0.62666 -0.962652,1.36743 -1.242803,2.17844 -0.207357,0.69904 -0.451271,1.40091 -0.41972,2.14374 0.0034,0.83122 0.01127,1.66611 0.148493,2.48835 0.219678,1.14894 0.582784,2.25775 1.14591,3.28806 0.425389,0.66691 0.860893,1.34675 1.547625,1.77315 0.638532,0.35692 1.223507,0.49557 1.963335,0.39901 2.123313,-0.10895 3.961236,-1.40614 -1.923939,1.80079 0.518528,-0.22823 0.966071,-0.64506 1.195517,-1.16625 0.350126,-0.55771 0.745895,-1.08171 0.672465,-1.78239 -0.0046,-0.78787 -0.0098,-1.57816 -0.109191,-2.36104 -0.127748,-0.84467 -0.367908,-1.64816 -0.650869,-2.45236 -0.316172,-1.00659 -0.563288,-2.03478 -0.777058,-3.06744 -0.182822,-0.97171 -0.288539,-1.96105 -0.432289,-2.93856 -0.111311,-0.77308 -0.363215,-1.49285 -0.676516,-2.2077 -0.266764,-0.97234 -0.52043,-1.95192 -0.694248,-2.94499 -0.0471,-0.27839 -0.140978,-0.64718 -0.109165,-0.93741 0.0016,-0.0146 0.02352,0.0314 0.03647,0.0246 4.059013,-2.14983 5.36358,-2.31838 3.761827,-2.09098 -0.212566,0.24101 -0.349813,0.51944 -0.544652,0.77385 -1.087843,1.42045 -3.119136,2.05314 -4.511561,2.84408 -0.621967,0.196 -1.21465,0.45693 -1.819503,0.69934 -2.880476,1.38112 4.572616,-2.88882 2.701618,-1.63335 -0.08384,0.0563 -0.151633,0.13539 -0.238823,0.18629 -1.359012,0.79335 -2.731527,1.56334 -4.097288,2.34501 -0.737446,0.17393 -1.488188,0.19869 -2.241867,0.11833 -0.704459,-0.10018 -1.287547,-0.32691 -1.69981,-0.94369 -0.43093,-0.87905 -0.318172,-1.78767 -0.185344,-2.73454 0.118817,-0.69848 0.240861,-1.42455 0.540597,-2.06809 2.624198,-1.53788 3.318489,-2.68091 5.775317,-2.46009 0.753128,0.0647 1.498838,0.17793 2.228453,0.3811 0.625983,0.12304 1.248069,0.24708 1.853213,0.45454 0.615961,0.16555 1.1263,0.43948 1.462868,1.00504 0.347319,0.43202 0.734388,0.82471 1.049055,1.28212 0.252237,0.58122 0.412466,1.20499 0.638386,1.79675 0,0 -3.951211,2.13674 -3.951211,2.13674 z"
         id="path827"
         style="fill:#00002b;fill-opacity:1;stroke:none;stroke-width:0.90200001;stroke-miterlimit:4;stroke-dasharray:none;stroke-opacity:1" />
      <path
         inkscape:connector-curvature="0"
         d="m 92.851204,138.38156 c -0.143915,-0.56655 -0.615664,-0.77669 -1.056878,-1.0654 -0.384752,-0.33573 -0.780767,-0.68382 -1.215324,-0.95514 -0.46074,-0.12215 -0.878586,-0.35343 -1.341897,-0.47373 -0.50432,-0.0925 -1.018951,-0.10148 -1.530189,-0.10544 -0.428498,-0.0173 -0.802817,0.24819 -1.219727,0.32819 -0.07015,0.006 -0.143502,-0.003 -0.210462,0.019 -0.131448,0.0429 -0.490853,0.25451 -0.371068,0.18544 7.261675,-4.18724 4.496332,-2.73894 3.365455,-1.87198 -0.329414,0.30364 -0.487648,0.75012 -0.756663,1.10996 -0.372814,0.28918 -0.543211,0.66796 -0.675323,1.10574 -0.240906,0.52379 -0.333219,1.08525 -0.38277,1.65456 -0.02882,0.61227 -0.09162,1.23181 -0.01897,1.84234 0.126693,0.39497 0.122721,0.89054 0.454181,1.18 0.43126,0.10776 0.824997,0.31419 1.260562,0.4186 0.59632,0.0979 1.203613,0.0968 1.806292,0.10419 0.723492,-0.0352 1.467972,0.0905 2.177745,-0.0714 0.103312,-0.0249 0.206217,-0.0515 0.309931,-0.0746 0.500827,-0.11173 0.137297,0.008 0.573947,-0.1958 0.08753,-0.0409 0.349959,-0.16291 0.266287,-0.11457 -4.076853,2.35527 -4.725286,2.80318 -3.398676,1.90337 0.381712,-0.30567 0.608878,-0.69535 0.848233,-1.10851 0.144947,-0.4093 0.40799,-0.75591 0.605306,-1.13626 0.168741,-0.3949 0.363625,-0.76591 0.450551,-1.18996 0.06109,-0.5552 0.115533,-1.10335 0.242134,-1.64886 0.394649,-1.86079 -0.601237,-0.47817 4.166396,-2.23933 0.01738,-0.006 0.02424,0.22995 0.03681,0.54394 0.03171,0.68898 -0.04209,1.38224 0.03479,2.06815 0.0095,0.6199 0.339347,1.01311 0.644891,1.50604 0.350824,0.41004 0.643392,0.8568 0.959985,1.29154 0.295111,0.43153 0.466783,0.94753 0.800023,1.3529 0.411324,0.22603 0.838614,0.4121 1.302374,0.51075 0.63322,0.13136 1.23423,0.11203 1.85629,-0.03 0.58933,-0.11672 1.12292,-0.41388 1.65726,-0.67674 -3.65931,2.0903 -4.727254,2.8523 -3.42741,1.93478 0,0 4.18681,-1.6098 4.18681,-1.6098 v 0 c -1.60831,0.77115 -0.13429,0.0578 -4.25002,2.46415 -0.54503,0.26971 -1.12621,0.48032 -1.728331,0.57547 -0.65882,0.0933 -1.325303,0.0207 -1.973021,-0.12457 -0.527881,-0.15765 -1.069684,-0.37407 -1.477368,-0.75334 -0.309202,-0.42929 -0.510566,-0.92636 -0.797618,-1.36995 -0.31497,-0.44733 -0.633412,-0.8864 -0.973344,-1.31632 -0.338965,-0.5388 -0.697851,-1.00864 -0.724789,-1.67969 -0.102859,-0.6939 -0.02818,-1.39753 -0.06517,-2.09717 -0.0039,-0.0887 -0.0066,-0.17754 -0.01167,-0.26621 -0.004,-0.0694 -0.07579,-0.17309 -0.01566,-0.208 1.312278,-0.76198 2.693834,-1.39821 4.027752,-2.12165 0.02318,-0.0126 -0.05588,-0.0383 -0.07616,-0.0214 -0.09039,0.0751 -0.03298,0.26226 -0.126825,0.32902 -0.124362,0.54054 -0.255498,1.06136 -0.237432,1.62232 -0.06934,0.43948 -0.139568,0.88437 -0.416668,1.24899 -0.100569,0.46547 -0.453166,0.75026 -0.586526,1.20305 -0.213164,0.4505 -0.406866,0.90518 -0.800058,1.23287 -1.177536,1.66838 -3.455905,2.51975 -5.452403,2.86408 -0.737354,0.0399 -1.476682,0.0138 -2.214825,0.014 -0.63474,-0.0131 -1.279713,-0.0163 -1.896448,-0.18513 -0.479981,-0.15997 -0.988314,-0.32078 -1.399768,-0.61661 -0.343953,-0.41304 -0.452062,-0.91255 -0.564946,-1.42864 -0.107379,-0.63745 -0.04921,-1.28937 -0.03036,-1.93335 0.05157,-0.59495 0.08171,-1.20447 0.314182,-1.76292 0.21145,-0.4237 0.193525,-0.95422 0.592852,-1.2875 0.402275,-0.2498 0.57368,-0.68712 0.741678,-1.11248 1.308496,-1.37404 3.104398,-2.33324 4.942276,-2.76898 0.415547,-0.14905 0.837348,-0.26176 1.283769,-0.21378 0.538916,0.023 1.083413,0.0479 1.603642,0.20432 0.481261,0.17099 0.966817,0.35449 1.419916,0.587 0.405479,0.3067 0.805235,0.6213 1.195723,0.9469 0.544806,0.33819 1.004655,0.73064 1.24795,1.34693 0,0 -3.951211,2.13673 -3.951211,2.13673 z"
         id="path831"
         style="fill:#00002b;fill-opacity:1;stroke:none;stroke-width:0.90200001;stroke-miterlimit:4;stroke-dasharray:none;stroke-opacity:1" />
      <path
         inkscape:connector-curvature="0"
         d="m 74.510445,163.63191 c 0.465757,0.94385 1.148408,1.75934 1.865434,2.52109 0.630317,0.65926 1.287439,1.28184 2.152187,1.60345 0.528802,0.15604 1.083062,0.14818 1.628889,0.14664 0.250688,-0.0189 0.514964,0.0412 0.755272,-0.0602 0.06234,-0.0263 0.228589,-0.14476 0.169508,-0.11175 -2.568792,1.4351 -3.266088,2.13354 -2.436683,1.32706 0.215204,-0.32806 0.474972,-0.60197 0.614077,-0.97323 0.130061,-0.4719 0.131238,-0.96594 0.139604,-1.45181 0.0039,-0.50282 0.02914,-1.00276 -0.06651,-1.49818 -0.06408,-0.44304 -0.172699,-0.87 -0.292629,-1.30013 -0.134525,-0.32424 -0.410139,-0.57984 -0.678225,-0.79961 -0.32348,-0.23566 -0.643234,-0.38605 -1.037749,-0.45822 -0.431893,-0.0763 -0.84773,-0.2105 -1.284629,-0.27578 -0.395467,-0.0474 -0.794456,-0.0469 -1.192125,-0.0499 -0.373433,-0.002 -0.746824,0.004 -1.120259,0.003 -0.155157,0.0324 -0.335672,-0.0375 -0.488791,0.003 -0.08122,0.0214 -0.145196,0.085 -0.22174,0.11959 0.872175,-0.49259 1.744351,-0.98517 2.616523,-1.47776 -0.199361,0.12175 -0.363482,0.28513 -0.519168,0.4576 -0.116194,0.1881 -0.222681,0.39124 -0.356984,0.56727 -0.177175,0.11343 -0.239056,0.29086 -0.270475,0.48923 -0.0011,0.29582 -0.07556,0.5676 -0.166005,0.84535 -0.09914,0.28503 -0.114988,0.58992 -0.124143,0.88908 0.02797,0.30874 0.188111,0.57519 0.301953,0.85668 0.09068,0.32251 0.246105,0.61996 0.356923,0.9351 0.174996,0.30532 0.266245,0.6447 0.399167,0.9687 0.225866,0.32649 0.355531,0.70128 0.517752,1.06047 0.22701,0.28757 0.488963,0.54855 0.712282,0.84444 0.191648,0.32769 0.392245,0.65623 0.653407,0.93355 0.301771,0.17208 0.567534,0.37536 0.802392,0.6315 0.210293,0.36507 0.559509,0.56209 0.915709,0.76082 0.383461,0.12836 0.679768,0.41191 1.040665,0.58246 0.433263,0.15745 0.865073,0.30962 1.29165,0.48474 0.425752,0.10942 0.81765,0.3023 1.247699,0.39782 0.437441,0.0267 0.744942,0.34957 1.143897,0.49211 0.451442,0.12134 0.922848,0.12556 1.387104,0.13524 0.535493,0.0288 1.05427,0.005 1.579274,-0.0952 0.524415,-0.0889 1.023464,-0.27255 1.512126,-0.47535 -4.59159,2.81055 -2.643481,1.55457 -1.656821,0.82572 0.373695,-0.24579 0.716873,-0.51902 0.973381,-0.88772 0.220279,-0.36747 0.433409,-0.74161 0.72739,-1.05559 0,0 2.933107,-1.17905 2.933107,-1.17905 v 0 c -0.371134,0.21803 -0.547148,0.6065 -0.78123,0.95331 -0.211897,0.43702 -0.522488,0.7425 -0.915085,1.02097 -1.276736,0.74866 -1.968122,2.16837 -3.757115,2.27037 -0.498099,0.19379 -1.020593,0.33085 -1.547879,0.41693 -0.536842,0.0776 -1.07692,0.0614 -1.618123,0.0473 -0.493506,-0.0193 -0.995857,-0.041 -1.462153,-0.22067 -0.371282,-0.16931 -0.693468,-0.42517 -1.116015,-0.45835 -0.430697,-0.12372 -0.844889,-0.29857 -1.2713,-0.43567 -0.433554,-0.18017 -0.88575,-0.3092 -1.313396,-0.50451 -0.349491,-0.1987 -0.67473,-0.43941 -1.047848,-0.59676 -0.367636,-0.22723 -0.728573,-0.4553 -0.964486,-0.83045 -0.249121,-0.24154 -0.542824,-0.41987 -0.808315,-0.64158 -0.254982,-0.29402 -0.472287,-0.61788 -0.665959,-0.95517 -0.24198,-0.31032 -0.531014,-0.58105 -0.746411,-0.90868 -0.163605,-0.36277 -0.297429,-0.73781 -0.524372,-1.06826 -0.13752,-0.32976 -0.235572,-0.67285 -0.417013,-0.9827 -0.101034,-0.31313 -0.264419,-0.60124 -0.341529,-0.92244 -0.130535,-0.32196 -0.311034,-0.62142 -0.368657,-0.97021 0.01005,-0.32323 0.01111,-0.64882 0.0766,-0.96699 0.08768,-0.26498 0.224618,-0.49981 0.19076,-0.78755 0.02117,-0.24365 0.03501,-0.48537 0.172199,-0.69638 0.271197,-0.15525 0.17672,-0.2697 0.40867,-0.45541 0.07091,-0.26733 0.274261,-0.42967 0.460306,-0.61375 2.046174,-1.17355 2.057143,-1.71184 3.610022,-1.66365 0.373005,-0.003 0.74598,2.7e-4 1.118976,0.003 0.408162,0.007 0.818356,0.0201 1.221198,0.0915 0.433401,0.0863 0.854723,0.21837 1.290555,0.29231 0.420659,0.11494 0.7854,0.31293 1.128755,0.58242 0.305276,0.27629 0.616582,0.57119 0.76617,0.96359 0.11942,0.43816 0.242189,0.86908 0.301048,1.32112 0.107151,0.51683 0.100118,1.03403 0.08966,1.56073 -0.0037,0.50913 -0.0028,1.02199 -0.09079,1.52513 -0.104788,0.45058 -0.273436,0.71282 -0.572111,1.05346 -0.624957,1.46757 -2.472018,2.0032 -3.928457,1.96217 -0.572034,-0.0105 -1.149747,-0.0358 -1.686705,-0.2562 -0.857576,-0.40406 -1.522119,-1.06315 -2.164869,-1.74942 -0.728601,-0.78598 -1.414004,-1.61736 -1.986528,-2.52552 0,0 2.736987,-1.58635 2.736987,-1.58635 z"
         id="path835"
         style="fill:#00002b;fill-opacity:1;stroke:none;stroke-width:0.90200001;stroke-miterlimit:4;stroke-dasharray:none;stroke-opacity:1" />
      <g
         transform="translate(11.112501)"
         id="g855"
         style="fill:#00002b;fill-opacity:1">
        <path
           style="fill:#00002b;fill-opacity:1;stroke:none;stroke-width:0.90200001;stroke-miterlimit:4;stroke-dasharray:none;stroke-opacity:1"
           id="path841"
           d="m 46.387736,177.26972 c -0.586472,-0.43627 -1.16972,-0.87884 -1.788191,-1.26901 -0.552273,-0.39502 -1.134349,-0.73362 -1.752627,-1.01347 -0.61119,-0.23313 -1.229471,-0.39986 -1.87811,-0.48222 -0.786887,-0.12271 -1.545794,-0.36198 -2.313885,-0.56383 -0.802695,-0.2057 -1.630272,-0.26211 -2.454947,-0.29348 -0.618852,0.0116 -1.249944,-0.0709 -1.861968,0.0377 -0.08977,0.017 -0.181131,0.0271 -0.269314,0.051 -0.178197,0.0483 -0.354888,0.10557 -0.523785,0.18016 -0.07868,0.0348 -0.298865,0.17047 -0.224017,0.12808 2.570249,-1.45538 3.245665,-2.03129 2.319155,-1.26614 -0.425739,0.48578 -0.511898,1.16472 -0.685493,1.76835 -0.222208,0.69019 -0.322872,1.40679 -0.380601,2.12683 -0.03916,0.56223 -0.05831,1.12203 0.02775,1.67985 0.125828,0.48936 0.410101,0.90694 0.677587,1.32777 0.359093,0.5721 0.816256,1.03558 1.356109,1.43325 0.573963,0.33199 1.12899,0.69287 1.690925,1.04353 0.56651,0.26752 1.209464,0.37155 1.82625,0.46624 0.801653,0.0942 1.592281,0.25548 2.395709,0.33954 0.569696,0.0532 1.142204,0.0576 1.713881,0.0601 0.479711,0.002 0.943425,0.14913 1.419707,0.20726 0.495175,0.0171 0.967144,0.0579 1.426646,0.25225 0.467469,0.13364 0.880486,0.38365 1.312659,0.5975 0.503142,0.27622 0.907153,0.68629 1.252736,1.13751 0.406254,0.49586 0.705024,1.05709 0.979548,1.63213 0.236924,0.52924 0.407292,1.0843 0.599784,1.63024 0.236061,0.58144 0.422611,1.1734 0.54165,1.78981 0.09231,0.64503 0.1089,1.29733 0.119467,1.94783 0.03887,0.69566 -0.04262,1.3826 -0.123772,2.07163 -0.07552,0.72239 -0.325009,1.38736 -0.640995,2.0341 -0.334516,0.67397 -0.865881,1.19063 -1.414648,1.68926 -1.477304,1.15033 -3.185472,1.9658 -4.867921,2.77373 -0.778832,0.32246 -1.575109,0.6261 -2.405115,0.78653 -0.680813,0.0715 -1.345237,0.22768 -2.024605,0.3108 -0.678021,0.0692 -1.360831,0.0817 -2.041946,0.0852 -0.720777,0.005 -1.441571,0.001 -2.162339,-0.003 -0.751829,-0.0227 -1.455668,-0.24426 -2.15542,-0.49589 -0.59536,-0.1263 -1.003419,-0.52965 -1.428435,-0.92903 -0.516408,-0.53603 -0.853649,-1.20226 -1.197935,-1.85437 -0.462156,-0.71443 -0.708761,-1.52004 -0.952191,-2.32541 -0.130188,-0.39314 -0.214259,-0.79738 -0.280384,-1.20533 0,0 2.776905,-1.46706 2.776905,-1.46706 v 0 c 0.05378,0.397 0.124807,0.79101 0.245272,1.17414 0.230383,0.7891 0.429281,1.58829 0.902144,2.27924 0.342741,0.61613 0.670756,1.25396 1.184058,1.74863 0.393814,0.37939 0.800259,0.69545 1.34601,0.82717 0.671205,0.24168 1.358328,0.41974 2.078058,0.41882 0.72375,-0.003 1.447515,-0.002 2.171245,-0.008 0.674786,-0.0134 1.351354,-0.0244 2.021105,-0.11685 0.668554,-0.098 1.332518,-0.22696 2.000887,-0.32549 0.805506,-0.19988 1.591874,-0.48263 2.344852,-0.83143 0.205914,-0.1 0.602421,-0.29196 0.811908,-0.39575 0.12287,-0.0609 0.485034,-0.25541 0.36767,-0.1845 -4.226142,2.55343 -2.527329,1.50549 -1.61667,0.91451 0.537355,-0.47644 1.088086,-0.94152 1.443768,-1.57875 0.334393,-0.61111 0.60675,-1.24227 0.702979,-1.93877 0.07821,-0.67458 0.161322,-1.3454 0.121558,-2.02625 -0.0026,-0.63479 -0.005,-1.27216 -0.09184,-1.90222 -0.102782,-0.60449 -0.286657,-1.17597 -0.52256,-1.74119 -0.195471,-0.53399 -0.35247,-1.08264 -0.580877,-1.60457 -0.265324,-0.55427 -0.540721,-1.10254 -0.945261,-1.57266 -0.329218,-0.40983 -0.712903,-0.78081 -1.190487,-1.01382 -0.420034,-0.21595 -0.84093,-0.4266 -1.294479,-0.56502 -0.454388,-0.13645 -0.91843,-0.14986 -1.388102,-0.19745 -0.462103,-0.0708 -0.91847,-0.20104 -1.389925,-0.17914 -0.574688,-0.008 -1.150207,-0.024 -1.720975,-0.0973 -0.798089,-0.10736 -1.586722,-0.27479 -2.387944,-0.3597 -0.656883,-0.10763 -1.346766,-0.20565 -1.924399,-0.55674 -0.554355,-0.3694 -1.123667,-0.71374 -1.684848,-1.07266 -0.563337,-0.42544 -1.042699,-0.92594 -1.431105,-1.51896 -0.29556,-0.45476 -0.604922,-0.90647 -0.742807,-1.43874 -0.09994,-0.58295 -0.103298,-1.16255 -0.05116,-1.75263 0.05737,-0.73797 0.148796,-1.47747 0.362706,-2.18854 0.185471,-0.6382 0.285795,-1.31129 0.592582,-1.90456 1.009513,-1.14744 2.603111,-1.92818 4.128884,-2.17018 0.623644,-0.0375 1.249408,-0.005 1.873168,0.0184 0.83539,0.0513 1.671968,0.12952 2.481784,0.35362 0.764336,0.20155 1.526918,0.4166 2.312411,0.52172 0.667702,0.10827 1.311147,0.29791 1.937583,0.55498 0.616058,0.30515 1.198756,0.66011 1.759614,1.05813 0.605835,0.40229 1.1791,0.85851 1.816619,1.20888 0,0 -2.651258,1.74443 -2.651258,1.74443 z"
           inkscape:connector-curvature="0" />
        <path
           style="fill:#00002b;fill-opacity:1;stroke:none;stroke-width:0.90200001;stroke-miterlimit:4;stroke-dasharray:none;stroke-opacity:1"
           id="path849"
           d="m 60.059874,196.26451 c 0.01685,-0.48113 0.01183,-0.96321 0.0048,-1.44458 -0.05917,-0.35126 -0.212391,-0.69061 -0.375457,-1.0059 -0.241972,-0.34749 -0.564739,-0.64578 -0.891966,-0.91435 -0.271401,-0.34005 -0.626038,-0.44704 -1.038801,-0.50771 -0.387705,-0.16179 -0.714455,-0.39291 -1.131502,-0.48962 -0.428823,-0.0978 -0.8392,-0.23872 -1.279035,-0.29778 -0.23077,-0.001 -0.471974,-0.0694 -0.703249,-0.0444 -0.146542,0.0158 -0.29636,0.10898 -0.43442,0.15744 0.873046,-0.49088 1.746261,-0.98146 2.619132,-1.47264 0.03307,-0.0186 -0.06745,0.0349 -0.09971,0.0549 -0.14523,0.09 -0.18809,0.21337 -0.228264,0.37302 -0.07564,0.31641 -0.199075,0.60888 -0.251277,0.93211 -0.0567,0.4853 -0.05645,0.975 -0.06008,1.46292 -0.03381,0.49446 0.01318,0.97151 0.11085,1.45449 0.05281,0.38987 0.200946,0.75254 0.452207,1.05503 0.308928,0.20852 0.647142,0.36881 1.01191,0.45399 0.382148,0.0361 0.725403,0.1998 1.10087,0.2722 0.472101,0.0711 0.950862,0.0748 1.427231,0.081 0.282353,-0.0392 0.593381,0.0514 0.873895,-0.004 0.09804,-0.0194 0.183505,-0.0794 0.277083,-0.11454 -4.407461,2.769 -2.890994,1.78168 -1.983127,0.91224 0.208069,-0.2022 0.397153,-0.36367 0.517898,-0.63257 0.155152,-0.30751 0.266121,-0.62993 0.417169,-0.93962 0.581086,-1.65297 -0.835652,-0.16328 3.001161,-2.16092 0.276391,0.34704 0.440399,0.77306 0.642001,1.16763 0.241569,0.44382 0.56171,0.85066 0.924538,1.20224 0.265549,0.33653 0.642184,0.538 1.039726,0.67899 0.420666,0.25583 0.881406,0.43182 1.31727,0.6562 0.401352,0.21241 0.849426,0.25645 1.294397,0.28711 0.52002,0.025 1.040879,0.0211 1.561338,0.0201 0.46804,0.0124 0.96206,-0.0302 1.384864,-0.24484 0.962125,-0.46338 2.337083,-1.26509 -2.113952,1.23029 -0.08082,0.0453 0.155474,-0.10112 0.229174,-0.15726 0.156557,-0.11926 0.264652,-0.22938 0.406852,-0.36455 0.337849,-0.32503 0.595061,-0.72475 0.842701,-1.12029 0.293658,-0.47476 0.538977,-0.97336 0.748472,-1.48995 0.276897,-0.72019 0.353335,-1.49201 0.403786,-2.25568 0.0325,-0.63928 0.02879,-1.2796 0.02633,-1.91947 -0.0029,-0.54066 -0.0047,-1.08131 -0.0057,-1.62197 -0.0016,-0.50153 0.02735,-0.99993 -0.0668,-1.49435 -0.04504,-0.41804 -0.184187,-0.78502 -0.389531,-1.14597 -0.194786,-0.36378 -0.394258,-0.73383 -0.632523,-1.07173 -0.205081,-0.36927 -0.435973,-0.71762 -0.677733,-1.06323 -0.250444,-0.25765 -0.610174,-0.42036 -0.948931,-0.53739 -0.414575,-0.0671 -0.742717,-0.33598 -1.118576,-0.49816 -0.03988,-0.002 -0.229455,-0.018 -0.276249,0.007 -0.0342,0.0182 -0.105275,0.11048 -0.07128,0.0919 0.892366,-0.48863 1.77151,-1.00105 2.654539,-1.50637 0.0547,-0.0313 -0.106458,0.0738 -0.139817,0.12728 -0.09032,0.33612 -0.07888,0.69122 -0.07596,1.03659 -0.02957,0.44966 0.0292,0.88533 0.108556,1.32607 0.07586,0.46253 0.213492,0.92199 0.417901,1.34425 0.309118,0.50739 0.627626,1.00879 0.912196,1.53058 0.254802,0.51677 0.444106,1.06546 0.726731,1.5679 0.220311,0.44567 0.524454,0.84089 0.75597,1.27907 0.150987,0.46913 0.373973,0.88856 0.632497,1.30418 0.291346,0.32885 0.480341,0.72933 0.759899,1.06632 0.256427,0.38485 0.564544,0.72633 0.911035,1.03125 0.27188,0.33552 0.663466,0.49433 1.043263,0.67305 0.364712,0.24028 0.655449,0.57366 1.034094,0.7922 0.379423,0.19701 0.749277,0.35131 1.173695,0.42031 0.498202,0.06 1.001146,0.058 1.502156,0.06 0.445235,2.3e-4 0.890471,-0.002 1.335706,-0.003 0,0 -2.543384,1.84885 -2.543384,1.84885 v 0 c -0.446048,0.001 -0.892106,0.003 -1.338154,5.3e-4 -0.515644,-0.006 -1.035081,-0.009 -1.54373,-0.10409 -0.442658,-0.10482 -0.844952,-0.29063 -1.240306,-0.51449 -0.35085,-0.2393 -0.648901,-0.54889 -1.017957,-0.76257 -0.397399,-0.20391 -0.797246,-0.39575 -1.084557,-0.75284 -0.345834,-0.32777 -0.675214,-0.67375 -0.944549,-1.06859 -0.274553,-0.35568 -0.481356,-0.7566 -0.768233,-1.10368 -0.263652,-0.42091 -0.500044,-0.84477 -0.648888,-1.32266 -0.225846,-0.43832 -0.529241,-0.83266 -0.744713,-1.27771 -0.273772,-0.50821 -0.477247,-1.05051 -0.721222,-1.57334 -0.283228,-0.52653 -0.607663,-1.02871 -0.925158,-1.53498 -0.228311,-0.44362 -0.382952,-0.92867 -0.462724,-1.42115 -0.08479,-0.45567 -0.183195,-0.90294 -0.14555,-1.37036 0.0013,-0.36991 -0.01913,-0.7421 0.02275,-1.11032 0.137975,-1.36043 2.099569,-2.32337 3.337216,-1.82461 0.360317,0.18248 0.707369,0.38785 1.106001,0.48153 0.385275,0.1676 0.785084,0.35491 1.049072,0.69296 0.242798,0.34571 0.46509,0.70047 0.673259,1.06785 0.238519,0.34962 0.458695,0.71679 0.652418,1.09266 0.221424,0.38977 0.38313,0.78735 0.43239,1.23821 0.105624,0.51449 0.09594,1.02879 0.0869,1.55283 5.3e-4,0.54139 0.0019,1.08278 0.0019,1.62417 -0.0013,0.64956 -0.005,1.2994 -0.03901,1.94824 -0.04721,0.78613 -0.116202,1.57744 -0.346482,2.33475 -0.196364,0.52845 -0.413528,1.04531 -0.713121,1.5252 -0.225277,0.43149 -0.513141,0.82954 -0.812094,1.21084 -0.272515,0.24752 -0.140295,0.11603 -0.395639,0.39551 -0.982528,0.93369 -2.266416,1.53417 -3.522681,2.03388 -0.474795,0.11797 -0.950058,0.1793 -1.440963,0.14766 -0.527339,-2.6e-4 -1.055659,0.002 -1.581661,-0.0405 -0.475112,-0.0524 -0.940893,-0.1436 -1.363887,-0.37891 -0.440256,-0.20275 -0.860354,-0.43795 -1.300478,-0.63825 -0.424778,-0.185 -0.824521,-0.41518 -1.113806,-0.78721 -0.368194,-0.39053 -0.702212,-0.81902 -0.962313,-1.28943 -0.12908,-0.24592 -0.339955,-0.77833 -0.553553,-0.9287 0.915328,-0.50592 1.844296,-0.98791 2.745983,-1.51775 0.02802,-0.0165 -0.05522,-0.0539 -0.08648,-0.045 -0.01429,0.004 -0.131482,0.53821 -0.145023,0.599 -0.113879,0.33287 -0.315833,0.6211 -0.402717,0.96755 -0.107736,0.17116 -0.113975,0.42929 -0.279112,0.56131 -0.03177,0.0254 -0.07821,0.027 -0.110535,0.0517 -0.03628,0.0277 -0.06072,0.0682 -0.09108,0.10235 -0.01916,0.0208 -0.223375,0.24377 -0.237702,0.25569 -0.171992,0.14298 -0.123007,0.0258 -0.257799,0.21076 -0.03601,0.0494 -0.03777,0.12827 -0.09021,0.1597 -0.940978,0.56408 -1.912292,1.07593 -2.868441,1.61389 -0.389091,0.0863 -0.793715,0.0113 -1.189019,0.0272 -0.493344,-0.0111 -0.990496,-0.022 -1.475083,-0.12485 -0.370637,-0.0928 -0.731867,-0.21732 -1.108073,-0.28836 -0.406945,-0.13212 -0.809612,-0.3227 -1.123997,-0.6176 -0.266362,-0.35006 -0.460174,-0.74773 -0.517509,-1.1883 -0.102315,-0.50365 -0.174009,-0.99856 -0.133149,-1.51551 7.93e-4,-0.49653 -0.0011,-0.99364 0.03015,-1.48942 0.02858,-0.32836 0.06563,-0.64574 0.237464,-0.9343 0.09727,-1.46072 1.728785,-1.59562 3.065647,-2.29582 0.395934,-0.10947 0.806048,-0.0312 1.207082,0.0171 0.442418,0.0809 0.864611,0.22775 1.303076,0.32545 0.38998,0.12657 0.719426,0.36658 1.11428,0.47006 0.445899,0.10548 0.827976,0.28728 1.132424,0.64164 0.34639,0.30919 0.698138,0.62875 0.954098,1.01873 0.186195,0.36056 0.365943,0.7393 0.448136,1.13784 -0.0069,0.47973 -0.01225,0.96019 0.0048,1.43965 0,0 -2.824233,1.43902 -2.824233,1.43902 z"
           inkscape:connector-curvature="0" />
      </g>
      <path
         inkscape:connector-curvature="0"
         d="m 67.137769,120.67454 c 0.516106,-0.15588 1.067059,-0.23725 1.572265,-0.42875 0.374039,-0.13037 0.120115,-0.0214 0.439772,-0.20811 0.06371,-0.0372 0.258746,-0.14187 0.194828,-0.10502 -0.833008,0.4802 -3.32841,1.9269 -2.502175,1.43513 2.702682,-1.6086 1.883577,-1.27483 3.132138,-1.76367 0.08016,-0.0225 0.162785,-0.0377 0.240485,-0.0676 0.958588,-0.36944 -0.545431,0.15448 0.410527,-0.18938 0.216972,-0.0781 0.425146,-0.10653 0.634418,-0.20616 -0.146661,0.15213 0.814065,-0.37311 0.575845,-0.23795 -3.986591,2.26194 -3.167738,1.92275 -2.248914,1.21704 1.017881,-0.80388 1.992651,-1.19924 3.261662,-1.9591 0.808051,-0.48385 -3.255415,1.89524 -2.45418,1.40019 6.134378,-3.56707 1.563174,-0.90503 0.244483,-0.15293 -0.115051,0.0656 0.1631,-0.11486 0.248629,-0.23532 0,0 2.899021,-1.3055 2.899021,-1.3055 v 0 c -0.468611,1.20054 -1.831305,1.2025 -3.023309,2.03847 -0.816298,0.57249 1.722506,-1.00464 2.583759,-1.50696 -0.954116,0.74113 -0.780293,0.61474 -2.973337,1.74019 -0.880382,0.4518 1.708674,-0.99861 2.562783,-1.4983 0.04527,-0.0265 -0.09452,0.0469 -0.136265,0.0787 -0.09737,0.0741 -0.164973,0.18282 -0.2676,0.25115 -0.222578,0.1216 -0.11779,0.051 -0.314296,0.21205 -1.360482,0.81981 -2.155788,1.46284 -3.442845,1.90646 -0.433864,0.12992 -0.850083,0.30125 -1.268606,0.47364 -0.07069,0.0367 -0.280813,0.15046 -0.212056,0.11022 0.827376,-0.48418 3.320106,-1.9185 2.488155,-1.44221 -1.115359,0.63854 -2.276274,1.52766 -3.5575,1.94012 -0.538181,0.14078 -1.073806,0.28817 -1.61086,0.43303 0,0 2.523173,-1.92936 2.523173,-1.92936 z"
         id="path851"
         style="fill:#00002b;fill-opacity:1;stroke:none;stroke-width:0.90200001;stroke-miterlimit:4;stroke-dasharray:none;stroke-opacity:1" />
    </g>
  </g>
</svg>
