<?xml version="1.0" encoding="UTF-8" standalone="no"?>
<!-- Created with Inkscape (http://www.inkscape.org/) -->

<svg
   xmlns:dc="http://purl.org/dc/elements/1.1/"
   xmlns:cc="http://creativecommons.org/ns#"
   xmlns:rdf="http://www.w3.org/1999/02/22-rdf-syntax-ns#"
   xmlns:svg="http://www.w3.org/2000/svg"
   xmlns="http://www.w3.org/2000/svg"
   xmlns:sodipodi="http://sodipodi.sourceforge.net/DTD/sodipodi-0.dtd"
   xmlns:inkscape="http://www.inkscape.org/namespaces/inkscape"
   width="210mm"
   height="297mm"
   viewBox="0 0 210 297"
   version="1.1"
   id="svg8"
   inkscape:version="0.91 r13725"
   sodipodi:docname="álcool hidratado.svg">
  <defs
     id="defs2">
    <inkscape:perspective
       sodipodi:type="inkscape:persp3d"
       inkscape:vp_x="0 : 148.5 : 1"
       inkscape:vp_y="0 : 1000 : 0"
       inkscape:vp_z="210 : 148.5 : 1"
       inkscape:persp3d-origin="105 : 99 : 1"
       id="perspective817" />
  </defs>
  <sodipodi:namedview
     id="base"
     pagecolor="#ffffff"
     bordercolor="#666666"
     borderopacity="1.0"
     inkscape:pageopacity="0.0"
     inkscape:pageshadow="2"
     inkscape:zoom="0.98994949"
     inkscape:cx="190.37902"
     inkscape:cy="503.66894"
     inkscape:document-units="mm"
     inkscape:current-layer="layer1"
     showgrid="false"
     inkscape:window-width="1366"
     inkscape:window-height="719"
     inkscape:window-x="0"
     inkscape:window-y="25"
     inkscape:window-maximized="1" />
  <metadata
     id="metadata5">
    <rdf:RDF>
      <cc:Work
         rdf:about="">
        <dc:format>image/svg+xml</dc:format>
        <dc:type
           rdf:resource="http://purl.org/dc/dcmitype/StillImage" />
        <dc:title />
      </cc:Work>
    </rdf:RDF>
  </metadata>
  <g
     inkscape:label="Layer 1"
     inkscape:groupmode="layer"
     id="layer1">
    <g
       id="g3378"
       style="fill:#00002b;fill-opacity:1">
      <path
         inkscape:connector-curvature="0"
         d="m 28.970787,178.73712 c 0.753147,0.0107 1.507932,0.0968 2.248601,0.2329 0.679281,0.14637 1.366084,0.24238 2.059075,0.28752 0.490575,0.0227 0.961469,0.17414 1.449493,0.23428 0.501889,0.05 1.006846,0.0523 1.510716,0.0558 0.557249,7e-5 1.114488,0.002 1.671735,0.003 0.104143,-8e-5 0.208288,-1.5e-4 0.312431,-2.3e-4 0,0 -2.535188,1.8423 -2.535188,1.8423 v 0 c -0.104185,1.2e-4 -0.20837,2.5e-4 -0.312557,2.6e-4 -0.560978,0.002 -1.121968,0.007 -1.682949,10e-4 -0.514043,-0.007 -1.029753,-0.0149 -1.539861,-0.0854 -0.476253,-0.0758 -0.942824,-0.21392 -1.427525,-0.22674 -0.689462,-0.0664 -1.369481,-0.18957 -2.047846,-0.32841 -0.750848,-0.11435 -1.509975,-0.19568 -2.270477,-0.15302 0,0 2.564352,-1.86311 2.564352,-1.86311 z"
         id="path864"
         style="fill:#00002b;fill-opacity:1;stroke:none;stroke-width:0.90200001;stroke-miterlimit:4;stroke-dasharray:none;stroke-opacity:1" />
      <path
         inkscape:connector-curvature="0"
         d="m 42.880285,178.8604 c 0.413427,0.11785 0.819261,0.14624 1.234096,0.0371 0.895519,-0.75226 0.105944,-0.0763 -2.480294,1.38546 -0.03874,0.0219 0.07105,-0.0537 0.107661,-0.079 0.133096,-0.092 0.194972,-0.15206 0.275318,-0.29539 0.07845,-0.3119 0.230862,-0.73767 0.06663,-1.04235 -0.169458,-0.16501 -0.497094,-0.18212 -0.704099,-0.0893 0.183751,-0.18925 -0.649412,0.38213 -0.409911,0.2443 6.347656,-3.65303 0.262668,-0.0527 -0.426757,0.18389 0.872675,-0.49572 1.745351,-0.99144 2.618026,-1.48716 0.04426,-0.0251 -0.102595,0.0121 -0.185574,0.16154 -0.07984,0.14375 -0.09397,0.31778 -0.116858,0.47672 -0.02183,0.25715 -0.01304,0.1253 -0.02564,0.39558 0,0 -2.817622,1.42569 -2.817622,1.42569 v 0 c 0.0028,-0.28053 -3.2e-5,-0.14257 0.0083,-0.41389 0.115739,-1.6655 0.838719,-1.45828 3.01425,-2.52063 0.858096,-0.39869 -3.272766,1.90088 -2.451762,1.43052 0.510995,-0.29275 2.1668,-1.58689 3.332173,-1.79832 0.355923,0.0257 0.710084,0.0967 0.917919,0.41782 0.205865,0.40195 0.114808,0.84598 0.05258,1.27936 -0.05332,0.22245 -0.09386,0.4194 -0.302326,0.54168 -2.858571,1.67685 -1.756539,1.44026 -2.998218,1.68478 -0.459365,0.0385 -0.930101,-0.0214 -1.359165,-0.19397 0,0 2.651257,-1.74443 2.651257,-1.74443 z"
         id="path870"
         style="fill:#00002b;fill-opacity:1;stroke:none;stroke-width:0.90200001;stroke-miterlimit:4;stroke-dasharray:none;stroke-opacity:1" />
      <g
         style="fill:#00002b;fill-opacity:1"
         id="g3356">
        <path
           style="fill:#00002b;fill-opacity:1;stroke:none;stroke-width:0.90200001;stroke-miterlimit:4;stroke-dasharray:none;stroke-opacity:1"
           id="path825"
           d="m 26.692368,159.06606 c 0.295939,-0.27115 0.582631,-0.55464 0.889484,-0.81355 0.370398,-0.29094 0.686033,-0.63264 1.000651,-0.98165 0.434983,-0.50349 0.960835,-0.91502 1.458444,-1.35322 0.47343,-0.39331 0.926262,-0.80863 1.402337,-1.19881 0.474342,-0.42033 0.978794,-0.80392 1.455267,-1.2215 0.456226,-0.35374 0.831564,-0.79149 1.174583,-1.25229 0.365032,-0.49739 0.74268,-0.98329 1.14065,-1.45447 0.340546,-0.46404 0.757939,-0.86136 1.124128,-1.30348 0.396978,-0.505 0.749345,-1.04158 1.086035,-1.58793 0.485881,-0.79546 0.981686,-1.58471 1.471041,-2.37803 0.407485,-0.75603 0.867031,-1.48587 1.156864,-2.29719 0.142404,-0.54528 0.327493,-1.07705 0.428101,-1.63228 0.12374,-0.50858 0.236149,-1.01632 0.295423,-1.53681 0.06179,-0.55856 0.275384,-1.08024 0.418492,-1.61947 0.08936,-0.53446 0.217331,-1.06134 0.316132,-1.59407 0.101044,-0.51376 0.257527,-1.01018 0.432226,-1.50243 0.108579,-0.47073 0.323807,-0.89205 0.570299,-1.30277 0.470688,-1.13388 2.927241,-3.10385 3.231816,-1.51533 -0.0084,0.63451 -0.181978,1.25104 -0.30984,1.86861 -0.21762,0.8645 -0.350401,1.74572 -0.49997,2.62358 -0.210667,1.0097 -0.477345,2.00729 -0.719532,3.01006 -0.168862,0.83612 -0.358926,1.66786 -0.637019,2.4749 -0.320061,0.61556 -0.515969,1.26948 -0.689366,1.93699 -0.173958,0.70896 -0.299871,1.4296 -0.425022,2.14868 -0.06471,0.66911 -0.207062,1.31854 -0.390511,1.96372 -0.225058,0.76145 -0.365194,1.5407 -0.519875,2.31784 -0.148008,0.61047 -0.247674,1.22887 -0.298294,1.85456 -0.04102,0.63949 -0.04317,1.28058 -0.04228,1.92111 0.0031,0.60226 0.0073,1.20452 0.0095,1.80679 0.01344,0.53265 -0.02416,1.06741 0.02511,1.59835 0.08799,0.53005 0.1519,1.06229 0.272595,1.5861 0.113122,0.53319 0.182041,1.0706 0.350684,1.59046 0.185878,0.54633 0.434168,1.07026 0.694304,1.58473 0.31338,0.52646 0.634484,1.04405 0.847484,1.62036 0.172765,0.39813 0.368286,0.79015 0.597688,1.15885 0.118682,0.21544 0.26719,0.41611 0.436748,0.59406 0,0 -2.704865,1.63957 -2.704865,1.63957 v 0 c -0.174453,-0.2001 -0.339349,-0.41222 -0.46515,-0.6469 -0.23445,-0.39151 -0.442116,-0.80117 -0.612291,-1.22479 -0.194887,-0.56949 -0.516549,-1.07246 -0.824299,-1.5869 -0.270407,-0.52599 -0.523827,-1.06441 -0.720323,-1.62253 -0.18447,-0.52631 -0.264911,-1.06977 -0.366749,-1.6161 -0.126966,-0.53452 -0.198737,-1.07443 -0.290063,-1.61616 -0.07772,-0.54016 -0.02669,-1.08785 -0.04013,-1.6324 7.94e-4,-0.60471 0.0024,-1.20942 0.004,-1.81412 0.0011,-0.64511 -0.01111,-1.29085 0.01852,-1.93545 0.04494,-0.64303 0.136279,-1.28034 0.30253,-1.90436 0.179512,-0.77374 0.286565,-1.56376 0.500009,-2.33075 0.181124,-0.63792 0.358498,-1.27402 0.413145,-1.93831 0.125759,-0.72458 0.245379,-1.45088 0.407077,-2.16796 0.173032,-0.67415 0.317585,-1.36179 0.67949,-1.96802 0.31669,-0.79085 0.514059,-1.6205 0.682635,-2.45428 0.233249,-0.99867 0.511696,-1.98685 0.726557,-2.98948 0.139604,-0.8763 0.257653,-1.75689 0.472434,-2.61897 0.102389,-0.58325 0.255262,-1.15601 0.312039,-1.74704 -0.101523,-0.91269 2.379774,-1.38134 2.768738,-1.59841 0.02911,-0.0162 -0.07168,-0.006 -0.0991,0.0134 -0.08185,0.0566 -0.187071,0.27112 -0.224187,0.33676 -0.225338,0.40073 -0.507188,0.77932 -0.590989,1.24228 -0.155596,0.4887 -0.361879,0.95565 -0.46069,1.46296 -0.08819,0.54198 -0.239541,1.0692 -0.307343,1.61443 -0.123224,0.53439 -0.336846,1.03843 -0.435784,1.57844 -0.04719,0.52561 -0.127744,1.04646 -0.284377,1.55199 -0.08331,0.58297 -0.28013,1.1262 -0.433385,1.69203 -0.269581,0.84911 -0.739804,1.58783 -1.151316,2.37383 -0.491678,0.78254 -0.965123,1.57643 -1.451858,2.36206 -0.316961,0.55732 -0.655355,1.10139 -1.046152,1.61029 -0.334378,0.4754 -0.779632,0.84429 -1.122797,1.31251 -0.376145,0.4864 -0.804145,0.93025 -1.150353,1.44173 -0.338198,0.47373 -0.683476,0.95479 -1.142423,1.32059 -0.492995,0.39991 -0.975402,0.8123 -1.45801,1.22568 -0.474416,0.39663 -0.94121,0.79859 -1.416595,1.1922 -0.486225,0.4389 -1.009232,0.84075 -1.459532,1.31585 -0.307689,0.34485 -0.577979,0.73624 -0.967628,0.99289 -0.267989,0.29203 -0.599978,0.52477 -0.881468,0.80376 0,0 -2.933684,1.21517 -2.933684,1.21517 z"
           inkscape:connector-curvature="0" />
        <path
           style="fill:#00002b;fill-opacity:1;stroke:none;stroke-width:0.90200001;stroke-miterlimit:4;stroke-dasharray:none;stroke-opacity:1"
           id="path827"
           d="m 35.118873,153.35351 c 0.2653,0.35664 0.557207,0.71847 0.892839,1.01418 0.270587,0.32049 0.539901,0.62703 0.876903,0.88066 0.386652,0.24676 0.801206,0.37702 1.25044,0.45034 0.476109,0.14989 0.965459,0.24745 1.461693,0.29612 0.192982,0.0178 0.386741,0.0221 0.580345,0.0269 0,0 -2.564421,1.84772 -2.564421,1.84772 v 0 c -0.197334,-0.0105 -0.394803,-0.0214 -0.590373,-0.0518 -0.496863,-0.0726 -0.981009,-0.20116 -1.468686,-0.31858 -0.481618,-0.10877 -0.94067,-0.27879 -1.34543,-0.5689 -0.326832,-0.27349 -0.606205,-0.58204 -0.882002,-0.90454 -0.351869,-0.33824 -0.664858,-0.72208 -0.969253,-1.10185 0,0 2.757945,-1.57034 2.757945,-1.57034 z"
           inkscape:connector-curvature="0" />
        <path
           style="fill:#00002b;fill-opacity:1;stroke:none;stroke-width:0.90200001;stroke-miterlimit:4;stroke-dasharray:none;stroke-opacity:1"
           id="path829"
           d="m 54.025312,131.58989 c -0.291705,0.81222 -0.451733,1.66368 -0.715658,2.48571 -0.291089,0.74314 -0.466328,1.51208 -0.550526,2.30351 -0.09383,0.66902 -0.197684,1.33631 -0.336365,1.99752 -0.119944,0.76087 -0.27345,1.51298 -0.459669,2.26034 -0.184515,0.76616 -0.376967,1.52767 -0.490328,2.30826 -0.08763,0.6805 -0.09671,1.36802 -0.103079,2.05317 -0.0013,0.6077 0.0044,1.21539 0.0074,1.82309 0.0024,0.53979 0.0029,1.07958 0.0032,1.61937 1.78e-4,0.53373 1.14e-4,1.06746 8.8e-5,1.60119 -2.7e-5,0.53441 -3.7e-5,1.06881 -4.3e-5,1.60322 -5e-6,0.53454 -5e-6,1.06908 -5e-6,1.60363 0,0.53454 0,1.06908 0,1.60362 0,0.53454 0,1.06908 0,1.60362 0,0.53454 0,1.06908 0,1.60362 7.94e-4,0.50276 -0.02821,1.00243 0.06602,1.4981 0.118493,0.46034 0.232539,0.92913 0.388181,1.37887 0,0 -2.758901,1.52419 -2.758901,1.52419 v 0 c -0.161763,-0.46254 -0.274473,-0.94688 -0.410887,-1.41666 -0.105677,-0.51586 -0.09568,-1.03155 -0.08618,-1.55693 0,-0.53454 0,-1.06908 0,-1.60362 0,-0.53454 0,-1.06908 0,-1.60361 0,-0.53455 0,-1.06909 0,-1.60363 0,-0.53454 0,-1.06909 0,-1.60363 3e-6,-0.5344 3e-6,-1.0688 -2e-6,-1.6032 -8e-6,-0.53369 -1.9e-5,-1.06739 -6.4e-5,-1.60109 -4.5e-5,-0.5401 -1.43e-4,-1.0802 -8e-6,-1.6203 2.65e-4,-0.61083 7.94e-4,-1.22167 0.0042,-1.83249 0.0044,-0.69818 0.0118,-1.39718 0.08689,-2.09222 0.11259,-0.79203 0.302392,-1.56468 0.48573,-2.34208 0.188439,-0.74035 0.360915,-1.48285 0.451114,-2.2428 0.138906,-0.65418 0.24433,-1.31306 0.360746,-1.97172 0.07617,-0.81601 0.21648,-1.61731 0.540533,-2.3767 0.285465,-0.80474 0.462648,-1.63775 0.64339,-2.47103 0,0 2.874312,-1.32932 2.874312,-1.32932 z"
           inkscape:connector-curvature="0" />
        <path
           style="fill:#00002b;fill-opacity:1;stroke:none;stroke-width:0.90200001;stroke-miterlimit:4;stroke-dasharray:none;stroke-opacity:1"
           id="path831"
           d="m 62.677378,153.15845 c -0.68035,-0.52649 -1.425416,-0.9469 -2.186363,-1.34229 -0.726467,-0.35641 -1.509668,-0.52946 -2.309546,-0.60568 -0.534892,-0.09 -1.028996,0.0126 -1.546293,0.1236 -0.19135,0.0862 -0.369586,0.19147 -0.553252,0.29108 -0.06791,0.0368 -0.275907,0.13876 -0.209068,0.10002 2.760683,-1.60012 3.286334,-1.97726 2.31563,-1.29733 -0.470011,0.33992 -0.800589,0.79148 -1.084511,1.2886 -0.2564,0.47625 -0.325713,1.00649 -0.364617,1.53725 -0.02553,0.57338 -0.02519,1.14767 -0.0235,1.72152 0.0034,0.57989 0.0067,1.15978 0.0084,1.73969 0.02064,0.48392 0.415378,0.77937 0.73837,1.09281 0.448459,0.41744 0.885058,0.86485 1.411701,1.18386 0.444891,0.21908 0.943012,0.23288 1.428697,0.24799 0.529574,0.008 1.05924,0.002 1.588836,-10e-4 0.467907,0.0112 0.961877,-0.031 1.384575,-0.2456 1.080233,-0.46554 0.318114,-0.14516 -2.362216,1.36461 -0.05635,0.0317 0.110477,-0.0673 0.164986,-0.10211 0.169003,-0.10793 0.272407,-0.2057 0.386271,-0.37017 0.142811,-0.2558 0.279887,-0.5126 0.37016,-0.79192 0,0 2.86563,-1.3583 2.86563,-1.3583 v 0 c -0.08014,0.29849 -0.177217,0.59217 -0.355525,0.84898 -0.105442,0.2834 -0.215379,0.47743 -0.483302,0.63164 -2.898431,1.66824 -1.848199,1.25955 -3.073855,1.72293 -0.474329,0.11783 -0.949176,0.17914 -1.439608,0.14963 -0.533387,0.003 -1.067144,0.0105 -1.60024,-0.0113 -0.530185,-0.0347 -1.06104,-0.0971 -1.521261,-0.3872 -0.517512,-0.36319 -0.96751,-0.81338 -1.435198,-1.23696 -0.393877,-0.3713 -0.830268,-0.73174 -0.867855,-1.31043 2.65e-4,-0.58099 0.0011,-1.16198 -2.64e-4,-1.74297 -0.0024,-0.5784 -0.0159,-1.15701 0.0051,-1.73523 0.02897,-0.56563 0.07974,-1.13548 0.311793,-1.66019 0.259972,-0.52755 0.565118,-1.02262 1.023366,-1.40288 1.086681,-0.97846 2.488869,-1.7041 3.884038,-2.17186 0.527664,-0.10475 1.054325,-0.10538 1.588088,-0.0282 0.814652,0.11817 1.604227,0.34383 2.339797,0.72145 0.781762,0.41186 1.537132,0.86347 2.280002,1.34211 0,0 -2.678856,1.69435 -2.678856,1.69435 z"
           inkscape:connector-curvature="0" />
        <path
           style="fill:#00002b;fill-opacity:1;stroke:none;stroke-width:0.90200001;stroke-miterlimit:4;stroke-dasharray:none;stroke-opacity:1"
           id="path833"
           d="m 70.902194,152.11479 c -0.02426,0.61188 -0.01757,1.22457 -0.01577,1.8368 0.01532,0.56155 -0.02445,1.12563 0.0274,1.68541 0.102071,0.60549 0.350459,1.1615 0.633589,1.70009 0.238152,0.42083 0.640501,0.49952 1.084903,0.54803 0.480748,-0.0149 0.937818,0.12845 1.408462,0.20143 0.493461,0.0648 0.991923,0.0713 1.488813,0.0776 0.01352,9e-5 0.516448,0.004 0.528942,0.002 0.228123,-0.0234 0.375565,-0.1486 0.565742,-0.26035 -0.850503,0.4856 -1.701006,0.9712 -2.551509,1.4568 0.312362,-0.23268 0.373152,-0.60597 0.412967,-0.96928 0.03251,-0.49267 0.02482,-0.98697 0.02312,-1.48041 -0.03853,-0.47565 0.08717,-0.98691 -0.091,-1.4402 -0.168812,-0.36725 -0.401534,-0.6895 -0.54279,-1.06979 -0.129302,-0.36001 -0.361497,-0.65113 -0.587756,-0.95169 -0.247607,-0.27989 -0.527066,-0.52854 -0.776753,-0.80618 -0.288763,-0.25117 -0.664456,-0.35181 -0.976701,-0.5739 -0.305393,-0.21726 -0.655254,-0.28954 -1.020149,-0.32297 -0.213082,0.0849 -0.465892,0.0843 -0.676614,0.17095 -0.09956,0.041 -0.183763,0.11298 -0.281,0.15916 0.859226,-0.48983 1.715703,-0.98452 2.577682,-1.46949 0.05104,-0.0287 -0.09621,0.0668 -0.144214,0.10035 -0.138899,0.0971 -0.258149,0.23753 -0.402424,0.32348 -0.943311,0.56196 -1.894906,1.1099 -2.842357,1.66485 5.457515,-2.89443 2.571625,-1.89258 2.02439,-0.95533 -0.130611,0.32315 -0.136906,0.67757 -0.141054,1.02137 -5.3e-4,0.0625 -0.0011,0.12506 -0.0019,0.18759 0,0 -2.818733,1.43475 -2.818733,1.43475 v 0 c -6.1e-5,-0.0634 -1.21e-4,-0.12691 -1.82e-4,-0.19037 0.0065,-0.37728 -0.0019,-0.75669 0.08309,-1.12718 0.08856,-0.29902 0.212354,-0.53209 0.484417,-0.6922 0.945264,-0.55628 1.888988,-1.11518 2.833479,-1.67278 -0.854734,0.50169 -1.706581,1.00833 -2.564202,1.50507 -0.04719,0.0273 0.08837,-0.0639 0.132176,-0.0964 0.148566,-0.11018 0.249507,-0.24811 0.409765,-0.34205 0.948931,-0.55619 1.900793,-1.10737 2.851193,-1.66106 0.327615,-0.14177 0.700545,-0.21251 1.056732,-0.18419 0.399196,0.0676 0.769644,0.20236 1.10186,0.44028 0.344027,0.20683 0.740622,0.33595 1.018082,0.63855 0.263404,0.27809 0.542925,0.54052 0.791972,0.83226 0.247962,0.32409 0.485643,0.65062 0.631524,1.03641 0.133196,0.37886 0.380687,0.69224 0.538395,1.06079 0.199615,0.49613 0.119901,1.02539 0.134797,1.55054 0.0033,0.49937 0.01117,0.9989 -5.29e-4,1.4982 -0.02035,0.421 -0.0661,0.84393 -0.300852,1.20717 -2.031781,1.20438 -2.254197,1.87472 -4.027829,1.81924 -0.508757,-0.0113 -1.019336,-0.0266 -1.522193,-0.11172 -0.466527,-0.085 -0.928558,-0.17872 -1.403961,-0.19955 -0.526809,-0.10427 -0.971399,-0.30593 -1.236335,-0.80255 -0.290216,-0.57575 -0.54185,-1.16742 -0.688723,-1.79824 -0.07972,-0.56991 -0.02252,-1.14787 -0.03654,-1.72207 0.0019,-0.60687 0.0088,-1.21422 -0.01577,-1.82072 0,0 2.824237,-1.43902 2.824237,-1.43902 z"
           inkscape:connector-curvature="0" />
        <path
           style="fill:#00002b;fill-opacity:1;stroke:none;stroke-width:0.90200001;stroke-miterlimit:4;stroke-dasharray:none;stroke-opacity:1"
           id="path833-3"
           d="m 81.031309,151.66517 c -0.0243,0.61188 -0.0176,1.22457 -0.0158,1.8368 0.0153,0.56155 -0.0245,1.12563 0.0274,1.68541 0.10207,0.60549 0.35046,1.1615 0.63359,1.70009 0.23815,0.42083 0.6405,0.49952 1.0849,0.54803 0.48075,-0.0149 0.93782,0.12845 1.40847,0.20143 0.49346,0.0648 0.99192,0.0713 1.48881,0.0776 0.0135,9e-5 0.51645,0.004 0.52894,0.002 0.22812,-0.0234 0.37557,-0.1486 0.56574,-0.26035 -0.8505,0.4856 -1.701,0.9712 -2.55151,1.4568 0.31237,-0.23268 0.37316,-0.60597 0.41297,-0.96928 0.0325,-0.49267 0.0248,-0.98697 0.0231,-1.48041 -0.0385,-0.47565 0.0872,-0.98691 -0.091,-1.4402 -0.16881,-0.36725 -0.40154,-0.6895 -0.54279,-1.06979 -0.1293,-0.36001 -0.3615,-0.65113 -0.58776,-0.95169 -0.2476,-0.27989 -0.52706,-0.52854 -0.77675,-0.80618 -0.28876,-0.25118 -0.66446,-0.35182 -0.9767,-0.57391 -0.30539,-0.21726 -0.65525,-0.28954 -1.02015,-0.32297 -0.21308,0.0849 -0.46589,0.0843 -0.67661,0.17095 -0.0996,0.041 -0.18377,0.11298 -0.281,0.15916 0.85922,-0.48983 1.7157,-0.98452 2.57768,-1.46949 0.051,-0.0287 -0.0962,0.0668 -0.14422,0.10035 -0.1389,0.0971 -0.25814,0.23753 -0.40242,0.32348 -0.94331,0.56196 -1.89491,1.1099 -2.84236,1.66485 5.45752,-2.89443 2.57163,-1.89258 2.02439,-0.95533 -0.13061,0.32315 -0.1369,0.67757 -0.14105,1.02137 -5.3e-4,0.0625 -10e-4,0.12506 -0.002,0.18759 0,0 -2.81873,1.43475 -2.81873,1.43475 v 0 c -6e-5,-0.0634 -1.2e-4,-0.12691 -1.8e-4,-0.19037 0.007,-0.37728 -0.002,-0.75669 0.0831,-1.12718 0.0886,-0.29902 0.21236,-0.53209 0.48442,-0.6922 0.94526,-0.55628 1.88899,-1.11518 2.83348,-1.67278 -0.85473,0.50169 -1.70658,1.00833 -2.5642,1.50507 -0.0472,0.0273 0.0884,-0.0639 0.13217,-0.0964 0.14857,-0.11018 0.24951,-0.24811 0.40977,-0.34205 0.94893,-0.55619 1.90079,-1.10737 2.85119,-1.66106 0.32762,-0.14177 0.70055,-0.21251 1.05673,-0.18419 0.3992,0.0676 0.76965,0.20236 1.10186,0.44028 0.34403,0.20683 0.74063,0.33595 1.01809,0.63855 0.2634,0.27809 0.54292,0.54052 0.79197,0.83226 0.24796,0.32409 0.48564,0.65062 0.63152,1.03641 0.1332,0.37886 0.38069,0.69224 0.5384,1.06079 0.19961,0.49613 0.1199,1.02539 0.13479,1.55054 0.003,0.49937 0.0112,0.9989 -5.3e-4,1.4982 -0.0203,0.421 -0.0661,0.84393 -0.30085,1.20717 -2.03178,1.20438 -2.25419,1.87472 -4.02783,1.81924 -0.50875,-0.0113 -1.01933,-0.0266 -1.52219,-0.11172 -0.46653,-0.085 -0.92856,-0.17872 -1.40396,-0.19955 -0.52681,-0.10427 -0.9714,-0.30593 -1.23634,-0.80255 -0.29021,-0.57575 -0.54185,-1.16742 -0.68872,-1.79824 -0.0797,-0.56991 -0.0225,-1.14787 -0.0365,-1.72207 0.002,-0.60687 0.009,-1.21422 -0.0158,-1.82072 0,0 2.82424,-1.43902 2.82424,-1.43902 z"
           inkscape:connector-curvature="0" />
        <path
           inkscape:connector-curvature="0"
           d="m 95.144586,130.40158 c -0.291705,0.81222 -0.451733,1.66368 -0.715658,2.48571 -0.291089,0.74314 -0.466328,1.51208 -0.550526,2.30351 -0.09383,0.66902 -0.197684,1.33631 -0.336365,1.99752 -0.119944,0.76087 -0.27345,1.51298 -0.459669,2.26034 -0.184515,0.76616 -0.376967,1.52767 -0.490328,2.30826 -0.08763,0.6805 -0.09671,1.36802 -0.103079,2.05317 -0.0013,0.6077 0.0044,1.21539 0.0074,1.82309 0.0024,0.53979 0.0029,1.07958 0.0032,1.61937 1.78e-4,0.53373 1.14e-4,1.06746 8.8e-5,1.60119 -2.7e-5,0.53441 -3.7e-5,1.06881 -4.3e-5,1.60322 -5e-6,0.53454 -5e-6,1.06908 -5e-6,1.60363 0,0.53454 0,1.06908 0,1.60362 0,0.53454 0,1.06908 0,1.60362 0,0.53454 0,1.06908 0,1.60362 7.94e-4,0.50276 -0.02821,1.00243 0.06602,1.4981 0.118493,0.46034 0.232539,0.92913 0.388181,1.37887 0,0 -2.758901,1.52419 -2.758901,1.52419 v 0 c -0.161763,-0.46254 -0.274473,-0.94688 -0.410887,-1.41666 -0.105677,-0.51586 -0.09568,-1.03155 -0.08618,-1.55693 0,-0.53454 0,-1.06908 0,-1.60362 0,-0.53454 0,-1.06908 0,-1.60361 0,-0.53455 0,-1.06909 0,-1.60363 0,-0.53454 0,-1.06909 0,-1.60363 3e-6,-0.5344 3e-6,-1.0688 -2e-6,-1.6032 -8e-6,-0.53369 -1.9e-5,-1.06739 -6.4e-5,-1.60109 -4.5e-5,-0.5401 -1.43e-4,-1.0802 -8e-6,-1.6203 2.65e-4,-0.61083 7.94e-4,-1.22167 0.0042,-1.83249 0.0044,-0.69818 0.0118,-1.39718 0.08689,-2.09222 0.11259,-0.79203 0.302392,-1.56468 0.48573,-2.34208 0.188439,-0.74035 0.360915,-1.48285 0.451114,-2.2428 0.138906,-0.65418 0.24433,-1.31306 0.360746,-1.97172 0.07617,-0.81601 0.21648,-1.61731 0.540533,-2.3767 0.285465,-0.80474 0.462648,-1.63775 0.64339,-2.47103 0,0 2.874312,-1.32932 2.874312,-1.32932 z"
           id="path854"
           style="fill:#00002b;fill-opacity:1;stroke:none;stroke-width:0.90200001;stroke-miterlimit:4;stroke-dasharray:none;stroke-opacity:1" />
        <path
           style="fill:#00002b;fill-opacity:1;stroke:none;stroke-width:0.90200001;stroke-miterlimit:4;stroke-dasharray:none;stroke-opacity:1"
           id="path860"
           d="m 45.104581,129.17844 c 0.215022,-0.75301 0.64003,-1.41576 1.026644,-2.0886 0.84563,-1.416 2.472217,-1.93191 3.868198,-2.73187 0.439558,-0.11364 0.896022,-0.10456 1.289267,-0.35247 0.41969,-0.18189 0.82667,-0.39193 1.247079,-0.57374 0,0 -2.463117,1.95569 -2.463117,1.95569 v 0 c -0.417126,0.19983 -0.839314,0.3883 -1.258348,0.58398 -0.423958,0.13307 -0.875305,0.16075 -1.27748,0.35719 4.895432,-2.86136 2.688765,-1.71909 1.863307,-1.02127 -0.209484,0.1771 -0.265099,0.28838 -0.42596,0.51534 -0.366364,0.64352 -0.816176,1.25868 -1.005017,1.9835 0,0 -2.864573,1.37225 -2.864573,1.37225 z"
           inkscape:connector-curvature="0" />
        <path
           style="fill:#00002b;fill-opacity:1;stroke:none;stroke-width:0.90200001;stroke-miterlimit:4;stroke-dasharray:none;stroke-opacity:1"
           id="path862"
           d="m 29.201462,170.62374 c -0.239366,1.68377 -0.502278,3.35947 -0.665486,5.05383 -0.246748,2.32756 -0.34577,4.66631 -0.504634,7.00057 -0.07125,1.29015 -0.320289,2.46329 -1.089427,3.51265 -0.251471,0.3168 -0.57515,0.55904 -0.899994,0.79431 0,0 -2.924566,1.14222 -2.924566,1.14222 v 0 c 0.342313,-0.20351 0.658621,-0.44527 0.95703,-0.70946 0.125172,-0.14712 0.425148,-0.49111 0.520745,-0.64258 0.519994,-0.82392 0.675234,-1.82047 0.777927,-2.76901 0.210703,-2.33713 0.32982,-4.68049 0.536011,-7.01811 0.120922,-1.64935 0.353157,-3.28549 0.481531,-4.93222 0,0 2.810863,-1.4322 2.810863,-1.4322 z"
           inkscape:connector-curvature="0" />
        <path
           style="fill:#00002b;fill-opacity:1;stroke:none;stroke-width:0.90200001;stroke-miterlimit:4;stroke-dasharray:none;stroke-opacity:1"
           id="path866"
           d="m 40.1662,170.55639 c -0.13747,1.19815 -0.526886,2.34822 -0.923462,3.48083 -0.61122,1.79268 -1.304473,3.55528 -1.90558,5.35135 -0.691398,2.03896 -1.162571,4.13198 -1.544039,6.24711 -0.220515,1.5144 -0.440688,3.03129 -1.014159,4.45747 -0.277982,0.75795 -0.747321,1.39933 -1.234527,2.03129 -0.353994,0.4571 -0.665848,0.94501 -1.023009,1.39965 -0.308737,0.32099 -0.576765,0.67276 -0.858747,1.01572 -0.182529,0.21218 -0.340487,0.44293 -0.526535,0.65206 0,0 -2.930982,1.20729 -2.930982,1.20729 v 0 c 0.220472,-0.1814 0.404971,-0.38387 0.550561,-0.63222 0.306498,-0.3295 0.536064,-0.7118 0.86555,-1.02113 0.412149,-0.41022 0.68521,-0.93652 1.051393,-1.38579 0.475832,-0.63647 1.015563,-1.22918 1.309068,-1.98341 0.657937,-1.40077 0.92183,-2.91818 1.142754,-4.44182 0.398312,-2.12228 0.854549,-4.22958 1.53031,-6.28443 0.570842,-1.79441 1.269191,-3.54298 1.853203,-5.33319 0.373052,-1.07864 0.746935,-2.17561 0.833964,-3.32176 0,0 2.824237,-1.43902 2.824237,-1.43902 z"
           inkscape:connector-curvature="0" />
        <path
           style="fill:#00002b;fill-opacity:1;stroke:none;stroke-width:0.90200001;stroke-miterlimit:4;stroke-dasharray:none;stroke-opacity:1"
           id="path868"
           d="m 43.06726,183.1729 c -0.389289,0.87553 -0.801978,1.73964 -1.24651,2.5884 -0.358833,0.72546 -0.715568,1.45791 -0.95531,2.23265 -0.35815,1.23992 -2.138386,3.18873 -3.342716,2.07374 0,0 2.666463,-1.71856 2.666463,-1.71856 v 0 c 0.957156,-0.46127 0.14424,-0.0714 -2.535005,1.51358 -0.04779,0.0283 0.100407,-0.0515 0.139769,-0.0906 0.05389,-0.0536 0.09883,-0.11682 0.135607,-0.18334 0.04431,-0.0801 0.0706,-0.16899 0.105896,-0.25348 0.226899,-0.80888 0.609547,-1.55873 0.977863,-2.31088 0.434523,-0.82084 0.854626,-1.65047 1.179635,-2.52215 0,0 2.874308,-1.32933 2.874308,-1.32933 z"
           inkscape:connector-curvature="0" />
        <path
           style="fill:#00002b;fill-opacity:1;stroke:none;stroke-width:0.90200001;stroke-miterlimit:4;stroke-dasharray:none;stroke-opacity:1"
           id="path872"
           d="m 42.797708,178.62246 c -0.140491,0.15976 -0.431585,0.34795 -0.41039,0.59158 0.0021,-0.003 0.0042,-0.007 0.0063,-0.0101 0,0 -2.753752,1.61829 -2.753752,1.61829 v 0 c -0.01908,-0.0342 -0.03815,-0.0685 -0.05722,-0.10275 -0.09882,-0.35365 0.0098,-0.63256 0.281421,-0.88186 0,0 2.933685,-1.21517 2.933685,-1.21517 z"
           inkscape:connector-curvature="0" />
        <path
           style="fill:#00002b;fill-opacity:1;stroke:none;stroke-width:0.90200001;stroke-miterlimit:4;stroke-dasharray:none;stroke-opacity:1"
           id="path874"
           d="m 60.982917,169.78802 c -0.5902,1.0504 -1.23069,2.07269 -1.867789,3.0952 -1.22165,1.94956 -2.291056,3.98555 -3.216796,6.09057 -0.568526,1.48818 -1.155594,2.96998 -1.715084,4.46167 -0.110035,0.26787 -0.174109,0.45972 -0.324276,0.70224 -0.623748,1.00736 -2.489523,2.13608 -3.330173,1.99287 -0.2731,-0.18076 -0.298278,-0.48494 -0.41084,-0.76236 -0.09309,-0.2993 -0.351602,-0.52257 -0.590674,-0.71623 -0.312849,-0.2591 -0.710907,-0.28076 -1.098939,-0.30696 -0.5515,-0.0219 -1.103725,-0.0197 -1.655572,-0.0183 -0.639083,-0.0291 -1.134359,-0.0189 -1.70661,0.28566 4.504227,-2.47583 2.720181,-1.74135 1.941295,-0.99707 -0.237736,0.22717 -0.452765,0.47467 -0.662813,0.727 -0.523039,0.63497 -0.681942,1.42302 -0.788297,2.21595 -0.115207,0.73711 0.05878,1.45039 0.292196,2.14496 0.246168,0.53405 0.538834,0.65461 1.095211,0.61487 0.785463,-0.0495 1.571707,-0.0867 2.358112,-0.11747 0.412456,-0.0194 0.84224,0.0102 1.239565,-0.13001 0.06997,-0.0247 0.26186,-0.13968 0.197307,-0.10308 -0.84819,0.48081 -1.698884,0.9572 -2.548329,1.4358 0.302745,-0.24753 0.446731,-0.61564 0.743728,-0.87163 0.164142,-0.0992 0.159152,-0.15374 0.248785,0.0346 0,0 2.803774,-1.53909 2.803774,-1.53909 v 0 c 0.09883,0.23486 0.11666,0.24921 -0.103947,0.36291 -0.39284,0.15811 -0.565965,0.48685 -0.753451,0.85162 -2.424827,1.40861 -2.308937,1.79545 -4.34094,1.79931 -0.799425,0.0281 -1.597051,0.082 -2.395656,0.12384 -0.611791,-0.0579 -1.046832,-0.37253 -1.285801,-0.95008 -0.250007,-0.73326 -0.433983,-1.50174 -0.331232,-2.28046 0.08328,-0.82235 0.210926,-1.66369 0.691761,-2.35935 1.066282,-1.44395 2.270964,-2.0814 4.057637,-2.90968 0.580654,-0.20706 1.171665,-0.19791 1.782799,-0.18137 0.562724,-0.001 1.126787,-0.0143 1.68818,0.0324 0.444537,0.0539 0.870495,0.14785 1.20978,0.46266 0.270045,0.23543 0.573051,0.48604 0.682858,0.83842 0.02873,0.0691 0.132506,0.498 0.197461,0.42178 0.942547,-0.51478 0.384197,-0.21095 -2.485307,1.46647 -0.06461,0.0378 0.12955,-0.0757 0.189087,-0.12109 0.290517,-0.22133 0.459412,-0.51853 0.597961,-0.85306 0.606901,-1.51075 1.268907,-2.99879 1.828784,-4.52876 0.926893,-2.10154 1.996188,-4.13371 3.164797,-6.11114 0.59308,-0.98408 1.182765,-1.97575 1.709942,-2.99549 0,0 2.891506,-1.30821 2.891506,-1.30821 z"
           inkscape:connector-curvature="0" />
        <path
           style="fill:#00002b;fill-opacity:1;stroke:none;stroke-width:0.90200001;stroke-miterlimit:4;stroke-dasharray:none;stroke-opacity:1"
           id="path876"
           d="m 59.673532,181.54811 c -0.02783,1.05237 -0.03014,2.09963 -0.15008,3.14661 -0.186208,1.24072 -0.354229,2.48714 -0.576263,3.72218 -0.33052,1.51428 -0.478295,1.07493 -3.018168,2.11263 -0.07231,0.0296 -0.08279,-0.28831 -0.101388,-0.5546 0.04343,-1.25434 0.446146,-2.45805 0.870339,-3.62716 0.468371,-1.16931 1.071742,-2.27023 1.997898,-3.13394 1.536009,-1.18424 2.905352,-2.01516 4.737441,-2.08522 0.605917,0.0345 0.856462,0.45471 0.986547,0.9919 0.05128,0.23958 0.111304,0.47266 0.195945,0.70237 0,0 -2.75394,1.52932 -2.75394,1.52932 v 0 c -0.09132,-0.24257 -0.15808,-0.48707 -0.220056,-0.73884 -0.08632,-0.43648 -0.253524,-0.65629 -0.735039,-0.62721 -0.313865,0.0237 -0.623978,0.0509 -0.929201,0.13414 -0.113916,0.0311 -0.436195,0.17356 -0.336749,0.1099 1.604421,-1.02706 3.239876,-1.84311 1.927294,-1.17943 -1.001501,0.78015 -1.634876,1.8579 -2.125032,3.0181 -0.414513,1.11113 -0.797984,2.25732 -0.825598,3.45517 0.128463,1.28823 -0.551588,0.62554 -2.749378,1.82445 -0.03288,0.0179 0.06531,-0.0412 0.08581,-0.0725 0.07134,-0.10908 0.168783,-0.41446 0.20274,-0.51027 0.301141,-1.21828 0.444463,-2.4784 0.633267,-3.71723 0.116938,-1.01961 0.127069,-2.03999 0.06606,-3.06472 0,0 2.817551,-1.43562 2.817551,-1.43562 z"
           inkscape:connector-curvature="0" />
        <path
           style="fill:#00002b;fill-opacity:1;stroke:none;stroke-width:0.90200001;stroke-miterlimit:4;stroke-dasharray:none;stroke-opacity:1"
           id="path878"
           d="m 67.137769,179.7411 c 0.546907,-0.0744 1.069369,-0.24927 1.612595,-0.34837 0.562637,-0.0736 1.137463,-0.15264 1.701533,-0.0674 0.789284,0.23744 1.412441,0.80005 2.021737,1.32961 0.562962,0.54464 1.124897,1.1196 1.497899,1.81694 0.121639,0.22741 0.311115,0.70461 0.411395,0.94862 0.797883,2.22603 0.673841,1.36269 -2.41872,3.0133 -0.358198,-0.57097 -0.706988,-0.93979 -1.313021,-1.24816 -0.793115,-0.29739 -1.652265,-0.30954 -2.488687,-0.33364 -0.158163,-0.002 -0.316804,-0.0193 -0.474483,-0.007 -0.243128,0.0193 -0.672293,0.12751 -0.897382,0.21452 -0.155921,0.0603 -0.597148,0.29968 -0.453347,0.21444 2.85651,-1.69336 2.721917,-1.62143 1.692878,-0.89651 -0.960446,0.76759 -1.54192,1.82242 -1.928059,2.96792 -0.16202,0.57233 -0.365209,1.29348 0.213562,1.67985 0.480726,0.2193 0.938011,0.0422 1.394796,-0.14912 0.678621,-0.35017 1.336579,-0.74205 2.04334,-1.03354 0.41721,-0.1345 0.209393,-0.0767 0.623032,-0.17479 0,0 -2.486734,1.90935 -2.486734,1.90935 v 0 c -0.389321,0.11975 -0.193757,0.052 -0.586197,0.20465 -0.695775,0.32285 -1.35458,0.72055 -2.060075,1.02236 -0.55793,0.17799 -1.084501,0.24337 -1.596803,-0.10301 -0.651555,-0.59092 -0.557286,-1.25485 -0.329004,-2.04678 0.378479,-1.18084 0.92175,-2.29677 1.858706,-3.14119 1.570784,-1.26678 3.41912,-2.55231 5.499071,-2.47443 0.876181,0.0338 1.777338,0.0714 2.587987,0.44088 0.563616,0.32605 0.93635,0.69375 1.351124,1.17863 -0.903309,0.52379 -1.813996,1.03505 -2.709926,1.57136 -0.02654,0.0159 0.07987,0.0235 0.09269,-0.005 0.02681,-0.0589 0.0071,-0.13005 -0.0021,-0.19407 -0.05486,-0.37697 -0.201708,-0.74092 -0.311872,-1.10264 -0.43859,-1.11767 -0.878129,-1.85242 -1.818556,-2.64322 -0.588729,-0.47533 -1.206161,-1.00181 -1.973704,-1.1367 -0.550273,-0.0196 -1.101527,0.0351 -1.642258,0.13786 -0.546979,0.11875 -1.087136,0.26719 -1.634472,0.38407 0,0 2.523173,-1.92937 2.523173,-1.92937 z"
           inkscape:connector-curvature="0" />
        <path
           style="fill:#00002b;fill-opacity:1;stroke:none;stroke-width:0.90200001;stroke-miterlimit:4;stroke-dasharray:none;stroke-opacity:1"
           id="path880"
           d="m 83.747948,172.0921 c 0.195627,1.27647 0.06883,2.55686 -0.116851,3.82478 -0.526645,2.82432 -1.610212,5.49637 -2.595835,8.18191 -0.573799,1.48211 -1.036243,3.00192 -1.497452,4.52146 0,0 -2.703195,1.27348 -2.703195,1.27348 v 0 c 0.518388,-1.5413 1.038146,-3.08246 1.630037,-4.59763 0.978943,-2.63848 2.016573,-5.27724 2.494529,-8.06404 0.158591,-1.20392 0.273976,-2.43168 -0.0052,-3.62906 0,0 2.793928,-1.5109 2.793928,-1.5109 z"
           inkscape:connector-curvature="0" />
        <path
           style="fill:#00002b;fill-opacity:1;stroke:none;stroke-width:0.90200001;stroke-miterlimit:4;stroke-dasharray:none;stroke-opacity:1"
           id="path882"
           d="m 79.733065,179.48205 c 1.757675,-0.0942 3.519768,-0.0874 5.279533,-0.10173 1.864344,-0.0209 3.729839,-0.017 5.592953,-0.0966 0,0 -2.525258,1.83542 -2.525258,1.83542 v 0 c -1.801587,-0.0799 -3.606323,-0.0477 -5.408869,-0.0329 -1.821016,0.0357 -3.662283,0.0243 -5.464847,0.30872 0,0 2.526488,-1.91292 2.526488,-1.91292 z"
           inkscape:connector-curvature="0" />
        <path
           style="fill:#00002b;fill-opacity:1;stroke:none;stroke-width:0.90200001;stroke-miterlimit:4;stroke-dasharray:none;stroke-opacity:1"
           id="path884"
           d="m 92.342601,181.94656 c 0.788474,-0.0306 1.540108,-0.31846 2.330373,-0.25904 0.693203,0.19259 0.747117,0.83856 0.790803,1.45632 0.0055,0.96296 0.0053,1.92068 0.144526,2.87534 0.411869,2.27237 0.422079,1.33562 -2.605106,3.11318 -0.504568,-0.39837 -0.720214,-0.975 -0.950913,-1.55167 -0.184951,-0.57203 -0.408249,-1.10213 -0.927719,-1.43397 -0.930976,-0.33144 -1.957289,-0.0445 -2.884209,0.1687 -0.45678,0.15707 -0.901341,0.29555 -1.338961,0.50353 -0.206709,0.0982 -0.800902,0.44338 -0.602097,0.33 3.417716,-1.94929 2.158513,-1.4034 1.290722,-0.44329 -0.590605,0.88213 -0.298828,1.43497 0.361104,2.13977 0.554847,0.54898 1.241626,0.93995 1.970873,1.20665 0.522168,0.25158 1.080696,0.36805 1.652945,0.4246 0,0 -2.565752,1.81643 -2.565752,1.81643 v 0 c -0.58596,-0.0862 -1.150131,-0.24604 -1.687854,-0.49888 -0.7473,-0.32449 -1.44585,-0.75316 -2.018279,-1.33987 -0.728789,-0.79371 -1.120243,-1.50742 -0.550426,-2.54235 1.038344,-1.35907 2.223352,-1.70295 3.922771,-2.66932 0.620003,-0.35256 1.303838,-0.57275 1.985875,-0.76754 1.009153,-0.21204 2.14852,-0.51855 3.117104,-0.015 0.521597,0.40957 0.815512,0.96277 1.006001,1.59386 0.121349,0.2984 0.347673,1.17938 0.759283,1.15332 -0.878467,0.53694 -1.760175,1.0686 -2.635403,1.6108 -0.02257,0.014 0.0659,-2.6e-4 0.07562,-0.025 0.02336,-0.0594 0.0091,-0.12742 0.0094,-0.19124 0.0021,-0.38291 -0.03424,-0.7653 -0.116784,-1.1396 -0.144606,-0.95588 -0.171781,-1.91528 -0.183497,-2.88068 -0.03534,-0.45275 -1.16e-4,-0.99787 -0.562234,-1.06076 -0.790294,0.008 -1.554588,0.26582 -2.3465,0.28446 0,0 2.558283,-1.8587 2.558283,-1.8587 z"
           inkscape:connector-curvature="0" />
        <path
           style="fill:#00002b;fill-opacity:1;stroke:none;stroke-width:0.90200001;stroke-miterlimit:4;stroke-dasharray:none;stroke-opacity:1"
           id="path886"
           d="m 113.66197,169.25372 c -0.0225,1.38819 -0.37697,2.73112 -0.75853,4.05588 -0.73257,2.14207 -1.53734,4.25857 -2.28754,6.39505 -0.47066,1.29755 -0.91967,2.60745 -1.2688,3.94368 -0.16452,0.75527 -0.25143,1.52514 -0.36261,2.28994 -0.0953,0.64229 -0.31827,1.24854 -0.56865,1.84362 -0.48236,1.39611 -3.31501,3.30574 -3.08707,1.17573 0.11201,-0.86529 0.14746,-1.73736 0.16946,-2.60876 0.009,-0.63725 0.0782,-1.05804 -0.56443,-1.33906 -0.80031,-0.189 -1.63509,-0.16482 -2.45256,-0.17045 -0.66582,-0.0375 -1.31774,0.0626 -1.92325,0.35163 -0.15435,0.0737 -0.593558,0.34011 -0.44387,0.25737 0.72827,-0.40256 1.45313,-0.81124 2.1797,-1.21686 -1.01841,0.67568 -1.72729,1.5933 -2.25987,2.67683 -0.342116,0.79798 -0.511547,1.52935 -0.008,2.28275 0.47076,0.49809 1.17513,0.48215 1.81326,0.52002 1.1086,0.0781 2.20147,-0.13763 3.28913,-0.31724 0.3453,-0.0464 0.6883,-0.10351 1.02728,-0.1835 0,0 -2.51913,1.90208 -2.51913,1.90208 v 0 c -0.32624,0.043 -0.6526,0.0853 -0.97773,0.13625 -1.10464,0.17102 -2.21567,0.34225 -3.337877,0.26764 -0.749657,-0.0512 -1.50082,-0.11156 -2.000335,-0.74461 -0.536316,-0.84856 -0.458676,-1.68046 -0.08066,-2.59101 0.503873,-1.12375 1.174134,-2.09752 2.188917,-2.82451 1.170425,-0.69658 2.927005,-2.12034 4.553485,-2.30885 0.27284,-0.0316 0.72917,-0.0226 1.00017,-0.0221 0.86122,0.009 1.76218,-0.0382 2.58207,0.26304 0.67093,0.4099 0.76353,0.8995 0.70936,1.65752 -0.0344,0.87065 -0.0749,1.74121 -0.13396,2.61057 -0.0159,0.23308 -0.017,0.36343 -0.0491,0.358 -0.0475,-0.008 -0.0457,-0.13767 -0.0881,-0.11469 -4.52896,2.45692 -2.993,2.34889 -2.43649,1.29396 0.24382,-0.58011 0.503,-1.15414 0.6154,-1.77884 0.11746,-0.77941 0.21176,-1.56355 0.37333,-2.33446 0.37268,-1.36812 0.8796,-2.69755 1.37844,-4.02352 0.77737,-2.11765 1.56419,-4.23376 2.28565,-6.37058 0.344,-1.26673 0.6989,-2.57171 0.62517,-3.8969 0,0 2.81755,-1.43562 2.81755,-1.43562 z"
           inkscape:connector-curvature="0" />
        <path
           inkscape:connector-curvature="0"
           d="m 113.30456,183.32977 c -0.0243,0.61188 -0.0176,1.22457 -0.0158,1.8368 0.0153,0.56155 -0.0245,1.12563 0.0274,1.68541 0.10207,0.60549 0.35046,1.1615 0.63359,1.70009 0.23815,0.42083 0.6405,0.49952 1.0849,0.54803 0.48075,-0.0149 0.93782,0.12845 1.40846,0.20143 0.49346,0.0648 0.99193,0.0713 1.48882,0.0776 0.0135,9e-5 0.51644,0.004 0.52894,0.002 0.22812,-0.0234 0.37556,-0.1486 0.56574,-0.26035 -0.8505,0.4856 -1.70101,0.9712 -2.55151,1.4568 0.31236,-0.23268 0.37315,-0.60597 0.41297,-0.96928 0.0325,-0.49267 0.0248,-0.98697 0.0231,-1.48041 -0.0385,-0.47565 0.0872,-0.98691 -0.091,-1.4402 -0.16881,-0.36725 -0.40154,-0.6895 -0.54279,-1.06979 -0.1293,-0.36001 -0.3615,-0.65113 -0.58776,-0.95169 -0.24761,-0.27989 -0.52706,-0.52854 -0.77675,-0.80618 -0.28876,-0.25117 -0.66446,-0.35181 -0.9767,-0.5739 -0.3054,-0.21726 -0.65526,-0.28954 -1.02015,-0.32297 -0.21308,0.0849 -0.46589,0.0843 -0.67662,0.17095 -0.0996,0.041 -0.18376,0.11298 -0.281,0.15916 0.85923,-0.48983 1.71571,-0.98452 2.57769,-1.46949 0.051,-0.0287 -0.0962,0.0668 -0.14422,0.10035 -0.1389,0.0971 -0.25815,0.23753 -0.40242,0.32348 -0.94331,0.56196 -1.89491,1.1099 -2.84236,1.66485 5.45752,-2.89443 2.57163,-1.89258 2.02439,-0.95533 -0.13061,0.32315 -0.1369,0.67757 -0.14105,1.02137 -5.3e-4,0.0625 -10e-4,0.12506 -0.002,0.18759 0,0 -2.81874,1.43475 -2.81874,1.43475 v 0 c -6e-5,-0.0634 -1.2e-4,-0.12691 -1.8e-4,-0.19037 0.007,-0.37728 -0.002,-0.75669 0.0831,-1.12718 0.0886,-0.29902 0.21236,-0.53209 0.48442,-0.6922 0.94526,-0.55628 1.88899,-1.11518 2.83348,-1.67278 -0.85474,0.50169 -1.70658,1.00833 -2.5642,1.50507 -0.0472,0.0273 0.0884,-0.0639 0.13217,-0.0964 0.14857,-0.11018 0.24951,-0.24811 0.40977,-0.34205 0.94893,-0.55619 1.90079,-1.10737 2.85119,-1.66106 0.32761,-0.14177 0.70054,-0.21251 1.05673,-0.18419 0.3992,0.0676 0.76965,0.20236 1.10186,0.44028 0.34403,0.20683 0.74062,0.33595 1.01808,0.63855 0.26341,0.27809 0.54293,0.54052 0.79198,0.83226 0.24796,0.32409 0.48564,0.65062 0.63152,1.03641 0.1332,0.37886 0.38069,0.69224 0.53839,1.06079 0.19962,0.49613 0.11991,1.02539 0.1348,1.55054 0.003,0.49937 0.0112,0.9989 -5.3e-4,1.4982 -0.0204,0.421 -0.0661,0.84393 -0.30085,1.20717 -2.03178,1.20438 -2.2542,1.87472 -4.02783,1.81924 -0.50876,-0.0113 -1.01933,-0.0266 -1.52219,-0.11172 -0.46653,-0.085 -0.92856,-0.17872 -1.40396,-0.19955 -0.52681,-0.10427 -0.9714,-0.30593 -1.23634,-0.80255 -0.29021,-0.57575 -0.54185,-1.16742 -0.68872,-1.79824 -0.0797,-0.56991 -0.0225,-1.14787 -0.0365,-1.72207 0.002,-0.60687 0.009,-1.21422 -0.0158,-1.82072 0,0 2.82424,-1.43902 2.82424,-1.43902 z"
           id="path894"
           style="fill:#00002b;fill-opacity:1;stroke:none;stroke-width:0.90200001;stroke-miterlimit:4;stroke-dasharray:none;stroke-opacity:1" />
      </g>
    </g>
  </g>
</svg>
